<?xml version="1.0" encoding="utf-8"?>
<!-- Generator: Adobe Illustrator 15.0.0, SVG Export Plug-In . SVG Version: 6.00 Build 0)  -->
<!DOCTYPE svg PUBLIC "-//W3C//DTD SVG 1.1//EN" "http://www.w3.org/Graphics/SVG/1.1/DTD/svg11.dtd">
<svg version="1.1" id="Capa_1" xmlns="http://www.w3.org/2000/svg" xmlns:xlink="http://www.w3.org/1999/xlink" x="0px" y="0px"
	 width="300px" height="300px" viewBox="0 0 300 300" enable-background="new 0 0 300 300" xml:space="preserve">
<g>
	<path fill="#A1DDE9" d="M291.586,175.275c-6.719-10.487-19.214-16.261-20.385-32.215c-1.49-20.317,18.711-53.987-14.353-73.354
		c-8.235-4.825-33.74-19.655-61.734-15.443c-37.136,5.586-29.264,36.966-79.951,31.674c-23.82-2.487-61.362-16.773-82.121,10.356
		c-11.743,15.347-7.82,28.96-7.429,41.261c0.953,30.011-31.781,45.647-16.58,75.299c5.828,11.369,19.278,23.846,31.376,28.194
		c23.504,8.448,48.688-6.923,70.356-12.424c31.362-7.962,47.96,9.691,70.389-0.322c20.341-9.083,27.755-28.733,59.018-19.996
		c7.68,2.146,15.196,6.227,23.227,6.819C281.572,216.466,303.567,193.979,291.586,175.275"/>
	<path fill="#1D9DBF" d="M65.798,178.54l10.526-1.816l10.755-9.097l-0.998-7.031c-4.852,6.894-18.449,10.317-21.51,11.014
		c-0.396,0.089-0.616,0.134-0.616,0.134L65.798,178.54z"/>
	<path fill="#A2D88A" d="M226.243,254.447H91.046c-1.776,0-3.429-0.531-4.806-1.444c-2.354-1.56-3.906-4.231-3.906-7.267V56.216
		c0-2.366,0.942-4.511,2.474-6.081c1.582-1.624,3.792-2.631,6.238-2.631h135.197c2.346,0,4.475,0.927,6.041,2.436
		c1.646,1.584,2.671,3.811,2.671,6.276v189.521c0,2.724-1.251,5.156-3.209,6.754C230.246,253.714,228.331,254.447,226.243,254.447"
		/>
	<rect x="93.283" y="59.766" fill="#A2D88A" width="133.993" height="187.879"/>
	<rect x="91.648" y="57.035" fill="#FFFFFF" width="133.993" height="187.882"/>
	<path fill="#43DAC4" d="M175.823,41.551c-1.432,0-2.662-0.942-3.124-2.298c-0.945-2.771-2.93-5.059-5.489-6.398
		c-1.567-0.82-3.353-1.285-5.246-1.285c-1.721,0-3.351,0.383-4.81,1.068c-2.771,1.3-4.929,3.688-5.927,6.615
		c-0.462,1.356-1.692,2.298-3.124,2.298h-4.812c-0.772,0-1.481,0.266-2.042,0.712c-0.754,0.6-1.237,1.527-1.237,2.567v15.586
		c0,1.172,0.613,2.2,1.539,2.78c0.504,0.316,1.101,0.5,1.74,0.5h37.343c1.075,0,2.031-0.518,2.629-1.318
		c0.408-0.547,0.65-1.227,0.65-1.962V44.83c0-0.843-0.317-1.612-0.841-2.193c-0.601-0.667-1.47-1.086-2.438-1.086H175.823z"/>
	<path fill="#1D9DBF" d="M140.012,57.036v3.381c0,1.171,0.615,2.2,1.539,2.779c0.505,0.317,1.101,0.5,1.741,0.5h37.343
		c1.075,0,2.031-0.518,2.629-1.318c0.408-0.546,0.65-1.226,0.65-1.961v-3.381H140.012z"/>
	<rect x="100.259" y="95.234" fill="#C6C6C6" width="71.664" height="2.205"/>
	<rect x="100.259" y="101.978" fill="#C6C6C6" width="71.664" height="2.205"/>
	<rect x="100.259" y="108.721" fill="#C6C6C6" width="61.705" height="2.205"/>
	<rect x="100.259" y="83.753" fill="#43DAC4" width="52.141" height="4.738"/>
	<path fill="#43DAC4" d="M209.158,110.837h-27.084V83.753h27.084V110.837z M183.768,109.145h23.699V85.446h-23.699V109.145z"/>
	<polygon fill="#A2D88A" points="186.389,96.337 194.418,106.947 214.792,81.536 194.418,98.423 189.688,91.857 	"/>
	<rect x="100.259" y="145.477" fill="#C6C6C6" width="71.664" height="2.205"/>
	<rect x="100.259" y="152.22" fill="#C6C6C6" width="71.664" height="2.205"/>
	<rect x="100.259" y="158.963" fill="#C6C6C6" width="61.705" height="2.204"/>
	<rect x="100.259" y="133.995" fill="#43DAC4" width="52.141" height="4.738"/>
	<path fill="#43DAC4" d="M209.158,161.078h-27.084v-27.083h27.084V161.078z M183.768,159.386h23.699v-23.699h-23.699V159.386z"/>
	<polygon fill="#A2D88A" points="186.389,146.579 194.418,157.188 214.792,131.778 194.418,148.665 189.688,142.1 	"/>
	<rect x="100.259" y="195.719" fill="#C6C6C6" width="71.664" height="2.204"/>
	<rect x="100.259" y="202.462" fill="#C6C6C6" width="71.664" height="2.204"/>
	<rect x="100.259" y="209.206" fill="#C6C6C6" width="61.705" height="2.202"/>
	<rect x="100.259" y="184.237" fill="#43DAC4" width="52.141" height="4.737"/>
	<path fill="#43DAC4" d="M209.158,211.321h-27.084v-27.084h27.084V211.321z M183.768,209.628h23.699V185.93h-23.699V209.628z"/>
	<polygon fill="#A2D88A" points="186.389,196.821 194.418,207.431 214.792,182.021 194.418,198.906 189.688,192.342 	"/>
	<path fill="#43DAC4" d="M141.125,263.297c0,0-2.798,0.303-4.614,2.439c-1.817,2.138-3.784,3.565-4.439,2.087
		s0.012-6.501,1.907-8.108s2.532-2.038,2.532-2.038l4.615,1.675L141.125,263.297z"/>
	<path fill="#43DAC4" d="M171.15,263.297c0,0,2.798,0.303,4.615,2.439c1.816,2.138,3.783,3.565,4.438,2.087
		s-0.012-6.501-1.907-8.108c-1.895-1.607-2.531-2.038-2.531-2.038l-4.616,1.675L171.15,263.297z"/>
	<path fill="#3C3C91" d="M180.836,252.635c-2.801-3.248-12.646-6.125-12.646-6.125l-12.052,1.003h-0.025l-14.406,0.21
		c0,0-7.491,1.664-10.291,4.912c-1.285,1.489-2.585,5.543,8.272,7.778c0.469,1.485,1.437,2.884,1.437,2.884
		s6.734-0.159,15.001-0.833c8.267,0.674,15,0.833,15,0.833s0.968-1.398,1.437-2.884C183.42,258.178,182.121,254.124,180.836,252.635
		"/>
	<path fill="#A2D88A" d="M152.597,220.566c0,0-9.828,3.494-10.812,4.257c-0.984,0.762-6.726,16.13-6.726,19.125
		c0,2.534,7.5,3.331,7.5,3.331l24.994-0.491c0,0,7.525-3.168,7.525-5.278c0-2.743-6.855-16.96-7.408-17.826
		c-0.554-0.867-12.732-3.164-12.732-3.164L152.597,220.566z"/>
	<path fill="#A2D88A" d="M146.138,232.496l-1.775-4.331l3.392,4.331H146.138z M163.491,232.496l1.775-4.331l-3.394,4.331H163.491z"
		/>
	<path fill="#FFCCA9" d="M175.079,241.51c0-1.155-1.216-4.345-2.665-7.714c-4.288,1.554-8.373,6.544-8.373,6.544
		s-11.275,2.085-14.351-0.812c-2.208-2.079-8.813-3.371-12.378-3.878c-1.244,3.614-2.253,7.042-2.253,8.298
		c0,2.534,7.501,3.331,7.501,3.331l24.993-0.491C167.554,246.788,175.079,243.62,175.079,241.51"/>
	<path fill="#EDB894" d="M157.026,217.729c0,0,0.623,4.452-0.912,5.729c-1.535,1.275-3.804-0.138-3.686-2.218
		c0.117-2.08,0.938-4.966,0.938-4.966L157.026,217.729z"/>
	<path fill="#FFCCA9" d="M145.911,212.165c2.384,6.012,8.593,8.419,14.368,6.899c6.641-1.749,5.819-10.871,3.436-16.883
		c-2.385-6.012-6.518-7.088-12.068-4.888C146.095,199.495,143.527,206.154,145.911,212.165"/>
	<path fill="#3C3C91" d="M164.255,200.98c0,0-4.366,2.051-7.413,0.481c-0.093-0.048-0.184-0.099-0.272-0.152
		c-3.052-1.848-2.07,6.206-4.845,6.551c-2.773,0.345-1.262,4.984-1.262,4.984s-2.238-0.008-2.199,1.279
		c0.062,2.006,1.673,2.984,3.723,2.563l0.458,2.235c0,0-5.632,0.257-7.646-3.425c-2.208-4.041-0.704-6.522-0.704-6.522
		s-2.551-2.547-1.241-6.594c1.238-3.824,5.114-4.06,5.114-4.06s-0.13-2.242,3.254-3.836c3.425-1.613,5.476,0.374,5.476,0.374
		s3.296-2.055,5.771,0.002c2.477,2.057,3.323,4.266,4.38,3.011c1.058-1.255,0.65-0.462,0.65-0.462S168.746,201.455,164.255,200.98"
		/>
	<path fill="#FFFFFF" d="M167.696,248.677h-25.158c-0.344,0-0.653-0.139-0.877-0.363c-0.225-0.225-0.363-0.534-0.363-0.877v-15.562
		c0-0.44,0.229-0.827,0.575-1.047c0.191-0.122,0.42-0.193,0.665-0.193h25.158c0.342,0,0.652,0.139,0.876,0.363
		c0.225,0.225,0.363,0.534,0.363,0.877v15.562c0,0.298-0.105,0.571-0.28,0.785C168.428,248.499,168.083,248.677,167.696,248.677"/>
	<path fill="#FFFFFF" d="M167.847,248.677h-25.46c-0.602,0-1.089,0.487-1.089,1.089v0.301c0,0.603,0.487,1.089,1.089,1.089h25.46
		c0.602,0,1.089-0.486,1.089-1.089v-0.301C168.936,249.164,168.448,248.677,167.847,248.677"/>
	<path fill="#2B2B6D" d="M156.539,262.498c-0.233-0.212-0.385-0.347-0.385-0.347l-16.466-1.738c0.469,1.485,1.437,2.884,1.437,2.884
		s6.734-0.159,15.001-0.833C156.266,262.477,156.4,262.486,156.539,262.498"/>
	<path fill="#2B2B6D" d="M172.563,260.413l0.736-2.668l-27.77-5.568c0,0,8.235,1.214,13.336,1.972s16.549,2.886,16.549,2.886
		l-1.244,3.012L172.563,260.413z"/>
	<path fill="#2B2B6D" d="M156.245,253.792c0.313,0.109,0.612,0.244,0.886,0.398l10.039-2.014
		C167.17,252.177,160.78,253.118,156.245,253.792"/>
	<path fill="#D8D8D8" d="M141.298,247.279v0.157c0,0.343,0.139,0.652,0.363,0.877c0.224,0.225,0.534,0.363,0.877,0.363h25.158
		c0.387,0,0.731-0.178,0.959-0.455c0.175-0.214,0.28-0.487,0.28-0.785v-0.157H141.298z"/>
	<path fill="#D8D8D8" d="M157.047,239.655c0,1.066-0.863,1.931-1.93,1.931s-1.931-0.864-1.931-1.931c0-1.065,0.864-1.93,1.931-1.93
		S157.047,238.59,157.047,239.655"/>
	<path fill="#1D9DBF" d="M257.227,137.419c-0.003-0.039-0.01-0.173-0.02-0.366c-0.046-0.859-0.147-2.896-0.147-2.896
		s6.081,3.77,8.057,6.285c1.977,2.515,0.959,6.152,0.959,6.152l-5.869,1.932"/>
	<path fill="#43DAC4" d="M264.893,204.575c0,0,0.274,1.083-0.566,1.266c-0.841,0.18-2.847,0.627-4.136,2.076
		c-1.289,1.45-0.893,3.382,0.423,3.479s10.881-2.299,11.073-3.39s-0.97-4.681-0.97-4.681l-4.242-1.146L264.893,204.575z"/>
	<path fill="#43DAC4" d="M247.745,202.18c0,0,0.17,1.774-0.937,2.756c-1.107,0.982-2.785-0.431-4.024,1.42
		c-1.24,1.853-1.174,3.347,0,3.557c1.173,0.21,11.803-1.132,12.188-2.238c0.387-1.108-0.937-6.281-0.937-6.281L247.745,202.18z"/>
	<path fill="#3C3C91" d="M250.92,162.583c0,0-0.094,0.186-0.261,0.523c-1.439,2.924-8.347,17.34-7.85,23.845
		c0.555,7.259,4.936,15.229,4.936,15.229s3.175,1.146,6.291-0.787c0,0-4.664-10.897-3.647-16.256
		c1.018-5.358,6.334-13.109,6.334-13.109s-1.318,10.082,1.692,16.774s6.478,15.773,6.478,15.773s4.08-0.03,5.824-1.25
		c0,0-5.799-14.849-5.677-19.745c0.124-4.896,3.524-14.401,2.522-18.761c-1.002-4.361-3.778-7.323-3.778-7.323l-12.504,5.087"/>
	<path fill="#A2D88A" d="M200.615,121.793l77.633,38.604c0.357,0.178,0.752,0.199,1.105,0.089c0.369-0.115,0.691-0.373,0.877-0.745
		l2.807-5.623c0.182-0.364,0.198-0.767,0.077-1.125c-0.12-0.357-0.378-0.671-0.743-0.854l-77.633-38.603L200.615,121.793z"/>
	<polygon fill="#FFBB99" points="204.738,113.537 193.856,113.262 200.615,121.793 	"/>
	<polygon fill="#A2D88A" points="196.803,113.336 195.687,115.572 193.856,113.261 	"/>
	<path fill="#A2D88A" d="M279.354,160.486c0.093-0.029,0.182-0.067,0.268-0.113l-77.695-41.205l-1.311,2.625l77.633,38.604
		C278.606,160.575,279,160.597,279.354,160.486"/>
	<path fill="#3C3C91" d="M239.701,115.557l-2.882,4.46c0,0,3.928,3.061,3.954,7.654c0.028,4.593-0.895,7.673,2.266,9.016
		c3.162,1.343,9.427,2.653,12.729-0.067c3.301-2.721,6.809-6.634,6.132-10.498s-2.646-6.105-4.622-9.856
		c-1.234-2.34-8.287-1.704-8.287-1.704L239.701,115.557z"/>
	<path fill="#43DAC4" d="M254.929,131.963c0,0,2.71,1.371,7.31,9.613c4.6,8.244,5.636,18.498,5.636,18.498
		s-8.219,5.854-20.827,3.471c0,0,0.512-14.438,0.782-18.737c0,0-17.867-0.361-22.087-13.958l3.857-1.779
		c0,0,6.229,12.369,19.583,8.296l3.253-3.041L254.929,131.963z"/>
	<path fill="#FFFFFF" d="M251.309,134.148c0,0-1.88,0.65-2.654,3.371l1.734-0.466c0,0-0.302,1.642,3.214,0s4.06-3.432,3.358-4.712
		c-0.701-1.279-1.746-0.711-1.746-0.711L251.309,134.148z"/>
	<path fill="#EDB894" d="M248.654,130.509c0,0,1.042,0.508,1.734,2.229c0.693,1.721-0.302,3.132,0.539,3.882
		c0.843,0.75,3.752-2.212,4.365-3.489c0.614-1.277-2.179-4.799-2.179-4.799L248.654,130.509z"/>
	<path fill="#FFCCA9" d="M256.443,119.078c1.749,5.403-1.107,10.506-5.868,12.708c-5.472,2.532-10.021-4.104-11.77-9.507
		s0.446-8.444,5.436-10.06C249.23,110.604,254.693,113.674,256.443,119.078"/>
	<path fill="#FFCCA9" d="M229.6,129.071c0,0,1.318-2.267,0.654-3.095s-1.207,1.238-1.856,0.833c-0.65-0.407-2.309-5.125-3.249-4.609
		c-0.939,0.516-3.218,4.509,0.594,8.65C225.742,130.85,227.728,131.63,229.6,129.071"/>
	<path fill="#3C3C91" d="M246.632,116.952c0,0,0.75,4.166-2.651,6.096c-3.403,1.93-7.161-1.413-7.161-3.03
		c0-1.618,2.056-7.067,5.765-8.66c4.319-1.856,6.816-1.614,9.168-0.652c3.034,1.243,5.525,5.561,5.525,5.561
		s0.483,6.171,0.317,6.964c-0.168,0.792-0.368,4.515-0.368,4.515l-2.712-4.542c0,0,0.686-3.261-0.705-3.186
		c-1.393,0.073-1.374,2.048-1.374,2.048S249.023,121.685,246.632,116.952"/>
	<path fill="#1D9DBF" d="M247.829,144.808c0,0,6.986,0.207,9.131-0.959c0,0-5.876,3.301-9.215,2.461L247.829,144.808z"/>
	<polygon fill="#2B2B6D" points="256.723,172.027 254.535,169.196 255.381,174.113 	"/>
	<path fill="#A2D88A" d="M25.651,254.022c0,0-2.611,0.358-2.611,2.094c0,1.18-1.699,7.403-3.41,7.692
		c-1.713,0.287-3.822-15.837-2.296-16.3c1.526-0.462,4.472-0.845,4.472-0.845l3.846,6.89"/>
	<path fill="#A2D88A" d="M89.184,254.372c0,0-0.084,2.346,2.498,2.885c2.603,0.544,7.283,2.161,7.996,4.231
		c0.607,1.762-13.214,1.655-16.913,1.775c-0.58,0.019-1.077-0.409-1.147-0.985l-0.557-4.553L89.184,254.372z"/>
	<path fill="#3C3C91" d="M47.724,205.865c0,0-0.817,33.792-25.918,40.799c0,0,0.926,5.022,3.846,7.358
		c0,0,28.496-8.409,31.649-34.757h5.255c0,0,12.132,15.302,18.505,38.461c0,0,5.771-0.559,8.124-3.354
		c0,0-5.373-24.992-17.534-43.327c-0.439-0.664-0.71-3.717-0.71-3.717S51.709,208.753,47.724,205.865"/>
	<path fill="#EDB894" d="M67.401,166.335c0,0-1.807,1.286-4.545,4.554l2.644,3.566l4.105,0.438c0,0-0.32-4.188,1.335-5.787
		L67.401,166.335z"/>
	<path fill="#FFCCA9" d="M62.766,160.753c0.206,5.891,4.797,9.859,10.221,10.322c6.236,0.534,8.326-7.549,8.121-13.439
		c-0.206-5.892-3.424-8.083-8.863-7.893C66.804,149.932,62.561,154.861,62.766,160.753"/>
	<path fill="#3C3C91" d="M66.463,164.707c-1.866,0-2.625-4.489-1.233-5.438c1.392-0.948,2.466,1.147,2.466,1.147
		s1.527-2.842,0.507-5.891c0,0,4.553,3.226,7.651,0.76c3.099-2.467,5.268,1.581,5.268,1.581s1.327-2.277,0-5.882
		c-1.329-3.604-5.9-5.531-10.959-4.835c-5.059,0.696-5.122,4.835-5.122,4.835s-3.58,0.38-4.655,4.175
		c-1.074,3.793,2.223,8.303,2.374,10.434c0.151,2.13-1.323,1.354-1.323,1.354s2.805,2.985,4.627,1.859
		C67.886,167.68,66.463,164.707,66.463,164.707"/>
	<path fill="#43DAC4" d="M100.1,168.458c-9.792,5.177-24.981,5.281-29.792,5.172l0.255-1.4l-7.243-2.77l-0.464,1.429
		c-12.644,11.05-15.131,34.977-15.131,34.977c7.973,3.584,23.216,1.463,23.216,1.463c0.401-6.364,0.558-25.39,0.558-25.39
		c18.653-2.437,29.3-7.752,29.3-7.752C101.421,171.314,100.1,168.458,100.1,168.458"/>
	<path fill="#FFCCA9" d="M100.1,168.458c0,0,2.227-3.637,3.113-3.505s-0.656,2.857-0.329,3.252c0.329,0.394,4.402-2.642,5.093-1.501
		c0.689,1.14,1.576,6.658-7.179,7.482C100.798,174.187,99.221,171.698,100.1,168.458"/>
	<polygon fill="#1D9DBF" points="71.498,181.938 67.678,182.327 71.473,184.562 	"/>
	<polygon fill="#2B2B6D" points="64.19,221.498 65.353,216.932 62.556,219.266 	"/>
	<polygon fill="#A2D88A" points="276.373,208.165 272.623,208.165 252.714,208.165 249.034,208.165 248.649,208.165 
		248.649,260.413 252.714,260.413 252.714,212.085 272.623,212.085 272.623,260.413 276.688,260.413 276.688,208.165 	"/>
	<polygon fill="#A2D88A" points="265.589,208.165 261.84,208.165 241.931,208.165 238.25,208.165 237.865,208.165 237.865,260.413 
		241.931,260.413 241.931,212.085 261.84,212.085 261.84,260.413 265.905,260.413 265.905,208.165 	"/>
</g>
</svg>
