<?xml version="1.0" encoding="utf-8"?>
<!-- Generator: Adobe Illustrator 15.0.0, SVG Export Plug-In . SVG Version: 6.00 Build 0)  -->
<!DOCTYPE svg PUBLIC "-//W3C//DTD SVG 1.1//EN" "http://www.w3.org/Graphics/SVG/1.1/DTD/svg11.dtd">
<svg version="1.1" id="Capa_1" xmlns="http://www.w3.org/2000/svg" xmlns:xlink="http://www.w3.org/1999/xlink" x="0px" y="0px"
	 width="300px" height="300px" viewBox="0 0 300 300" enable-background="new 0 0 300 300" xml:space="preserve">
<g>
	<g>
	</g>
	<g>
	</g>
	<g>
		<g>
			<g>
				<defs>
					<rect id="SVGID_1_" x="10" y="270.697" width="256.566" height="19.736"/>
				</defs>
				<clipPath id="SVGID_2_">
					<use xlink:href="#SVGID_1_"  overflow="visible"/>
				</clipPath>
				<g clip-path="url(#SVGID_2_)">
					<defs>
						<path id="SVGID_3_" d="M266.566,280.565c0,5.45-57.435,9.868-128.283,9.868c-70.85,0-128.283-4.418-128.283-9.868
							c0-5.449,57.434-9.868,128.283-9.868C209.132,270.697,266.566,275.116,266.566,280.565"/>
					</defs>
					<clipPath id="SVGID_4_">
						<use xlink:href="#SVGID_3_"  overflow="visible"/>
					</clipPath>
					<defs>
						<filter id="Adobe_OpacityMaskFilter" filterUnits="userSpaceOnUse" x="9.999" y="270.698" width="256.8" height="19.92">
							<feColorMatrix  type="matrix" values="1 0 0 0 0  0 1 0 0 0  0 0 1 0 0  0 0 0 1 0"/>
						</filter>
					</defs>
					<mask maskUnits="userSpaceOnUse" x="9.999" y="270.698" width="256.8" height="19.92" id="SVGID_5_">
						<g filter="url(#Adobe_OpacityMaskFilter)">
							<g>
								<g>
									<defs>
										<rect id="SVGID_6_" x="9.999" y="270.698" width="256.567" height="19.735"/>
									</defs>
									<clipPath id="SVGID_7_" clip-path="url(#SVGID_4_)">
										<use xlink:href="#SVGID_6_"  overflow="visible"/>
									</clipPath>
									<g transform="matrix(1 0 0 1 -3.973255e-007 -9.909563e-007)" clip-path="url(#SVGID_7_)">
										
											<image overflow="visible" width="1070" height="83" xlink:href="94C6E71D.jpg"  transform="matrix(0.24 0 0 0.24 9.999 270.6982)">
										</image>
									</g>
								</g>
							</g>
						</g>
					</mask>
					<g clip-path="url(#SVGID_4_)" mask="url(#SVGID_5_)">
						<defs>
							<filter id="Adobe_OpacityMaskFilter_1_" filterUnits="userSpaceOnUse" x="9.999" y="270.698" width="256.8" height="19.92">
								<feColorMatrix  type="matrix" values="1 0 0 0 0  0 1 0 0 0  0 0 1 0 0  0 0 0 1 0"/>
							</filter>
						</defs>
						<mask maskUnits="userSpaceOnUse" x="9.999" y="270.698" width="256.8" height="19.92" id="SVGID_5_">
							<g filter="url(#Adobe_OpacityMaskFilter_1_)">
								<rect x="9" y="269.699" width="258.567" height="21.735"/>
								<g enable-background="new    ">
									<g>
										<defs>
											<rect id="SVGID_8_" x="9.999" y="270.699" width="256.567" height="19.735"/>
										</defs>
										<clipPath id="SVGID_9_">
											<use xlink:href="#SVGID_8_"  overflow="visible"/>
										</clipPath>
										<g transform="matrix(1 0 0 1 -3.973255e-007 8.774630e-006)" clip-path="url(#SVGID_9_)">
											
												<image overflow="visible" width="1070" height="83" xlink:href="94C6E71F.jpg"  transform="matrix(0.24 0 0 0.24 9.999 270.6992)">
											</image>
										</g>
									</g>
								</g>
							</g>
						</mask>
						<g>
							<g>
								<defs>
									<rect id="SVGID_10_" x="9.999" y="270.698" width="256.567" height="19.735"/>
								</defs>
								<clipPath id="SVGID_11_">
									<use xlink:href="#SVGID_10_"  overflow="visible"/>
								</clipPath>
								<defs>
									
										<filter id="Adobe_OpacityMaskFilter_2_" filterUnits="userSpaceOnUse" x="9.999" y="270.698" width="256.8" height="19.92">
										<feColorMatrix  type="matrix" values="1 0 0 0 0  0 1 0 0 0  0 0 1 0 0  0 0 0 1 0"/>
									</filter>
								</defs>
								<mask maskUnits="userSpaceOnUse" x="9.999" y="270.698" width="256.8" height="19.92" id="SVGID_5_">
									<g filter="url(#Adobe_OpacityMaskFilter_2_)">
										<g>
											<defs>
												<rect id="SVGID_12_" x="9.999" y="270.698" width="256.567" height="19.735"/>
											</defs>
											<clipPath id="SVGID_13_" clip-path="url(#SVGID_11_)">
												<use xlink:href="#SVGID_12_"  overflow="visible"/>
											</clipPath>
											<g transform="matrix(1 0 0 1 -3.973255e-007 -9.909563e-007)" clip-path="url(#SVGID_13_)">
												
													<image overflow="visible" width="1070" height="83" xlink:href="94C6E71A.jpg"  transform="matrix(0.24 0 0 0.24 9.999 270.6982)">
												</image>
											</g>
										</g>
									</g>
								</mask>
								<g transform="matrix(1 0 0 1 -3.973255e-007 -9.909563e-007)" clip-path="url(#SVGID_11_)">
									
										<image overflow="visible" width="1070" height="83" xlink:href="94C6E71B.jpg"  transform="matrix(0.24 0 0 0.24 9.999 270.6982)">
									</image>
								</g>
							</g>
						</g>
					</g>
				</g>
			</g>
		</g>
		<path fill="#FFFFFF" d="M177.04,96.899l-4.967-47.821c-21.761,17.366-48.865,21.143-48.865,21.143l0.022,0.254
			c-4.123,0.37-7.439,3.818-7.637,8.208c-0.215,4.805,3.385,8.905,8.041,9.16c0.539,0.029,1.068,0,1.584-0.071
			C161.888,89.49,177.04,96.899,177.04,96.899"/>
		<path fill="#62A795" d="M138.104,246.245c0,0-11.302,35.127-62.834,30.907c0,0,38.458-35.356,8.096-55.716
			C83.365,221.437,135.342,223.221,138.104,246.245"/>
	</g>
	<g>
		<defs>
			<path id="SVGID_14_" d="M227.646,85.207L77.018,88.855c-17.773,0.431-31.324,16.057-29.234,33.711l11.775,99.553
				c1.83,15.467,15.128,26.998,30.697,26.622l131.909-3.196c15.569-0.377,28.293-12.54,29.372-28.076l6.944-100.006
				c1.213-17.486-12.661-32.266-30.085-32.266C228.147,85.198,227.896,85.201,227.646,85.207"/>
		</defs>
		<clipPath id="SVGID_15_">
			<use xlink:href="#SVGID_14_"  overflow="visible"/>
		</clipPath>
		
			<rect x="61.073" y="52.95" transform="matrix(-0.0937 0.9956 -0.9956 -0.0937 333.4171 30.79)" clip-path="url(#SVGID_15_)" fill="#B2D78D" width="183.242" height="228.413"/>
	</g>
	<g>
		<defs>
			<path id="SVGID_16_" d="M216.042,76.133l-148.79,23.75c-17.555,2.802-28.896,20.1-24.465,37.316l24.979,97.086
				c3.88,15.083,18.602,24.733,33.979,22.279l130.298-20.8c15.379-2.454,26.362-16.209,25.355-31.751l-6.486-100.036
				C249.868,87.871,236.45,75.75,220.85,75.75C219.266,75.75,217.66,75.876,216.042,76.133"/>
		</defs>
		<clipPath id="SVGID_17_">
			<use xlink:href="#SVGID_16_"  overflow="visible"/>
		</clipPath>
		
			<rect x="43.379" y="46.506" transform="matrix(0.1284 0.9917 -0.9917 0.1284 295.3319 -1.2567)" clip-path="url(#SVGID_17_)" fill="#6DAFA5" width="210.003" height="241.756"/>
	</g>
	<g>
		<path fill="#62A795" d="M101.745,256.565l130.298-20.8c15.379-2.454,26.362-16.209,25.355-31.75l-6.486-100.037
			c-0.619-9.549-5.59-17.689-12.781-22.742L80.654,252.134C86.705,256.029,94.144,257.778,101.745,256.565"/>
		<circle fill="none" stroke="#FFFFFF" stroke-width="0.883" stroke-miterlimit="10" cx="241.412" cy="49.147" r="9.615"/>
		<circle fill="none" stroke="#FFFFFF" stroke-width="0.386" stroke-miterlimit="10" cx="65.027" cy="44.039" r="4.207"/>
		<path fill="#62A795" d="M84.559,77.393c0,0.332-0.27,0.6-0.601,0.6c-0.333,0-0.601-0.269-0.601-0.6
			c0-0.333,0.268-0.602,0.601-0.602C84.289,76.791,84.559,77.06,84.559,77.393"/>
		<path fill="#FFFFFF" d="M212.565,45.541c0,1.66-1.345,3.005-3.005,3.005c-1.658,0-3.004-1.346-3.004-3.005
			c0-1.659,1.346-3.005,3.004-3.005C211.221,42.536,212.565,43.882,212.565,45.541"/>
		<path fill="#849B68" d="M162.085,18.497c0,1.66-1.348,3.005-3.006,3.005c-1.661,0-3.004-1.346-3.004-3.005
			c0-1.659,1.343-3.005,3.004-3.005C160.737,15.492,162.085,16.838,162.085,18.497"/>
		<path fill="#FFFFFF" d="M101.387,45.541c0,1.66-1.346,3.005-3.006,3.005c-1.659,0-3.004-1.346-3.004-3.005
			c0-1.659,1.345-3.005,3.004-3.005C100.041,42.536,101.387,43.882,101.387,45.541"/>
		<path fill="#62A795" d="M177.108,19.699c0,0.663-0.538,1.202-1.202,1.202c-0.663,0-1.203-0.539-1.203-1.202
			c0-0.665,0.54-1.202,1.203-1.202C176.57,18.497,177.108,19.035,177.108,19.699"/>
		<path fill="#62A795" d="M211.363,58.762c0,0.996-0.807,1.803-1.803,1.803c-0.995,0-1.803-0.807-1.803-1.803
			c0-0.995,0.808-1.802,1.803-1.802C210.557,56.959,211.363,57.767,211.363,58.762"/>
		<polygon fill="#62A795" points="38.41,72.161 47.899,81.614 47.887,69.543 		"/>
		<polygon fill="#62A795" points="268.44,72.667 259.307,82.463 271.37,82.05 		"/>
		<polygon fill="#849B68" points="287.404,254.019 251.617,243.07 269.728,265.148 		"/>
		<polygon fill="#849B68" points="287.068,81.079 265.451,92.417 290,90.463 		"/>
		<polygon fill="#849B68" points="20.34,72.406 39.67,87.315 15.83,81.141 		"/>
		<polygon fill="#849B68" points="38.354,244.748 68.279,254.729 47.412,263.38 		"/>
		<polygon fill="#62A795" points="257.926,262.296 241.585,249.77 248.995,266.411 		"/>
		<polygon fill="#62A795" points="52.566,268.611 73.729,265.491 58.45,276.543 		"/>
		<path fill="#FFFFFF" d="M223.382,99.628c0,1.328-1.074,2.403-2.403,2.403c-1.326,0-2.403-1.076-2.403-2.403
			c0-1.328,1.077-2.404,2.403-2.404C222.308,97.224,223.382,98.3,223.382,99.628"/>
		<path fill="#FFFFFF" d="M251.026,141.696c0,1.328-1.074,2.403-2.403,2.403c-1.327,0-2.404-1.076-2.404-2.403
			c0-1.328,1.077-2.404,2.404-2.404C249.952,139.292,251.026,140.368,251.026,141.696"/>
		<path fill="#849B68" d="M92.371,115.253c0,1.328-1.076,2.404-2.404,2.404c-1.326,0-2.402-1.076-2.402-2.404
			c0-1.328,1.076-2.404,2.402-2.404C91.295,112.85,92.371,113.925,92.371,115.253"/>
		<path fill="#FFFFFF" d="M54.51,146.504c0,1.328-1.076,2.404-2.403,2.404s-2.403-1.076-2.403-2.404
			c0-1.329,1.076-2.405,2.403-2.405S54.51,145.175,54.51,146.504"/>
		<path fill="#FFFFFF" d="M103.79,221.024c0,1.327-1.077,2.403-2.403,2.403c-1.328,0-2.404-1.076-2.404-2.403
			c0-1.328,1.076-2.404,2.404-2.404C102.713,218.62,103.79,219.696,103.79,221.024"/>
		<path fill="#FFFFFF" d="M187.325,215.015c0,1.328-1.076,2.403-2.404,2.403c-1.327,0-2.403-1.075-2.403-2.403
			s1.076-2.403,2.403-2.403C186.249,212.611,187.325,213.687,187.325,215.015"/>
		<path fill="#FFFFFF" d="M160.281,233.044c0,1.326-1.076,2.403-2.404,2.403c-1.327,0-2.403-1.077-2.403-2.403
			c0-1.328,1.076-2.403,2.403-2.403C159.205,230.641,160.281,231.716,160.281,233.044"/>
		<polygon fill="#62A795" points="83.033,228.246 80.953,215.015 73.839,224.766 		"/>
		<polygon fill="#62A795" points="61.459,138.026 74.836,138.713 66.758,129.744 		"/>
		<polygon fill="#62A795" points="243.997,195.512 230.607,195.169 238.913,203.928 		"/>
		<polygon fill="#62A795" points="145.613,218.394 157.653,224.263 153.731,212.848 		"/>
		<polygon fill="#62A795" points="224.241,132.142 231.876,143.148 234.035,131.273 		"/>
		<circle fill="none" stroke="#FFFFFF" stroke-width="0.717" stroke-miterlimit="10" cx="68.934" cy="175.952" r="3.906"/>
		<circle fill="none" stroke="#FFFFFF" stroke-width="0.552" stroke-miterlimit="10" cx="237.506" cy="176.252" r="3.005"/>
		<circle fill="none" stroke="#FFFFFF" stroke-width="0.552" stroke-miterlimit="10" cx="212.867" cy="222.526" r="3.005"/>
		<circle fill="none" stroke="#FFFFFF" stroke-width="0.552" stroke-miterlimit="10" cx="115.509" cy="236.949" r="3.005"/>
		<g opacity="0.2">
			<g>
				<defs>
					<rect id="SVGID_18_" x="110.844" y="40.285" width="77.886" height="77.886"/>
				</defs>
				<clipPath id="SVGID_19_">
					<use xlink:href="#SVGID_18_"  overflow="visible"/>
				</clipPath>
				<path clip-path="url(#SVGID_19_)" fill="#849B68" d="M188.684,77.376c-0.004-0.076-0.006-0.154-0.01-0.229
					c-0.031-0.58-0.077-1.156-0.133-1.729c-0.009-0.105-0.02-0.207-0.031-0.311c-0.059-0.561-0.128-1.118-0.211-1.672
					c-0.016-0.105-0.033-0.211-0.051-0.316c-0.088-0.557-0.185-1.109-0.295-1.657c-0.017-0.086-0.036-0.17-0.055-0.256
					c-0.113-0.537-0.234-1.072-0.368-1.599c-0.014-0.055-0.027-0.111-0.042-0.167c-0.137-0.529-0.288-1.054-0.447-1.574
					c-0.033-0.112-0.067-0.225-0.104-0.337c-0.154-0.494-0.322-0.984-0.495-1.469c-0.051-0.139-0.101-0.278-0.151-0.416
					c-0.175-0.467-0.358-0.932-0.549-1.391c-0.062-0.147-0.125-0.294-0.188-0.439c-0.194-0.452-0.396-0.901-0.607-1.343
					c-0.065-0.14-0.136-0.277-0.205-0.416c-0.181-0.368-0.367-0.733-0.56-1.094c-0.099-0.185-0.197-0.368-0.299-0.551
					c-0.197-0.354-0.398-0.705-0.605-1.052c-0.101-0.17-0.201-0.341-0.305-0.509c-0.229-0.374-0.468-0.741-0.708-1.106
					c-0.123-0.185-0.248-0.37-0.372-0.551c-0.241-0.349-0.486-0.694-0.736-1.034c-0.14-0.188-0.281-0.374-0.423-0.56
					c-0.2-0.262-0.402-0.521-0.609-0.775c-0.203-0.253-0.41-0.501-0.619-0.749c-0.179-0.213-0.362-0.423-0.547-0.631
					c-0.237-0.269-0.479-0.534-0.725-0.797c-0.19-0.203-0.382-0.404-0.575-0.604c-0.19-0.191-0.378-0.385-0.57-0.574
					c-0.271-0.266-0.545-0.527-0.823-0.783c-0.195-0.185-0.395-0.365-0.596-0.544c-0.288-0.254-0.579-0.508-0.873-0.755
					c-6.767-5.676-15.485-9.099-25.009-9.099c-21.508,0-38.942,17.436-38.942,38.943c0,13.218,6.591,24.891,16.661,31.931
					c0.12,0.083,0.237,0.172,0.358,0.255c0.321,0.218,0.651,0.428,0.979,0.638c0.182,0.116,0.361,0.235,0.545,0.348
					c0.307,0.19,0.62,0.37,0.934,0.551c0.213,0.123,0.424,0.249,0.641,0.368c0.3,0.167,0.605,0.324,0.91,0.482
					c0.236,0.123,0.471,0.247,0.71,0.364c0.298,0.147,0.599,0.287,0.9,0.427c0.255,0.118,0.51,0.234,0.768,0.346
					c0.295,0.129,0.593,0.253,0.892,0.375c0.271,0.11,0.544,0.218,0.818,0.322c0.293,0.112,0.59,0.22,0.887,0.325
					c0.287,0.101,0.576,0.199,0.866,0.294c0.292,0.095,0.585,0.187,0.879,0.275c0.304,0.091,0.608,0.176,0.915,0.26
					c0.289,0.078,0.578,0.157,0.871,0.229c0.319,0.08,0.642,0.151,0.965,0.224c0.284,0.062,0.567,0.127,0.854,0.184
					c0.34,0.067,0.683,0.125,1.026,0.183c0.275,0.046,0.55,0.097,0.828,0.137c0.366,0.055,0.735,0.097,1.105,0.141
					c0.259,0.031,0.518,0.066,0.779,0.092c0.419,0.041,0.84,0.069,1.261,0.095c0.217,0.016,0.433,0.035,0.65,0.046
					c0.643,0.031,1.289,0.049,1.939,0.049c21.508,0,38.942-17.435,38.942-38.942C188.729,78.607,188.712,77.99,188.684,77.376"/>
			</g>
		</g>
		<path fill="#FFFFFF" d="M188.888,75.795c0,21.509-17.436,38.943-38.943,38.943s-38.942-17.435-38.942-38.943
			c0-21.508,17.435-38.942,38.942-38.942S188.888,54.287,188.888,75.795"/>
		<path fill="#849B68" d="M128.354,79.454c-0.114,2.559-2.217,4.523-4.697,4.388c-2.479-0.136-4.396-2.32-4.281-4.879
			c0.115-2.558,2.218-4.522,4.697-4.386C126.553,74.712,128.469,76.895,128.354,79.454"/>
		<path fill="#849B68" d="M121.229,78.962c0.097-2.144,1.591-3.866,3.53-4.289c-0.225-0.049-0.452-0.085-0.688-0.098
			c-2.479-0.136-4.582,1.829-4.697,4.386c-0.115,2.559,1.802,4.743,4.281,4.879c0.402,0.021,0.791-0.017,1.166-0.1
			C122.688,83.282,121.125,81.278,121.229,78.962"/>
		<path fill="#849B68" d="M182.936,74.103c-0.165,3.707-3.212,6.551-6.804,6.355s-6.369-3.359-6.202-7.065
			c0.165-3.707,3.212-6.551,6.806-6.355C180.325,67.233,183.103,70.397,182.936,74.103"/>
		<path fill="#849B68" d="M176.735,67.036c-0.682-0.036-1.344,0.036-1.968,0.203c2.948,0.778,5.069,3.611,4.924,6.864
			c-0.136,3.004-2.162,5.441-4.837,6.152c0.411,0.109,0.837,0.179,1.277,0.203c3.592,0.196,6.639-2.648,6.804-6.355
			C183.103,70.397,180.325,67.233,176.735,67.036"/>
		<path fill="#BFC8FF" d="M171.218,92.235l-3.832-36.891C150.599,68.74,129.69,71.655,129.69,71.655l0.018,0.196
			c-3.181,0.286-5.739,2.945-5.892,6.331c-0.166,3.707,2.611,6.87,6.202,7.067c0.417,0.022,0.825,0,1.224-0.056
			C159.528,86.519,171.218,92.235,171.218,92.235"/>
		<path fill="#E8EBFF" d="M130.635,77.414l-0.017-0.196c0,0,20.642-2.878,37.372-16.057l-0.604-5.817
			C150.599,68.74,129.69,71.655,129.69,71.655l0.018,0.196c-3.181,0.286-5.739,2.945-5.892,6.331
			c-0.068,1.526,0.368,2.957,1.148,4.129C125.664,79.634,127.921,77.657,130.635,77.414"/>
		<path fill="#BFC8FF" d="M170.436,84.716c-4.734-1.693-16.572-5.081-37.521-6.063c-0.398,0.056-0.807,0.078-1.223,0.056
			c-2.881-0.158-5.234-2.226-5.968-4.95c-1.11,1.133-1.829,2.68-1.907,4.423c-0.166,3.707,2.611,6.87,6.203,7.067
			c0.416,0.022,0.824,0,1.223-0.054c28.286,1.325,39.976,7.039,39.976,7.039L170.436,84.716z"/>
		<path fill="#849B68" d="M174.407,93.767L174.407,93.767c-1.657,0.172-3.138-1.03-3.31-2.685l-3.641-35.045
			c-0.172-1.655,1.031-3.137,2.686-3.309c1.656-0.172,3.137,1.031,3.31,2.687l3.641,35.045
			C177.264,92.114,176.062,93.596,174.407,93.767"/>
		<path fill="#849B68" d="M177.104,90.57l-3.664-35.268c-0.164-1.581-1.569-2.731-3.147-2.588c0.701,0.463,1.199,1.223,1.293,2.125
			l3.663,35.268c0.167,1.594-0.992,3.021-2.586,3.186l-0.224,0.022c-0.011,0.001-0.025,0.001-0.038,0.002
			c0.54,0.355,1.199,0.533,1.894,0.462l0.223-0.024C176.111,93.59,177.27,92.163,177.104,90.57"/>
		<path fill="#849B68" d="M140.191,97.574c-0.139-1.343-0.844-2.489-1.849-3.236l-0.025-0.248c1.294-0.94,2.069-2.522,1.892-4.228
			s-1.261-3.095-2.721-3.749l-0.543-5.234l-8.301,0.862l2.73,26.284l1.795-0.186c3.428-0.355,5.955-3.301,5.855-6.691
			C139.869,100.207,140.333,98.931,140.191,97.574"/>
		<path fill="#849B68" d="M138.343,94.336l-0.026-0.245c1.295-0.941,2.07-2.524,1.893-4.229s-1.261-3.095-2.72-3.75l-0.544-5.232
			l-2.104,0.218l0.329,3.161c1.46,0.655,2.543,2.042,2.72,3.75c0.178,1.706-0.598,3.288-1.891,4.229l0.025,0.245
			c1.005,0.749,1.709,1.895,1.849,3.237c0.142,1.356-0.321,2.633-1.167,3.575c0.097,3.286-2.278,6.147-5.549,6.643l0.217,2.087
			l1.795-0.186c3.428-0.357,5.955-3.301,5.855-6.692c0.844-0.94,1.308-2.216,1.166-3.573
			C140.053,96.23,139.348,95.084,138.343,94.336"/>
		<path fill="#849B68" d="M138.234,88.668l-0.95,0.099c-4.831,0.502-9.155-3.007-9.656-7.838l-0.435-4.179
			c-0.5-4.83,3.008-9.153,7.839-9.656l0.95-0.099c4.832-0.501,9.155,3.008,9.656,7.839l0.434,4.178
			C146.574,83.844,143.066,88.167,138.234,88.668"/>
		<path fill="#849B68" d="M137.006,66.889l-2.996,0.312c-4.266,0.443-7.365,4.26-6.922,8.526l0.152,1.471
			c4.919-0.213,14.09-2.797,18.193-4.021C144.697,69.244,141.057,66.47,137.006,66.889"/>
		<path fill="#849B68" d="M136.261,88.874l2.997-0.312c4.266-0.442,7.365-4.26,6.922-8.525l-0.041-0.397
			c-3.457-0.501-12.693-1.743-18.823-1.721l0.419,4.034C128.178,86.218,131.994,89.317,136.261,88.874"/>
		<line fill="none" stroke="#849B68" stroke-width="3" stroke-miterlimit="10" x1="192.133" y1="64.171" x2="209.861" y2="52.452"/>
		<line fill="none" stroke="#849B68" stroke-width="3" stroke-miterlimit="10" x1="193.065" y1="71.083" x2="210.463" y2="68.679"/>
		<line fill="none" stroke="#849B68" stroke-width="3" stroke-miterlimit="10" x1="193.065" y1="77.092" x2="212.866" y2="80.697"/>
	</g>
</g>
<g>
	<path fill="#FFFFFF" d="M93.616,155.817c0.463,3.174-1.317,6.008-4.678,6.497c-3.268,0.477-5.876-1.717-6.339-4.892
		c-0.503-3.454,1.478-6.222,4.745-6.698C90.611,150.249,93.112,152.362,93.616,155.817z M92.065,215.162l-5.185-44.728l6.349-0.925
		l7.799,44.346L92.065,215.162z"/>
	<path fill="#FFFFFF" d="M139.915,159.461l-24.369,3.553l3.308,22.688l27.263-3.975l0.994,6.815l-35.479,5.173l-9.174-62.93
		l34.08-4.968l0.994,6.815l-25.864,3.771l2.899,19.887l24.369-3.553L139.915,159.461z"/>
	<path fill="#FFFFFF" d="M147.716,120.756l8.216-1.198l4.124,28.29l0.187-0.027c0.968-2.525,2.709-4.972,5.025-6.74
		c2.223-1.755,4.995-3.017,8.076-3.466c6.068-0.884,16.323,1.435,18.583,16.934l3.92,26.89l-8.216,1.198l-3.784-25.957
		c-1.062-7.282-4.654-12.957-12.404-11.827c-5.32,0.776-8.886,5.109-9.832,9.73c-0.291,1.281-0.207,2.509,0.011,4.003l3.975,27.263
		l-8.216,1.197L147.716,120.756z"/>
	<path fill="#FFFFFF" d="M206.914,174.962c-0.489-3.361,1.491-6.129,4.759-6.605s5.769,1.639,6.259,4.999
		c0.477,3.269-1.303,6.102-4.758,6.605C209.999,180.424,207.391,178.229,206.914,174.962z M207.316,161.363l-7.855-44.718
		l8.964-1.307l5.24,45.099L207.316,161.363z"/>
</g>
</svg>
