<?xml version="1.0" encoding="utf-8"?>
<!-- Generator: Adobe Illustrator 18.0.0, SVG Export Plug-In . SVG Version: 6.00 Build 0)  -->
<!DOCTYPE svg PUBLIC "-//W3C//DTD SVG 1.1//EN" "http://www.w3.org/Graphics/SVG/1.1/DTD/svg11.dtd">
<svg version="1.1" id="ae7ad495-543d-4c4b-9483-8059c5566fe6"
	 xmlns="http://www.w3.org/2000/svg" xmlns:xlink="http://www.w3.org/1999/xlink" x="0px" y="0px" viewBox="0 0 1400 1700"
	 enable-background="new 0 0 1400 1700" xml:space="preserve">
<title>personalization</title>
<g>
	<g>
		<g>
			<g>
				<g>
					<path fill="#CFD1D1" d="M1099.3,985.2c0,0,54.2-92.2,77.4-183.5L1207,816c0,0-20.3,86.3-91.4,176.8L1099.3,985.2z"/>
					<g>
						<polygon fill="#CFD1D1" points="1104.4,1006.1 1118.4,989.3 1105.4,976.7 1096.7,987.2 						"/>
						<g>
							<g>
								<path fill="#CFD1D1" d="M1087.9,997.6l-7.1,8.3c-6.5-5.1,3.5-14.2,3.5-14.2s13.6-10.4,24.4,2c3.5,3.9-3.2,16.9-3.2,16.9
									c-3.5,4.5-10.2,10.2-10.2,10.2c-3.3,2.2-5.3-1.8-5.3-1.8c-3.9,2-4.5-2.4-4.5-2.4c-4.3,1-3.7-3.3-3.7-3.3
									c-5.3,0.6-3.9-4.9-3.9-4.9L1087.9,997.6z"/>
							</g>
						</g>
					</g>
				</g>
				<path fill="#0F3D5C" d="M1159.8,819.4c7.3,8.7,15,15.8,27.4,20.1c6.1,2,12.8,4.1,19.7,5.3c18.1-47.3,26.2-85.3,27.2-94.7
					c0,0,1.2-28.8-28.2-26.2c0,0-33.7-0.6-39.2,38.4C1166.4,762.3,1167.2,783.7,1159.8,819.4z"/>
			</g>
			<polygon fill="#7F848A" points="1188.7,919.8 1206.6,1364.3 1234.6,1364.3 1281.5,919.8 			"/>
			<path fill="#004288" d="M1206.6,1359.9l-47.5,12.2c0,0-6.1,1.8-6.1,10.4h81.5l-1.2-22.4h-26.8V1359.9z"/>
			<path fill="#004288" d="M1295.8,1357.8l-47.5,12.2c0,0-6.1,1.8-6.1,10.2h81.5l-1.2-22.4H1295.8z"/>
			<polygon fill="#7F848A" points="1188.7,934.4 1238.1,1026.7 1248.6,1155.7 1291.3,1359.9 1324.2,1359.9 1297.8,1140 
				1317.1,934.4 			"/>
			<g>
				<rect x="1237.3" y="673.7" fill="#CFD1D1" width="32.9" height="43.9"/>
			</g>
			<path fill="#CFD1D1" d="M1328.1,736.7c-9.1-14.2-23.4-17.9-23.4-17.9l-34.5-12.8h-32.9l-34.5,12.8c0,0-14.4,3.7-23.4,17.9H1328.1
				z"/>
			<path fill="#0F3D5C" d="M1278.3,709.1l26.2,9.6c0,0,25.8,6.9,30.3,36.2l-15.2,30.1l5.7,196.9h-145.9l6.7-190.2l-13.4-36.8
				c4.5-29.3,30.3-36.2,30.3-36.2l25.4-9.5l20.1,9.8L1278.3,709.1z"/>
			<g>
				<g>
					<path fill="#CFD1D1" d="M1351.4,1003.1c0,0-4.9-104-38.8-192.2l32.9-5.7c0,0,29.1,79.6,23.4,194.6L1351.4,1003.1z"/>
					<g>
						<polygon fill="#CFD1D1" points="1367.5,1017.3 1369.3,995.4 1351.6,992.7 1350.4,1006.5 						"/>
						<g>
							<g>
								<path fill="#CFD1D1" d="M1349.2,1019.8l-1,10.8c-8.3-0.4-5.1-13.6-5.1-13.6s5.1-16.3,21.1-12.4c5.1,1,7.1,15.8,7.1,15.8
									c-0.2,5.7-2.4,14.2-2.4,14.2c-1.4,3.5-5.3,1.6-5.3,1.6c-2.2,3.9-5.1,0.6-5.1,0.6c-3,3.3-4.9-0.6-4.9-0.6
									c-3.9,3.5-6.1-1.8-6.1-1.8L1349.2,1019.8z"/>
							</g>
						</g>
					</g>
				</g>
				<path fill="#0F3D5C" d="M1355.9,811.1c-10.6-39.8-22.3-67.7-26.4-75c0,0-15.6-24.2-38.2-5.1c0,0-27.8,18.9-9.8,54
					c0,0,11.8,16.1,25,48C1322.6,831.4,1343.9,824.1,1355.9,811.1z"/>
			</g>
			<g>
				<path fill="#7F848A" d="M1204.1,611.2c-0.8-5.9-1.4-8.1-1.6-22.3c0-6.7,1.2-16.7,9.5-17.7c11.6-1.2,15.2,18.7,15.8,27.4
					c1,11.8-2,24.8-4.3,36.4c-0.8,4.1-0.8,12.6-5.5,14.6c-4.1,1.8-3.3,2.4-5.5-0.6C1207.6,641.8,1205,619.7,1204.1,611.2z"/>
				<path fill="#CFD1D1" d="M1204.7,667.5c4.5,17.9,12.6,22.8,12.6,22.8l10.8,2.2c6.1-0.8,16.9-3.3,16.9-3.3
					c24.6-8.3,32.7-7.9,37.8-20.7c0.2-0.4,17.1-66.6,17.1-66.6c3.2-34.3-32.9-41.6-38.2-42.3c-5.3-1.2-39.6-10.8-49.8,22.3
					C1211.9,581.9,1197,620.1,1204.7,667.5z"/>
				<path fill="#CFD1D1" d="M1275,674.2c-9.8,7.7-26.6,12.6-39,14c-21.9,2.4-26.8-13.8-30.5-30.9c0.4,3.9,0.8,7.9,1.4,12
					c4.3,16.5,11.8,21.3,11.8,21.3l10,2c5.7-0.8,15.8-3.2,15.8-3.2c23-7.9,30.5-7.3,35.2-19.3c0,0,0.4-1.2,0.8-3.2
					C1279.1,669.9,1277.3,672.5,1275,674.2z"/>
				<path fill="#7F848A" d="M1194.8,562.4c1.6-2.6,4.1-2,5.3-5.3c1-2.8-1-6.5,0.8-8.9c2.8-3.5,12.6-2.6,16.1-1.4
					c6.1,2,7.5,5.5,14,2.4c5.7-2.6,6.9-5.9,14.2-4.5c5.3,1,8.9,4.3,15,3.3c5.3-0.8,8.9-4.7,14.8-4.1c3,0.2,6.1,0.6,8.3,3
					c2.6,2.8,1,3.9,2.2,6.9c1.8,3.5,0.2,2.6,3.5,4.9c2,1.4,5.1,0.4,6.9,2.2c4.7,4.9-0.6,12,2.2,16.7c3,5.1,11.6,1.8,13.4,9.1
					c0.8,3-2,5.5-1.4,8.5c0.8,3.9,2.2,2.8,3.9,5.7c2.8,4.5,3.9,7.9,0.2,13.2c-4.1,5.9-5.7,6.5-5.7,14.8c0,9.1-1.2,7.9-6.5,13.8
					c-4.5,4.9-3.2,10.6-8.3,15c-1.8,1.6-4.3,2-6.3,4.1c-1.8,2-2.2,5.1-4.7,6.9c-1-10.4,4.9-20.3,5.5-30.9c0.4-9.1-0.2-26.4-5.3-33.9
					c-6.5-9.1-22.1-6.1-31.9-6.1C1238.5,598,1179.2,587,1194.8,562.4z"/>
				<path fill="#CFD1D1" d="M1284,639.2c0,0,6.1-13.2,15.6-5.3c0,0,4.3,3.3-1,12.2c0,0-7.9,12.8-17.1,5.7L1284,639.2z"/>
			</g>
		</g>
	</g>
	<g>
		<g>
			<g>
				<g>
					<polygon fill="#CFD1D1" points="321.2,988.1 302.9,976.3 311.6,960.6 323,967.9 					"/>
					<g>
						<g>
							<path fill="#CFD1D1" d="M334.4,975.1l9.3,5.7c4.5-6.7-7.7-12.4-7.7-12.4s-16-5.9-22.6,9.1c-2.4,4.7,8.1,15.2,8.1,15.2
								c4.7,3.2,12.8,6.7,12.8,6.7c3.7,1,4.5-3.3,4.5-3.3c4.5,0.8,3.5-3.5,3.5-3.5c4.5-0.4,2.6-4.3,2.6-4.3c5.1-1,2.4-5.9,2.4-5.9
								L334.4,975.1z"/>
						</g>
					</g>
				</g>
				<path fill="#0F3D5C" d="M197.4,1355l47.5,12.2c0,0,6.1,1.8,6.1,10.2h-81.5l1.2-22.4H197.4z"/>
				<path fill="#0F3D5C" d="M302.3,983.8L220.8,920c0,0-11.4-12.6-17.7-42.5l-22.3-75c0,0,18.7-61,50.6-60.3c0,0,3.9,23.6,3.3,80.5
					l8.5,56.7c0,0,0,5.5,24,30.3l52.2,48.2C319.5,958,314.9,978.5,302.3,983.8z"/>
				<polygon fill="#7F848A" points="215.9,910.8 198,1355 170,1355 122.9,910.8 				"/>
				<polygon fill="#7F848A" points="170.8,909.8 162.1,1018.7 142.8,1166.2 121.6,1355 93.4,1355 99.1,1148 88.9,909.8 				"/>
				<g>
					<rect x="134.4" y="664.6" fill="#CFD1D1" width="32.9" height="43.9"/>
				</g>
				<path fill="#CFD1D1" d="M76.3,727.6c9.1-14.2,23.4-17.9,23.4-17.9l34.5-12.8h32.9l34.5,12.8c0,0,14.4,3.7,23.4,17.9H76.3z"/>
				<path fill="#AEC9E8" d="M134.4,696.9l-34.5,12.8c0,0-25.8,6.9-30.3,36.2l15.2,30.1l4.3,158.3h125.8l3.5-151.8l13.4-36.8
					c-4.3-29.3-30.3-36.2-30.3-36.2l-34.5-12.8l-11,13.2L134.4,696.9z"/>
				<polygon fill="#5F676E" points="215.1,921.6 214.9,934.4 89.1,934.4 88.7,921.6 				"/>
				<g>
					<path fill="#CFD1D1" d="M191.7,665.2c-6.9,17.1-15.4,20.9-15.4,20.9l-11,0.8c-6.1-1.6-16.3-5.5-16.3-5.5
						c-23.2-11.4-31.5-12-34.9-25.4c-0.2-0.4-8.3-68.1-8.3-68.1c1.4-34.5,38-36.8,43.5-37c5.5-0.6,40.8-5.5,46.5,28.6
						C195.6,579.1,205.5,619.1,191.7,665.2z"/>
					<path fill="#CFD1D1" d="M191.3,656.5c-4.7,8.9-13.2,19.3-24.4,19.1c-8.3-0.2-18.1-3.7-25.8-6.9c-8.3-3.5-18.9-6.7-26-12
						c-0.4-0.2-0.8-0.6-1-0.8l0,0c-0.2-0.4-8.3-68.1-8.3-68.1c1.4-34.5,38-36.8,43.5-37c5.5-0.6,40.8-5.5,46.5,28.6
						c0,0,8.5,34.5-1.4,76.4C193.2,655.1,192.1,655.3,191.3,656.5z"/>
					<path fill="#CFD1D1" d="M122.5,665.8c13.6,6.3,21.3,10.6,31.7,14.4c16,5.5,24.4,6.5,37.4-15.4c0,0.2,0,0.2,0,0.4
						c-6.9,17.1-15.4,20.9-15.4,20.9l-11,0.8c-6.1-1.6-16.3-5.5-16.3-5.5c-18.3-9.1-27.2-11.2-31.9-18.3
						C118.8,664,120.8,664.8,122.5,665.8z"/>
					<path fill="#5F676E" d="M200.7,562.2c3,16.7-2,60.8-2,60.8s-1.4-44.3-13.4-53.8c0,0-12-5.7-20.5,1.4c0,0-40-15.4-45.3,25
						l-5.1,35.2l-0.6,24.8c-25.2-30.7-23.4-74-23.4-74s-4.5-28,15.6-31.7c0,0-1.8-23.4,37.6-27c0,0-5.7,7.5-7.7,12.6
						c0,0,7.1-16.7,44.7-12.6c0,0-9.5,2.8-13.8,9.5c0,0,8.3,3.9,31.9-10.2C199,522.6,225.3,547,200.7,562.2z"/>
					<path fill="#CFD1D1" d="M116.8,626.6c0,0-4.3-14-14.8-7.3c0,0-4.7,2.8-0.6,12.2c0,0,6.1,13.6,16.1,7.9L116.8,626.6z"/>
					<path fill="#00104D" d="M119.8,595.9c0,0-3,23.4-0.4,36.6l-4.7,0.4c0,0-0.4-16.3-8.7-17.7L119.8,595.9z"/>
				</g>
				<g>
					<g>
						<path fill="#CFD1D1" d="M54.8,990.5c0,0,2.6-104,34.3-193L56,792.6c0,0-27.2,80.1-18.9,195.2L54.8,990.5z"/>
						<g>
							<polygon fill="#CFD1D1" points="39.1,1005.1 36.9,983.2 54.4,980.1 56,993.7 							"/>
							<g>
								<g>
									<path fill="#CFD1D1" d="M57.6,1007.2l1.4,10.8c8.1-0.6,4.9-13.8,4.9-13.8s-5.5-16.1-21.3-12c-5.1,1.2-6.7,15.8-6.7,15.8
										c0.4,5.7,2.8,14.2,2.8,14.2c1.6,3.5,5.5,1.4,5.5,1.4c2.2,3.9,5.1,0.6,5.1,0.6c3.2,3.2,4.9-0.6,4.9-0.6
										c4.1,3.3,6.1-1.8,6.1-1.8L57.6,1007.2z"/>
								</g>
							</g>
						</g>
					</g>
					<path fill="#0F3D5C" d="M59.9,988.5c17.3-172.9,61-229.2,61-229.2c10.4-31.1-12.6-42.5-12.6-42.5
						c-28.9-9.5-36.6,17.1-36.6,17.1c-3.9,7.3-57.1,166.6-39.4,254.6C32.6,988.7,42.4,992.3,59.9,988.5z"/>
				</g>
				<path fill="#0F3D5C" d="M185.4,989.3l-6.7-288.1l22.8,8.5c0,0,25.8,6.9,30.3,36.2l-13.4,36.8l6.7,190.2L185.4,989.3z"/>
				<path fill="#0F3D5C" d="M134.4,991.5L79,973l5.7-196.9l-15.2-30.1c4.3-29.3,30.3-36.2,30.3-36.2l34.5-12.8L134.4,991.5
					L134.4,991.5z"/>
				<polygon fill="#94BB1E" points="167.1,709.9 144,709.9 144,721.1 151.9,729 162.5,729 167.1,719.3 				"/>
				<polygon fill="#D7E6F5" points="156,710.1 134.4,689.8 116.2,701.2 140.1,724.7 				"/>
				<polygon fill="#D7E6F5" points="156,710.1 167.4,692.2 185.4,701.8 172,723.3 				"/>
				<rect x="157.6" y="919.2" fill="#394049" width="23.2" height="17.5"/>
				<path fill="#0F3D5C" d="M120.8,1355l47.5,12.2c0,0,6.1,1.8,6.1,10.2H92.8L94,1355H120.8z"/>
			</g>
			<polygon fill="#94BB1E" points="162.5,729 178.7,898.7 162.5,916.7 144,898.7 151.9,729 			"/>
		</g>
	</g>
	<g>
		<g>
			<g>
				<path fill="#0F3D5C" d="M412.6,317.4c-8.3,0-14.8,6.7-14.8,14.8v1034.6c0,8.3,6.7,14.8,14.8,14.8h554.9
					c8.3,0,14.8-6.7,14.8-14.8V332.2c0-8.3-6.7-14.8-14.8-14.8H412.6z"/>
				<g>
					<rect x="397.8" y="384.4" fill="#F9F9F9" width="584.7" height="930.7"/>
					<polygon opacity="0.3" fill="#DBDBDB" enable-background="new    " points="982.3,1314.8 397.8,1314.8 397.8,384.4 					"/>
				</g>
				<g>
					<path fill="#FFFFFF" d="M770.8,352.3c0,4.3-3.5,8.1-8.1,8.1c-4.3,0-8.1-3.5-8.1-8.1c0-4.3,3.5-8.1,8.1-8.1
						C767.3,344.4,770.8,347.9,770.8,352.3z"/>
					<path fill="#FFFFFF" d="M752.3,352.3c0,3.9-3.2,7.1-7.1,7.1H616.4c-3.9,0-7.1-3.2-7.1-7.1l0,0c0-3.9,3.2-7.1,7.1-7.1h128.8
						C749.2,345.2,752.3,348.3,752.3,352.3L752.3,352.3z"/>
				</g>
			</g>
		</g>
		<path fill="#94BB1E" d="M927.6,752.4c0,104.2-84.5,188.7-188.7,188.7s-188.7-84.5-188.7-188.7s84.5-188.7,188.7-188.7
			C843.1,563.6,927.6,648.1,927.6,752.4z"/>
		<g>
			<g>
				<g>
					<path id="SVGID_1_" fill="#EAEAE8" d="M882.3,741c0,104.2-84.5,188.7-188.7,188.7S505,845.2,505,741s84.5-188.7,188.7-188.7
						C797.8,552.3,882.3,636.8,882.3,741z"/>
				</g>
				<g>
					<defs>
						<path id="SVGID_2_" d="M882.3,741c0,104.2-84.5,188.7-188.7,188.7S505,845.2,505,741s84.5-188.7,188.7-188.7
							C797.8,552.3,882.3,636.8,882.3,741z"/>
					</defs>
					<clipPath id="SVGID_3_">
						<use xlink:href="#SVGID_2_"  overflow="visible"/>
					</clipPath>
					<g clip-path="url(#SVGID_3_)">
						<path fill="#C4E0F4" d="M588.3,869.2c13.4-20.7,34.3-26.2,34.3-26.2l50-18.5h47.9l50,18.5c0,0,20.9,5.5,34.3,26.2H588.3z"/>
						<path fill="#73AFE4" d="M761.8,966.7h77.4c0-13.2-0.8-32.1-0.8-32.1c-4.5-79.2-62.2-91.6-62.2-91.6
							c-44.9-10.8-20.5,58.7-20.5,58.7C754.5,918.6,756.8,941.1,761.8,966.7z"/>
						<g>
							<rect x="663.7" y="777.6" fill="#CFD1D1" width="65.6" height="64"/>
						</g>
						<g>
							<path fill="#7F848A" d="M729.3,807.4v-29.7h-65.6v14.8C682.4,808,704.9,809.9,729.3,807.4z"/>
						</g>
						<path fill="#73AFE4" d="M799.2,966.7c1.2-34.5,0.8-43.9,0.6-55.7c-0.6-26.2-6.3-48.4-23.6-67.9l0,0l-46.9-15.2
							c0,0,9.8,17.1-33.1,17.1c0,0-28.4-1.2-32.5-17.1L616.2,843c0,0-40.6,10-47.7,52.8l23.8,43.9l-0.8,27H799.2z"/>
						<g>
							<path fill="#7F848A" d="M774.6,682.3c0-15.2-0.6-30.3-0.2-45.7c0.2-9.6,1.2-7.3-10-8.3c-15.6-1.4-20.9,27.6-21.9,40
								c-1.6,17.3,2.2,35.8,5.1,52.8c1,6.1,0.8,18.3,7.1,21.1c5.5,2.4,11.2-3.5,14-8.1c6.5-10.2,5.3-25.8,5.9-37.4
								C774.6,691.8,774.6,687,774.6,682.3z"/>
							<path fill="#CFD1D1" d="M767.9,768.8c-6.7,26-18.3,33.1-18.3,33.1l-15.8,3.2c-9.1-1.2-24.6-4.7-24.6-4.7
								c-35.8-12.2-46.1-15.4-51.8-29.1c-0.2-0.6-28.2-97.7-28.2-97.7c-4.5-50,47.9-60.5,55.7-61.6c7.9-1.8,57.7-15.6,72.3,32.3
								C757.4,643.9,779.1,699.5,767.9,768.8z"/>
							<path fill="#5F676E" d="M623.9,627.4c-17.3,8.5-17.9,23.8-17.1,41.6c0.6,13.8,4.9,25.4,9.8,38.6c8.3,22.6,8.3,22.6,15.8,35.6
								c0,0,11.6,17.9,26.4,30.1c-4.3-17.1-5.5-29.7-9.5-42.9c-4.7-15.8-3.3-36.8,3.7-53c0,0,3.9-10.8,20.3-13.8c16.3-3.2,0,0,0,0
								L623.9,627.4"/>
							<path fill="#CFD1D1" d="M652.5,727.2c0,0-8.9-19.3-22.8-7.9c0,0-6.3,4.9,1.4,17.9c0,0,11.4,18.5,24.8,8.3L652.5,727.2z"/>
							<path fill="#5F676E" d="M651.1,682.3c0,0,0,34.5,6.3,52.8l-6.7,1.4c0,0-3.5-23.6-15.8-24L651.1,682.3z"/>
							<path fill="#7F848A" d="M783.2,608.3c55.9,56.9-113.4,56.3-113.4,56.3s-17.7,8.3-45.9-37.4c0,0-7.5-35.6,72.5-46.9
								C696.4,580.5,749.4,574,783.2,608.3z"/>
						</g>
						<path fill="#73AFE4" d="M634.9,966.7h-72.3c0,0,0.2-17.1,0.2-18.3c0.6-16.9,1.6-33.9,4.7-50.6c4.3-23.8,16-44.9,41.4-51
							c11.6-2.8,22.1,4.3,28.4,13.8C637.1,860.7,648.5,874.9,634.9,966.7z"/>
					</g>
				</g>
			</g>
		</g>
		<path fill="#94BB1E" d="M897.1,982.8c0,6.7-5.5,12.2-12.2,12.2H502.4c-6.7,0-12.2-5.5-12.2-12.2l0,0c0-6.7,5.5-12.2,12.2-12.2
			h382.4C891.5,970.6,897.1,976.1,897.1,982.8L897.1,982.8z"/>
		<path fill="#94BB1E" d="M897.1,1060.6c0,6.7-5.5,12.2-12.2,12.2H502.4c-6.7,0-12.2-5.5-12.2-12.2l0,0c0-6.7,5.5-12.2,12.2-12.2
			h382.4C891.5,1048.4,897.1,1053.9,897.1,1060.6L897.1,1060.6z"/>
		<path fill="#94BB1E" d="M897.1,1138.8c0,6.7-5.5,12.2-12.2,12.2H502.4c-6.7,0-12.2-5.5-12.2-12.2l0,0c0-6.7,5.5-12.2,12.2-12.2
			h382.4C891.5,1126.6,897.1,1132.1,897.1,1138.8L897.1,1138.8z"/>
	</g>
</g>
</svg>
