<?xml version="1.0" encoding="utf-8"?>
<!-- Generator: Adobe Illustrator 15.0.0, SVG Export Plug-In . SVG Version: 6.00 Build 0)  -->
<!DOCTYPE svg PUBLIC "-//W3C//DTD SVG 1.1//EN" "http://www.w3.org/Graphics/SVG/1.1/DTD/svg11.dtd">
<svg version="1.1" id="Capa_1" xmlns="http://www.w3.org/2000/svg" xmlns:xlink="http://www.w3.org/1999/xlink" x="0px" y="0px"
	 width="300px" height="300px" viewBox="0 0 300 300" enable-background="new 0 0 300 300" xml:space="preserve">
<g>
	<path fill="#85D9C4" d="M93.843,161.728c2.061,4.721,5.084,8.299,8.487,9.979c-0.034,0.445-0.052,0.893-0.052,1.345
		c0,8.887,6.635,16.116,14.9,16.345c2.254,7.334,8.715,12.632,16.333,12.632c9.494,0,17.189-8.223,17.189-18.366V77.883
		c0-7.757-5.397-14.044-12.053-14.044c-4.793,0-8.933,3.26-10.875,7.982c-1.114-0.285-2.281-0.436-3.483-0.436
		c-7.756,0-14.045,6.288-14.045,14.044l0,0.039c-7.962,0.576-14.254,7.658-14.254,16.312c0,3.136,0.827,6.065,2.259,8.554
		c-4.229,2.419-7.081,6.976-7.081,12.198c0,3.9,1.59,7.428,4.157,9.973c-2.635,3.644-4.234,9.024-4.28,15.077
		C91.044,147.583,90.911,153.848,93.843,161.728"/>
	<polyline fill="#B3DCE8" points="207.157,122.927 206.66,122.429 232.958,96.129 290,96.129 290,96.834 233.25,96.834 
		207.157,122.927 	"/>
	<polyline fill="#B3DCE8" points="182.396,86.374 181.898,85.875 196.255,71.519 218.09,71.519 218.09,72.224 196.546,72.224 
		182.396,86.374 	"/>
	<polyline fill="#B3DCE8" points="209.851,161.437 209.354,160.938 220.219,150.072 252.33,150.072 252.33,150.777 220.511,150.777 
		209.851,161.437 	"/>
	<polyline fill="#B3DCE8" points="263.415,195.092 220.47,195.092 199.52,174.142 200.019,173.645 220.761,194.386 263.415,194.386 
		263.415,195.092 	"/>
	<polyline fill="#B3DCE8" points="237.884,106.889 236.586,106.889 237.884,104.197 239.182,104.197 237.884,106.889 	"/>
	<polyline fill="#B3DCE8" points="245.19,106.199 238.466,106.199 239.432,104.197 246.155,104.197 245.19,106.199 	"/>
	<polyline fill="#B2D78D" points="168.443,217.291 167.654,217.291 170.063,212.422 170.853,212.422 168.443,217.291 	"/>
	<rect x="238.998" y="106.991" fill="#B3DCE8" width="27.563" height="0.577"/>
	<rect x="143.05" y="216.845" fill="#B2D78D" width="38.212" height="0.605"/>
	<rect x="143.05" y="218.808" fill="#B2D78D" width="20.413" height="3.505"/>
	<rect x="64.504" y="83.889" fill="#B2D78D" width="14.44" height="1.013"/>
	<rect x="64.504" y="85.796" fill="#B2D78D" width="14.44" height="4.256"/>
	<rect x="77.208" y="91.483" fill="#B2D78D" width="8.519" height="0.635"/>
	<rect x="77.208" y="92.397" fill="#B2D78D" width="8.519" height="1.722"/>
	<rect x="78.626" y="78.129" fill="#B2D78D" width="0.636" height="11.923"/>
	<rect x="167.654" y="210.494" fill="#B2D78D" width="10.637" height="1.928"/>
	<rect x="167.654" y="209.596" fill="#B2D78D" width="10.637" height="0.362"/>
	<rect x="57.057" y="129.744" fill="#B2D78D" width="18.599" height="2.324"/>
	<rect x="77.453" y="129.744" fill="#B2D78D" width="1.532" height="2.324"/>
	<g>
		<defs>
			<path id="SVGID_1_" d="M210.531,132.505c2.566-2.545,4.156-6.073,4.156-9.973c0-5.223-2.851-9.779-7.081-12.198
				c1.434-2.489,2.26-5.418,2.26-8.554c0-8.654-6.292-15.736-14.254-16.312V85.43c0-7.757-6.288-14.044-14.044-14.044
				c-1.203,0-2.37,0.151-3.484,0.436c-1.942-4.722-6.081-7.982-10.876-7.982c-6.656,0-12.052,6.287-12.052,14.044v105.778
				c0,10.144,7.695,18.366,17.188,18.366c7.618,0,14.079-5.298,16.333-12.632c8.265-0.229,14.9-7.458,14.9-16.345
				c0-0.452-0.019-0.899-0.052-1.345c5.539-2.733,10.076-10.494,11.084-20.028C215.423,143.991,213.749,136.953,210.531,132.505"/>
		</defs>
		<use xlink:href="#SVGID_1_"  overflow="visible" fill="#B2D78D"/>
		<clipPath id="SVGID_2_">
			<use xlink:href="#SVGID_1_"  overflow="visible"/>
		</clipPath>
	</g>
	<path fill="#85D9C4" d="M247.592,147.78h-17.754c-1.162,0-2.104-0.942-2.104-2.105v-26.84c0-1.163,0.942-2.105,2.104-2.105h17.754
		c1.163,0,2.105,0.943,2.105,2.105v26.84C249.697,146.837,248.755,147.78,247.592,147.78"/>
	<rect x="228.947" y="118.165" fill="#FFFFFF" width="19.536" height="25.482"/>
	<path fill="#757474" d="M239.604,146.421c0,0.513-0.415,0.928-0.928,0.928c-0.514,0-0.927-0.416-0.927-0.928
		c0-0.512,0.413-0.928,0.927-0.928C239.189,145.493,239.604,145.909,239.604,146.421"/>
	<path fill="#B3DCE8" d="M258.918,190.331H224.68v-21.705c0-0.852,0.69-1.543,1.543-1.543h31.154c0.852,0,1.541,0.691,1.541,1.543
		V190.331"/>
	<rect x="225.636" y="168.32" fill="#FFFFFF" width="32.328" height="20.774"/>
	<path fill="#85D9C4" d="M260.57,190.331h-37.542v0.361c0,0.744,0.603,1.348,1.348,1.348h34.847c0.744,0,1.348-0.604,1.348-1.348
		V190.331"/>
	<rect x="239.127" y="191.001" fill="#757474" width="5.345" height="0.37"/>
	<path fill="#FFFFFF" d="M188.064,186.11l-0.829-0.164l0.414,0.081l-0.414-0.08c0.007-0.04,0.749-4.032-1.64-6.93
		c-1.693-2.055-4.545-3.097-8.477-3.097c-4.054,0-6.96-1.126-8.639-3.345c-2.57-3.4-1.288-8.067-1.233-8.265l0.814,0.23
		c-0.013,0.044-1.222,4.468,1.097,7.527c1.51,1.995,4.188,3.006,7.961,3.006c4.199,0,7.272,1.147,9.135,3.411
		C188.894,181.696,188.099,185.931,188.064,186.11"/>
	<path fill="#FFFFFF" d="M177.119,170.578c-0.013-0.268-0.29-6.598,3.934-11.045c2.614-2.755,6.366-4.15,11.153-4.15
		c4.218,0,7.322-1.234,9.227-3.669c3.552-4.543,1.794-11.84,1.775-11.913l0.82-0.204c0.078,0.314,1.879,7.764-1.927,12.634
		c-2.072,2.653-5.402,3.998-9.896,3.998c-4.543,0-8.088,1.306-10.535,3.881c-3.975,4.179-3.71,10.364-3.707,10.426L177.119,170.578"
		/>
	<path fill="#FFFFFF" d="M193.564,146.844c-2.974,0-6.461-0.569-9.223-2.665c-3.103-2.355-4.677-6.201-4.677-11.433
		c0-5.483-1.567-9.739-4.659-12.648c-4.94-4.648-12.15-4.266-12.223-4.261l-0.052-0.844c0.311-0.019,7.651-0.407,12.854,4.489
		c3.268,3.075,4.925,7.538,4.925,13.264c0,4.953,1.461,8.573,4.343,10.76c5.578,4.234,14.71,1.75,14.802,1.725l0.228,0.814
		C199.675,146.104,196.954,146.844,193.564,146.844"/>
	<path fill="#FFFFFF" d="M172.094,113.944l-0.841-0.091c0.014-0.123,0.346-3.052,1.993-6.025c2.204-3.979,5.717-6.082,10.157-6.082
		c10.616,0,12.048-6.09,12.048-12.048h0.846c0,4.064-0.764,6.922-2.403,8.993c-2.078,2.625-5.51,3.9-10.49,3.9
		c-4.164,0-7.328,1.892-9.405,5.625C172.427,111.041,172.098,113.916,172.094,113.944"/>
	<path fill="#FFFFFF" d="M183.771,129.896c-0.966,0.001-1.626-0.11-1.696-0.122l0.146-0.833c0.043,0.007,4.34,0.719,7.238-1.719
		c1.795-1.511,2.705-3.92,2.705-7.165c0-3.328,1.003-5.882,2.982-7.591c3.512-3.034,8.783-2.3,9.005-2.268l-0.123,0.836
		c-0.067-0.01-5.123-0.703-8.333,2.074c-1.782,1.541-2.687,3.879-2.687,6.948c0,3.508-1.014,6.138-3.011,7.816
		C187.974,129.572,185.423,129.896,183.771,129.896 M204.028,111.035L204.028,111.035l0.062-0.418L204.028,111.035z"/>
	<path fill="#FFFFFF" d="M177.44,101.176c-0.863,0-6.528-0.132-9.957-3.499c-1.697-1.666-2.558-3.853-2.558-6.5
		c0-5.115,3.179-7.017,6.252-8.856c3.053-1.826,5.936-3.552,5.936-8.34h0.845c0,5.268-3.226,7.198-6.347,9.065
		c-3.003,1.798-5.841,3.496-5.841,8.131c0,2.41,0.775,4.393,2.302,5.895c3.385,3.325,9.396,3.26,9.456,3.258l0.015,0.845
		C177.528,101.175,177.494,101.176,177.44,101.176"/>
	<path fill="#FFFFFF" d="M160.714,153.225h-0.846c0-3.26,0.904-10.842,9.278-10.842c3.142,0,5.433-1.328,6.81-3.944
		c1.05-1.991,1.156-4.022,1.157-4.042l0.845,0.039c-0.004,0.089-0.112,2.216-1.239,4.371c-1.055,2.017-3.224,4.422-7.572,4.422
		C161.81,143.228,160.714,149.491,160.714,153.225"/>
	<path fill="#FFFFFF" d="M117.792,186.11c-0.036-0.18-0.831-4.414,1.81-7.625c1.861-2.263,4.935-3.41,9.135-3.41
		c3.772,0,6.45-1.011,7.96-3.006c2.318-3.06,1.11-7.483,1.097-7.527l0.813-0.23c0.056,0.197,1.337,4.864-1.232,8.265
		c-1.679,2.219-4.585,3.345-8.639,3.345c-3.935,0-6.788,1.044-8.482,3.102c-2.389,2.906-1.641,6.885-1.633,6.924L117.792,186.11"/>
	<path fill="#FFFFFF" d="M128.736,170.578l-0.844-0.043c0.003-0.062,0.268-6.247-3.707-10.426
		c-2.447-2.575-5.993-3.881-10.535-3.881c-4.494,0-7.823-1.345-9.896-3.998c-3.805-4.87-2.005-12.319-1.928-12.634l0.821,0.204
		c-0.019,0.073-1.776,7.37,1.775,11.913c1.904,2.435,5.009,3.669,9.227,3.669c4.787,0,8.539,1.396,11.153,4.15
		C129.027,163.98,128.75,170.311,128.736,170.578"/>
	<path fill="#FFFFFF" d="M112.292,146.844c-3.391,0-6.111-0.74-6.319-0.798l0.228-0.814c0.091,0.025,9.233,2.504,14.805-1.728
		c2.879-2.188,4.339-5.807,4.339-10.758c0-5.726,1.657-10.189,4.927-13.264c5.203-4.896,12.542-4.507,12.853-4.489l-0.051,0.844
		c-0.072-0.004-7.297-0.379-12.229,4.266c-3.088,2.909-4.654,7.163-4.654,12.643c0,5.231-1.574,9.078-4.677,11.433
		C118.752,146.275,115.265,146.844,112.292,146.844"/>
	<path fill="#FFFFFF" d="M133.762,113.944c-0.002-0.028-0.331-2.903-1.904-5.729c-2.076-3.732-5.24-5.625-9.405-5.625
		c-4.981,0-8.412-1.275-10.489-3.9c-1.64-2.07-2.404-4.928-2.404-8.993h0.846c0,5.958,1.431,12.048,12.047,12.048
		c4.441,0,7.953,2.103,10.158,6.082c1.647,2.973,1.979,5.902,1.993,6.025L133.762,113.944"/>
	<path fill="#FFFFFF" d="M122.086,129.896c-1.654,0.001-4.204-0.325-6.227-2.023c-1.998-1.678-3.011-4.308-3.011-7.816
		c0-3.071-0.905-5.41-2.69-6.952c-3.222-2.784-8.279-2.078-8.33-2.07l-0.123-0.836c0.222-0.033,5.493-0.767,9.005,2.268
		c1.979,1.709,2.982,4.264,2.982,7.591c0,3.247,0.912,5.659,2.71,7.169c2.906,2.44,7.189,1.723,7.233,1.715l0.146,0.833
		C123.711,129.786,123.052,129.896,122.086,129.896"/>
	<path fill="#FFFFFF" d="M128.416,101.176c-0.053,0-0.088-0.001-0.103-0.001l0.016-0.845c0.06,0.002,6.071,0.066,9.455-3.258
		c1.527-1.502,2.301-3.485,2.301-5.895c0-4.635-2.836-6.333-5.84-8.131c-3.12-1.867-6.347-3.798-6.347-9.065h0.845
		c0,4.788,2.883,6.514,5.935,8.34c3.074,1.84,6.253,3.742,6.253,8.856c0,2.647-0.861,4.834-2.559,6.5
		C134.943,101.044,129.279,101.176,128.416,101.176"/>
	<path fill="#FFFFFF" d="M145.987,153.225h-0.845c0-3.733-1.095-9.997-8.432-9.997c-4.349,0-6.519-2.405-7.573-4.422
		c-1.126-2.155-1.234-4.282-1.239-4.371l0.845-0.039v0c0.001,0.039,0.113,2.061,1.156,4.042c1.378,2.617,3.67,3.944,6.811,3.944
		C145.083,142.382,145.987,149.965,145.987,153.225"/>
	<path fill="#FFFFFF" d="M74.876,151.196h-4.443v-9.019H91.52c-0.298,1.716-0.462,3.528-0.476,5.405c0,0-0.014,0.657,0.067,1.812
		h-14.16C75.895,149.395,75.02,150.178,74.876,151.196 M92.25,156.53H81.452v-2.704h10.224
		C91.828,154.666,92.016,155.572,92.25,156.53 M88.022,186.244c-2.515,0-4.917-1.093-6.57-2.976V171.75
		c0.948-1.082,2.177-1.946,3.628-2.465c0.885-0.315,1.788-0.48,2.68-0.508c0.086-0.003,0.174-0.004,0.261-0.004
		c3.584,0,6.946,2.225,8.223,5.794c1.624,4.542-0.741,9.54-5.283,11.165C89.991,186.08,88.998,186.244,88.022,186.244
		 M94.52,226.534H80.878c-1.892,0-3.498-1.25-4.036-2.968h4.61v-31.226H94.52c2.331,0,4.227,1.896,4.227,4.228v25.738
		C98.747,224.638,96.851,226.534,94.52,226.534 M126.886,232.585H70.434v-9.019h5.822c0.555,2.032,2.417,3.531,4.623,3.531H94.52
		c2.642,0,4.791-2.148,4.791-4.791v-25.738c0-2.643-2.149-4.791-4.791-4.791H81.452v-4.647c1.917,1.307,4.208,2.031,6.57,2.031
		c1.302,0,2.625-0.22,3.921-0.683c6.058-2.168,9.211-8.834,7.045-14.892c-1.703-4.762-6.186-7.729-10.969-7.729
		c-0.116,0-0.231,0.002-0.347,0.005c-1.189,0.035-2.394,0.255-3.574,0.678c-0.958,0.343-1.844,0.799-2.646,1.346v-6.36h12.316
		c0.024,0.066,0.05,0.135,0.075,0.202c2.061,4.721,5.084,8.299,8.487,9.979c-0.034,0.445-0.052,0.893-0.052,1.345
		c0,8.887,6.635,16.116,14.9,16.345c1.559,5.074,5.132,9.174,9.708,11.218V232.585"/>
	<path fill="#FCF7F1" d="M102.197,149.395H91.111c-0.081-1.155-0.067-1.812-0.067-1.812c0.014-1.877,0.178-3.689,0.476-5.405h9.902
		C101.245,144.108,101.257,146.841,102.197,149.395 M126.886,162.46c-0.53-1.01-1.21-2.009-2.083-2.927
		c-2.614-2.755-6.366-4.15-11.153-4.15c-2.743,0-5.016-0.522-6.793-1.557h2.985c1.158,0,2.096-0.939,2.096-2.097v-0.237
		c0-1.158-0.938-2.098-2.096-2.098h-6.731c-0.997-2.509-1.002-5.297-0.826-7.217h20.144c-0.428,0.489-0.903,0.931-1.423,1.327
		c-2.56,1.944-5.873,2.472-8.716,2.472c-3.345,0-6.04-0.731-6.089-0.745l-0.228,0.814c0.208,0.058,2.928,0.798,6.319,0.798
		c2.973,0,6.46-0.569,9.222-2.665c0.762-0.578,1.431-1.246,2.007-2.001h3.365V162.46 M126.886,200.613
		c-4.576-2.044-8.149-6.144-9.708-11.218c-8.266-0.229-14.9-7.458-14.9-16.345c0-0.452,0.018-0.899,0.052-1.345
		c-3.403-1.68-6.426-5.258-8.487-9.979c-0.025-0.067-0.05-0.136-0.075-0.202h16.074c1.311,0,2.378-1.066,2.378-2.377v-0.239
		c0-1.312-1.067-2.379-2.378-2.379H92.25c-0.233-0.958-0.422-1.864-0.574-2.704h13.672c2.04,1.596,4.822,2.402,8.302,2.402
		c4.542,0,8.087,1.306,10.535,3.881c1.303,1.37,2.151,2.958,2.701,4.472v10.574c-3.263,0.297-5.708,1.414-7.284,3.33
		c-2.64,3.211-1.846,7.445-1.81,7.625l0.829-0.164c-0.008-0.039-0.756-4.018,1.633-6.924c1.416-1.721,3.642-2.732,6.631-3.018
		V200.613"/>
	<path fill="#FFFFFF" d="M117.792,186.11c-0.036-0.18-0.831-4.414,1.81-7.625c1.576-1.916,4.021-3.033,7.284-3.33v0.85
		c-2.99,0.285-5.216,1.297-6.631,3.018c-2.389,2.906-1.641,6.885-1.633,6.924L117.792,186.11"/>
	<path fill="#FFFFFF" d="M103.11,149.395h-0.913c-0.94-2.553-0.952-5.287-0.775-7.217h0.862
		C102.108,144.098,102.114,146.886,103.11,149.395 M126.886,164.581c-0.55-1.514-1.398-3.102-2.701-4.472
		c-2.447-2.575-5.993-3.881-10.535-3.881c-3.48,0-6.262-0.807-8.302-2.402h1.509c1.778,1.034,4.05,1.557,6.793,1.557
		c4.787,0,8.539,1.396,11.153,4.15c0.873,0.918,1.553,1.917,2.083,2.927V164.581"/>
	<path fill="#FFFFFF" d="M112.292,146.844c-3.391,0-6.111-0.74-6.319-0.798l0.228-0.814c0.049,0.014,2.744,0.745,6.089,0.745
		c2.843,0,6.156-0.528,8.716-2.472c0.52-0.396,0.995-0.838,1.423-1.327h1.093c-0.576,0.756-1.246,1.424-2.007,2.001
		C118.752,146.275,115.265,146.844,112.292,146.844"/>
	<path fill="#FFFFFF" d="M93.566,160.961H81.452v-3.866h10.938C92.705,158.314,93.09,159.611,93.566,160.961"/>
	<path fill="#FCF7F1" d="M109.842,160.961H93.566c-0.476-1.35-0.861-2.646-1.175-3.866h17.451c1,0,1.814,0.814,1.814,1.814v0.239
		C111.656,160.148,110.842,160.961,109.842,160.961"/>
	<path fill="#B3DCE8" d="M109.842,153.826h-32.89c-1.157,0-2.096-0.939-2.096-2.097v-0.237c0-1.158,0.938-2.098,2.096-2.098h32.89
		c1.158,0,2.096,0.939,2.096,2.098v0.237C111.938,152.887,111,153.826,109.842,153.826"/>
	<path fill="#B3DCE8" d="M120.25,153.826h-3.428c-1.224,0-2.215-0.992-2.215-2.216s0.992-2.216,2.215-2.216h3.428
		c1.223,0,2.215,0.992,2.215,2.216S121.473,153.826,120.25,153.826"/>
	<path fill="#B3DCE8" d="M109.842,161.525h-32.89c-1.312,0-2.378-1.066-2.378-2.377v-0.239c0-1.312,1.066-2.379,2.378-2.379h32.89
		c1.311,0,2.378,1.067,2.378,2.379v0.239C112.22,160.459,111.153,161.525,109.842,161.525 M76.952,157.095
		c-1,0-1.814,0.814-1.814,1.814v0.239c0,1,0.814,1.813,1.814,1.813h32.89c1,0,1.814-0.813,1.814-1.813v-0.239
		c0-1-0.813-1.814-1.814-1.814H76.952"/>
	<path fill="#85D9C4" d="M98.989,173.587c-1.744-4.877-6.404-7.872-11.316-7.725c-1.189,0.035-2.394,0.255-3.574,0.678
		c-3.578,1.28-6.144,4.13-7.198,7.497c-0.73,2.332-0.735,4.914,0.151,7.394c0.088,0.247,0.185,0.489,0.288,0.728
		c0.466,1.073,1.078,2.045,1.806,2.898c3.048,3.585,8.105,5.099,12.798,3.422C98.001,186.311,101.155,179.645,98.989,173.587
		 M90.961,185.732c-3.518,1.258-7.31,0.122-9.595-2.564c-0.544-0.641-1.004-1.369-1.354-2.174c-0.077-0.178-0.149-0.36-0.215-0.544
		c-0.665-1.86-0.662-3.795-0.114-5.545c0.79-2.524,2.713-4.661,5.396-5.62c0.885-0.315,1.788-0.48,2.68-0.508
		c3.682-0.112,7.176,2.134,8.484,5.79C97.868,179.109,95.503,184.107,90.961,185.732"/>
	<path fill="#85D9C4" d="M79.684,174.905l-2.783-0.868c1.054-3.367,3.62-6.217,7.198-7.497c1.181-0.423,2.385-0.643,3.574-0.678
		l0.087,2.915c-0.892,0.027-1.795,0.192-2.68,0.508C82.397,170.244,80.474,172.381,79.684,174.905"/>
	<path fill="#B3DCE8" d="M80.013,180.994l-2.673,1.164c-0.103-0.238-0.199-0.48-0.288-0.728c-0.887-2.479-0.881-5.062-0.151-7.394
		l2.783,0.868c-0.548,1.75-0.552,3.685,0.114,5.545C79.864,180.634,79.936,180.816,80.013,180.994"/>
	<path fill="#B3DCE8" d="M79.146,185.057c-0.728-0.854-1.34-1.825-1.806-2.898l2.673-1.164c0.35,0.805,0.809,1.533,1.354,2.174
		L79.146,185.057"/>
	<path fill="#B3DCE8" d="M119.718,226.816h-12.212c-1.517,0-2.747-1.23-2.747-2.747v-54.908c0-1.518,1.23-2.748,2.747-2.748h12.212
		c1.517,0,2.747,1.23,2.747,2.748v54.908C122.465,225.586,121.235,226.816,119.718,226.816"/>
	<path fill="#85D9C4" d="M94.52,227.098H80.878c-2.641,0-4.791-2.148-4.791-4.791v-25.738c0-2.643,2.149-4.791,4.791-4.791H94.52
		c2.642,0,4.791,2.148,4.791,4.791v25.738C99.31,224.949,97.161,227.098,94.52,227.098 M80.878,192.341
		c-2.331,0-4.227,1.896-4.227,4.228v25.738c0,2.331,1.896,4.228,4.227,4.228H94.52c2.331,0,4.227-1.896,4.227-4.228v-25.738
		c0-2.331-1.896-4.228-4.227-4.228H80.878"/>
	<path fill="#FFFFFF" d="M81.452,223.566h-4.61c-0.124-0.397-0.191-0.82-0.191-1.26v-25.738c0-2.331,1.896-4.228,4.227-4.228h0.574
		V223.566"/>
	<rect x="36.263" y="151.196" fill="#FFFFFF" width="34.171" height="72.37"/>
	<path fill="#FFFFFF" d="M81.452,183.269c-0.028-0.034-0.057-0.067-0.086-0.101c-0.544-0.641-1.004-1.369-1.354-2.174
		c-0.077-0.178-0.149-0.36-0.215-0.544c-0.348-0.974-0.513-1.968-0.512-2.945c0-0.89,0.137-1.767,0.398-2.6
		c0.363-1.159,0.964-2.235,1.768-3.155V183.269 M76.255,223.566h-5.822v-72.37h4.443c-0.014,0.096-0.021,0.195-0.021,0.296v0.237
		c0,1.157,0.938,2.097,2.096,2.097h4.5v2.704h-4.5c-1.312,0-2.378,1.067-2.378,2.379v0.239c0,1.311,1.066,2.377,2.378,2.377h4.5
		v6.36c-2.196,1.497-3.779,3.686-4.551,6.151c-0.348,1.112-0.531,2.28-0.532,3.467c0,1.304,0.219,2.63,0.683,3.927
		c0.088,0.247,0.185,0.489,0.288,0.728c0.466,1.073,1.078,2.045,1.806,2.898c0.678,0.798,1.456,1.493,2.307,2.073v4.647h-0.574
		c-2.641,0-4.791,2.148-4.791,4.791v25.738C76.087,222.743,76.146,223.166,76.255,223.566"/>
	<path fill="#FFFFFF" d="M81.452,160.961h-4.5c-1,0-1.814-0.813-1.814-1.813v-0.239c0-1,0.814-1.814,1.814-1.814h4.5V160.961"/>
	<path fill="#E9EFF8" d="M81.452,153.826h-4.5c-1.157,0-2.096-0.939-2.096-2.097v-0.237c0-0.101,0.007-0.2,0.021-0.296h6.576
		V153.826"/>
	<path fill="#E9EFF8" d="M81.452,161.525h-4.5c-1.312,0-2.378-1.066-2.378-2.377v-0.239c0-1.312,1.066-2.379,2.378-2.379h4.5v0.564
		h-4.5c-1,0-1.814,0.814-1.814,1.814v0.239c0,1,0.814,1.813,1.814,1.813h4.5V161.525"/>
	<path fill="#F2F7FC" d="M81.452,187.13c-0.851-0.58-1.629-1.275-2.307-2.073l2.221-1.889c-0.544-0.641-1.004-1.369-1.354-2.174
		l-2.673,1.164l2.673-1.164c-0.077-0.178-0.149-0.36-0.215-0.544c-0.348-0.974-0.513-1.968-0.512-2.945
		c0,0.978,0.164,1.972,0.512,2.945c0.066,0.184,0.138,0.366,0.215,0.544c0.35,0.805,0.809,1.533,1.354,2.174
		c0.029,0.033,0.058,0.066,0.086,0.101V187.13"/>
	<path fill="#E6EBF5" d="M79.684,174.905l-2.783-0.868c0.772-2.466,2.355-4.654,4.551-6.151v3.864
		C80.648,172.67,80.047,173.746,79.684,174.905"/>
	<path fill="#E9EEF7" d="M77.34,182.158c-0.103-0.238-0.199-0.48-0.288-0.728c-0.464-1.297-0.684-2.623-0.683-3.927
		c0-1.187,0.184-2.354,0.532-3.467l2.783,0.868c-0.261,0.833-0.398,1.71-0.398,2.6c0,0.978,0.164,1.972,0.512,2.945
		c0.066,0.184,0.138,0.366,0.215,0.544L77.34,182.158"/>
	<path fill="#ECF0F8" d="M79.146,185.057c-0.728-0.854-1.34-1.825-1.806-2.898l2.673-1.164c0.35,0.805,0.809,1.533,1.354,2.174
		L79.146,185.057"/>
	<path fill="#F2F7FC" d="M76.842,223.566h-0.587c-0.109-0.4-0.168-0.823-0.168-1.26v-25.738c0-2.643,2.149-4.791,4.791-4.791h0.574
		v0.563h-0.574c-2.331,0-4.227,1.896-4.227,4.228v25.738C76.651,222.746,76.718,223.169,76.842,223.566"/>
	<path fill="#B3DCE8" d="M55.846,176.956H43.941c-1.664,0-3.012-1.349-3.012-3.012V162.04c0-1.663,1.348-3.011,3.012-3.011h11.904
		c1.664,0,3.012,1.348,3.012,3.011v11.904C58.858,175.607,57.509,176.956,55.846,176.956"/>
	<path fill="#B3DCE8" d="M55.846,200.334H43.941c-1.664,0-3.012-1.349-3.012-3.011v-11.905c0-1.663,1.348-3.012,3.012-3.012h11.904
		c1.664,0,3.012,1.349,3.012,3.012v11.905C58.858,198.985,57.509,200.334,55.846,200.334"/>
	<path fill="#F5F5F5" d="M49.081,172.215l-5.035-5.034c-0.276-0.275-0.276-0.722,0-0.997c0.274-0.274,0.721-0.274,0.996,0
		l4.039,4.039l5.956-5.956c0.275-0.274,0.721-0.274,0.997,0c0.275,0.275,0.275,0.723,0,0.997L49.081,172.215"/>
	<polyline fill="#85D9C4" points="40.93,218.808 48.455,211.284 51.949,214.778 59.889,206.839 63.767,210.719 65.505,208.979 
		67.688,211.164 75.805,203.048 75.805,218.808 40.93,218.808 	"/>
	<path fill="#85D9C4" d="M73.106,200.616h-5.862c-1.562,0-2.832-1.27-2.832-2.831v-36.207c0-1.562,1.27-2.832,2.832-2.832h5.862
		c1.561,0,2.832,1.271,2.832,2.832v36.207C75.938,199.347,74.667,200.616,73.106,200.616 M67.244,159.31
		c-1.251,0-2.269,1.018-2.269,2.269v36.207c0,1.25,1.018,2.268,2.269,2.268h5.862c1.251,0,2.268-1.018,2.268-2.268v-36.207
		c0-1.251-1.017-2.269-2.268-2.269H67.244z"/>
	<polyline fill="#2D2F47" points="75.433,188.146 83.786,192.737 92.173,179.538 82.029,176.013 75.433,188.146 	"/>
	<polyline fill="#DCD0C8" points="75.963,187.75 83.774,192.044 91.619,179.699 82.131,176.403 75.963,187.75 	"/>
	<path fill="#D5A384" d="M73.103,185.441c0,0,1.453-0.696,2.092-1.059c0.638-0.363,2.279-0.863,2.412-0.981
		c0.133-0.118,4.866-0.41,5.153-0.658c0.287-0.247,0.566,0.581-0.661,0.85c-1.227,0.268-2.934,0.925-3.026,1.405
		c-0.094,0.479,1.26,0.593,1.396,0.987c0.137,0.396-0.039,0.307-0.232,0.392s-1.61-0.699-2.232-0.477
		c-0.623,0.222-1.575-0.087-2.051,0.077c-0.478,0.164-2.798,0.944-2.798,0.944L73.103,185.441"/>
	<path fill="#E3D5CD" d="M75.726,186.468l0.749-0.276c0,0-0.935-2.192-1.342-2.14c-0.469,0.062-1.056,0.217-1.056,0.217
		L75.726,186.468"/>
	<path fill="#C3965E" d="M75.897,186.847c-0.096-0.072-1.592-2.942-1.592-2.942l-3.196,0.434l1.727,3.401L75.897,186.847"/>
	<path fill="#D5A384" d="M84.193,191.082c0,0,1.221-1.1,1.813-1.56c0.59-0.46,1.7-1.813,1.863-1.892
		c0.164-0.079,2.282-4.426,2.627-4.6c0.345-0.174-0.327-0.759-1.057,0.292c-0.731,1.051-2.015,2.404-2.503,2.305
		c-0.488-0.099-0.068-1.418-0.387-1.7c-0.318-0.284-0.303-0.084-0.458,0.067c-0.155,0.149,0.032,1.788-0.42,2.288
		c-0.452,0.5-0.532,1.517-0.873,1.903c-0.339,0.387-1.979,2.269-1.979,2.269L84.193,191.082"/>
	<path fill="#43476E" d="M57.89,249.835c0,0-0.264,1.835-0.297,2.108c-0.033,0.276-2.939-0.161-2.939-0.161l-0.235-2.184
		C54.418,249.599,57.527,249.577,57.89,249.835"/>
	<path fill="#2D2F47" d="M57.623,251.711c0,0,0.921,1.106,1.812,1.587c0.891,0.481,2.29,0.672,2.816,1.172
		c0.38,0.358,1.385,1.908-2.313,1.877c-3.699-0.03-5.481,0.219-5.878-0.374c-0.396-0.596,0.574-4.386,0.574-4.386
		S55.509,251.902,57.623,251.711"/>
	<path fill="#43476E" d="M78.712,249.835c0,0-0.265,1.835-0.297,2.108c-0.033,0.276-2.939-0.161-2.939-0.161l-0.235-2.184
		C75.24,249.599,78.348,249.577,78.712,249.835"/>
	<path fill="#2D2F47" d="M78.445,251.711c0,0,0.921,1.106,1.812,1.587c0.89,0.481,4.167,0.877,4.694,1.376
		c0.38,0.359,1.012,1.809-4.192,1.673c-3.697-0.097-5.481,0.219-5.877-0.374c-0.396-0.596,0.573-4.386,0.573-4.386
		S76.28,251.924,78.445,251.711"/>
	<path fill="#2D2F47" d="M60.296,202.714c0,0-2.73,4.339-2.526,8.26c0.204,3.922-0.99,8.204-1.4,12.3
		c-0.458,4.567-2.329,15.379-2.397,17.821c-0.068,2.442,0.291,10.244,0.291,10.244l3.746,0.085c0,0,3.146-18.901,3.961-20.829
		c0.814-1.929,4.855-15.679,4.991-17.221C67.098,211.83,60.296,202.714,60.296,202.714"/>
	<path fill="#2D2F47" d="M74.671,203.303c0,0,2.058,10.748,2.329,13.147c0.271,2.4,0.453,11.616,0.589,13.115
		c0.136,1.501,0.905,19.63,1.629,21.858h-4.789c0,0-3.677-13.18-3.677-19.415s-2.84-13.557-4.673-17.671
		c-1.833-4.115-6.029-4.212-7.157-11.846C58.922,202.492,73.145,200.881,74.671,203.303"/>
	<path fill="#D5A384" d="M64.853,166.241c0,0,3.665-1.369,5.355,1.421c1.689,2.79,1.526,8.376-0.321,9.063s-4.622,0.327-5.568-1.419
		c-0.946-1.745-1.8-4.27-1.758-5.956C62.602,167.664,63.891,166.729,64.853,166.241"/>
	<path fill="#D5A384" d="M69.49,176.853c0,0-0.152,0.989,0.1,1.478c0.252,0.486-4.749,0.498-4.749,0.498s-0.406-2.651-1.175-4.891
		C62.896,171.697,69.49,176.853,69.49,176.853"/>
	<path fill="#3E4148" d="M63.666,173.938c0,0,0.345,0.569,1.753,0.349s3.128-2.096,3.716-2.301c0.588-0.206,0.594-0.552,0.594-0.552
		l0.368,0.538l0.624,0.039c0,0-0.569-1.676,0.291-2.359c0.859-0.684-0.893-5.427-5.411-3.848c0,0-3.47,0.956-3.344,2.93
		C62.384,170.706,62.889,172.955,63.666,173.938"/>
	<path fill="#DCD0C8" d="M69.887,178.27c0,0-0.017-0.931-0.438-1.02c-0.423-0.09-4.66-0.497-5.178-0.294v1.086
		C64.27,178.042,65.269,178.656,69.887,178.27"/>
	<path fill="#D5A384" d="M69.635,170.717c-0.079-0.332-0.921-1.277-1.243-0.265c-0.322,1.012,0.487,2.374,0.938,2.259
		C69.782,172.594,69.835,171.556,69.635,170.717"/>
	<polyline fill="#353855" points="86.704,189.274 86.697,189.273 86.704,189.274 	"/>
	<path fill="#353855" d="M57.216,213.05c0,0,2.247,0.661,6.081,1.084c3.832,0.422,13.409-0.152,13.469-0.606
		c0.061-0.452-2.06-16.859-1.939-17.706c0.12-0.845,0.186-3.855,0.186-3.855c0.047,0.825,0.888,4.196,1.902,6.032
		c0.367,0.665,1.596,2.744,2.189,2.271c2.869-2.291,7.313-10.923,7.594-10.996c-0.238-0.104-2.105-0.963-2.367-1.051
		c-0.23-0.076-2.3,2.115-3.554,3.474c-0.559,0.605-0.956,1.045-0.956,1.045c-0.362-0.814-1.681-5.946-2.091-7.723
		c-0.924-4.007-0.782-4.173-0.782-4.173c-2.804-0.849-7.06-2.576-7.06-2.576l-5.616-0.229c0,0-5.154,1.135-7.184,2.052
		c-0.193,0.087-0.194,4.599-0.722,5.781l1.683,3.55c0,0,0.972,7.033,1.174,10.161C59.313,201.021,57.216,213.05,57.216,213.05"/>
	<path fill="#353855" d="M56.131,191.731c0.147,0.473,0.813,0.873,1.245,1.048c0.277,0.111,0.587,0.148,0.899,0.09l0.22-0.04v-0.001
		l3.849-0.713c0,0,0.842-9.699-5.258-12.022C56.925,180.146,54.784,187.388,56.131,191.731"/>
	<path fill="#2A2C40" d="M57.375,192.779c0.277,0.111,0.587,0.148,0.899,0.09l0.22-0.04v-0.001l-0.379-4.955L57.375,192.779"/>
	<path fill="#2A2C40" d="M79.819,192.741l0.471,1.992c0,0,0.51-1.999,0.485-3.037C80.216,192.302,79.819,192.741,79.819,192.741"/>
	<path fill="#3E4148" d="M63.809,166.571c0,0-4.804-0.555-0.083,7.468L63.809,166.571"/>
	<polyline fill="#2D2F47" points="88.313,178.828 88.801,177.991 84.955,176.663 84.467,177.497 88.313,178.828 	"/>
	<path fill="#D5A384" d="M29.356,202.772c0,0,0.929-0.105,1.367-0.081c0.438,0.022,2.379,1.113,3.033,1.082
		c0.653-0.032,5.024-1.459,5.227-1.575c0.203-0.113-0.054-0.426-0.054-0.426l-9.67-0.947L29.356,202.772"/>
	<path fill="#D5A384" d="M35.755,200.936c0,0,1.08,0.452,1.56,0.958c0.109,0.113,0.194,0.245,0.128,0.389
		c-0.065,0.145-0.356,0.233-0.834,0.061c-0.478-0.172-1.174-0.175-1.174-0.175S34.996,201.848,35.755,200.936"/>
	<path fill="#2C2E45" d="M21.584,187.187l-0.998,10.186c0,0-0.437,1.259,2.417,1.722c2.911,0.473,7.46,1.462,7.46,1.462
		s-0.075,3.396-0.458,3.416c-1.11,0.062-9.373-1.339-12.646-2.03c-2.597-0.549-0.97-14.435-0.97-14.435L21.584,187.187"/>
	<path fill="#D5A384" d="M29.496,199.35c0,0,0.903,0.243,1.34,0.285c0.437,0.04,2.519-0.75,3.161-0.621
		c0.642,0.129,4.752,2.188,4.936,2.331c0.184,0.144-0.116,0.414-0.116,0.414l-9.704-0.496L29.496,199.35"/>
	<path fill="#2D2F47" d="M18.774,253.201c0,0,2.012,1.224,2.923,1.68c0.912,0.456,4.476,0.627,4.824,0.966
		c0.349,0.337,0.207,1.401-0.386,1.504c-0.592,0.103-4.929,0.442-6.371,0.087c-1.441-0.356-4.152,0.18-4.749-0.03
		c-0.596-0.211-0.171-3.434,0.068-4.155C15.325,252.53,18.774,253.201,18.774,253.201"/>
	<path fill="#3F4267" d="M18.958,251.884l-0.184,1.317c0,0-2.715,0.474-3.532,0.048l0.22-1.37L18.958,251.884"/>
	<path fill="#2D2F47" d="M24.313,205.704c0.076,0.912,0.137,2.9,0.183,4.992c0.01,0.465,0.019,0.934,0.027,1.398
		c0.052,2.816,0.077,5.421,0.077,5.421c-0.132,3.541-0.693,11.203-1.748,12.925c-1.423,2.322-3.072,21.651-3.072,21.651
		l-5.225,0.562c0,0-0.324-12.922,0.457-16.296c0.871-3.771,2.546-8.907,1.589-12.335c-0.601-2.152-1.852-9.076-1.852-9.076
		s-1.338-7.788,0.051-13.766C15.146,199.688,24.313,205.704,24.313,205.704"/>
	<path fill="#2D2F47" d="M27.749,253.201c0,0,2.012,1.224,2.924,1.68s4.475,0.627,4.823,0.966c0.349,0.337,0.207,1.401-0.384,1.504
		c-0.593,0.103-4.931,0.442-6.372,0.087c-1.442-0.356-4.153,0.18-4.749-0.03c-0.596-0.211-0.171-3.434,0.068-4.155
		C24.299,252.53,27.749,253.201,27.749,253.201"/>
	<path fill="#3F4267" d="M27.933,251.884l-0.185,1.317c0,0-2.715,0.474-3.531,0.048l0.22-1.37L27.933,251.884"/>
	<path fill="#2D2F47" d="M29.057,252.483h-5.358c0,0-1.798-10.36-1.946-14.924v-0.002c-0.017-0.495-0.013-0.924,0.015-1.261
		c0.077-0.968,0.192-2.03,0.299-3.127l0.003-0.024c0.314-3.267,0.547-6.854-0.535-9.284c-0.909-2.039-3.16-8.707-3.16-8.707
		s-2.462-7.508-1.963-13.624c0.124-1.527,9.643,2.313,9.643,2.313c0.208,0.89,0.846,3.693,1.071,5.771
		c1.289,11.878,0.807,19.614,0.807,19.614C27.197,231.852,29.057,252.483,29.057,252.483"/>
	<path fill="#C8BBB4" d="M25.224,178.521c0,0,1.861,4.418,2.244,6.785c0.382,2.367-1.186,8.846-1.257,10.185
		c-0.22,4.153-0.321,8.748-0.321,8.748l-9.07,4.042c0,0-0.964-3.692-1.61-8.207c-0.646-4.516-0.166-8.42,0.237-11.018
		c1.263-8.146,6.361-12.087,6.361-12.087L25.224,178.521"/>
	<path fill="#D5A384" d="M32.103,170.568c0,0,0.629,2.435-0.027,2.626c-0.543,0.159-0.032,2.52,0.018,2.898
		c0.05,0.377-1.005,0.383-1.271,0.552c-0.266,0.17-1.564,2.742-2.402,2.622c-0.84-0.118-4.212-2.312-4.96-3.603
		c-0.747-1.292-0.408-6.213,0.752-8.038S30.983,166.313,32.103,170.568"/>
	<path fill="#D5A384" d="M26.986,176.563c-0.104,0.382-0.292,1.125-0.44,1.769c-0.062,0.269-0.124,0.55-0.18,0.827
		c-0.146,0.719-0.254,1.411-0.235,1.807c0.05,1.087-3.826-4.051-3.826-4.051s0.904-3.394,1.299-7.305
		C23.999,165.7,26.986,176.563,26.986,176.563"/>
	<path fill="#626264" d="M32.22,171.091c0,0,1.754-2.027,0.03-4.278c-1.724-2.25-6.428-0.206-6.903-0.2
		c-0.475,0.005-3.002-0.447-2.867,4.316c0.12,4.241,0.328,4.057,0.328,4.057s1.307-1.778,1.854-2.001
		c0.855-0.349,2.414,0.17,2.414,0.17s-0.262-2.199,0.993-2.191C29.323,170.971,31.131,170.351,32.22,171.091"/>
	<path fill="#D5A384" d="M26.099,171.691c-0.037-0.302-0.082-1.571-1.271-1.125c-1.189,0.445-0.088,3.088,0.082,3.16
		C25.08,173.799,26.405,174.23,26.099,171.691"/>
	<path fill="#28293E" d="M26.469,205.712c0,0-0.416-1.958-0.497-2.251l-12.238,2.038l0.125,1.581
		C13.859,207.08,22.677,206.552,26.469,205.712"/>
	<path fill="#353855" d="M13.697,195.923c0,0,0.655,8.514-3.673,17.664c-0.529,1.117,8.103,1.059,8.103,1.059L13.697,195.923"/>
	<path fill="#353855" d="M26.305,188.348c-0.16,0.939-0.299,1.889-0.418,2.838v0.001c-0.238,1.892-0.4,3.789-0.506,5.641
		c-0.012,0.193-0.021,0.387-0.031,0.578c-0.016,0.312-0.031,0.621-0.043,0.929c-0.017,0.41-0.031,0.817-0.042,1.221
		c-0.246,8.421-3.36,15.056-3.36,15.056s-6.186,0.424-7.779-0.441c0,0-1.11-9.483-0.605-18.857c0.039-0.726,0.087-1.448,0.146-2.166
		l0.001-0.002c0.628-7.591,3.62-14.933,8.164-16.175C21.938,177.07,27.147,183.407,26.305,188.348"/>
	<polyline fill="#7A6F66" points="46.297,203.344 30.149,202.692 30.209,201.213 46.357,201.865 46.297,203.344 	"/>
	<polyline fill="#7A6F66" points="51.763,188.136 46.302,203.344 44.909,202.845 50.371,187.634 51.763,188.136 	"/>
	<path fill="#1F202E" d="M24.218,228.319c-0.455,2.946-2.421,9.103-2.465,9.238c-0.017-0.495-0.013-0.924,0.015-1.261
		c0.077-0.968,0.192-2.03,0.299-3.127l0.003-0.024c0.103-0.954,0.787-2.715,1.242-3.911c0.459-1.206,0.906-5.989,0.906-5.989
		S24.678,225.342,24.218,228.319"/>
	<path fill="#977560" d="M26.544,178.332c-0.061,0.269-0.124,0.55-0.18,0.827c-1.14-0.782-2.449-2.863-2.53-2.993
		C24.299,176.841,26.51,178.308,26.544,178.332"/>
	<path fill="#2C2E45" d="M25.351,196.35c-0.011,0.188-0.021,0.375-0.031,0.563c-0.016,0.303-0.031,0.605-0.043,0.905
		c-1.389-0.282-4.025-0.991-4.819-2.396c-1.081-1.917,1.616-6.396,1.674-6.491c-0.025,0.12-1.154,5.632,0,6.182
		C22.881,195.467,24.435,195.954,25.351,196.35"/>
	<path fill="#B2D78D" d="M26.284,182.284c0,0,0.943,4.713,0.113,10.341c-0.693,4.708-0.962,8.088-0.962,8.088l0.347,1.329
		l0.635-1.021c0,0,1.093-6.032,1.296-8.54c0.206-2.529,0.422-5.926-1.041-10.224L26.284,182.284"/>
	<path fill="#B2D78D" d="M26.222,182.287c0,0,0.116,0.151,0.304,0.209c0.188,0.057,0.508-0.209-0.279-1.651L26.222,182.287"/>
	<path fill="#E5D8D1" d="M22.438,176.378c0,0,2.39,3.039,3.959,3.867l-0.062,2.56l-4.529-5.836L22.438,176.378"/>
	<path fill="#353855" d="M17.25,184.723c0.185-1.163,1.541-6.105,4.334-5.378c2.792,0.727,2.005,4.09,1.396,6.623
		c-0.637,2.651-2.92,9.056-2.522,9.455c0.398,0.398,3.631,1.863,4.335,2.106c0.705,0.242,5.186,1.666,5.531,1.813
		c0.337,0.146-1.733,3.81-1.733,3.81s-11.167-3.808-13.061-5.039C13.636,196.882,17.25,184.723,17.25,184.723"/>
	<rect x="261.602" y="79.265" fill="#B3DCE8" width="5.011" height="15.217"/>
	<path fill="#85D9C4" d="M244.676,86.595h38.861c1.215,0,2.199-0.985,2.199-2.2V58.277c0-1.215-0.984-2.2-2.199-2.2h-38.861
		c-1.215,0-2.2,0.985-2.2,2.2v26.118C242.476,85.61,243.461,86.595,244.676,86.595"/>
	<rect x="244.169" y="57.818" fill="#FFFFFF" width="39.874" height="23.995"/>
	<path fill="#757474" d="M262.711,84.001c0,0.771,0.624,1.395,1.396,1.395c0.771,0,1.396-0.625,1.396-1.395
		c0-0.771-0.625-1.396-1.396-1.396C263.335,82.606,262.711,83.23,262.711,84.001"/>
	<rect x="252.837" y="93.908" fill="#85D9C4" width="22.539" height="1.148"/>
	<rect x="246.285" y="65.1" fill="#D5D5E3" width="12.816" height="14.814"/>
	<rect x="261.081" y="65.101" fill="#D5D5E3" width="13.203" height="1.846"/>
	<rect x="261.081" y="68.892" fill="#D5D5E3" width="13.203" height="1.847"/>
	<rect x="261.081" y="72.297" fill="#D5D5E3" width="13.203" height="7.618"/>
	<rect x="276.151" y="64.679" fill="#D5D5E3" width="5.602" height="15.236"/>
	<rect x="246.155" y="59.667" fill="#D5D5E3" width="35.468" height="3.804"/>
	<rect x="230.168" y="119.997" fill="#D5D5E3" width="17.003" height="3.392"/>
	<rect x="230.168" y="124.705" fill="#D5D5E3" width="6.998" height="16.627"/>
	<rect x="238.466" y="124.705" fill="#D5D5E3" width="8.705" height="1.926"/>
	<rect x="238.466" y="128.033" fill="#D5D5E3" width="8.705" height="1.926"/>
	<rect x="238.466" y="131.362" fill="#D5D5E3" width="8.705" height="1.926"/>
	<rect x="238.466" y="134.691" fill="#D5D5E3" width="8.705" height="6.641"/>
	<rect x="227.021" y="169.83" fill="#D5D5E3" width="29.591" height="2.889"/>
	<rect x="227.021" y="174.351" fill="#D5D5E3" width="10.146" height="13.233"/>
	<rect x="238.466" y="174.351" fill="#D5D5E3" width="10.146" height="13.233"/>
	<rect x="250.426" y="174.351" fill="#D5D5E3" width="6.186" height="1.892"/>
	<rect x="250.426" y="177.273" fill="#D5D5E3" width="6.186" height="1.892"/>
	<rect x="250.426" y="180.197" fill="#D5D5E3" width="6.186" height="7.387"/>
	<path fill="#85D9C4" d="M213.106,68.264l-10.818,0.045c-0.905,0.004-1.645-0.728-1.647-1.634l-0.096-22.578
		c-0.004-0.906,0.729-1.644,1.634-1.648l10.818-0.045c0.907-0.004,1.646,0.728,1.648,1.634l0.096,22.578
		C214.744,67.522,214.013,68.26,213.106,68.264"/>
	<path fill="#FFFFFF" d="M211.999,64.427l-8.635,0.037c-0.848,0.003-1.537-0.681-1.541-1.528l-0.071-17.066
		c-0.004-0.847,0.68-1.537,1.527-1.541l8.634-0.036c0.848-0.004,1.538,0.68,1.542,1.527l0.07,17.066
		C213.529,63.734,212.846,64.424,211.999,64.427"/>
	<path fill="#787777" d="M209.085,43.263l-2.986,0.013c-0.122,0-0.221,0.1-0.22,0.222c0.001,0.123,0.1,0.222,0.223,0.221
		l2.985-0.013c0.122,0,0.221-0.1,0.221-0.223C209.307,43.361,209.207,43.263,209.085,43.263"/>
	<path fill="#787777" d="M208.645,66.2c0.002,0.528-0.424,0.958-0.952,0.96c-0.527,0.002-0.958-0.424-0.96-0.952
		c-0.002-0.528,0.424-0.958,0.952-0.96C208.212,65.245,208.643,65.671,208.645,66.2"/>
	<rect x="203.113" y="45.561" fill="#D5D5E3" width="8.971" height="3.617"/>
	<rect x="203.113" y="50.117" fill="#D5D5E3" width="8.971" height="1.503"/>
	<rect x="203.113" y="52.559" fill="#D5D5E3" width="8.971" height="1.503"/>
	<rect x="203.113" y="55.002" fill="#D5D5E3" width="8.971" height="8.032"/>
</g>
</svg>
