<?xml version="1.0" encoding="utf-8"?>
<!-- Generator: Adobe Illustrator 15.0.0, SVG Export Plug-In . SVG Version: 6.00 Build 0)  -->
<!DOCTYPE svg PUBLIC "-//W3C//DTD SVG 1.1//EN" "http://www.w3.org/Graphics/SVG/1.1/DTD/svg11.dtd">
<svg version="1.1" id="Capa_1" xmlns="http://www.w3.org/2000/svg" xmlns:xlink="http://www.w3.org/1999/xlink" x="0px" y="0px"
	 width="730px" height="950px" viewBox="0 0 730 950" enable-background="new 0 0 730 950" xml:space="preserve">
<g>
	<g>
		<path d="M15.788,557.777c0.176,0.34,0.353,1.057,0.353,1.957c0,2.092-1.32,3.654-3.764,3.654c-2.332,0-3.895-1.574-3.895-3.873
			c0-0.914,0.199-1.508,0.33-1.76l0.781,0.242c-0.176,0.352-0.308,0.869-0.308,1.484c0,1.738,1.111,2.893,3.059,2.893
			c1.826,0,2.981-1.045,2.981-2.838c0-0.594-0.121-1.188-0.309-1.572L15.788,557.777z"/>
		<path d="M12.234,550.463c2.541,0,3.906,1.551,3.906,3.443c0,1.969-1.529,3.332-3.773,3.332c-2.355,0-3.895-1.451-3.895-3.432
			C8.473,551.771,10.023,550.463,12.234,550.463z M12.345,556.227c1.595,0,3.015-0.857,3.015-2.376s-1.397-2.376-3.081-2.376
			c-1.485,0-3.025,0.77-3.025,2.365S10.727,556.227,12.345,556.227z"/>
		<path d="M16.02,549.221H8.604v-1.057l3.752-2.365c0.869-0.539,1.65-0.979,2.409-1.32l-0.011-0.033
			c-0.99,0.088-1.893,0.109-3.047,0.109H8.604v-0.901h7.416v0.968l-3.764,2.354c-0.824,0.517-1.672,1.013-2.475,1.376l0.011,0.032
			c0.935-0.055,1.827-0.065,3.059-0.065h3.169V549.221z"/>
		<path d="M8.604,541.993V538h0.804v3.025h2.464v-2.795h0.793v2.795h3.355v0.968H8.604z"/>
		<path d="M8.604,535.668h7.416v0.969H8.604V535.668z"/>
		<path d="M8.714,533.996c-0.099-0.583-0.165-1.275-0.165-2.035c0-1.375,0.33-2.354,0.924-3.004c0.605-0.67,1.464-1.056,2.662-1.056
			c1.211,0,2.201,0.386,2.883,1.067c0.693,0.704,1.067,1.848,1.067,3.289c0,0.693-0.032,1.254-0.088,1.738H8.714z M15.271,533.039
			c0.032-0.242,0.043-0.594,0.043-0.968c0-2.058-1.144-3.157-3.146-3.157c-1.748-0.012-2.859,0.979-2.859,3.003
			c0,0.495,0.043,0.869,0.099,1.122H15.271z"/>
		<path d="M12.543,522.842v2.871h2.673v-3.212h0.804v4.181H8.604v-4.016h0.804v3.047h2.343v-2.871H12.543z"/>
		<path d="M16.02,521.259H8.604v-1.056l3.752-2.366c0.869-0.539,1.65-0.979,2.409-1.319l-0.011-0.033
			c-0.99,0.088-1.893,0.109-3.047,0.109H8.604v-0.902h7.416v0.969l-3.764,2.354c-0.824,0.518-1.672,1.013-2.475,1.376l0.011,0.032
			c0.935-0.055,1.827-0.065,3.059-0.065h3.169V521.259z"/>
		<path d="M15.788,508.85c0.176,0.342,0.353,1.057,0.353,1.959c0,2.09-1.32,3.652-3.764,3.652c-2.332,0-3.895-1.573-3.895-3.873
			c0-0.912,0.199-1.507,0.33-1.76l0.781,0.242c-0.176,0.352-0.308,0.869-0.308,1.484c0,1.738,1.111,2.895,3.059,2.895
			c1.826,0,2.981-1.045,2.981-2.839c0-0.595-0.121-1.188-0.309-1.573L15.788,508.85z"/>
		<path d="M8.604,506.684h7.416v0.969H8.604V506.684z"/>
		<path d="M13.687,503.813l2.333,0.771v0.99l-7.416-2.53v-1.145l7.416-2.53v1.023l-2.333,0.792V503.813z M12.938,501.371
			l-2.134,0.736c-0.484,0.165-0.924,0.275-1.354,0.385v0.022c0.43,0.11,0.891,0.22,1.342,0.374l2.146,0.727V501.371z"/>
		<path d="M8.604,498.291v-0.969h6.612v-3.168h0.804v4.137H8.604z"/>
		<path d="M12.895,486.422h0.66v4.84h-0.66V486.422z"/>
		<path d="M15.788,477.754c0.176,0.34,0.353,1.056,0.353,1.958c0,2.09-1.32,3.652-3.764,3.652c-2.332,0-3.895-1.573-3.895-3.872
			c0-0.914,0.199-1.508,0.33-1.761l0.781,0.242c-0.176,0.353-0.308,0.869-0.308,1.485c0,1.738,1.111,2.893,3.059,2.893
			c1.826,0,2.981-1.045,2.981-2.838c0-0.594-0.121-1.188-0.309-1.573L15.788,477.754z"/>
		<path d="M12.234,470.438c2.541,0,3.906,1.551,3.906,3.443c0,1.969-1.529,3.333-3.773,3.333c-2.355,0-3.895-1.452-3.895-3.432
			C8.473,471.748,10.023,470.438,12.234,470.438z M12.345,476.203c1.595,0,3.015-0.858,3.015-2.376c0-1.518-1.397-2.376-3.081-2.376
			c-1.485,0-3.025,0.771-3.025,2.366S10.727,476.203,12.345,476.203z"/>
		<path d="M8.691,469.197c-0.076-0.462-0.143-1.067-0.143-1.837c0-0.946,0.221-1.639,0.616-2.079
			c0.353-0.396,0.892-0.649,1.552-0.649c0.67,0,1.199,0.198,1.584,0.572c0.539,0.517,0.814,1.331,0.814,2.266
			c0,0.286-0.012,0.55-0.066,0.77h2.971v0.958H8.691z M12.268,468.239c0.055-0.209,0.077-0.473,0.077-0.792
			c0-1.155-0.572-1.859-1.573-1.859c-0.99,0-1.463,0.704-1.463,1.75c0,0.418,0.033,0.737,0.076,0.902H12.268z"/>
		<path d="M8.604,462.387h7.416v0.968H8.604V462.387z"/>
		<path d="M13.687,459.517l2.333,0.77v0.99l-7.416-2.53v-1.145l7.416-2.53v1.023l-2.333,0.792V459.517z M12.938,457.074
			l-2.134,0.737c-0.484,0.165-0.924,0.275-1.354,0.385v0.022c0.43,0.11,0.891,0.22,1.342,0.374l2.146,0.726V457.074z"/>
		<path d="M15.788,446.481c0.176,0.341,0.353,1.056,0.353,1.958c0,2.09-1.32,3.652-3.764,3.652c-2.332,0-3.895-1.573-3.895-3.873
			c0-0.913,0.199-1.507,0.33-1.76l0.781,0.242c-0.176,0.352-0.308,0.869-0.308,1.485c0,1.738,1.111,2.894,3.059,2.894
			c1.826,0,2.981-1.045,2.981-2.838c0-0.594-0.121-1.188-0.309-1.573L15.788,446.481z"/>
		<path d="M12.234,439.166c2.541,0,3.906,1.551,3.906,3.443c0,1.969-1.529,3.333-3.773,3.333c-2.355,0-3.895-1.452-3.895-3.433
			C8.473,440.475,10.023,439.166,12.234,439.166z M12.345,444.931c1.595,0,3.015-0.858,3.015-2.376c0-1.518-1.397-2.376-3.081-2.376
			c-1.485,0-3.025,0.771-3.025,2.366S10.727,444.931,12.345,444.931z"/>
		<path d="M16.02,437.924H8.604v-1.056l3.752-2.366c0.869-0.539,1.65-0.979,2.409-1.32l-0.011-0.033
			c-0.99,0.088-1.893,0.11-3.047,0.11H8.604v-0.902h7.416v0.968l-3.764,2.354c-0.824,0.517-1.672,1.012-2.475,1.375l0.011,0.033
			c0.935-0.055,1.827-0.066,3.059-0.066h3.169V437.924z"/>
		<path d="M9.418,429.278v2.255H8.604v-5.49h0.814v2.267h6.602v0.968H9.418z"/>
		<path d="M8.703,425.219c-0.088-0.484-0.154-1.188-0.154-1.837c0-1.023,0.198-1.694,0.605-2.146
			c0.33-0.363,0.836-0.583,1.419-0.583c0.968,0,1.617,0.616,1.882,1.386h0.032c0.198-0.561,0.727-0.902,1.497-1.078
			c1.033-0.242,1.748-0.418,2.035-0.572v0.99c-0.221,0.121-0.848,0.286-1.771,0.484c-1.023,0.22-1.408,0.627-1.441,1.496v0.902
			h3.213v0.958H8.703z M12.08,424.262v-0.979c0-1.023-0.561-1.672-1.408-1.672c-0.957,0-1.375,0.693-1.375,1.706
			c0,0.462,0.033,0.781,0.077,0.946H12.08z"/>
		<path d="M12.234,412.931c2.541,0,3.906,1.551,3.906,3.443c0,1.969-1.529,3.333-3.773,3.333c-2.355,0-3.895-1.452-3.895-3.433
			C8.473,414.24,10.023,412.931,12.234,412.931z M12.345,418.696c1.595,0,3.015-0.858,3.015-2.376c0-1.518-1.397-2.376-3.081-2.376
			c-1.485,0-3.025,0.77-3.025,2.365S10.727,418.696,12.345,418.696z"/>
		<path d="M8.604,411.7v-0.968h6.612v-3.168h0.804v4.137H8.604z"/>
		<path d="M13.687,405.298l2.333,0.77v0.99l-7.416-2.53v-1.145l7.416-2.53v1.023l-2.333,0.792V405.298z M12.938,402.856
			l-2.134,0.737c-0.484,0.165-0.924,0.275-1.354,0.385V404c0.43,0.11,0.891,0.22,1.342,0.374l2.146,0.726V402.856z"/>
		<path d="M8.714,399.766c-0.099-0.583-0.165-1.276-0.165-2.036c0-1.375,0.33-2.354,0.924-3.003
			c0.605-0.671,1.464-1.056,2.662-1.056c1.211,0,2.201,0.385,2.883,1.067c0.693,0.704,1.067,1.848,1.067,3.29
			c0,0.693-0.032,1.254-0.088,1.738H8.714z M15.271,398.808c0.032-0.242,0.043-0.594,0.043-0.968c0-2.058-1.144-3.158-3.146-3.158
			c-1.748-0.011-2.859,0.979-2.859,3.003c0,0.495,0.043,0.869,0.099,1.122H15.271z"/>
		<path d="M13.687,391.395l2.333,0.77v0.99l-7.416-2.53v-1.145l7.416-2.53v1.023l-2.333,0.792V391.395z M12.938,388.952
			l-2.134,0.737c-0.484,0.165-0.924,0.275-1.354,0.385v0.022c0.43,0.11,0.891,0.22,1.342,0.374l2.146,0.726V388.952z"/>
	</g>
	<g>
		<path d="M15.788,354.783c0.176,0.34,0.353,1.057,0.353,1.957c0,2.092-1.32,3.654-3.764,3.654c-2.332,0-3.895-1.574-3.895-3.873
			c0-0.914,0.199-1.508,0.33-1.76l0.781,0.242c-0.176,0.352-0.308,0.869-0.308,1.484c0,1.738,1.111,2.893,3.059,2.893
			c1.826,0,2.981-1.045,2.981-2.838c0-0.594-0.121-1.188-0.309-1.572L15.788,354.783z"/>
		<path d="M12.234,347.469c2.541,0,3.906,1.551,3.906,3.443c0,1.969-1.529,3.332-3.773,3.332c-2.355,0-3.895-1.451-3.895-3.432
			C8.473,348.777,10.023,347.469,12.234,347.469z M12.345,353.232c1.595,0,3.015-0.857,3.015-2.376s-1.397-2.376-3.081-2.376
			c-1.485,0-3.025,0.77-3.025,2.365S10.727,353.232,12.345,353.232z"/>
		<path d="M16.02,346.227H8.604v-1.057l3.752-2.365c0.869-0.539,1.65-0.979,2.409-1.32l-0.011-0.033
			c-0.99,0.088-1.893,0.109-3.047,0.109H8.604v-0.901h7.416v0.968l-3.764,2.354c-0.824,0.517-1.672,1.013-2.475,1.376l0.011,0.032
			c0.935-0.055,1.827-0.065,3.059-0.065h3.169V346.227z"/>
		<path d="M8.604,338.999v-3.993h0.804v3.025h2.464v-2.795h0.793v2.795h3.355v0.968H8.604z"/>
		<path d="M8.604,332.674h7.416v0.969H8.604V332.674z"/>
		<path d="M8.714,331.002c-0.099-0.583-0.165-1.275-0.165-2.035c0-1.375,0.33-2.354,0.924-3.004c0.605-0.67,1.464-1.056,2.662-1.056
			c1.211,0,2.201,0.386,2.883,1.067c0.693,0.704,1.067,1.848,1.067,3.289c0,0.693-0.032,1.254-0.088,1.738H8.714z M15.271,330.045
			c0.032-0.242,0.043-0.594,0.043-0.968c0-2.058-1.144-3.157-3.146-3.157c-1.748-0.012-2.859,0.979-2.859,3.003
			c0,0.495,0.043,0.869,0.099,1.122H15.271z"/>
		<path d="M12.543,319.848v2.871h2.673v-3.212h0.804v4.181H8.604v-4.016h0.804v3.047h2.343v-2.871H12.543z"/>
		<path d="M16.02,318.265H8.604v-1.056l3.752-2.366c0.869-0.539,1.65-0.979,2.409-1.32l-0.011-0.033
			c-0.99,0.088-1.893,0.11-3.047,0.11H8.604v-0.902h7.416v0.968l-3.764,2.354c-0.824,0.517-1.672,1.012-2.475,1.375l0.011,0.033
			c0.935-0.055,1.827-0.066,3.059-0.066h3.169V318.265z"/>
		<path d="M15.788,305.856c0.176,0.341,0.353,1.056,0.353,1.958c0,2.09-1.32,3.652-3.764,3.652c-2.332,0-3.895-1.573-3.895-3.873
			c0-0.913,0.199-1.507,0.33-1.76l0.781,0.242c-0.176,0.352-0.308,0.869-0.308,1.485c0,1.738,1.111,2.894,3.059,2.894
			c1.826,0,2.981-1.045,2.981-2.838c0-0.594-0.121-1.188-0.309-1.573L15.788,305.856z"/>
		<path d="M8.604,303.689h7.416v0.968H8.604V303.689z"/>
		<path d="M13.687,300.819l2.333,0.77v0.99l-7.416-2.53v-1.145l7.416-2.53v1.023l-2.333,0.792V300.819z M12.938,298.376
			l-2.134,0.737c-0.484,0.165-0.924,0.275-1.354,0.385v0.022c0.43,0.11,0.891,0.22,1.342,0.374l2.146,0.726V298.376z"/>
		<path d="M8.604,295.297v-0.968h6.612v-3.168h0.804v4.137H8.604z"/>
		<path d="M12.895,283.427h0.66v4.841h-0.66V283.427z"/>
		<path d="M15.788,274.759c0.176,0.341,0.353,1.056,0.353,1.958c0,2.09-1.32,3.652-3.764,3.652c-2.332,0-3.895-1.573-3.895-3.873
			c0-0.913,0.199-1.507,0.33-1.76l0.781,0.242c-0.176,0.352-0.308,0.869-0.308,1.485c0,1.738,1.111,2.894,3.059,2.894
			c1.826,0,2.981-1.045,2.981-2.838c0-0.594-0.121-1.188-0.309-1.573L15.788,274.759z"/>
		<path d="M12.234,267.444c2.541,0,3.906,1.551,3.906,3.443c0,1.969-1.529,3.333-3.773,3.333c-2.355,0-3.895-1.452-3.895-3.433
			C8.473,268.753,10.023,267.444,12.234,267.444z M12.345,273.209c1.595,0,3.015-0.858,3.015-2.376c0-1.518-1.397-2.376-3.081-2.376
			c-1.485,0-3.025,0.771-3.025,2.366S10.727,273.209,12.345,273.209z"/>
		<path d="M8.691,266.203c-0.076-0.462-0.143-1.067-0.143-1.837c0-0.946,0.221-1.639,0.616-2.079
			c0.353-0.396,0.892-0.649,1.552-0.649c0.67,0,1.199,0.198,1.584,0.572c0.539,0.517,0.814,1.331,0.814,2.266
			c0,0.286-0.012,0.55-0.066,0.77h2.971v0.958H8.691z M12.268,265.245c0.055-0.209,0.077-0.473,0.077-0.792
			c0-1.155-0.572-1.859-1.573-1.859c-0.99,0-1.463,0.704-1.463,1.75c0,0.418,0.033,0.737,0.076,0.902H12.268z"/>
		<path d="M8.604,259.393h7.416v0.968H8.604V259.393z"/>
		<path d="M13.687,256.522l2.333,0.77v0.99l-7.416-2.53v-1.145l7.416-2.53v1.023l-2.333,0.792V256.522z M12.938,254.08l-2.134,0.737
			c-0.484,0.165-0.924,0.275-1.354,0.385v0.022c0.43,0.11,0.891,0.22,1.342,0.374l2.146,0.726V254.08z"/>
		<path d="M15.788,243.487c0.176,0.341,0.353,1.056,0.353,1.958c0,2.09-1.32,3.652-3.764,3.652c-2.332,0-3.895-1.573-3.895-3.873
			c0-0.913,0.199-1.507,0.33-1.76l0.781,0.242c-0.176,0.352-0.308,0.869-0.308,1.485c0,1.738,1.111,2.894,3.059,2.894
			c1.826,0,2.981-1.045,2.981-2.838c0-0.594-0.121-1.188-0.309-1.573L15.788,243.487z"/>
		<path d="M12.234,236.172c2.541,0,3.906,1.551,3.906,3.443c0,1.969-1.529,3.333-3.773,3.333c-2.355,0-3.895-1.452-3.895-3.433
			C8.473,237.481,10.023,236.172,12.234,236.172z M12.345,241.937c1.595,0,3.015-0.858,3.015-2.376c0-1.518-1.397-2.376-3.081-2.376
			c-1.485,0-3.025,0.771-3.025,2.366S10.727,241.937,12.345,241.937z"/>
		<path d="M16.02,234.93H8.604v-1.056l3.752-2.366c0.869-0.539,1.65-0.979,2.409-1.32l-0.011-0.033
			c-0.99,0.088-1.893,0.11-3.047,0.11H8.604v-0.902h7.416v0.968l-3.764,2.354c-0.824,0.517-1.672,1.012-2.475,1.375l0.011,0.033
			c0.935-0.055,1.827-0.066,3.059-0.066h3.169V234.93z"/>
		<path d="M9.418,226.284v2.255H8.604v-5.49h0.814v2.267h6.602v0.968H9.418z"/>
		<path d="M8.703,222.225c-0.088-0.484-0.154-1.188-0.154-1.837c0-1.023,0.198-1.694,0.605-2.146
			c0.33-0.363,0.836-0.583,1.419-0.583c0.968,0,1.617,0.616,1.882,1.386h0.032c0.198-0.561,0.727-0.902,1.497-1.078
			c1.033-0.242,1.748-0.418,2.035-0.572v0.99c-0.221,0.121-0.848,0.286-1.771,0.484c-1.023,0.22-1.408,0.627-1.441,1.496v0.902
			h3.213v0.958H8.703z M12.08,221.268v-0.979c0-1.023-0.561-1.672-1.408-1.672c-0.957,0-1.375,0.693-1.375,1.706
			c0,0.462,0.033,0.781,0.077,0.946H12.08z"/>
		<path d="M12.234,209.937c2.541,0,3.906,1.551,3.906,3.443c0,1.969-1.529,3.333-3.773,3.333c-2.355,0-3.895-1.452-3.895-3.433
			C8.473,211.246,10.023,209.937,12.234,209.937z M12.345,215.702c1.595,0,3.015-0.858,3.015-2.376c0-1.518-1.397-2.376-3.081-2.376
			c-1.485,0-3.025,0.77-3.025,2.365S10.727,215.702,12.345,215.702z"/>
		<path d="M8.604,208.706v-0.968h6.612v-3.168h0.804v4.137H8.604z"/>
		<path d="M13.687,202.304l2.333,0.77v0.99l-7.416-2.53v-1.145l7.416-2.53v1.023l-2.333,0.792V202.304z M12.938,199.862
			l-2.134,0.737c-0.484,0.165-0.924,0.275-1.354,0.385v0.022c0.43,0.11,0.891,0.22,1.342,0.374l2.146,0.726V199.862z"/>
		<path d="M8.714,196.771c-0.099-0.583-0.165-1.276-0.165-2.036c0-1.375,0.33-2.354,0.924-3.003
			c0.605-0.671,1.464-1.056,2.662-1.056c1.211,0,2.201,0.385,2.883,1.067c0.693,0.704,1.067,1.848,1.067,3.29
			c0,0.693-0.032,1.254-0.088,1.738H8.714z M15.271,195.814c0.032-0.242,0.043-0.594,0.043-0.968c0-2.058-1.144-3.158-3.146-3.158
			c-1.748-0.011-2.859,0.979-2.859,3.003c0,0.495,0.043,0.869,0.099,1.122H15.271z"/>
		<path d="M13.687,188.4l2.333,0.77v0.99l-7.416-2.53v-1.145l7.416-2.53v1.023l-2.333,0.792V188.4z M12.938,185.958l-2.134,0.737
			c-0.484,0.165-0.924,0.275-1.354,0.385v0.022c0.43,0.11,0.891,0.22,1.342,0.374l2.146,0.726V185.958z"/>
	</g>
	<g>
		<path d="M15.788,760.771c0.176,0.34,0.353,1.057,0.353,1.957c0,2.092-1.32,3.654-3.764,3.654c-2.332,0-3.895-1.574-3.895-3.873
			c0-0.914,0.199-1.508,0.33-1.76l0.781,0.242c-0.176,0.352-0.308,0.869-0.308,1.484c0,1.738,1.111,2.893,3.059,2.893
			c1.826,0,2.981-1.045,2.981-2.838c0-0.594-0.121-1.188-0.309-1.572L15.788,760.771z"/>
		<path d="M12.234,753.457c2.541,0,3.906,1.551,3.906,3.443c0,1.969-1.529,3.332-3.773,3.332c-2.355,0-3.895-1.451-3.895-3.432
			C8.473,754.766,10.023,753.457,12.234,753.457z M12.345,759.221c1.595,0,3.015-0.857,3.015-2.376s-1.397-2.376-3.081-2.376
			c-1.485,0-3.025,0.77-3.025,2.365S10.727,759.221,12.345,759.221z"/>
		<path d="M16.02,752.215H8.604v-1.057l3.752-2.365c0.869-0.539,1.65-0.979,2.409-1.32l-0.011-0.033
			c-0.99,0.088-1.893,0.109-3.047,0.109H8.604v-0.901h7.416v0.968l-3.764,2.354c-0.824,0.517-1.672,1.013-2.475,1.376l0.011,0.032
			c0.935-0.055,1.827-0.065,3.059-0.065h3.169V752.215z"/>
		<path d="M8.604,744.987v-3.993h0.804v3.025h2.464v-2.795h0.793v2.795h3.355v0.968H8.604z"/>
		<path d="M8.604,738.662h7.416v0.969H8.604V738.662z"/>
		<path d="M8.714,736.99c-0.099-0.583-0.165-1.275-0.165-2.035c0-1.375,0.33-2.354,0.924-3.004c0.605-0.67,1.464-1.056,2.662-1.056
			c1.211,0,2.201,0.386,2.883,1.067c0.693,0.704,1.067,1.848,1.067,3.289c0,0.693-0.032,1.254-0.088,1.738H8.714z M15.271,736.033
			c0.032-0.242,0.043-0.594,0.043-0.968c0-2.058-1.144-3.157-3.146-3.157c-1.748-0.012-2.859,0.979-2.859,3.003
			c0,0.495,0.043,0.869,0.099,1.122H15.271z"/>
		<path d="M12.543,725.836v2.871h2.673v-3.212h0.804v4.181H8.604v-4.016h0.804v3.047h2.343v-2.871H12.543z"/>
		<path d="M16.02,724.253H8.604v-1.056l3.752-2.366c0.869-0.539,1.65-0.979,2.409-1.319l-0.011-0.033
			c-0.99,0.088-1.893,0.109-3.047,0.109H8.604v-0.902h7.416v0.969l-3.764,2.354c-0.824,0.518-1.672,1.013-2.475,1.376l0.011,0.032
			c0.935-0.055,1.827-0.065,3.059-0.065h3.169V724.253z"/>
		<path d="M15.788,711.844c0.176,0.342,0.353,1.057,0.353,1.959c0,2.09-1.32,3.652-3.764,3.652c-2.332,0-3.895-1.573-3.895-3.873
			c0-0.912,0.199-1.507,0.33-1.76l0.781,0.242c-0.176,0.352-0.308,0.869-0.308,1.484c0,1.738,1.111,2.895,3.059,2.895
			c1.826,0,2.981-1.045,2.981-2.839c0-0.595-0.121-1.188-0.309-1.573L15.788,711.844z"/>
		<path d="M8.604,709.678h7.416v0.969H8.604V709.678z"/>
		<path d="M13.687,706.807l2.333,0.771v0.99l-7.416-2.53v-1.145l7.416-2.53v1.023l-2.333,0.792V706.807z M12.938,704.365
			l-2.134,0.736c-0.484,0.165-0.924,0.275-1.354,0.385v0.022c0.43,0.11,0.891,0.22,1.342,0.374l2.146,0.727V704.365z"/>
		<path d="M8.604,701.285v-0.969h6.612v-3.168h0.804v4.137H8.604z"/>
		<path d="M12.895,689.416h0.66v4.84h-0.66V689.416z"/>
		<path d="M15.788,680.748c0.176,0.34,0.353,1.056,0.353,1.958c0,2.09-1.32,3.652-3.764,3.652c-2.332,0-3.895-1.573-3.895-3.872
			c0-0.914,0.199-1.508,0.33-1.761l0.781,0.242c-0.176,0.353-0.308,0.869-0.308,1.485c0,1.738,1.111,2.893,3.059,2.893
			c1.826,0,2.981-1.045,2.981-2.838c0-0.594-0.121-1.188-0.309-1.573L15.788,680.748z"/>
		<path d="M12.234,673.433c2.541,0,3.906,1.552,3.906,3.443c0,1.97-1.529,3.333-3.773,3.333c-2.355,0-3.895-1.451-3.895-3.432
			C8.473,674.742,10.023,673.433,12.234,673.433z M12.345,679.197c1.595,0,3.015-0.857,3.015-2.377c0-1.518-1.397-2.376-3.081-2.376
			c-1.485,0-3.025,0.771-3.025,2.366C9.253,678.405,10.727,679.197,12.345,679.197z"/>
		<path d="M8.691,672.191c-0.076-0.463-0.143-1.068-0.143-1.838c0-0.946,0.221-1.639,0.616-2.079
			c0.353-0.396,0.892-0.649,1.552-0.649c0.67,0,1.199,0.198,1.584,0.572c0.539,0.518,0.814,1.331,0.814,2.266
			c0,0.287-0.012,0.551-0.066,0.771h2.971v0.958H8.691z M12.268,671.233c0.055-0.209,0.077-0.473,0.077-0.792
			c0-1.155-0.572-1.859-1.573-1.859c-0.99,0-1.463,0.704-1.463,1.75c0,0.418,0.033,0.736,0.076,0.901H12.268z"/>
		<path d="M8.604,665.381h7.416v0.969H8.604V665.381z"/>
		<path d="M13.687,662.511l2.333,0.771v0.99l-7.416-2.531v-1.145l7.416-2.529v1.022l-2.333,0.792V662.511z M12.938,660.068
			l-2.134,0.736c-0.484,0.166-0.924,0.275-1.354,0.386v0.022c0.43,0.109,0.891,0.22,1.342,0.373l2.146,0.727V660.068z"/>
		<path d="M15.788,649.475c0.176,0.342,0.353,1.057,0.353,1.959c0,2.09-1.32,3.652-3.764,3.652c-2.332,0-3.895-1.573-3.895-3.873
			c0-0.912,0.199-1.507,0.33-1.76l0.781,0.242c-0.176,0.352-0.308,0.869-0.308,1.484c0,1.738,1.111,2.895,3.059,2.895
			c1.826,0,2.981-1.045,2.981-2.839c0-0.595-0.121-1.188-0.309-1.573L15.788,649.475z"/>
		<path d="M12.234,642.16c2.541,0,3.906,1.551,3.906,3.443c0,1.969-1.529,3.334-3.773,3.334c-2.355,0-3.895-1.453-3.895-3.434
			C8.473,643.469,10.023,642.16,12.234,642.16z M12.345,647.925c1.595,0,3.015-0.858,3.015-2.376c0-1.519-1.397-2.377-3.081-2.377
			c-1.485,0-3.025,0.771-3.025,2.365C9.253,647.133,10.727,647.925,12.345,647.925z"/>
		<path d="M16.02,640.918H8.604v-1.057l3.752-2.365c0.869-0.539,1.65-0.979,2.409-1.32l-0.011-0.033
			c-0.99,0.088-1.893,0.11-3.047,0.11H8.604v-0.901h7.416v0.968l-3.764,2.354c-0.824,0.517-1.672,1.012-2.475,1.375l0.011,0.033
			c0.935-0.055,1.827-0.066,3.059-0.066h3.169V640.918z"/>
		<path d="M9.418,632.271v2.256H8.604v-5.49h0.814v2.267h6.602v0.968H9.418z"/>
		<path d="M8.703,628.213c-0.088-0.484-0.154-1.188-0.154-1.837c0-1.023,0.198-1.694,0.605-2.146
			c0.33-0.363,0.836-0.583,1.419-0.583c0.968,0,1.617,0.616,1.882,1.386h0.032c0.198-0.561,0.727-0.901,1.497-1.078
			c1.033-0.242,1.748-0.418,2.035-0.572v0.99c-0.221,0.121-0.848,0.287-1.771,0.484c-1.023,0.221-1.408,0.627-1.441,1.496v0.902
			h3.213v0.957H8.703z M12.08,627.256v-0.979c0-1.023-0.561-1.673-1.408-1.673c-0.957,0-1.375,0.693-1.375,1.706
			c0,0.461,0.033,0.78,0.077,0.945H12.08z"/>
		<path d="M12.234,615.926c2.541,0,3.906,1.551,3.906,3.443c0,1.969-1.529,3.333-3.773,3.333c-2.355,0-3.895-1.452-3.895-3.433
			C8.473,617.234,10.023,615.926,12.234,615.926z M12.345,621.689c1.595,0,3.015-0.857,3.015-2.376s-1.397-2.376-3.081-2.376
			c-1.485,0-3.025,0.77-3.025,2.365S10.727,621.689,12.345,621.689z"/>
		<path d="M8.604,614.694v-0.968h6.612v-3.169h0.804v4.137H8.604z"/>
		<path d="M13.687,608.293l2.333,0.77v0.99l-7.416-2.53v-1.145l7.416-2.53v1.023l-2.333,0.792V608.293z M12.938,605.85l-2.134,0.737
			c-0.484,0.165-0.924,0.275-1.354,0.386v0.021c0.43,0.109,0.891,0.221,1.342,0.374l2.146,0.726V605.85z"/>
		<path d="M8.714,602.76c-0.099-0.584-0.165-1.276-0.165-2.035c0-1.375,0.33-2.354,0.924-3.004c0.605-0.671,1.464-1.057,2.662-1.057
			c1.211,0,2.201,0.386,2.883,1.068c0.693,0.703,1.067,1.848,1.067,3.289c0,0.693-0.032,1.254-0.088,1.738H8.714z M15.271,601.803
			c0.032-0.242,0.043-0.594,0.043-0.969c0-2.057-1.144-3.157-3.146-3.157c-1.748-0.011-2.859,0.979-2.859,3.003
			c0,0.496,0.043,0.869,0.099,1.123H15.271z"/>
		<path d="M13.687,594.389l2.333,0.77v0.99l-7.416-2.529v-1.145l7.416-2.531v1.023l-2.333,0.793V594.389z M12.938,591.946
			l-2.134,0.737c-0.484,0.164-0.924,0.275-1.354,0.385v0.021c0.43,0.11,0.891,0.221,1.342,0.375l2.146,0.726V591.946z"/>
	</g>
</g>
</svg>
