<?xml version="1.0" encoding="utf-8"?>
<!-- Generator: Adobe Illustrator 15.0.0, SVG Export Plug-In . SVG Version: 6.00 Build 0)  -->
<!DOCTYPE svg PUBLIC "-//W3C//DTD SVG 1.1//EN" "http://www.w3.org/Graphics/SVG/1.1/DTD/svg11.dtd">
<svg version="1.1" id="Capa_1" xmlns="http://www.w3.org/2000/svg" xmlns:xlink="http://www.w3.org/1999/xlink" x="0px" y="0px"
	 width="300px" height="300px" viewBox="0 0 300 300" enable-background="new 0 0 300 300" xml:space="preserve">
<g>
	<path fill="#F4D69A" d="M12.5,270.51c-7.341,3.046,3.416,4.686,7.591,5.796c3.155,0.841,11.922,1.897,15.16,2.314
		c3.995,0.514,13.455,0.934,17.387,0.063c23.153-5.127,40.931-1.509,67.111-2.426c1.893-0.066,9.298-2.961,11.014-3.765
		c10.733-5.028,38.238-3.524,53.668-2.483c10.67,4.233,18.844,4.808,24.352,5.91c16.312,3.267,49.104,1.914,54.312,0.762
		c9.061-2.006,12.908-1.3,18.398-4.224c2.204-1.174,10.427-2.592,8.096-7.662c-0.664-1.442-13.994-4.905-15.565-5.13
		c-11.908-1.697-18.666-2.661-30.573-4.358c-15.289-2.18-30.68-4.365-46.109-3.737c-18.463,0.752-36.841,5.524-55.217,3.584
		c-7.622-0.805-15.296-2.761-22.852-1.476c-5.82,0.989-22.742,2.4-25.511,2.4c-3.899,0-7.539,1.781-11.161,3.225
		c-11.761,4.688-24.495,6.01-37.055,6.33c-5.091,0.13-10.242,0.057-15.321,0.362c-3.232,0.194-6.443,0.711-9.572,1.542
		C19.057,267.96,13.849,270.869,12.5,270.51"/>
	<path fill="#A1DDE9" d="M199.477,39.243c-1.423,1.463-2.428,3.465-2.225,5.496c0.244,2.429,2.104,4.378,2.843,6.705
		c0.419,1.318,0.466,2.725,0.813,4.063c0.346,1.338,1.098,2.696,2.384,3.203c0.755,0.298,1.596,0.265,2.403,0.195
		c8.159-0.702,16.178,2.363,24.203,2.363c-0.979-4.305-2.075-14.278-3.288-18.522c-0.9-3.149-2.048-6.534-4.788-8.327
		c-2.488-1.628-5.716-1.539-8.646-1.035C208.449,34.197,202.919,35.699,199.477,39.243"/>
	<path fill="#A1DDE9" d="M245.664,56.645H106.382c-2.615,0-4.735,2.148-4.735,4.798v193.719c0,2.649,2.121,4.799,4.735,4.799
		h139.282c2.616,0,4.736-2.149,4.736-4.799V61.443C250.4,58.793,248.28,56.645,245.664,56.645"/>
	<path fill="#FFFFFF" d="M237.246,67.664H114.801c-1.259,0-2.279,1.062-2.279,2.372v176.534c0,1.31,1.02,2.372,2.279,2.372h122.445
		c1.258,0,2.278-1.063,2.278-2.372V70.036C239.524,68.726,238.504,67.664,237.246,67.664"/>
	<path fill="#82A7C3" d="M200.273,51.037h-11.099c0-4.516-3.66-8.176-8.175-8.176h-9.953c-4.515,0-8.176,3.66-8.176,8.176H151.78
		c-2.861,0-5.181,2.32-5.181,5.181v18.891h58.855V56.218C205.454,53.357,203.135,51.037,200.273,51.037 M175.689,52.992
		c-1.621,0-2.937-1.315-2.937-2.929c0-1.621,1.315-2.937,2.937-2.937c1.613,0,2.929,1.315,2.929,2.937
		C178.618,51.677,177.303,52.992,175.689,52.992"/>
	<path fill="#BBBBBA" d="M161.734,96.556c16.112-0.029,32.281,0.466,48.341-0.933c1.113-0.097,1.115-1.635,0-1.733
		c-16.059-1.398-32.229-0.903-48.341-0.933C159.418,92.954,159.415,96.561,161.734,96.556"/>
	<path fill="#BBBBBA" d="M159.246,106.775c10.384,1.258,20.817,1.101,31.263,1.159c5.093,0.029,10.194,0.154,15.285,0.022
		c4.739-0.123,10.248-0.06,14.793-1.441c0.728-0.221,0.729-1.256,0-1.478c-4.3-1.306-9.609-1.304-14.099-1.422
		c-5.323-0.141-10.654-0.027-15.979,0.003c-10.445,0.058-20.878-0.1-31.263,1.158C157.964,104.932,157.961,106.62,159.246,106.775"
		/>
	<path fill="#BBBBBA" d="M159.602,117.583c6.994,0.888,14.258,0.617,21.304,0.563c6.6-0.05,13.842,0.776,20.247-0.906
		c1.142-0.3,1.143-2.014,0-2.313c-6.405-1.683-13.647-0.855-20.247-0.906c-7.046-0.054-14.31-0.325-21.304,0.563
		C157.678,114.829,157.674,117.338,159.602,117.583"/>
	<path fill="#BBBBBA" d="M135.787,95.948c-4.531-0.077-8.792,6.304-8.502,10.467c0.399,5.739,6.589,8.615,11.656,7.343
		c5.24-1.316,10.7-6.632,9.551-12.443c-0.869-4.392-6.782-7.217-10.801-5.015c-0.728,0.398-0.078,1.512,0.65,1.113
		c1.485-0.814,3.464-0.435,4.985,0.035c2.916,0.899,4.304,3.487,3.84,6.527c-0.584,3.836-5.127,7.361-8.665,8.192
		c-4.264,1-9.557-1.255-9.534-6.226c0.013-2.68,3.674-8.068,6.818-8.125C136.987,97.792,136.989,95.969,135.787,95.948"/>
	<path fill="#A2D88A" d="M129.098,95.403c1.658,2.047,3.063,4.258,4.586,6.404c0.873,1.231,2.333,3.985,3.733,4.608
		c1.062,0.473,1.395,0.032,2.086-0.811c1.799-2.197,2.96-5.223,4.33-7.692c2.157-3.89,5.396-7.97,6.541-12.267
		c0.129-0.483-0.463-0.802-0.817-0.476c-2.546,2.348-4.013,5.886-5.67,8.892c-1.475,2.675-2.899,5.378-4.399,8.039
		c-0.374,0.663-0.764,1.737-1.323,2.259c-0.101,0.094-0.289,0.597-0.433,0.615c0.863-0.107-1.049-2.173-1.146-2.3
		c-2.157-2.794-3.955-5.838-6.168-8.591C129.667,93.149,128.347,94.477,129.098,95.403"/>
	<path fill="#BBBBBA" d="M161.734,134.233c16.112-0.029,32.281,0.466,48.341-0.934c1.113-0.097,1.115-1.635,0-1.732
		c-16.059-1.397-32.229-0.903-48.341-0.933C159.418,130.631,159.415,134.238,161.734,134.233"/>
	<path fill="#BBBBBA" d="M159.246,144.452c10.384,1.259,20.817,1.101,31.263,1.159c5.093,0.028,10.194,0.154,15.285,0.021
		c4.739-0.122,10.248-0.06,14.793-1.441c0.728-0.221,0.729-1.256,0-1.478c-4.3-1.307-9.609-1.305-14.099-1.422
		c-5.323-0.141-10.654-0.026-15.979,0.003c-10.445,0.058-20.878-0.1-31.263,1.158C157.964,142.608,157.961,144.297,159.246,144.452"
		/>
	<path fill="#BBBBBA" d="M159.602,155.261c6.994,0.888,14.258,0.616,21.304,0.563c6.6-0.051,13.842,0.776,20.247-0.905
		c1.142-0.3,1.143-2.014,0-2.313c-6.405-1.683-13.647-0.856-20.247-0.907c-7.046-0.053-14.31-0.325-21.304,0.564
		C157.678,152.505,157.674,155.016,159.602,155.261"/>
	<path fill="#BBBBBA" d="M135.787,133.625c-4.531-0.076-8.792,6.304-8.502,10.467c0.399,5.739,6.589,8.615,11.656,7.343
		c5.24-1.315,10.7-6.632,9.551-12.443c-0.869-4.392-6.782-7.217-10.801-5.015c-0.728,0.398-0.078,1.512,0.65,1.112
		c1.485-0.813,3.464-0.435,4.985,0.035c2.916,0.898,4.304,3.486,3.84,6.527c-0.584,3.836-5.127,7.361-8.665,8.191
		c-4.264,1-9.557-1.255-9.534-6.226c0.013-2.68,3.674-8.067,6.818-8.126C136.987,135.47,136.989,133.646,135.787,133.625"/>
	<path fill="#A2D88A" d="M129.098,133.08c1.658,2.047,3.063,4.258,4.586,6.404c0.873,1.23,2.333,3.984,3.733,4.607
		c1.062,0.473,1.395,0.032,2.086-0.811c1.799-2.197,2.96-5.224,4.33-7.692c2.157-3.89,5.396-7.97,6.541-12.266
		c0.129-0.483-0.463-0.803-0.817-0.477c-2.546,2.349-4.013,5.886-5.67,8.893c-1.475,2.675-2.899,5.378-4.399,8.039
		c-0.374,0.663-0.764,1.737-1.323,2.259c-0.101,0.095-0.289,0.598-0.433,0.615c0.863-0.106-1.049-2.173-1.146-2.3
		c-2.157-2.794-3.955-5.838-6.168-8.591C129.667,130.826,128.347,132.154,129.098,133.08"/>
	<path fill="#BBBBBA" d="M161.734,171.911c16.112-0.029,32.281,0.465,48.341-0.934c1.113-0.097,1.115-1.636,0-1.732
		c-16.059-1.398-32.229-0.904-48.341-0.934C159.418,168.308,159.415,171.915,161.734,171.911"/>
	<path fill="#BBBBBA" d="M159.246,182.13c10.384,1.258,20.817,1.101,31.263,1.159c5.093,0.027,10.194,0.153,15.285,0.022
		c4.739-0.124,10.248-0.062,14.793-1.441c0.728-0.222,0.729-1.257,0-1.479c-4.3-1.307-9.609-1.305-14.099-1.423
		c-5.323-0.14-10.654-0.026-15.979,0.003c-10.445,0.058-20.878-0.099-31.263,1.158C157.964,180.286,157.961,181.975,159.246,182.13"
		/>
	<path fill="#BBBBBA" d="M159.602,192.938c6.994,0.888,14.258,0.616,21.304,0.563c6.6-0.051,13.842,0.776,20.247-0.906
		c1.142-0.299,1.143-2.013,0-2.313c-6.405-1.682-13.647-0.855-20.247-0.905c-7.046-0.054-14.31-0.325-21.304,0.563
		C157.678,190.183,157.674,192.693,159.602,192.938"/>
	<path fill="#BBBBBA" d="M135.787,171.303c-4.531-0.077-8.792,6.304-8.502,10.467c0.399,5.739,6.589,8.615,11.656,7.343
		c5.24-1.315,10.7-6.632,9.551-12.443c-0.869-4.392-6.782-7.217-10.801-5.015c-0.728,0.397-0.078,1.511,0.65,1.112
		c1.485-0.814,3.464-0.435,4.985,0.034c2.916,0.899,4.304,3.487,3.84,6.527c-0.584,3.836-5.127,7.361-8.665,8.191
		c-4.264,1.001-9.557-1.254-9.534-6.226c0.013-2.68,3.674-8.067,6.818-8.125C136.987,173.146,136.989,171.323,135.787,171.303"/>
	<path fill="#BBBBBA" d="M161.734,209.589c16.112-0.029,32.281,0.465,48.341-0.934c1.113-0.097,1.115-1.636,0-1.733
		c-16.059-1.397-32.229-0.903-48.341-0.933C159.418,205.985,159.415,209.593,161.734,209.589"/>
	<path fill="#BBBBBA" d="M159.246,219.808c10.384,1.258,20.817,1.101,31.263,1.158c5.093,0.028,10.194,0.154,15.285,0.022
		c4.739-0.123,10.248-0.061,14.793-1.441c0.728-0.222,0.729-1.257,0-1.479c-4.3-1.306-9.609-1.304-14.099-1.422
		c-5.323-0.14-10.654-0.026-15.979,0.003c-10.445,0.058-20.878-0.099-31.263,1.158C157.964,217.963,157.961,219.651,159.246,219.808
		"/>
	<path fill="#BBBBBA" d="M159.602,230.615c6.994,0.889,14.258,0.616,21.304,0.563c6.6-0.051,13.842,0.775,20.247-0.906
		c1.142-0.3,1.143-2.014,0-2.313c-6.405-1.683-13.647-0.855-20.247-0.906c-7.046-0.054-14.31-0.325-21.304,0.563
		C157.678,227.86,157.674,230.37,159.602,230.615"/>
	<path fill="#BBBBBA" d="M135.787,208.98c-4.531-0.077-8.792,6.304-8.502,10.466c0.399,5.74,6.589,8.616,11.656,7.344
		c5.24-1.316,10.7-6.632,9.551-12.443c-0.869-4.392-6.782-7.218-10.801-5.016c-0.728,0.398-0.078,1.512,0.65,1.113
		c1.485-0.814,3.464-0.435,4.985,0.034c2.916,0.898,4.304,3.487,3.84,6.527c-0.584,3.836-5.127,7.361-8.665,8.191
		c-4.264,1.001-9.557-1.254-9.534-6.226c0.013-2.68,3.674-8.067,6.818-8.125C136.987,210.824,136.989,209.001,135.787,208.98"/>
	<path fill="#FDC28B" d="M230.932,61.269c0.693,1.135,1.734-1.68,2.594-1.651c0.403,1.515,0.386,3.809,1.152,5.176
		c1.229,2.193,2.577-0.284,2.477-1.803c-0.059-0.883,0.381-4.88-0.352-6.206C233.604,50.996,230.363,60.339,230.932,61.269"/>
	<path fill="#A1DDE9" d="M239.829,30.746c-2.399-2.193-14.977,0.857-19.878,2.057c-2.567,0.628-3.762,0.118-3.193,2.945
		c0.436,2.169,3.582,4.316,5.063,5.952c0.285,0.315,0.604,0.627,1.013,0.749c0.515,0.152,1.062-0.027,1.571-0.198
		c2.399-0.803,10.271-4.293,10.504-4.115c0.271,0.206-1.402,11.791-2.227,17.175c-0.127,0.825,4.52,1.68,4.641,1.266
		c1.437-4.861,2.671-7.836,3.308-12.297C241.267,39.819,241.556,32.323,239.829,30.746"/>
	<path fill="#FDC28B" d="M167.635,83.704c-0.643,0.74-1.32,1.568-1.327,2.547c0.563,0.235,1.19-0.185,1.555-0.675
		c0.363-0.49,0.617-1.084,1.116-1.435c1.241-0.871,2.963,0.307,4.444-0.017c1.207-0.265,1.968-1.46,2.4-2.617
		c0.73-1.951-0.608-4.24-2.867-3.534C171.008,78.583,168.921,82.223,167.635,83.704"/>
	<path fill="#A1DDE9" d="M191.879,48.071c-5.036,8.586-17.263,25.028-19.641,29.858c0,0,2.868,4.085,3.862,3.09
		c4.966-4.965,10.756-10.5,14.837-16.214c4.973-6.96,8.408-8.649,12.712-16.92c1.148-2.206,0.169-10.701-2.95-9.749
		C197.827,39.01,193.264,45.709,191.879,48.071"/>
	<path fill="#A1DDE9" d="M204.231,38.829c0.34,1.812,1.022,3.559,2,5.122c0.611-1.407,1.547-2.671,2.714-3.667
		c0.723,0.835,1.445,1.67,2.168,2.504c0.522-0.848,1.045-1.697,1.567-2.545c0.837,0.939,1.37,2.146,1.5,3.397
		c1.084-0.721,1.753-1.905,2.382-3.045c0.627-1.137,1.267-2.307,1.44-3.594c0.175-1.286-0.218-2.735-1.292-3.463
		c-0.477-0.322-1.043-0.48-1.597-0.632c-1.029-0.283-2.071-0.568-3.139-0.585C207.977,32.256,203.363,34.216,204.231,38.829"/>
	<path fill="#FDC28B" d="M214.688,23.567c-2.74-2.62-8.053-1.368-9.334,2.2l-2.031,1.7c-0.325,3.454,0.427,7,2.127,10.024
		c1.259,2.239,3.549,4.382,6.067,3.872c2.823-0.571,3.948-3.927,4.556-6.743C216.892,30.818,217.5,26.255,214.688,23.567"/>
	<path fill="#53628A" d="M203.249,28.656c1.021,0.257,5.38-1.015,6.568-1.002c1.463,0.016,3.119,0.117,4.068,1.231
		c0.425,0.5,0.642,1.138,0.85,1.76c0.403,1.208,0.808,2.417,1.211,3.625c2.118-1.099,2.372-2.662,2.059-5.041
		c-0.188-1.431-0.479-4.168-1.41-5.27c-1.253-1.481-3.032-2.843-5.511-3.083c-3.036-0.295-7.397,0.418-9.663,2.386
		C199.863,24.616,200.358,27.93,203.249,28.656"/>
	<path fill="#FDC28B" d="M216.784,32.667c-0.006-0.413-0.166-2.97-1.751-2c-0.469,0.287-0.503,0.995-0.475,1.543h0.022
		c0.207,0.412,0.33,2.444,0.756,2.622C216.688,35.393,216.793,33.328,216.784,32.667"/>
	<path fill="#FFFFFF" d="M211.09,36.318c-1.175,0.528-3.389,0.849-4.488,0.445c0.235,1.214,1.383,2.244,2.617,2.163
		S211.491,37.487,211.09,36.318"/>
	<path fill="#A2D88A" d="M246.674,270.173c-2.41,0.521-1.718,1.875-1.452,2.239c5.585,0.424,7.806-2.243,7.816-2.188
		c0.125,0.56,0.118,1.538,0.243,2.099c0.496,0.113,1.039,0.001,1.45-0.3c0.498-1.145,0.86-2.178,1.173-3.386
		c0.162-0.624-1.007-2.861-1.104-3.499s-2.815,0.132-2.906,0.187C251.397,265.622,251.32,269.168,246.674,270.173"/>
	<path fill="#A2D88A" d="M260.707,267.685c-2.216,0.479-1.914,1.805-1.671,2.139c5.136,0.391,7.228-2.06,7.238-2.009
		c0.114,0.515,0.108,1.415,0.223,1.929c0.457,0.104,0.956,0.001,1.335-0.275c0.457-1.052,0.79-2.003,1.078-3.113
		c0.148-0.574-0.926-2.631-1.017-3.217c-0.09-0.588-2.589,0.121-2.673,0.171C264.765,263.583,264.979,266.761,260.707,267.685"/>
	<path fill="#53628A" d="M251.157,265.795c1.29,0.397,2.529,0.492,4.183-0.401c-2.372-8.371,0.122-19.552-4.255-29.954
		c1.15-3.928,8.854-14.494,10.777-18.756c-2.307,7.466-4.729,13.165-4.208,18.836c0.285,3.101,4.11,19.347,6.849,28.517
		c0.277,0.928,3.778-0.391,3.778-0.391c-3.391-10.994,1.563-18.564-3.705-28.414c-1.489-2.784,3.47-8.705,5.963-13.493
		c2.152-4.135,4.14-8.22,3.276-12.801c-0.851-4.511-2.525-6.851-2.525-6.851c-4.504-1.754-14.778-3.699-17.609,0.9
		c-2.765,4.494-8.324,24.841-9.264,29.978C242.473,243.6,248.794,251.143,251.157,265.795"/>
	<path fill="#A2D88A" d="M281.482,189.887c-0.268,1.163-2.912,3.804-4.397,4.912c-3.217,2.402-5.496,3.563-9.151,5.873
		c-1-1.787-2.949-2.41-1.253-3.557c1.697-1.146,9.166-7.354,9.079-8.472c-0.081-1.06-4.098-5.236-5.376-6.72
		c-3.733-4.33-5.219-5.599-4.368-11.254c0.304-2.018,1.805-4.198,4.073-2.875c1.654,0.965,2.809,3.946,3.745,5.535
		C276.767,178.308,281.738,188.772,281.482,189.887"/>
	<path fill="#FDC28B" d="M263.022,161.332c-0.195-1.186-0.918-2.362-2.057-2.745c-1.14-0.383-3.606,2.657-3.606,2.657
		c0.685,1.32,0.337,3.09-0.794,4.053c-0.517,0.438-1.241,0.86-1.197,1.537c0.043,0.636,0.748,0.979,1.349,1.191
		c1.464,0.519,3.203,1.005,4.471,0.107c0.999-0.709,1.313-2.027,1.555-3.229C262.979,163.727,263.217,162.517,263.022,161.332"/>
	<path fill="#FDC28B" d="M216.981,158.051c-0.253-0.223-0.541-0.403-0.829-0.579c-1.312-0.799-2.673-1.518-4.071-2.15
		c-0.214-0.098-0.439-0.194-0.674-0.18c-0.235,0.016-0.477,0.181-0.495,0.415c-0.014,0.169,0.089,0.324,0.192,0.458
		c0.439,0.563,1.006,1.023,1.646,1.338c0.253,0.125,0.527,0.234,0.708,0.45c0.186,0.222,0.243,0.519,0.278,0.804
		c0.155,1.259,0.015,2.644,0.742,3.682c0.387,0.552,0.971,0.927,1.54,1.287c0.914,0.577,1.865,1.169,2.936,1.318
		C222.538,165.39,217.678,158.663,216.981,158.051"/>
	<path fill="#A2D88A" d="M249.876,166.321c-2.43,0.809-14.065,3.822-14.954,3.309c-5.328-3.083-9.714-6.388-15.042-9.47
		c-0.826-0.479-2.718,4.261-1.724,5.017c5.171,3.93,8.979,8.46,15.111,10.598c4.793,1.671,15.486-1.053,15.833-0.827
		c0.474,0.307-0.509,2.723-0.735,3.848c-1.98,9.854,5.85,7.87,5.315,24.192c6.207,0.817,11.802,1.437,17.609-0.9
		c-0.81-6.072-2.323-7.898-2.217-14.023c0.04-2.229,1.81-5.101,2.315-7.271c0.345-1.473,0.872-2.902,1.105-4.396
		c0.323-2.067,0.062-4.223-0.747-6.151c-0.95-2.27-2.759-4.277-5.116-4.984C260.357,163.381,255.723,164.194,249.876,166.321"/>
	<path fill="#FDC28B" d="M254.606,156.311c-0.067,1.177,0.005,2.41,0.586,3.436c0.832,1.468,2.578,2.226,4.263,2.32
		c4.712,0.269,8.742-4.037,9.648-8.67c0.875-4.472-2.158-10.753-7.667-9.109C257.153,145.565,254.833,152.398,254.606,156.311"/>
	<path fill="#1D4B7C" d="M262.137,162.866c-0.844,3.255-1.521,7.021,0.471,9.729c0.505,0.687,1.166,1.271,1.518,2.048
		c0.882,1.946-0.42,4.482,0.759,6.265c0.517,0.78,1.399,1.22,2.242,1.624c1.775,0.853,3.594,1.718,5.553,1.919
		s4.117-0.391,5.287-1.973c1.366-1.846,1.038-4.435,0.312-6.613c-0.726-2.179-1.801-4.325-1.743-6.621
		c0.063-2.513,1.483-5.05,0.668-7.427c-0.402-1.173-1.302-2.107-1.826-3.231c-0.935-2.007-1.903-3.329-1.744-5.536
		c0.394-5.438-9.655-13.949-15.513-9.883c-3.556,2.469-1.63,4.909,1.111,6.728C262.342,151.959,263.458,157.771,262.137,162.866"/>
	<path fill="#FFFFFF" d="M255.43,155.628c-0.299,0.7,0.077,2.593,0.763,2.926c0.578,0.28,1.032-0.617,1.419-1.691L255.43,155.628z"
		/>
	<path fill="#82A7C3" d="M133.748,222.549c-5.9,3.714-9.902,11.231-12.75,16.429c2.11-6.689,2.619-16.336,2.749-23.188
		c-6.894,5.601-8.441,14.824-9.485,22.196c0.18-6.487-1.385-14.446-3.964-20.677c-1.3,6.029-2.597,12.126-1.863,18.201
		c0.685,5.669,1.45,12.616,7.909,16.384c3.985-2.868,8.824-8.049,10.988-11.818C130.323,234.866,132.786,229.547,133.748,222.549"/>
	<path fill="#FFFFFF" d="M113.517,243.554c-1.749-5.595-2.763-11.359-3.003-17.216c-0.008-0.207-0.331-0.208-0.322,0
		c0.262,5.886,1.292,11.669,3.102,17.277C113.339,243.756,113.562,243.697,113.517,243.554"/>
	<path fill="#FFFFFF" d="M116.886,243.903c1.353-5.968,2.528-11.983,3.355-18.049c0.028-0.211-0.293-0.306-0.326-0.09
		c-0.917,6.059-1.945,12.09-3.253,18.077C116.631,243.987,116.853,244.05,116.886,243.903"/>
	<path fill="#FFFFFF" d="M120.967,244.79c3.806-4.647,7.008-10.314,8.222-16.253c0.038-0.186-0.229-0.261-0.286-0.078
		c-1.843,5.921-4.185,11.297-8.089,16.179C120.729,244.745,120.879,244.898,120.967,244.79"/>
	<path fill="#A2D88A" d="M93.467,221.509c7.873,4.155,8.012,9.91,11.249,15.453c-1.572-5.708-0.373-11.442,1.114-17.161
		c4.132,5.658,5.15,10.811,4.633,17.161c0.785-6.785,3.779-12.205,7.068-18.607c0.689,1.624,1.082,3.307,1.268,4.997
		c0.598,5.441-0.356,12.166-2.729,17.32c-1.152,2.504-1.716,5.853-3.833,8.033c-2.401,2.474-3.097,2.008-6.253,0.083
		c-4.646-2.832-7.54-7.551-9.538-11.531c-1.152-2.296-1.981-6.4-2.483-8.812C93.674,227.061,93.467,225.158,93.467,221.509"/>
	<path fill="#FFFFFF" d="M95.984,227.892c1.331,5.288,3.489,11.586,7.924,15.174c0.192,0.155,0.421-0.077,0.269-0.269
		c-1.302-1.636-2.776-3.007-3.887-4.819c-1.915-3.122-3.124-6.631-4.077-10.149C96.174,227.681,95.947,227.743,95.984,227.892"/>
	<path fill="#FFFFFF" d="M108.564,241.947c0.016-2.508-0.259-5.013-0.599-7.493c-0.386-2.811-0.617-6.018-1.631-8.676
		c-0.044-0.115-0.245-0.112-0.233,0.031c0.215,2.645,1.015,5.308,1.395,7.944c0.391,2.709,0.733,5.452,0.736,8.193
		C108.232,242.161,108.563,242.161,108.564,241.947"/>
	<path fill="#FFFFFF" d="M112.35,242.997c1.45-2.334,2.293-4.858,2.906-7.522c0.636-2.764,1.381-5.51,1.976-8.28
		c0.044-0.205-0.256-0.29-0.315-0.087c-1.531,5.298-2.063,10.881-4.794,15.758C112.039,243.014,112.26,243.142,112.35,242.997"/>
	<path fill="#E4F5F9" d="M118.826,268.218h-13.18c-3.945,0-7.145-3.199-7.145-7.146V245.6h27.47v15.473
		C125.971,265.019,122.772,268.218,118.826,268.218"/>
	<path fill="#A1DDE9" d="M208.866,238.58c-0.254-1.001-0.904-1.846-1.525-2.67c-3.193-4.242-6.14-9.489-4.744-14.613
		c0.404-1.483,1.158-2.859,1.499-4.359c0.896-3.95-1.175-7.904-3.176-11.427c4.759,1.377,9.023,4.402,11.896,8.438
		c1.14,1.601,2.084,3.424,2.188,5.386c0.171,3.286-1.999,6.733-0.575,9.7c0.434,0.904,1.166,1.643,1.563,2.562
		c1.222,2.823-1.079,6.018-0.671,9.066c0.341,2.542,2.582,8.17-2.359,6.921C208.879,246.552,209.602,241.479,208.866,238.58"/>
	<path fill="#43DAC4" d="M214.953,236.929c0.164-1.243,0.483-2.509,1.245-3.504c0.623-0.815,1.506-1.401,2.122-2.22
		c2.299-3.051,0.008-7.56,1.211-11.185c0.609-1.838,2.055-3.249,3.229-4.788c2.525-3.302,3.909-7.459,3.867-11.616
		c5.823,11.706,2.709,19.298,1.802,21.485c-0.578,1.395-1.615,2.56-2.205,3.948c-1.768,4.16,0.804,9.3-1.212,13.347
		c-1.567,3.143-1.552,9.108-6.087,6.703C215.035,247.036,214.451,240.722,214.953,236.929"/>
	<path fill="#FFFFFF" d="M204.491,210.057c2.302,1.219,4.104,3.229,4.988,5.693c1.002,2.799,0.229,5.454-0.12,8.285
		c-0.586,4.73,1.286,9.514,3.392,13.664c0.109,0.214,0.491,0.061,0.396-0.167c-1.119-2.66-2.425-5.223-3.087-8.054
		c-0.777-3.321-0.037-6.149,0.255-9.445c0.378-4.269-1.854-8.306-5.646-10.282C204.468,209.646,204.29,209.95,204.491,210.057"/>
	<path fill="#FFFFFF" d="M220.888,240.19c-0.79-4.811,2.644-8.9,3.08-13.564c0.124-1.323-0.031-2.699,0.395-3.979
		c0.463-1.392,1.493-2.546,2.181-3.825c0.979-1.825,1.663-3.854,1.86-5.919c0.027-0.28-0.438-0.344-0.492-0.067
		c-0.542,2.827-1.486,5.179-3.012,7.616c-1.392,2.223-1.18,4.144-1.503,6.659c-0.581,4.51-3.678,8.485-2.855,13.175
		C220.581,240.514,220.924,240.416,220.888,240.19"/>
	<path fill="#FFFFFF" d="M205.798,231.063c0.52,0.713,1.264,1.289,1.935,1.854c0.662,0.558,1.375,1.239,2.154,1.623
		c0.204,0.101,0.419-0.148,0.249-0.323c-0.64-0.656-1.463-1.152-2.167-1.742c-0.644-0.539-1.239-1.181-1.937-1.646
		C205.894,230.737,205.696,230.925,205.798,231.063"/>
	<path fill="#FFFFFF" d="M204.184,224.802c0.722,0.763,1.521,1.462,2.288,2.179c0.689,0.643,1.354,1.387,2.145,1.9
		c0.212,0.138,0.383-0.154,0.25-0.323c-0.603-0.766-1.452-1.394-2.178-2.042c-0.741-0.662-1.468-1.354-2.248-1.972
		C204.262,224.402,204.019,224.627,204.184,224.802"/>
	<path fill="#FFFFFF" d="M205.248,220.391c0.447,1.117,1.287,2.658,2.445,3.179c0.223,0.1,0.408-0.142,0.256-0.332
		c-0.396-0.494-0.933-0.866-1.33-1.37c-0.398-0.506-0.712-1.06-0.966-1.647C205.555,219.991,205.155,220.156,205.248,220.391"/>
	<path fill="#FFFFFF" d="M205.295,217.28c0.376,0.366,0.754,0.732,1.13,1.098c0.343,0.332,0.674,0.734,1.098,0.961
		c0.156,0.084,0.346-0.087,0.249-0.248c-0.247-0.414-0.659-0.725-1.008-1.052c-0.383-0.359-0.766-0.719-1.148-1.079
		C205.402,216.761,205.084,217.077,205.295,217.28"/>
	<path fill="#FFFFFF" d="M213.442,233.724c0.118-0.569,0.146-1.159,0.192-1.737c0.046-0.563,0.192-1.183,0.044-1.731
		c-0.032-0.117-0.225-0.162-0.279-0.037c-0.207,0.473-0.174,0.997-0.21,1.508c-0.045,0.646-0.123,1.306-0.088,1.951
		C213.11,233.863,213.401,233.926,213.442,233.724"/>
	<path fill="#FFFFFF" d="M212.03,228.103c0.023-0.448,0.078-0.89,0.178-1.327c0.089-0.391,0.255-0.767,0.325-1.158
		c0.034-0.188-0.212-0.313-0.318-0.135c-0.435,0.736-0.508,1.78-0.527,2.62C211.682,228.323,212.019,228.321,212.03,228.103"/>
	<path fill="#FFFFFF" d="M211.535,222.471c0.284-0.419,0.53-0.858,0.732-1.323c0.143-0.326,0.382-0.714,0.208-1.058
		c-0.035-0.069-0.137-0.093-0.202-0.053c-0.303,0.188-0.325,0.609-0.444,0.926c-0.171,0.456-0.393,0.887-0.646,1.303
		C211.047,222.491,211.39,222.685,211.535,222.471"/>
	<path fill="#FFFFFF" d="M212.039,217.348c0.168-0.435,0.465-0.943,0.482-1.412c0.008-0.214-0.257-0.239-0.364-0.099
		c-0.28,0.367-0.375,0.964-0.52,1.4C211.552,217.495,211.944,217.593,212.039,217.348"/>
	<path fill="#FFFFFF" d="M217.286,235.614c0.326,0.624,0.718,1.211,1.179,1.743c0.055,0.063,0.174,0.1,0.254,0.067
		c0.073-0.029,0.118-0.049,0.155-0.12c0.057-0.107,0.041-0.227-0.04-0.316c-0.448-0.492-0.845-1.014-1.184-1.588
		C217.513,235.166,217.161,235.373,217.286,235.614"/>
	<path fill="#FFFFFF" d="M218.752,233.051c0.123,0.362,0.404,0.895,0.825,0.958c0.136,0.021,0.289-0.115,0.196-0.256
		c-0.197-0.299-0.492-0.451-0.629-0.81C219.052,232.704,218.667,232.801,218.752,233.051"/>
	<path fill="#FFFFFF" d="M220.114,230.066c0.159,0.258,0.329,0.656,0.646,0.73c0.111,0.026,0.207-0.051,0.214-0.162
		c0.018-0.325-0.322-0.603-0.524-0.827C220.287,229.627,219.987,229.861,220.114,230.066"/>
	<path fill="#FFFFFF" d="M220.415,225.531c0.167,0.295,0.312,0.773,0.654,0.888c0.075,0.025,0.184-0.029,0.197-0.112
		c0.058-0.359-0.288-0.707-0.474-0.996C220.642,225.074,220.275,225.284,220.415,225.531"/>
	<path fill="#FFFFFF" d="M220.45,220.953l0.702,0.992c0.178,0.25,0.3,0.565,0.626,0.6c0.063,0.007,0.135-0.052,0.148-0.112
		c0.063-0.315-0.217-0.545-0.397-0.781c-0.233-0.307-0.468-0.613-0.701-0.92C220.661,220.513,220.285,220.719,220.45,220.953"/>
	<path fill="#FFFFFF" d="M222.331,218.475c0.191,0.207,0.384,0.414,0.575,0.62c0.168,0.181,0.292,0.387,0.547,0.421
		c0.159,0.021,0.265-0.083,0.243-0.243c-0.035-0.258-0.237-0.376-0.421-0.546c-0.207-0.192-0.414-0.384-0.62-0.576
		C222.438,217.948,222.129,218.258,222.331,218.475"/>
	<path fill="#FFFFFF" d="M216.233,239.181c0.355,0.47,0.708,0.941,1.065,1.409c0.347,0.45,0.679,1.01,1.126,1.361
		c0.185,0.145,0.424-0.029,0.323-0.249c-0.229-0.499-0.67-0.927-1.014-1.351c-0.388-0.477-0.782-0.949-1.173-1.423
		C216.412,238.748,216.091,238.991,216.233,239.181"/>
	<path fill="#FFFFFF" d="M210.229,238.248c0.358,0.271,0.717,0.54,1.075,0.81c0.309,0.232,0.642,0.591,1.03,0.65
		c0.128,0.02,0.224-0.093,0.164-0.213c-0.171-0.35-0.598-0.557-0.904-0.777c-0.385-0.276-0.77-0.553-1.155-0.829
		C210.22,237.73,210.019,238.09,210.229,238.248"/>
	<path fill="#FFFFFF" d="M223.033,241.336c0.271-0.239,0.447-0.564,0.69-0.833c0.244-0.271,0.532-0.495,0.787-0.757
		c0.173-0.176-0.045-0.438-0.256-0.33c-0.359,0.181-0.655,0.477-0.911,0.785c-0.239,0.287-0.5,0.612-0.561,0.988
		C222.759,241.336,222.915,241.44,223.033,241.336"/>
	<path fill="#FFFFFF" d="M222.621,237.68c0.208-0.163,0.416-0.326,0.625-0.488c0.185-0.145,0.34-0.225,0.402-0.455
		c0.025-0.095-0.05-0.217-0.157-0.208c-0.243,0.022-0.332,0.135-0.516,0.299c-0.213,0.19-0.425,0.38-0.638,0.569
		C222.141,237.572,222.424,237.835,222.621,237.68"/>
	<path fill="#FFFFFF" d="M223.21,234.634c0.11-0.222,0.27-0.391,0.502-0.486c0.182-0.076,0.379-0.075,0.541-0.194
		c0.069-0.051,0.104-0.156,0.029-0.224c-0.49-0.44-1.243,0.242-1.438,0.692C222.74,234.664,223.085,234.882,223.21,234.634"/>
	<path fill="#FFFFFF" d="M224.946,230.451c0.215-0.108,0.451-0.185,0.555-0.411c0.048-0.104-0.007-0.246-0.139-0.242
		c-0.271,0.009-0.435,0.203-0.633,0.372C224.567,230.308,224.773,230.54,224.946,230.451"/>
	<path fill="#FFFFFF" d="M224.799,227.28c0.417-0.249,0.835-0.5,1.252-0.749c0.332-0.198,0.782-0.368,0.968-0.72
		c0.058-0.108-0.013-0.26-0.146-0.255c-0.402,0.017-0.742,0.338-1.068,0.553c-0.406,0.269-0.813,0.538-1.219,0.807
		C224.361,227.064,224.563,227.421,224.799,227.28"/>
	<path fill="#FFFFFF" d="M225.473,223.4c0.367-0.165,0.755-0.276,1.157-0.314c0.279-0.027,0.583,0.053,0.826-0.104
		c0.068-0.044,0.095-0.151,0.027-0.211c-0.262-0.23-0.654-0.143-0.978-0.094c-0.43,0.066-0.834,0.207-1.223,0.399
		C225.064,223.186,225.256,223.498,225.473,223.4"/>
	<path fill="#FFFFFF" d="M227.486,220.674c0.319-0.149,0.877-0.281,1.051-0.603c0.045-0.084,0.012-0.229-0.1-0.244
		c-0.396-0.055-0.82,0.308-1.159,0.491C227.042,220.447,227.25,220.783,227.486,220.674"/>
	<path fill="#FFFFFF" d="M224.2,215.697c0.21,0.283,0.439,0.775,0.794,0.882c0.078,0.023,0.173-0.042,0.167-0.127
		c-0.026-0.373-0.447-0.701-0.679-0.972C224.352,215.327,224.078,215.533,224.2,215.697"/>
	<path fill="#82A7C3" d="M224.927,269.049h-15.731c-1.792,0-3.244-1.452-3.244-3.244v-21.16h22.219v21.16
		C228.17,267.597,226.718,269.049,224.927,269.049"/>
	<path fill="#A1DDE9" d="M26.909,268.978c0.115,0.197,0.316,0.326,0.511,0.446c0.557,0.343,0.788,0.022,1.363,0.334
		c0.286,0.155,0.912,0.955,1.202,1.102c1.721,0.872,3.511,1.606,5.35,2.191c0.807,0.256,1.634,0.486,2.48,0.505
		c1.011-0.928-0.908-2.342-1.739-3.331c-1.235-1.471-2.131-3.225-2.599-5.088c-0.131-0.52-0.241-1.073-0.593-1.477
		c-1.026-1.177-2.784-1.863-3.594-0.4C28.833,264.086,26.512,268.296,26.909,268.978"/>
	<path fill="#A1DDE9" d="M79.423,269.616c1.942,0.501,5.513,0.635,7.503,0.389c0.459-0.057,1.023-0.239,1.072-0.7
		c0.044-0.425-0.396-0.722-0.77-0.93c-2.464-1.372-6.127-3.341-7.688-5.69c-0.08-0.119-0.163-0.244-0.288-0.313
		c-0.096-0.054-0.208-0.068-0.317-0.08c-1.964-0.203-3.36-0.47-3.117,1.513c0.108,0.88,0.152,4.19,0.438,5.003
		c0.356,1.013,0.162,0.697,1.243,1.053C78.123,270.064,78.785,269.452,79.423,269.616"/>
	<path fill="#53628A" d="M45.794,218.311c-0.117,10.433-0.405,12.713-3.761,18.79c-4.15,7.52-9.101,15.817-12.743,26.159
		c-0.433,1.23,2.847,1.752,4.116,1.452c3.931-7.229,10.93-16.554,16.168-24.502c5.761-8.739,7.409-15.936,10.286-24.515
		c4.756,11.33,10.229,18.258,11.29,21.76c0.5,1.651,3.819,22.809,4.668,26.349c1.207-0.019,3.155-0.525,4.362-0.544
		c0.72-9.14-0.739-25.761-2.073-30.696c-0.752-2.784-7.29-27.324-7.843-30.154c-0.143-0.729-0.328-1.503-0.872-2.01
		c-1.424-1.327-3.607,0.172-5.163,1.344c-3.844,2.896-13.314-0.742-17.974-0.027c0,0-1.353,2.468-1.099,7.935
		C45.268,212.076,45.832,214.909,45.794,218.311"/>
	<path fill="#CCE5EA" d="M91.733,161.088c4.789-0.795,7.995-1.023,12.33-3.21c1.432-0.721,7.518-5.687,8.018-4.163
		c0.804,2.445-1.818,5.067-3.938,6.527c-5.144,3.54-9.455,6.966-15.664,7.637c-3.168,0.343-6.364-0.05-9.526-0.442
		c-2.719-0.338-23.35-1.442-14.747-7.319C73.651,156.396,85.64,162.1,91.733,161.088"/>
	<path fill="#E4F5F9" d="M45.799,167.88c-0.092,2.023-0.155,8.968-0.005,11.021c0.871,11.929-1.566,22.076,0.251,23.296
		c5.157,1.115,23.049,1.157,24.219-0.003c0.886-0.879,0.545-9.717,1.449-18.823c0.672-6.78,2.901-11.697,1.941-18.048
		c-0.394-2.605-2.466-6.102-2.922-6.188C64.386,157.94,46.226,158.395,45.799,167.88"/>
	<path fill="#FDC28B" d="M55.775,160.66c2.097,1.403,4.58,3.195,6.137,4.662c0,0,0.696-0.971,1.641-2.408
		c0.946-1.438,0.866-3.593,0.435-3.859c-2.437-1.507,0.404-5.407-1.566-7.005c-1.648-1.335-5.098-0.37-6.075,0.983
		C55.912,153.634,58.518,158.302,55.775,160.66"/>
	<path fill="#FDC28B" d="M53.125,148.782c0.633,1.788,1.134,3.393,2.458,4.751c0.84,0.863,3.072,2.573,4.151,2.972
		c3.784,1.395,5.641-0.777,5.873-0.997c4.105-3.895,2.811-13.795,1.149-15.045c-2.694-2.027-7.225-1.403-10.215,0
		C52.945,142.151,51.906,145.341,53.125,148.782"/>
	<path fill="#DB8E28" d="M55.162,147.651c0.55-0.35,1.141-0.03,1.668,0.609c-0.38-1.613-0.128-4.06,1.146-5.139
		c1.17-0.993,2.762-1.197,4.296-1.151c1.296,0.039,2.592,0.077,3.889,0.116c0.773,0.023,1.599,0.033,2.257-0.373
		c1.306-0.809,2.057-4.063,0.104-5.754c-0.236-0.204-7.326,0.758-10.677,2.02c-1.092,0.41-2.196,0.828-3.158,1.489
		c-2.578,1.771-3.761,5.208-3.176,8.281c0.584,3.072,2.361,5.429,5.094,6.95c-0.195-2.349,0.256-3.29,0.256-3.29
		c-0.397,0.439-0.718,0.134-1.087-0.227C54.863,150.292,54.357,148.164,55.162,147.651"/>
	<path fill="#FFFFFF" d="M65.155,151.893c-1.191,0.137-4.144,0.268-4.617,0.271c0.158,0.862,1.054,2.232,2.531,2.232
		C64.932,154.396,65.196,152.55,65.155,151.893"/>
	<path fill="#CCE5EA" d="M54.209,160.164c-0.041,1.172,2.628,5.369,4.759,6.594c0.61,0,0.967-1.449,1.288-2.257
		c0.415,0.433,1.57,1.626,1.788,1.624c0.18-0.002,1.115-1.887,1.513-2.557c0.519,0.396,0.848,1.454,1.487,1.319
		c0.575-0.121,1.398-5.183,0.645-6.214c-0.531-0.728-2.471-1.273-2.678-0.924c0,0,0.281,1.067,0.384,1.305
		c0.343,0.786,0.027,2.864-0.52,3.73c-0.556,0.881-0.592,1.563-0.962,2.537c-0.286-0.373-0.868-1.813-1.092-2.008
		c-0.169-0.15-2.173-1.214-2.659-1.967c-0.398-0.615-0.98-2.293-1.147-3.248C56.895,157.416,54.246,159.105,54.209,160.164"/>
	
		<rect x="85.446" y="122.24" transform="matrix(-0.4517 -0.8921 0.8921 -0.4517 -8.7267 312.7465)" fill="#43DAC4" width="12.576" height="73.629"/>
	
		<rect x="89.919" y="122.24" transform="matrix(-0.4517 -0.8922 0.8922 -0.4517 -8.729 312.745)" fill="#A1DDE9" width="3.629" height="73.629"/>
	<polygon fill="#FDC28B" points="121.737,136.814 129.075,136.873 135.444,136.924 131.714,142.088 127.419,148.036 	"/>
	<polygon fill="#53628A" points="129.074,136.873 135.444,136.924 131.715,142.088 	"/>
	<path fill="#53628A" d="M52.304,175.695l2.679,5.291c0.829,1.637,2.828,2.293,4.466,1.464l2.281-1.155l-5.682-11.221l-2.281,1.155
		C52.13,172.059,51.475,174.058,52.304,175.695"/>
	<path fill="#FDC28B" d="M63.453,172.879c0.132-0.291,0.447-0.621,0.709-0.438c0.312,0.437,0.468,0.982,0.431,1.518
		c-0.028,0.417-0.133,0.923,0.194,1.183c0.16,0.126,0.377,0.144,0.581,0.147c1.42,0.019,2.84-0.521,3.89-1.476
		c0.491-0.446,1.058-1.027,1.697-0.849c0.362,0.101,0.62,0.443,0.71,0.809c0.091,0.366,0.038,0.751-0.049,1.116
		c-0.36,1.518-1.331,2.88-2.646,3.717c-1.188,0.757-2.593,1.075-3.968,1.381c-0.384,0.086-0.825,0.16-1.138-0.079
		C62.113,178.57,62.714,174.498,63.453,172.879"/>
	<path fill="#CCE5EA" d="M41.714,191.118c3.5,1.999,11.209-1.442,14.579-3.653c3.37-2.213,5.383-4.212,8.241-7.055
		c0.509-0.507-0.836-4.319-1.81-3.592c-4.411,3.299-9.605,4.813-14.794,6.835c-2.444,0.952,9.204-23.842,1.459-21.59
		C41.79,164.272,37.624,188.782,41.714,191.118"/>
	<path fill="#FDC28B" d="M108.647,157.539c-0.336-0.381-0.3-0.766,0.227-1.556c0.282-0.423,1.482-1.067,1.824-1.443
		c0.485-0.535,0.908-1.133,1.455-1.604c1.574-1.361,2.239-0.866,2.284-0.752c0.432,1.089-0.151,2.538-0.893,3.445
		c-0.376,0.46-1.816,1.669-2.407,1.828C110.773,157.555,109.324,158.302,108.647,157.539"/>
</g>
</svg>
