<?xml version="1.0" encoding="utf-8"?>
<!-- Generator: Adobe Illustrator 15.0.0, SVG Export Plug-In . SVG Version: 6.00 Build 0)  -->
<!DOCTYPE svg PUBLIC "-//W3C//DTD SVG 1.1//EN" "http://www.w3.org/Graphics/SVG/1.1/DTD/svg11.dtd">
<svg version="1.1" id="Capa_1" xmlns="http://www.w3.org/2000/svg" xmlns:xlink="http://www.w3.org/1999/xlink" x="0px" y="0px"
	 width="300px" height="300px" viewBox="0 0 300 300" enable-background="new 0 0 300 300" xml:space="preserve">
<g>
	<g>
		<path fill="#D8EDFA" d="M47.342,170.455c5.691,7.499,11.046,16.761,9.273,27.756c-3.099,19.243-24.821,30.121-32.693,48.457
			c-4.053,9.441-3.317,20.146,0.985,27.611h221.835c2.837-2.271,5.453-4.965,7.707-8.018c7.594-10.281,10.845-24.227,8.293-35.576
			c-2.547-11.328-10.236-19.496-12.933-30.751c-3.011-12.573,0.656-27.505,6.82-40.503c6.165-12.997,14.678-24.618,22.451-36.654
			c5.732-8.875,11.369-19.039,10.891-28.979c-0.679-14.106-13.624-21.266-26.084-20.811c-12.459,0.455-25.142,6.245-37.739,8.444
			c-12.596,2.198-26.562-0.358-31.655-12.345c-4.543-10.69-0.766-25.991-6.402-35.821c-3.366-5.871-9.672-8.7-16.219-9.003
			c-6.547-0.304-13.37,1.656-20.025,4.014C114.255,41.589,78.343,68.454,50.91,103.785c-9.325,12.009-18.241,26.937-16.822,41.138
			C35.141,155.453,41.65,162.956,47.342,170.455"/>
	</g>
	<path fill="#43DAC4" d="M36.162,273.855c0.167-8.105,1.431-16.297,3.753-24.454c-1.049,0.422-2.063,0.895-3.04,1.411
		c-0.649,3.018-1.257,6.063-2.506,9.039c-0.096,0.227-0.65,0.221-0.662,0c-0.13-2.494,0.259-5.057,0.729-7.606
		c-1.577,1.027-3.033,2.181-4.342,3.444c0.739,2.488,1.514,4.979,2.146,7.488c0.676,2.682,1.604,5.32,1.768,8.094
		c0.019,0.318-0.653,0.539-0.846,0.229c-1.541-2.471-2.291-5.162-3.369-7.768c-0.749-1.811-1.378-3.662-2.011-5.508
		c-1.636,2.045-2.931,4.299-3.813,6.703c2.697,2.797,4.918,5.797,6.798,8.928H36.162"/>
	<path fill="#43DAC4" d="M40.4,273.855c0.009-0.793,0.021-1.586,0.043-2.381c0.122-4.449,0.45-8.938,1.101-13.415
		c0.326-2.237,0.609-4.49,1.126-6.73c0.24-1.044,0.504-2.083,0.772-3.122c-0.604,0.17-1.201,0.351-1.788,0.551
		c-0.104,0.351-0.207,0.703-0.307,1.055c-2.262,8.013-3.497,16.072-3.691,24.043H40.4"/>
	<path fill="#43DAC4" d="M46.496,273.855c0.198-8.783-0.037-17.529-0.705-26.221c-0.36,0.074-0.719,0.154-1.074,0.24
		c-0.161,1.473-0.292,2.948-0.466,4.415c-0.287,2.438-0.563,4.872-0.782,7.308c-0.429,4.77-0.598,9.525-0.533,14.258H46.496"/>
	<path fill="#43DAC4" d="M69.548,273.855c3.227-4.232,6.906-8.344,10.993-12.281c-0.264-0.471-0.546-0.934-0.842-1.389
		c-0.965,1.072-1.884,2.221-3.136,3.129c-0.218,0.158-0.613,0.027-0.552-0.166c0.435-1.367,1.78-2.756,2.862-3.992
		c0.021-0.023,0.044-0.047,0.065-0.07c-0.397-0.545-0.818-1.074-1.262-1.591c-0.204,0.317-0.411,0.632-0.61,0.949
		c-1.512,2.39-2.879,4.823-4.586,7.169c-0.247,0.342-1.061,0.309-0.948-0.088c0.919-3.223,2.644-6.475,4.639-9.641
		c-0.903-0.891-1.876-1.73-2.915-2.51c-2.37,6.82-4.597,13.648-6.746,20.48H69.548"/>
	<path fill="#43DAC4" d="M48.151,273.855h5.606c3.673-8.156,8.051-16.23,13.111-24.161c-0.949-0.409-1.929-0.773-2.932-1.099
		c-0.185,0.277-0.374,0.555-0.556,0.832c-1.816,2.789-3.555,5.607-5.094,8.448c-1.562,2.884-2.764,5.872-4.598,8.698
		c-0.271,0.418-1.138,0.326-1.073-0.1c0.441-2.934,1.945-5.975,3.35-8.852c1.431-2.932,2.997-5.836,4.809-8.705
		c0.216-0.344,0.442-0.684,0.664-1.025c-0.921-0.222-1.857-0.41-2.812-0.557c-0.32,0.941-0.57,1.891-0.825,2.847
		c-0.103,0.382-0.976,0.489-1.022,0.093c-0.123-1.028,0.003-2.09,0.294-3.147c-0.827-0.093-1.664-0.157-2.511-0.192
		c-1.169,3.838-2.056,7.676-2.949,11.521c-0.113,0.489-1.086,0.456-1.077,0c0.071-3.817,0.763-7.696,1.819-11.548
		c-1.686,0.032-3.337,0.179-4.943,0.432c0.072,0.905,0.143,1.812,0.205,2.718C48.159,257.953,48.32,265.891,48.151,273.855"/>
	<path fill="#43DAC4" d="M83.366,273.855c0.033-0.49,0.051-0.984,0.05-1.48c-0.001-0.477-0.023-0.951-0.055-1.422
		c-1.155,0.953-2.28,1.922-3.379,2.902H83.366"/>
	<path fill="#43DAC4" d="M77.141,273.855c1.874-1.793,3.854-3.543,5.934-5.238c-0.152-0.854-0.355-1.689-0.604-2.514
		c-0.558,0.525-1.103,1.055-1.63,1.594c-1.06,1.084-2.028,2.479-3.501,3.344c-0.172,0.1-0.411,0.025-0.388-0.117
		c0.209-1.213,1.545-2.529,2.508-3.607c0.804-0.896,1.643-1.791,2.52-2.662c-0.148-0.393-0.306-0.781-0.476-1.164
		c-3.393,3.344-6.485,6.811-9.253,10.365H77.141"/>
	<path fill="#43DAC4" d="M29.278,273.855c-1.637-2.688-3.516-5.277-5.714-7.719c-0.322,1.066-0.563,2.16-0.722,3.273
		c1.434,1.373,2.66,2.855,3.569,4.445H29.278"/>
	<path fill="#43DAC4" d="M25.383,273.855c-0.911-0.787-1.815-1.58-2.732-2.363c-0.015,0.338-0.024,0.674-0.024,1.016
		c0.001,0.451,0.018,0.902,0.047,1.348H25.383"/>
	<path fill="#43DAC4" d="M59.109,273.855c0.683-1.729,1.388-3.459,2.119-5.186c1.493-3.52,3.132-7.027,4.829-10.523
		c1.131-2.332,2.181-4.775,3.515-7.129c-0.234-0.128-0.465-0.258-0.702-0.381c-4.879,7.633-9.114,15.387-12.719,23.219H59.109"/>
	<path fill="#43DAC4" d="M64.016,273.855c2.288-7.301,4.659-14.598,7.197-21.885c-0.238-0.15-0.484-0.291-0.729-0.437
		c-0.369,0.719-0.747,1.435-1.097,2.151c-0.951,1.945-1.889,3.893-2.789,5.844c-2.193,4.752-4.149,9.533-5.93,14.326H64.016"/>
	<path fill="#43DAC4" d="M89.406,273.855c0.1-4.805,0.849-9.664,2.226-14.502c-0.622,0.252-1.223,0.531-1.803,0.838
		c-0.385,1.789-0.745,3.596-1.485,5.359c-0.057,0.135-0.387,0.131-0.394,0c-0.077-1.479,0.154-2.996,0.433-4.51
		c-0.936,0.609-1.798,1.293-2.574,2.041c0.438,1.477,0.897,2.953,1.271,4.443c0.401,1.588,0.951,3.152,1.049,4.799
		c0.011,0.188-0.388,0.318-0.502,0.135c-0.913-1.465-1.359-3.061-1.998-4.605c-0.443-1.074-0.816-2.172-1.192-3.268
		c-0.97,1.213-1.737,2.549-2.261,3.975c1.6,1.66,2.916,3.438,4.031,5.295H89.406"/>
	<path fill="#43DAC4" d="M91.92,273.855c0.006-0.471,0.013-0.941,0.025-1.412c0.072-2.639,0.267-5.299,0.652-7.953
		c0.194-1.33,0.361-2.664,0.668-3.994c0.142-0.617,0.299-1.232,0.458-1.851c-0.358,0.101-0.713,0.209-1.061,0.326
		c-0.062,0.209-0.122,0.418-0.182,0.627c-1.341,4.753-2.073,9.53-2.189,14.257H91.92"/>
	<path fill="#43DAC4" d="M95.534,273.855c0.118-5.209-0.021-10.395-0.418-15.549c-0.214,0.045-0.427,0.092-0.638,0.142
		c-0.095,0.874-0.173,1.749-0.275,2.618c-0.171,1.445-0.334,2.889-0.464,4.334c-0.254,2.828-0.354,5.648-0.316,8.455H95.534"/>
	<path fill="#43DAC4" d="M109.204,273.855c1.913-2.51,4.096-4.947,6.52-7.283c-0.156-0.279-0.324-0.553-0.5-0.824
		c-0.572,0.639-1.117,1.318-1.859,1.855c-0.129,0.096-0.363,0.018-0.327-0.098c0.258-0.811,1.056-1.633,1.697-2.365
		c0.014-0.016,0.026-0.029,0.039-0.045c-0.236-0.322-0.486-0.635-0.749-0.941c-0.12,0.188-0.242,0.373-0.362,0.563
		c-0.896,1.418-1.706,2.861-2.719,4.252c-0.146,0.201-0.629,0.182-0.562-0.053c0.545-1.91,1.566-3.838,2.75-5.719
		c-0.536-0.527-1.112-1.025-1.729-1.488c-1.405,4.047-2.726,8.094-3.999,12.146H109.204"/>
	<path fill="#43DAC4" d="M96.516,273.855h3.324c2.179-4.838,4.774-9.625,7.776-14.329c-0.563-0.241-1.145-0.458-1.739-0.651
		c-0.109,0.166-0.223,0.33-0.33,0.496c-1.076,1.652-2.106,3.324-3.02,5.01c-0.927,1.709-1.64,3.482-2.728,5.158
		c-0.16,0.246-0.674,0.191-0.636-0.061c0.262-1.74,1.154-3.543,1.987-5.248c0.848-1.74,1.776-3.461,2.85-5.163
		c0.129-0.202,0.264-0.405,0.395-0.606c-0.546-0.133-1.102-0.244-1.667-0.332c-0.189,0.559-0.338,1.121-0.489,1.689
		c-0.061,0.225-0.578,0.289-0.606,0.055c-0.073-0.609,0.001-1.24,0.174-1.867c-0.49-0.055-0.986-0.093-1.487-0.113
		c-0.693,2.275-1.219,4.553-1.75,6.832c-0.066,0.289-0.644,0.271-0.639,0c0.042-2.264,0.452-4.564,1.079-6.849
		c-1,0.021-1.979,0.106-2.932,0.255c0.042,0.539,0.084,1.074,0.122,1.613C96.521,264.426,96.616,269.131,96.516,273.855"/>
	<path fill="#43DAC4" d="M117.398,273.855c0.02-0.289,0.03-0.582,0.029-0.877c-0.001-0.283-0.014-0.564-0.033-0.844
		c-0.684,0.566-1.352,1.139-2.003,1.721H117.398"/>
	<path fill="#43DAC4" d="M113.707,273.855c1.111-1.063,2.284-2.1,3.519-3.107c-0.091-0.504-0.211-1.002-0.359-1.488
		c-0.33,0.311-0.653,0.625-0.966,0.945c-0.628,0.643-1.203,1.469-2.075,1.98c-0.103,0.061-0.245,0.018-0.23-0.068
		c0.123-0.719,0.915-1.5,1.487-2.139c0.476-0.533,0.973-1.063,1.494-1.58c-0.089-0.232-0.182-0.463-0.282-0.689
		c-2.013,1.982-3.847,4.037-5.488,6.146H113.707"/>
	<path fill="#43DAC4" d="M85.324,273.855c-0.971-1.594-2.084-3.129-3.389-4.576c-0.191,0.633-0.333,1.281-0.428,1.941
		c0.851,0.813,1.578,1.691,2.117,2.635H85.324"/>
	<path fill="#43DAC4" d="M83.015,273.855c-0.54-0.469-1.077-0.936-1.62-1.402c-0.01,0.201-0.015,0.402-0.015,0.602
		c0.001,0.27,0.01,0.535,0.028,0.801H83.015"/>
	<path fill="#43DAC4" d="M103.014,273.855c0.405-1.025,0.823-2.051,1.257-3.074c0.886-2.088,1.858-4.168,2.863-6.242
		c0.671-1.383,1.294-2.83,2.084-4.227c-0.138-0.076-0.275-0.154-0.416-0.225c-2.893,4.525-5.404,9.123-7.542,13.768H103.014"/>
	<path fill="#43DAC4" d="M105.923,273.855c1.357-4.33,2.764-8.656,4.269-12.979c-0.142-0.088-0.287-0.172-0.433-0.258
		c-0.219,0.426-0.443,0.852-0.65,1.275c-0.563,1.152-1.12,2.309-1.654,3.465c-1.3,2.818-2.46,5.654-3.516,8.496H105.923"/>
	<path fill="#D7D9D8" d="M42.447,267.709l1.624-1.008l8.371,0.146c0,0,1.489,1.852,1.489,6.725h-6.232L42.447,267.709"/>
	<path fill="#1C2E36" d="M94.508,158.844c0,0,0.964,13.137,0.416,19.75c-0.974,11.734-2.153,30.505-5.073,42.199
		c0,16.711-1.844,30.401-1.16,46.055c-3.059,0.082-5.349-0.23-8.407-0.146c-1.079-11.1-3.624-18.979-5.46-31.101
		c-0.614-4.063,1.146-10.389,2.438-14.124c-2.104-7.229-4.463-32.799-5.196-37.593c-1.14-7.456,0.985-14.673,2.245-22.109
		L94.508,158.844"/>
	<path fill="#30444C" d="M86.51,163.879c-6.021,18.349-13.24,43.918-22.427,59.431c-0.759,16.704-8.485,27.885-11.641,43.538
		c-3.078,0.082-5.292-0.23-8.371-0.146c1.643-11.1,4.525-42.324,6.866-46.156c0.975-7.693,4.317-36.519,4.792-41.66
		c0.688-7.455,2.719-13.021,6.683-17.11L86.51,163.879"/>
	<path fill="#FBC4B4" d="M94.972,154.284c-0.342,0.655-0.246,1.423-0.145,2.144c0.123,0.859,0.245,1.72,0.367,2.58
		c0.103,0.717,0.224,1.475,0.725,2.035c0.693,0.777,2.018,0.942,2.999,0.492c0.98-0.448,2.423-2.071,2.577-3.064
		c0.154-0.994-0.933-1.352-1.4-2.26c-0.436-0.844-1.183-2.29-2.104-2.797C97.011,152.877,95.45,153.367,94.972,154.284"/>
	<path fill="#43DAC4" d="M98.561,150.775c0.854-5.559,2.823-7.634,5.143-12.757c-3.991-3.648-8.125-8.985-11.435-13.26
		c-2.523-3.256-4.876-6.773-5.871-10.77c-0.995-3.998-0.424-8.584,2.353-11.627c10.962,8.833,18.877,18.729,24.752,31.748
		c2.25,4.986-0.786,11.15-3.129,16.093c-0.873,1.842-1.959,3.637-3.548,4.914c-1.588,1.276-2.92,1.816-4.873,1.237
		C99.998,155.773,98.25,152.789,98.561,150.775"/>
	<path fill="#43DAC4" d="M68.854,99.564c-5.057,0.71-6.451,1.41-10.809,4.072c-0.779,0.477-3.868,2.663-3.942,3.575
		c-0.725,8.975,1.96,17.883,4.287,26.627c1.419,5.331,2.592,20.04-1.408,35.499c10.171,4.146,27.95,7.514,38.11,3.34
		c2.586-17.561,5.024-39.411,0.653-60.64c-1.171-5.684-5.672-10.078-11.439-10.729L68.854,99.564"/>
	<path fill="#FBC4B4" d="M67.455,88.79c0.913,3.916,1.303,7.954,1.156,11.971c-0.392-0.339-1.636,0.161-1.87,0.623
		c-0.235,0.463-0.094,1.046,0.223,1.458c0.315,0.411,0.776,0.682,1.235,0.923c3.296,1.724,7.146,2.371,10.823,1.815
		c0.674-0.102,1.359-0.25,1.936-0.615c0.575-0.366,1.027-0.991,1.019-1.672c-0.01-0.739-0.553-1.387-1.205-1.733
		s-1.401-0.45-2.134-0.547c-0.212-2.989-0.72-5.771-0.932-8.76L67.455,88.79"/>
	<path fill="#F8A48D" d="M75.685,99.482c0.958,0.515,1.938,0.966,2.938,1.364c-0.22-2.926-0.709-5.662-0.918-8.595l-10.25-3.462
		c0.16,0.688,0.304,1.38,0.43,2.074c0.373,2.054,1.496,3.895,3.104,5.226C72.478,97.322,73.96,98.557,75.685,99.482"/>
	<path fill="#1C2E36" d="M65.122,84.995c-1.761-2.115-2.535-5.016-2.063-7.727c-0.642-0.207-1.269-0.732-1.471-1.374
		s-0.074-1.379,0.331-1.916c-1.209,0.059-2.356-0.806-2.73-1.959c-0.373-1.152-0.013-2.477,0.801-3.376
		c0.813-0.898,2.024-1.385,3.234-1.437c0.04-2.791,1.366-5.57,3.604-7.239c0.563-0.419,1.192-0.78,1.887-0.882
		c0.694-0.102,1.463,0.093,1.913,0.631c0.45,0.538,0.47,1.436-0.058,1.899c3.236-2.608,7.261-4.027,11.403-4.364
		c0.792-0.064,1.608-0.08,2.358,0.182c0.751,0.261,1.429,0.851,1.6,1.626c0.171,0.776-0.316,1.694-1.1,1.823
		c1.953-0.565,4.02-0.482,5.86,0.384c1.839,0.866,3.234,2.837,3.01,4.859c-0.18,1.606-1.288,2.952-2.483,4.04
		c-1.307,1.188-2.778,2.193-4.355,2.986c-1.479,0.744-0.806,6.828-2.427,7.173L65.122,84.995"/>
	<path fill="#FBC4B4" d="M83.939,71.571c0.511,0.152,0.877,0.598,0.937,1.128c0.735,6.581,1.354,12.095-0.307,18.491
		c-0.613,2.362-1.77,4.888-4.051,5.754c-2.216,0.842-4.69-0.19-6.688-1.463c-2.576-1.641-4.875-3.717-6.768-6.114
		c-1.63,0.393-2.866-0.204-3.758-1.624c-0.777-1.239-1.093-2.918-0.293-4.143s2.949-1.436,3.64-0.146
		c-0.026-2.705,1.087-4.194,2.459-6.525c-0.449-1.622-0.794-3.492,0.396-4.683c0.364-0.365,0.837-0.603,1.311-0.811
		C74.209,69.948,80.104,70.432,83.939,71.571"/>
	<path fill="#30444C" d="M76.938,76.532c-1.919-0.98-4.093-0.747-5.785,0.573c-0.508,0.396,0.206,1.102,0.709,0.708
		c1.318-1.029,3.09-1.172,4.57-0.416C77.005,77.69,77.513,76.826,76.938,76.532"/>
	<path fill="#30444C" d="M85.454,76.355c-1.354-1.065-3.358-0.959-4.5,0.383c-0.396,0.466,0.277,1.146,0.677,0.676
		c0.772-0.91,2.178-1.146,3.147-0.383C85.256,77.408,85.938,76.736,85.454,76.355"/>
	<path fill="#30444C" d="M75.259,78.8c-0.046-0.639-1.049-0.645-1.002,0c0.047,0.638,0.093,1.276,0.14,1.914
		c0.048,0.639,1.05,0.645,1.003,0C75.353,80.076,75.306,79.438,75.259,78.8"/>
	<path fill="#30444C" d="M84.297,78.411c-0.047-0.639-1.049-0.644-1.002,0c0.047,0.638,0.093,1.276,0.14,1.913
		c0.047,0.64,1.049,0.645,1.002,0C84.39,79.687,84.344,79.048,84.297,78.411"/>
	<path fill="#30444C" d="M78.278,89.853c-1.274-0.144-2.377-0.787-3.19-1.767c-0.413-0.497-1.118,0.216-0.709,0.709
		c0.993,1.195,2.365,1.887,3.899,2.06C78.919,90.927,78.913,89.924,78.278,89.853"/>
	<path fill="#F8A48D" d="M77.125,92.272c-0.628-0.018-1.229-0.162-1.793-0.442c-0.576-0.286-1.084,0.578-0.507,0.865
		c0.726,0.36,1.49,0.556,2.3,0.579C77.771,93.292,77.771,92.29,77.125,92.272"/>
	<path fill="#F8A48D" d="M81.737,85.141c-0.555,0.545-1.255,0.773-2.024,0.703c-0.643-0.059-0.638,0.943,0,1.002
		c1.02,0.093,2.007-0.281,2.732-0.997C82.906,85.396,82.197,84.687,81.737,85.141"/>
	<path fill="#F8A48D" d="M66.224,86.695c-0.896-0.112-0.854-1.218-0.15-1.554c0.582-0.278,0.074-1.142-0.506-0.866
		c-0.727,0.348-1.171,1.17-1.017,1.97c0.159,0.83,0.871,1.351,1.673,1.451C66.862,87.776,66.856,86.773,66.224,86.695"/>
	<path fill="#FBC4B4" d="M79.637,97.549c-0.311,0.219-0.603,0.496-0.724,0.855c-0.121,0.36-0.021,0.816,0.307,1.007
		c0.361,0.211,0.813,0.041,1.213-0.08l0.022-0.007c0.673-0.2,1.354,0.038,1.771,0.52l2.242-2.388
		C83.029,96.535,81.035,96.563,79.637,97.549"/>
	<path fill="#EA5D23" d="M80.629,100.426l-1.017-1.102c-0.101-0.108-0.093-0.277,0.015-0.377l8.21-7.574
		c0.108-0.1,0.276-0.093,0.377,0.016l1.017,1.102c0.1,0.108,0.093,0.276-0.016,0.377l-8.209,7.574
		C80.897,100.541,80.729,100.534,80.629,100.426"/>
	<polyline fill="#F39467" points="80.524,100.313 79.717,99.438 88.318,91.501 89.126,92.377 80.524,100.313 	"/>
	<polyline fill="#A2D88A" points="90.076,90.69 89.239,90.896 89.804,91.507 90.076,90.69 	"/>
	<polyline fill="#FFDBAA" points="89.239,90.896 88.032,91.192 89.41,92.687 89.804,91.507 89.239,90.896 	"/>
	<path fill="#FBC4B4" d="M92.233,99.574c-0.588-1.89-2.204-3.562-4.11-4.069c-0.478-0.127-0.761-0.614-0.696-1.104
		c0.235-1.809,0.361-3.609,0.6-5.418c0.072-0.55-0.544-0.905-0.989-0.574c-0.229,0.172-0.428,0.393-0.578,0.634
		c-0.365,0.585-0.504,1.281-0.636,1.958c-0.428,2.2-0.804,4.328-1.231,6.528c-0.039-0.028-0.084-0.046-0.124-0.072l-2.242,2.388
		c0.244,0.282,0.396,0.646,0.401,1.058c0.01,1.103,0.122,2.194,0.483,3.231c0.607,1.746,2.1,3.317,3.945,3.436
		c1.393,0.088,2.734-0.663,3.68-1.689C92.269,104.216,92.907,101.733,92.233,99.574"/>
	<path fill="#33A08E" d="M89.838,112.814c-1.162,7.243-2.324,14.539-4.64,21.521c-2.199,6.635-7.469,18.691-16.659,14.993
		c-6.574-2.646-9.194-12.587-10.752-18.76c-1.849-7.331-2.555-14.882-3.244-22.392c-0.067-0.735-1.225-0.742-1.157,0
		c0.805,8.763,1.617,17.642,4.23,26.087c1.835,5.927,4.856,14.956,11.767,16.57c7.377,1.722,12.504-5.3,15.027-11.155
		c3.634-8.425,5.1-17.557,6.542-26.556C91.069,112.394,89.955,112.081,89.838,112.814"/>
	<path fill="#33A08E" d="M81.122,111.125c-5.229,8.565-10.05,20.024-11.967,29.876c-0.142,0.727,0.974,1.039,1.116,0.308
		c1.896-9.755,6.67-21.117,11.85-29.6C82.51,111.071,81.51,110.489,81.122,111.125"/>
	<path fill="#33A08E" d="M68.72,116.85c-0.24-0.7-1.357-0.399-1.116,0.308c1.771,5.178,2.984,10.462,3.62,15.9
		c0.086,0.73,1.243,0.739,1.157,0C71.733,127.521,70.524,122.126,68.72,116.85"/>
	<path fill="#FBC4B4" d="M83.974,105.081c-0.118,2.495-1.364,6.619-1.364,6.619c1.834,1.428,4.608,2.009,6.832,1.332
		c0.14-2.458,0.188-4.869,0.327-7.327L83.974,105.081"/>
	<path fill="#FBC4B4" d="M97.132,155.313c0.919-1.15,1.984-4.297,2.905-5.449c0.48-0.601,2.38-0.238,2.951-0.029
		c2.053,0.757,2.631,3.076,2.148,5.095c-0.235,0.981-0.898,1.814-1.774,2.319c-1.88,1.085-4.427,3.233-6.009,3.843L97.132,155.313"
		/>
	<path fill="#33A08E" d="M96.295,116.082c-0.16-0.898-1.275-0.518-1.115,0.38c3.28,18.4,2.852,37.413-1.235,55.563
		c-0.2,0.887,0.916,1.267,1.115,0.379C99.201,154.013,99.619,134.725,96.295,116.082"/>
	<path fill="#FBC4B4" d="M97.701,153.545c-1.438-0.018-2.845,0.224-4.188,0.739c-1.03,0.397-0.583,2.074,0.462,1.673
		c1.209-0.463,2.432-0.692,3.727-0.677C98.818,155.294,98.818,153.559,97.701,153.545"/>
	<path fill="#FBC4B4" d="M98.1,155.662c-1.438-0.018-2.845,0.224-4.188,0.74c-1.032,0.396-0.584,2.074,0.461,1.673
		c1.209-0.464,2.432-0.692,3.727-0.678C99.217,157.411,99.218,155.676,98.1,155.662"/>
	<path fill="#FBC4B4" d="M98.664,157.873c-1.438-0.018-2.844,0.225-4.188,0.74c-1.031,0.396-0.584,2.074,0.462,1.672
		c1.208-0.463,2.431-0.693,3.726-0.677C99.782,159.623,99.782,157.887,98.664,157.873"/>
	<path fill="#FBC4B4" d="M98.775,159.943c-1.248-0.016-2.467,0.193-3.633,0.641c-0.895,0.344-0.506,1.799,0.4,1.452
		c1.049-0.403,2.108-0.603,3.232-0.589C99.744,161.461,99.745,159.955,98.775,159.943"/>
	<path fill="#F0EFEE" d="M48.579,273.572c-0.016-3.43-2.799-6.203-6.23-6.203s-6.215,2.773-6.231,6.203H48.579"/>
	<path fill="#F0EFEE" d="M101.442,273.572c-0.016-3.43-2.799-6.203-6.23-6.203s-6.215,2.773-6.23,6.203H101.442"/>
	<path fill="#F0EFEE" d="M95.212,267.369l-6.521-0.521l-8.407-0.146c0,0-1.324,3.211-1.324,6.871h14.096L95.212,267.369"/>
	<path fill="#33A08E" d="M81.54,169.143c-7.35-2.248-13.794-6.395-18.901-12.136c-0.471-0.53-1.246,0.25-0.776,0.777
		c5.229,5.878,11.863,10.118,19.386,12.417C81.925,170.408,82.216,169.35,81.54,169.143"/>
	<path fill="#33A08E" d="M94.256,172.494c-6.031,2.646-12.689,1.984-19.007,0.904c-6.198-1.059-12.276-2.677-18.247-4.637
		c-0.674-0.221-0.962,0.84-0.293,1.059c6.925,2.274,14.011,4.102,21.237,5.104c5.725,0.794,11.486,0.877,16.864-1.482
		C95.456,173.158,94.897,172.213,94.256,172.494"/>
	<path fill="#33A08E" d="M109.811,135.928c-1.899-0.215-3.754,0.244-5.343,1.305c-0.585,0.391-0.036,1.343,0.555,0.949
		c1.45-0.969,3.056-1.351,4.788-1.155C110.512,137.106,110.506,136.007,109.811,135.928"/>
	<path fill="#33A08E" d="M71.396,119.448c-0.49,1.586-0.979,3.172-1.47,4.757c-0.209,0.678,0.851,0.967,1.06,0.292
		c0.49-1.586,0.979-3.172,1.469-4.757C72.664,119.063,71.604,118.774,71.396,119.448"/>
	<path fill="#33A08E" d="M97.813,119.751c-0.358,1.569-0.715,3.139-1.072,4.708c-0.156,0.688,0.901,0.982,1.059,0.292l1.073-4.708
		C99.029,119.354,97.971,119.061,97.813,119.751"/>
	<path fill="#33A08E" d="M90.519,162.473c-4.174,2.214-8.875,2.418-13.213,0.525c-0.641-0.279-1.201,0.668-0.554,0.949
		c4.713,2.056,9.772,1.887,14.32-0.526C91.697,163.09,91.143,162.142,90.519,162.473"/>
	<path fill="#1C2E36" d="M63.809,219.432c-3,2.471-6,4.943-9.001,7.416c-0.546,0.449,0.235,1.224,0.777,0.776
		c3-2.472,6-4.943,9.001-7.415C65.132,219.76,64.351,218.986,63.809,219.432"/>
	<path fill="#1C2E36" d="M56.967,228.256c-0.431,0.431-0.861,0.861-1.291,1.292c-0.501,0.501,0.275,1.278,0.776,0.777
		c0.431-0.431,0.86-0.861,1.291-1.291C58.244,228.533,57.467,227.758,56.967,228.256"/>
	<path fill="#1C2E36" d="M51.824,262.955l-4.598,0.48c-0.695,0.072-0.703,1.172,0,1.1l4.598-0.482
		C52.521,263.979,52.528,262.881,51.824,262.955"/>
	<path fill="#1C2E36" d="M52.046,261.488l-2.028,0.367c-0.694,0.129-0.4,1.188,0.293,1.063c0.676-0.125,1.352-0.248,2.028-0.369
		C53.033,262.42,52.738,261.363,52.046,261.488"/>
	<g>
		<path fill="#415761" d="M274.727,273.572H11.264c-1.684,0-1.687,2.197,0,2.197h263.463
			C276.41,275.77,276.412,273.572,274.727,273.572"/>
	</g>
	<path fill="#43DAC4" d="M216.968,273.855c0.171-8.256,1.458-16.603,3.823-24.912c-1.067,0.43-2.101,0.912-3.098,1.438
		c-0.661,3.074-1.28,6.178-2.551,9.209c-0.098,0.23-0.664,0.225-0.675,0c-0.133-2.541,0.263-5.15,0.742-7.75
		c-1.607,1.045-3.089,2.223-4.423,3.508c0.754,2.536,1.542,5.072,2.186,7.631c0.688,2.732,1.634,5.42,1.801,8.244
		c0.019,0.324-0.665,0.547-0.861,0.232c-1.57-2.514-2.335-5.258-3.433-7.91c-0.763-1.846-1.403-3.732-2.049-5.613
		c-1.665,2.084-2.985,4.379-3.884,6.83c2.748,2.848,5.011,5.904,6.925,9.094H216.968"/>
	<path fill="#43DAC4" d="M221.287,273.855c0.008-0.809,0.021-1.617,0.043-2.426c0.124-4.531,0.459-9.104,1.122-13.666
		c0.331-2.279,0.62-4.574,1.146-6.856c0.245-1.063,0.513-2.122,0.787-3.181c-0.615,0.172-1.224,0.355-1.821,0.559
		c-0.106,0.36-0.211,0.72-0.312,1.078c-2.304,8.162-3.563,16.371-3.762,24.492H221.287"/>
	<path fill="#43DAC4" d="M227.496,273.855c0.202-8.947-0.038-17.856-0.718-26.712c-0.368,0.076-0.733,0.159-1.096,0.243
		c-0.163,1.502-0.297,3.004-0.474,4.5c-0.293,2.484-0.573,4.963-0.797,7.443c-0.437,4.857-0.61,9.705-0.543,14.525H227.496"/>
	<path fill="#43DAC4" d="M250.979,273.855c3.287-4.313,7.036-8.5,11.2-12.512c-0.27-0.48-0.557-0.951-0.858-1.415
		c-0.983,1.095-1.92,2.263-3.194,3.188c-0.222,0.16-0.625,0.027-0.563-0.17c0.443-1.393,1.813-2.807,2.916-4.066
		c0.022-0.023,0.045-0.048,0.066-0.072c-0.405-0.555-0.834-1.096-1.285-1.619c-0.207,0.32-0.418,0.643-0.622,0.966
		c-1.54,2.437-2.932,4.913-4.671,7.304c-0.253,0.348-1.081,0.314-0.966-0.09c0.935-3.283,2.691-6.595,4.725-9.822
		c-0.92-0.907-1.911-1.762-2.969-2.555c-2.416,6.947-4.683,13.902-6.872,20.863H250.979"/>
	<path fill="#43DAC4" d="M229.182,273.855h5.712c3.742-8.309,8.202-16.533,13.356-24.613c-0.967-0.417-1.964-0.79-2.986-1.119
		c-0.188,0.283-0.381,0.563-0.565,0.848c-1.852,2.842-3.62,5.711-5.188,8.607c-1.593,2.936-2.817,5.979-4.685,8.859
		c-0.276,0.426-1.159,0.33-1.095-0.102c0.451-2.988,1.983-6.086,3.413-9.018c1.459-2.986,3.055-5.945,4.899-8.869
		c0.22-0.348,0.45-0.694,0.676-1.043c-0.937-0.227-1.893-0.417-2.863-0.568c-0.326,0.961-0.582,1.926-0.842,2.902
		c-0.104,0.389-0.994,0.497-1.042,0.094c-0.124-1.047,0.004-2.129,0.3-3.207c-0.842-0.093-1.694-0.16-2.558-0.195
		c-1.19,3.91-2.093,7.819-3.004,11.737c-0.116,0.497-1.105,0.464-1.097,0c0.071-3.89,0.776-7.843,1.853-11.765
		c-1.717,0.033-3.399,0.184-5.036,0.439c0.073,0.922,0.146,1.846,0.21,2.768C229.19,257.654,229.354,265.74,229.182,273.855"/>
	<path fill="#43DAC4" d="M265.057,273.855c0.034-0.498,0.052-1.002,0.051-1.508c-0.001-0.486-0.023-0.969-0.056-1.449
		c-1.176,0.971-2.322,1.957-3.441,2.957H265.057"/>
	<path fill="#43DAC4" d="M258.716,273.855c1.908-1.828,3.924-3.609,6.044-5.336c-0.155-0.869-0.362-1.723-0.617-2.561
		c-0.566,0.535-1.123,1.074-1.659,1.625c-1.079,1.104-2.065,2.523-3.566,3.404c-0.175,0.102-0.42,0.027-0.396-0.119
		c0.213-1.234,1.574-2.578,2.555-3.676c0.819-0.914,1.674-1.822,2.567-2.713c-0.151-0.398-0.313-0.793-0.485-1.184
		c-3.456,3.406-6.606,6.936-9.426,10.559H258.716"/>
	<path fill="#43DAC4" d="M209.955,273.855c-1.667-2.738-3.581-5.377-5.82-7.861c-0.329,1.084-0.574,2.197-0.735,3.332
		c1.46,1.4,2.712,2.91,3.637,4.529H209.955"/>
	<path fill="#43DAC4" d="M205.987,273.855c-0.928-0.805-1.85-1.609-2.784-2.406c-0.015,0.342-0.024,0.688-0.024,1.033
		c0.002,0.461,0.019,0.918,0.048,1.373H205.987"/>
	<path fill="#43DAC4" d="M240.345,273.855c0.697-1.762,1.415-3.521,2.159-5.281c1.521-3.588,3.191-7.16,4.919-10.723
		c1.153-2.376,2.222-4.863,3.581-7.263c-0.237-0.129-0.473-0.263-0.716-0.386c-4.97,7.773-9.284,15.674-12.956,23.652H240.345"/>
	<path fill="#43DAC4" d="M245.343,273.855c2.332-7.438,4.747-14.872,7.334-22.295c-0.243-0.152-0.495-0.299-0.744-0.444
		c-0.376,0.731-0.761,1.463-1.117,2.19c-0.969,1.982-1.924,3.967-2.841,5.953c-2.234,4.842-4.228,9.713-6.041,14.596H245.343"/>
	<path fill="#A2D88A" d="M238.333,51.105h-22.866l-5.915-12.213h-19.068l-5.069,12.213h-24.516l0.565,16.33l0.129,3.702h79.082
		L238.333,51.105 M197.601,44.534c0.508-0.575,1.284-0.824,2.041-0.858c0.728-0.033,1.574,0.35,2.101,0.858
		c0.55,0.531,0.903,1.32,0.929,2.071l0.008,0.206c0.027,0.793-0.28,1.498-0.786,2.07c-0.508,0.575-1.285,0.824-2.042,0.858
		c-0.728,0.033-1.574-0.35-2.101-0.858c-0.549-0.531-0.903-1.32-0.93-2.07l-0.007-0.206
		C196.786,45.812,197.094,45.107,197.601,44.534z"/>
	<polyline fill="#506B77" points="129.786,59.776 102.562,264.539 105.126,267.102 245.244,267.102 269.904,59.776 267.341,57.211 
		129.786,59.776 	"/>
	<path fill="#A2D88A" d="M109.257,208.247l-6.695,56.292H242.68l15.438-129.791c-50.008,19.698-98.042,43.306-147.037,72.431
		C110.465,207.522,109.858,207.881,109.257,208.247"/>
	<path fill="#A2D88A" d="M127.222,57.211l-17.965,151.036c0.602-0.366,1.208-0.725,1.824-1.068
		c48.995-29.125,97.029-52.732,147.037-72.431l9.223-77.537H127.222"/>
	<polyline fill="#FFFFFF" points="235.118,256.604 112.011,256.604 134.783,65.146 257.892,65.146 235.118,256.604 	"/>
	<path fill="#C4D1D4" d="M213.034,51.105l-4.041-12.213h-19.067l-6.946,12.213h-24.514l-1.943,16.33
		c26.943-8.12,53.949-12.369,80.898-15.262l0.128-1.068H213.034 M200.904,46.812c-0.094,0.794-0.51,1.498-1.104,2.071
		c-0.597,0.574-1.411,0.824-2.173,0.857c-0.734,0.033-1.522-0.35-1.97-0.857c-0.468-0.532-0.7-1.32-0.611-2.071l0.025-0.206
		c0.094-0.794,0.51-1.498,1.104-2.071c0.597-0.575,1.411-0.824,2.173-0.858c0.733-0.032,1.521,0.35,1.97,0.858
		c0.467,0.532,0.7,1.32,0.61,2.071L200.904,46.812z"/>
	<path fill="#A2D88A" d="M156.522,67.434l-0.439,3.703h79.083l2.255-18.964C210.472,55.065,183.466,59.314,156.522,67.434"/>
	<path fill="#A2D88A" d="M217.302,86.618h-76.516c-1.642,0-1.644,2.55,0,2.55h76.516C218.942,89.168,218.945,86.618,217.302,86.618"
		/>
	<path fill="#FFFFFF" d="M248.148,94.512l1.427-11.998c0.14-1.173-0.776-2.206-1.96-2.206h-16.668c-0.999,0-1.842,0.747-1.96,1.74
		l-1.426,11.997c-0.14,1.174,0.776,2.207,1.959,2.207h16.669C247.188,96.252,248.03,95.504,248.148,94.512"/>
	<path fill="none" stroke="#708A95" stroke-miterlimit="10" d="M248.148,94.512l1.427-11.998c0.14-1.173-0.776-2.206-1.96-2.206
		h-16.668c-0.999,0-1.842,0.747-1.96,1.74l-1.426,11.997c-0.14,1.174,0.776,2.207,1.959,2.207h16.669
		C247.188,96.252,248.03,95.504,248.148,94.512z"/>
	<path fill="#A2D88A" d="M213.105,123.219H136.59c-1.641,0-1.644,2.551,0,2.551h76.516
		C214.747,125.77,214.75,123.219,213.105,123.219"/>
	<path fill="#FFFFFF" d="M243.952,131.114l1.428-11.998c0.139-1.174-0.777-2.206-1.96-2.206h-16.669
		c-0.999,0-1.841,0.747-1.959,1.74l-1.428,11.998c-0.14,1.174,0.778,2.207,1.96,2.207h16.669
		C242.992,132.854,243.835,132.106,243.952,131.114"/>
	<path fill="none" stroke="#708A95" stroke-miterlimit="10" d="M243.952,131.114l1.428-11.998c0.139-1.174-0.777-2.206-1.96-2.206
		h-16.669c-0.999,0-1.841,0.747-1.959,1.74l-1.428,11.998c-0.14,1.174,0.778,2.207,1.96,2.207h16.669
		C242.992,132.854,243.835,132.106,243.952,131.114z"/>
	<path fill="#A2D88A" d="M208.91,159.82h-76.516c-1.642,0-1.644,2.551,0,2.551h76.516C210.551,162.371,210.553,159.82,208.91,159.82
		"/>
	<path fill="#FFFFFF" d="M239.757,167.715l1.428-11.998c0.139-1.173-0.778-2.206-1.96-2.206h-16.669c-1,0-1.841,0.749-1.959,1.74
		l-1.428,11.998c-0.14,1.173,0.778,2.206,1.959,2.206h16.669C238.797,169.455,239.638,168.707,239.757,167.715"/>
	<path fill="none" stroke="#708A95" stroke-miterlimit="10" d="M239.757,167.715l1.428-11.998c0.139-1.173-0.778-2.206-1.96-2.206
		h-16.669c-1,0-1.841,0.749-1.959,1.74l-1.428,11.998c-0.14,1.173,0.778,2.206,1.959,2.206h16.669
		C238.797,169.455,239.638,168.707,239.757,167.715z"/>
	<path fill="#A2D88A" d="M204.714,196.422h-76.516c-1.641,0-1.644,2.551,0,2.551h76.516
		C206.354,198.973,206.357,196.422,204.714,196.422"/>
	<path fill="#FFFFFF" d="M235.562,204.316l1.427-11.996c0.14-1.176-0.778-2.207-1.96-2.207H218.36c-0.999,0-1.842,0.746-1.959,1.739
		l-1.428,11.999c-0.14,1.173,0.777,2.205,1.96,2.205h16.668C234.602,206.057,235.442,205.31,235.562,204.316"/>
	<path fill="none" stroke="#708A95" stroke-miterlimit="10" d="M235.562,204.316l1.427-11.996c0.14-1.176-0.778-2.207-1.96-2.207
		H218.36c-0.999,0-1.842,0.746-1.959,1.739l-1.428,11.999c-0.14,1.173,0.777,2.205,1.96,2.205h16.668
		C234.602,206.057,235.442,205.31,235.562,204.316z"/>
	<path fill="#A2D88A" d="M200.519,233.023h-76.516c-1.642,0-1.644,2.551,0,2.551h76.516
		C202.159,235.574,202.162,233.023,200.519,233.023"/>
	<path fill="#FFFFFF" d="M231.365,240.919l1.427-11.998c0.14-1.175-0.776-2.206-1.959-2.206h-16.669c-0.999,0-1.842,0.747-1.96,1.74
		l-1.426,11.998c-0.141,1.173,0.776,2.205,1.959,2.205h16.669C230.404,242.658,231.247,241.91,231.365,240.919"/>
	<path fill="none" stroke="#708A95" stroke-miterlimit="10" d="M231.365,240.919l1.427-11.998c0.14-1.175-0.776-2.206-1.959-2.206
		h-16.669c-0.999,0-1.842,0.747-1.96,1.74l-1.426,11.998c-0.141,1.173,0.776,2.205,1.959,2.205h16.669
		C230.404,242.658,231.247,241.91,231.365,240.919z"/>
	<path fill="#A2D88A" d="M246.894,75.897c-2.23,2.931-4.461,5.861-6.69,8.792c-0.954,1.254-1.845,2.809-2.974,3.907
		c-0.9,0.878-0.9,1.348-2.189,0.677c-0.72-0.375-1.605-1.527-2.167-2.061c-1.189-1.13-2.997,0.67-1.804,1.804
		c2.439,2.319,4.518,5.759,7.249,2.333c3.694-4.634,7.188-9.448,10.776-14.165C250.089,75.878,247.875,74.607,246.894,75.897"/>
	<path fill="#A2D88A" d="M239.688,147.84c-2.23,2.93-4.46,5.861-6.69,8.792c-0.953,1.254-1.845,2.81-2.973,3.907
		c-0.902,0.878-0.901,1.348-2.19,0.677c-0.72-0.376-1.605-1.526-2.167-2.06c-1.19-1.131-2.996,0.668-1.803,1.803
		c2.439,2.32,4.517,5.758,7.248,2.332c3.693-4.634,7.188-9.447,10.776-14.164C242.883,147.821,240.668,146.549,239.688,147.84"/>
	<path fill="#43DAC4" d="M136.93,273.855c0.118-5.719,1.01-11.498,2.648-17.255c-0.74,0.3-1.456,0.632-2.146,0.997
		c-0.458,2.129-0.887,4.279-1.768,6.377c-0.067,0.16-0.459,0.156-0.467,0c-0.092-1.76,0.183-3.566,0.514-5.367
		c-1.112,0.725-2.139,1.539-3.063,2.43c0.521,1.756,1.067,3.514,1.513,5.283c0.478,1.895,1.133,3.754,1.248,5.711
		c0.013,0.227-0.461,0.381-0.597,0.162c-1.087-1.742-1.617-3.641-2.377-5.48c-0.528-1.277-0.973-2.582-1.419-3.887
		c-1.154,1.443-2.067,3.033-2.69,4.732c1.903,1.971,3.471,4.088,4.797,6.297H136.93"/>
	<path fill="#43DAC4" d="M139.921,273.855c0.006-0.559,0.016-1.121,0.03-1.682c0.086-3.137,0.317-6.303,0.776-9.463
		c0.229-1.578,0.43-3.168,0.794-4.75c0.17-0.736,0.355-1.47,0.545-2.201c-0.426,0.118-0.848,0.246-1.262,0.387
		c-0.072,0.249-0.146,0.498-0.216,0.746c-1.596,5.652-2.468,11.34-2.604,16.963H139.921"/>
	<path fill="#43DAC4" d="M144.221,273.855c0.141-6.197-0.025-12.367-0.496-18.5c-0.255,0.053-0.508,0.108-0.76,0.168
		c-0.113,1.041-0.205,2.081-0.327,3.117c-0.203,1.721-0.397,3.438-0.552,5.154c-0.303,3.365-0.423,6.721-0.376,10.061H144.221"/>
	<path fill="#43DAC4" d="M160.485,273.855c2.276-2.986,4.873-5.889,7.757-8.664c-0.186-0.334-0.385-0.66-0.595-0.982
		c-0.68,0.758-1.329,1.568-2.212,2.209c-0.152,0.111-0.433,0.02-0.389-0.117c0.306-0.965,1.256-1.945,2.02-2.814
		c0.015-0.018,0.031-0.035,0.045-0.051c-0.28-0.385-0.577-0.76-0.89-1.123c-0.144,0.223-0.289,0.445-0.431,0.668
		c-1.066,1.688-2.031,3.404-3.235,5.061c-0.174,0.24-0.749,0.219-0.67-0.063c0.648-2.273,1.865-4.568,3.273-6.805
		c-0.638-0.627-1.323-1.22-2.057-1.769c-1.673,4.812-3.243,9.63-4.759,14.45H160.485"/>
	<path fill="#43DAC4" d="M145.389,273.855h3.956c2.592-5.754,5.681-11.451,9.251-17.049c-0.669-0.287-1.36-0.545-2.068-0.773
		c-0.131,0.195-0.265,0.392-0.392,0.588c-1.282,1.967-2.509,3.955-3.595,5.961c-1.103,2.033-1.95,4.143-3.244,6.137
		c-0.191,0.295-0.803,0.229-0.757-0.072c0.312-2.07,1.373-4.213,2.364-6.244c1.009-2.068,2.113-4.117,3.392-6.143
		c0.152-0.24,0.312-0.482,0.468-0.723c-0.648-0.157-1.31-0.287-1.982-0.393c-0.226,0.664-0.402,1.334-0.583,2.01
		c-0.071,0.268-0.688,0.344-0.721,0.065c-0.087-0.728,0.002-1.476,0.207-2.222c-0.583-0.065-1.174-0.111-1.771-0.135
		c-0.825,2.707-1.451,5.416-2.082,8.129c-0.079,0.344-0.766,0.32-0.76,0c0.051-2.695,0.538-5.432,1.283-8.148
		c-1.189,0.022-2.354,0.126-3.487,0.305c0.051,0.639,0.101,1.277,0.145,1.916C145.395,262.637,145.509,268.234,145.389,273.855"/>
	<path fill="#43DAC4" d="M170.235,273.855c0.023-0.344,0.036-0.693,0.035-1.043c-0.001-0.338-0.017-0.672-0.039-1.004
		c-0.814,0.67-1.608,1.355-2.384,2.047H170.235"/>
	<path fill="#43DAC4" d="M165.843,273.855c1.322-1.266,2.719-2.498,4.186-3.695c-0.106-0.604-0.25-1.193-0.426-1.773
		c-0.394,0.369-0.777,0.744-1.15,1.123c-0.747,0.766-1.431,1.748-2.469,2.359c-0.122,0.072-0.291,0.018-0.273-0.08
		c0.146-0.857,1.089-1.787,1.769-2.547c0.566-0.633,1.159-1.262,1.778-1.881c-0.105-0.275-0.217-0.549-0.337-0.818
		c-2.393,2.357-4.575,4.803-6.528,7.313H165.843"/>
	<path fill="#43DAC4" d="M132.073,273.855c-1.154-1.895-2.48-3.725-4.031-5.445c-0.228,0.752-0.398,1.523-0.509,2.309
		c1.011,0.969,1.877,2.014,2.519,3.137H132.073"/>
	<path fill="#43DAC4" d="M129.324,273.855c-0.642-0.557-1.28-1.113-1.927-1.666c-0.011,0.236-0.019,0.475-0.018,0.715
		c0.001,0.318,0.013,0.637,0.033,0.951H129.324"/>
	<path fill="#43DAC4" d="M153.121,273.855c0.481-1.221,0.979-2.439,1.495-3.658c1.053-2.484,2.209-4.959,3.406-7.426
		c0.798-1.645,1.539-3.369,2.48-5.03c-0.164-0.091-0.328-0.181-0.496-0.267c-3.441,5.385-6.43,10.855-8.974,16.381H153.121"/>
	<path fill="#43DAC4" d="M156.583,273.855c1.613-5.152,3.286-10.299,5.077-15.44c-0.168-0.106-0.343-0.206-0.515-0.31
		c-0.261,0.508-0.526,1.014-0.773,1.52c-0.672,1.373-1.333,2.744-1.968,4.123c-1.548,3.352-2.927,6.725-4.184,10.107H156.583"/>
</g>
</svg>
