<?xml version="1.0" encoding="utf-8"?>
<!-- Generator: Adobe Illustrator 15.0.0, SVG Export Plug-In . SVG Version: 6.00 Build 0)  -->
<!DOCTYPE svg PUBLIC "-//W3C//DTD SVG 1.1//EN" "http://www.w3.org/Graphics/SVG/1.1/DTD/svg11.dtd">
<svg version="1.1" id="Capa_1" xmlns="http://www.w3.org/2000/svg" xmlns:xlink="http://www.w3.org/1999/xlink" x="0px" y="0px"
	 width="300px" height="300px" viewBox="0 0 300 300" enable-background="new 0 0 300 300" xml:space="preserve">
<g>
	<g>
		<path fill="#E5E5E5" d="M260.58,137.708c0,59.422-48.171,107.592-107.593,107.592c-59.422,0-107.593-48.17-107.593-107.592
			c0-59.421,48.171-107.593,107.593-107.593C212.409,30.116,260.58,78.287,260.58,137.708"/>
		<path fill="#E5E5E5" d="M150.249,254.393c0.008-1.193,0.987-2.16,2.182-2.152c1.193,0.006,2.151,0.979,2.144,2.172
			c0.001,1.193-0.979,2.158-2.172,2.152c-0.009,0-0.018,0-0.035-0.002C151.191,256.539,150.243,255.568,150.249,254.393
			 M142.732,256.121c-1.191-0.102-2.07-1.148-1.967-2.34s1.15-2.07,2.341-1.969c1.192,0.104,2.07,1.15,1.967,2.342
			c-0.101,1.141-1.071,2.002-2.195,1.979C142.827,256.133,142.784,256.123,142.732,256.121 M159.76,254.232
			c-0.088-1.195,0.798-2.232,1.994-2.32c1.187-0.088,2.231,0.799,2.32,1.994c0.088,1.188-0.808,2.225-1.994,2.32
			c-0.07-0.002-0.139,0.006-0.208,0.004C160.766,256.209,159.849,255.352,159.76,254.232 M133.13,254.904L133.13,254.904
			c-1.181-0.197-1.972-1.322-1.774-2.494c0.197-1.18,1.321-1.971,2.493-1.773c1.181,0.197,1.971,1.313,1.773,2.492
			c-0.187,1.07-1.119,1.82-2.173,1.799C133.337,254.926,133.232,254.922,133.13,254.904 M169.225,253.305
			c-0.192-1.182,0.617-2.289,1.789-2.482c1.181-0.182,2.289,0.619,2.48,1.799c0.183,1.18-0.618,2.289-1.799,2.48l0.001-0.008
			c-0.131,0.023-0.261,0.029-0.383,0.025C170.286,255.1,169.392,254.354,169.225,253.305 M123.656,252.891
			c-1.162-0.291-1.856-1.465-1.563-2.627c0.292-1.152,1.475-1.855,2.627-1.555c1.162,0.293,1.855,1.467,1.563,2.629
			c-0.253,0.988-1.158,1.645-2.136,1.625C123.983,252.959,123.819,252.939,123.656,252.891 M178.576,251.602
			c-0.28-1.164,0.428-2.336,1.584-2.613h0.009c1.156-0.287,2.326,0.428,2.605,1.584c0.287,1.156-0.42,2.326-1.585,2.615
			c-0.183,0.047-0.373,0.061-0.555,0.059C179.675,253.225,178.815,252.566,178.576,251.602 M114.372,250.123h0.008
			c-1.133-0.395-1.731-1.627-1.344-2.752c0.387-1.135,1.619-1.732,2.752-1.346c1.125,0.396,1.731,1.627,1.336,2.752
			c-0.313,0.91-1.172,1.482-2.089,1.463C114.818,250.236,114.594,250.197,114.372,250.123 M187.761,249.137
			c-0.383-1.133,0.229-2.357,1.361-2.74c1.133-0.375,2.358,0.23,2.741,1.371c0.374,1.131-0.239,2.348-1.362,2.73
			c-0.245,0.082-0.496,0.119-0.738,0.115C188.881,250.594,188.054,250.023,187.761,249.137 M105.353,246.58
			c-1.097-0.48-1.59-1.754-1.109-2.852c0.481-1.088,1.753-1.582,2.851-1.1c1.09,0.473,1.591,1.754,1.109,2.842
			c-0.362,0.824-1.177,1.309-2.024,1.291C105.903,246.756,105.619,246.699,105.353,246.58 M196.702,245.92
			c-0.471-1.1,0.039-2.369,1.14-2.838c1.09-0.471,2.369,0.039,2.84,1.139c0.47,1.092-0.041,2.369-1.14,2.84
			c-0.288,0.123-0.593,0.178-0.896,0.172C197.825,247.215,197.049,246.723,196.702,245.92 M96.653,242.318
			c-1.053-0.566-1.441-1.881-0.874-2.932c0.567-1.053,1.88-1.441,2.932-0.875c1.052,0.574,1.441,1.889,0.865,2.934
			c-0.395,0.734-1.157,1.152-1.943,1.135C97.296,242.574,96.96,242.488,96.653,242.318 M205.355,241.982
			c-0.559-1.051-0.16-2.365,0.898-2.924s2.365-0.158,2.923,0.9s0.149,2.363-0.899,2.922c-0.342,0.184-0.697,0.264-1.052,0.256
			C206.465,243.121,205.737,242.699,205.355,241.982 M88.33,237.346L88.33,237.346c-0.999-0.65-1.282-1.988-0.63-2.988
			c0.652-0.998,1.999-1.281,2.997-0.629c0.999,0.66,1.273,1.998,0.622,2.996c-0.419,0.648-1.136,0.988-1.854,0.975
			C89.076,237.689,88.68,237.578,88.33,237.346 M213.65,237.352c-0.637-1.008-0.349-2.342,0.658-2.988
			c1.009-0.645,2.343-0.35,2.988,0.658c0.646,1,0.349,2.344-0.658,2.98c-0.368,0.242-0.794,0.355-1.209,0.346
			C214.737,238.334,214.062,237.982,213.65,237.352 M80.445,231.725c-0.945-0.736-1.116-2.098-0.378-3.033
			c0.728-0.947,2.09-1.117,3.026-0.379c0.946,0.727,1.116,2.09,0.387,3.035c-0.435,0.553-1.098,0.842-1.755,0.828
			C81.275,232.166,80.828,232.02,80.445,231.725 M221.554,232.047c-0.725-0.949-0.54-2.303,0.408-3.025
			c0.949-0.727,2.304-0.541,3.027,0.406c0.724,0.959,0.541,2.313-0.408,3.037c-0.404,0.305-0.883,0.449-1.358,0.439
			C222.592,232.891,221.967,232.594,221.554,232.047 M73.048,225.475c-0.884-0.813-0.941-2.182-0.137-3.057
			c0.806-0.883,2.173-0.941,3.057-0.135c0.875,0.805,0.941,2.182,0.127,3.055c-0.434,0.477-1.035,0.715-1.631,0.703
			C73.954,226.029,73.447,225.838,73.048,225.475 M228.994,226.129c-0.805-0.891-0.732-2.256,0.158-3.059
			c0.89-0.795,2.254-0.723,3.058,0.168c0.795,0.889,0.724,2.254-0.166,3.049c-0.424,0.389-0.964,0.568-1.49,0.559
			C229.974,226.834,229.408,226.588,228.994,226.129 M66.183,218.639c-0.812-0.873-0.768-2.24,0.115-3.051
			c0.873-0.813,2.238-0.76,3.051,0.113s0.759,2.248-0.114,3.061c-0.424,0.389-0.972,0.584-1.518,0.574
			C67.154,219.324,66.598,219.088,66.183,218.639 M235.918,219.619c-0.865-0.82-0.898-2.189-0.085-3.063
			c0.823-0.865,2.19-0.898,3.064-0.084c0.866,0.822,0.897,2.189,0.083,3.064c-0.44,0.457-1.033,0.678-1.621,0.666
			C236.839,220.191,236.325,220,235.918,219.619 M59.89,211.277c-0.734-0.941-0.576-2.303,0.365-3.037
			c0.94-0.742,2.296-0.576,3.038,0.365c0.733,0.941,0.575,2.295-0.366,3.037c-0.404,0.32-0.9,0.465-1.375,0.455
			C60.92,212.086,60.312,211.805,59.89,211.277 M242.3,212.564c-0.928-0.746-1.081-2.107-0.326-3.045v0.01
			c0.746-0.936,2.106-1.082,3.034-0.336c0.937,0.746,1.08,2.107,0.336,3.035c-0.437,0.545-1.081,0.824-1.73,0.813
			C243.155,213.031,242.691,212.875,242.3,212.564 M54.222,203.418v0.01c-0.654-1-0.384-2.344,0.615-2.998
			c0.991-0.662,2.335-0.385,2.998,0.607c0.655,1,0.384,2.342-0.615,2.996c-0.377,0.252-0.812,0.365-1.236,0.355
			C55.3,204.375,54.633,204.041,54.222,203.418 M248.087,205.02c-0.981-0.67-1.248-2.016-0.578-3.006
			c0.669-0.988,2.015-1.246,3.005-0.578c0.989,0.67,1.247,2.006,0.578,2.996c-0.429,0.631-1.128,0.973-1.837,0.957
			C248.857,205.381,248.445,205.26,248.087,205.02 M49.22,195.133c-0.575-1.041-0.193-2.357,0.857-2.932
			c1.041-0.576,2.356-0.193,2.931,0.855c0.576,1.041,0.194,2.357-0.856,2.932c-0.341,0.191-0.714,0.271-1.078,0.264
			C50.322,196.236,49.603,195.842,49.22,195.133 M253.242,197.02c-1.042-0.592-1.405-1.904-0.82-2.949
			c0.582-1.043,1.905-1.404,2.939-0.82c1.043,0.584,1.414,1.906,0.83,2.939h-0.008c-0.405,0.719-1.156,1.119-1.927,1.102
			C253.912,197.285,253.567,197.199,253.242,197.02 M44.909,186.473c-0.488-1.092-0.003-2.371,1.088-2.859
			c1.092-0.488,2.371-0.002,2.858,1.088c0.488,1.092,0.003,2.371-1.088,2.857c-0.306,0.133-0.618,0.197-0.929,0.189
			C46.025,187.732,45.265,187.258,44.909,186.473 M257.724,188.617c-1.089-0.498-1.564-1.777-1.066-2.857
			c0.499-1.09,1.78-1.564,2.868-1.066s1.564,1.779,1.065,2.867c-0.371,0.807-1.177,1.273-2.016,1.258
			C258.29,188.811,257.996,188.754,257.724,188.617 M41.323,177.479c-0.392-1.131,0.197-2.365,1.329-2.756
			c1.124-0.402,2.357,0.195,2.749,1.318c0.401,1.125-0.196,2.357-1.319,2.758c-0.254,0.09-0.504,0.129-0.765,0.123
			C42.445,178.904,41.634,178.352,41.323,177.479 M261.501,179.891c-1.124-0.412-1.704-1.652-1.3-2.77
			c0.412-1.123,1.652-1.703,2.769-1.301c1.124,0.412,1.704,1.652,1.3,2.77c-0.329,0.893-1.179,1.445-2.078,1.428
			C261.957,180.012,261.725,179.973,261.501,179.891 M38.495,168.219c-0.305-1.158,0.385-2.338,1.542-2.643
			c1.156-0.305,2.336,0.387,2.641,1.543c0.297,1.156-0.394,2.336-1.551,2.641c-0.191,0.057-0.39,0.078-0.589,0.074
			C39.596,169.814,38.744,169.174,38.495,168.219 M264.533,170.879c-1.152-0.318-1.828-1.5-1.511-2.652
			c0.31-1.152,1.499-1.836,2.652-1.52c1.153,0.311,1.828,1.5,1.52,2.652c-0.271,0.98-1.167,1.611-2.135,1.592
			C264.886,170.947,264.714,170.926,264.533,170.879 M36.433,158.756L36.433,158.756c-0.209-1.182,0.575-2.299,1.756-2.508
			c1.18-0.201,2.297,0.584,2.498,1.766c0.209,1.172-0.575,2.287-1.755,2.498c-0.14,0.021-0.278,0.037-0.416,0.033
			C37.503,160.525,36.61,159.789,36.433,158.756 M266.826,161.645c-1.174-0.215-1.953-1.336-1.731-2.518
			c0.216-1.172,1.338-1.945,2.519-1.73c1.173,0.215,1.945,1.346,1.73,2.52c-0.194,1.059-1.127,1.793-2.164,1.771
			C267.058,161.684,266.946,161.674,266.826,161.645 M35.152,149.153L35.152,149.153c-0.105-1.188,0.772-2.242,1.96-2.347
			c1.187-0.114,2.242,0.765,2.347,1.952c0.114,1.187-0.764,2.242-1.952,2.355c-0.087,0.008-0.165,0.006-0.242,0.004
			C36.175,151.096,35.258,150.264,35.152,149.153 M268.342,152.266c-1.182-0.119-2.051-1.184-1.932-2.376
			c0.119-1.183,1.185-2.051,2.375-1.932c1.183,0.128,2.053,1.184,1.932,2.374c-0.117,1.123-1.078,1.969-2.193,1.945
			C268.464,152.275,268.402,152.266,268.342,152.266 M34.667,139.481c-0.01-1.193,0.944-2.169,2.138-2.179
			c1.195-0.011,2.169,0.944,2.188,2.138c0.01,1.194-0.953,2.169-2.147,2.187c-0.017,0-0.043,0-0.061,0
			C35.619,141.603,34.678,140.658,34.667,139.481 M266.983,140.577c0.024-1.193,1.013-2.142,2.206-2.117
			c1.192,0.025,2.142,1.014,2.117,2.207c-0.025,1.194-1.014,2.142-2.207,2.117C267.907,142.758,266.958,141.77,266.983,140.577
			 M36.965,132.116c-1.192-0.085-2.087-1.116-2.011-2.308h0.009c0.076-1.192,1.115-2.088,2.307-2.002
			c1.184,0.085,2.088,1.116,2.002,2.308c-0.084,1.149-1.054,2.028-2.195,2.005C37.034,132.117,36.999,132.117,36.965,132.116
			 M266.913,133.465h-0.008c-0.046-1.195,0.884-2.196,2.078-2.25c1.195-0.044,2.197,0.876,2.25,2.071
			c0.044,1.194-0.885,2.205-2.079,2.25c-0.044,0-0.087,0.006-0.13,0.006C267.892,135.519,266.959,134.616,266.913,133.465
			 M37.843,122.653c-1.181-0.188-1.998-1.287-1.809-2.468c0.18-1.181,1.278-1.989,2.459-1.808c1.182,0.18,1.989,1.277,1.809,2.459
			c-0.161,1.086-1.111,1.863-2.174,1.841C38.033,122.675,37.938,122.664,37.843,122.653 M266.153,124.168
			c-0.148-1.188,0.696-2.27,1.875-2.409c1.188-0.149,2.27,0.695,2.418,1.883c0.14,1.179-0.705,2.26-1.884,2.409
			c-0.104,0.006-0.207,0.013-0.312,0.011C267.188,126.041,266.287,125.252,266.153,124.168 M39.49,113.285
			c-1.163-0.274-1.882-1.44-1.607-2.602c0.283-1.162,1.449-1.882,2.61-1.608c1.163,0.284,1.874,1.449,1.598,2.611
			c-0.237,1.007-1.15,1.68-2.145,1.66C39.792,113.343,39.644,113.323,39.49,113.285 M264.631,114.959
			c-0.244-1.164,0.515-2.308,1.679-2.551c1.173-0.245,2.316,0.506,2.56,1.679c0.236,1.165-0.514,2.308-1.678,2.552
			c-0.165,0.04-0.33,0.054-0.485,0.051C265.72,116.668,264.844,115.967,264.631,114.959 M41.902,104.088
			c-1.134-0.369-1.758-1.593-1.389-2.728c0.378-1.134,1.602-1.757,2.736-1.379c1.135,0.37,1.749,1.583,1.379,2.727
			c-0.304,0.919-1.173,1.507-2.098,1.488C42.323,104.191,42.109,104.153,41.902,104.088 M262.359,105.916
			c-0.339-1.148,0.317-2.346,1.466-2.686c1.14-0.339,2.347,0.316,2.687,1.457c0.339,1.148-0.316,2.346-1.466,2.686
			c-0.218,0.064-0.434,0.095-0.659,0.091C263.471,107.445,262.636,106.839,262.359,105.916 M45.063,95.114
			c-1.098-0.463-1.616-1.737-1.152-2.835c0.464-1.098,1.738-1.616,2.835-1.153c1.098,0.464,1.617,1.729,1.152,2.835
			c-0.354,0.84-1.178,1.333-2.042,1.316C45.596,95.272,45.329,95.223,45.063,95.114 M259.351,97.083
			c-0.427-1.116,0.127-2.367,1.242-2.794c1.107-0.436,2.36,0.118,2.795,1.233c0.427,1.116-0.127,2.367-1.233,2.794
			c-0.271,0.107-0.558,0.153-0.825,0.147C260.473,98.448,259.68,97.929,259.351,97.083 M48.961,86.432
			c-1.061-0.559-1.475-1.865-0.918-2.917c0.55-1.062,1.857-1.476,2.917-0.917c1.061,0.549,1.467,1.855,0.917,2.917
			c-0.396,0.752-1.175,1.178-1.971,1.162C49.587,86.669,49.261,86.584,48.961,86.432 M255.634,88.529v0.01
			c-0.522-1.075-0.071-2.373,1.004-2.895c1.074-0.523,2.362-0.073,2.885,1.001s0.072,2.372-1.002,2.886
			c-0.315,0.158-0.653,0.229-0.982,0.222C256.752,89.738,256,89.29,255.634,88.529 M53.553,78.093
			c-1.016-0.635-1.318-1.965-0.673-2.981c0.634-1.008,1.973-1.308,2.98-0.673c1.007,0.643,1.308,1.973,0.673,2.989
			c-0.42,0.658-1.146,1.014-1.871,0.999C54.282,78.419,53.895,78.316,53.553,78.093 M251.219,80.316
			c-0.609-1.024-0.262-2.358,0.763-2.959c1.024-0.611,2.358-0.271,2.959,0.761c0.611,1.025,0.272,2.35-0.761,2.96
			c-0.359,0.208-0.75,0.305-1.14,0.296C252.313,81.36,251.612,80.982,251.219,80.316 M58.811,70.165
			c-0.954-0.711-1.151-2.074-0.43-3.019c0.72-0.963,2.074-1.15,3.027-0.43c0.955,0.72,1.143,2.073,0.431,3.028
			c-0.436,0.579-1.108,0.876-1.774,0.863C59.624,70.598,59.186,70.45,58.811,70.165 M246.147,72.488
			c-0.688-0.974-0.453-2.328,0.521-3.017c0.974-0.689,2.318-0.454,3.017,0.521c0.688,0.975,0.453,2.328-0.521,3.009
			c-0.396,0.276-0.848,0.406-1.289,0.397C247.21,73.383,246.56,73.066,246.147,72.488 M64.691,62.7
			c-0.883-0.796-0.967-2.165-0.179-3.056c0.797-0.893,2.164-0.968,3.057-0.18c0.892,0.798,0.976,2.166,0.179,3.058
			c-0.442,0.493-1.053,0.739-1.658,0.727C65.588,63.238,65.1,63.054,64.691,62.7 M240.461,65.087
			c-0.769-0.916-0.645-2.271,0.271-3.039c0.915-0.769,2.279-0.646,3.038,0.27c0.769,0.915,0.645,2.279-0.271,3.048
			c-0.413,0.346-0.927,0.508-1.428,0.498C241.466,65.852,240.875,65.588,240.461,65.087 M71.167,55.732
			c-0.821-0.865-0.794-2.23,0.071-3.052c0.865-0.83,2.231-0.802,3.061,0.063c0.821,0.864,0.793,2.23-0.072,3.06
			c-0.433,0.406-0.99,0.611-1.535,0.6C72.14,56.393,71.582,56.165,71.167,55.732 M234.178,58.184l0.008,0.001
			c-0.839-0.848-0.827-2.214,0.02-3.054c0.849-0.838,2.215-0.828,3.053,0.02c0.839,0.848,0.828,2.215-0.02,3.053
			c-0.433,0.433-0.999,0.637-1.561,0.625C235.133,58.818,234.592,58.599,234.178,58.184 M78.193,49.32
			c-0.759-0.932-0.61-2.295,0.314-3.046c0.933-0.751,2.288-0.61,3.047,0.322c0.75,0.924,0.601,2.288-0.323,3.039
			c-0.414,0.337-0.91,0.492-1.403,0.481C79.215,50.103,78.606,49.831,78.193,49.32 M227.362,51.807L227.362,51.807
			c-0.901-0.779-1.002-2.14-0.223-3.049c0.779-0.9,2.141-1.002,3.049-0.222c0.902,0.78,1.004,2.14,0.223,3.049
			c-0.434,0.51-1.063,0.765-1.685,0.752C228.242,52.327,227.762,52.153,227.362,51.807 M85.709,43.489
			c-0.68-0.982-0.419-2.326,0.564-2.999c0.982-0.68,2.326-0.428,3.007,0.564c0.672,0.982,0.419,2.327-0.564,3.007
			c-0.386,0.26-0.829,0.381-1.262,0.372C86.771,44.42,86.121,44.095,85.709,43.489 M220.052,46.008L220.052,46.008
			c-0.963-0.704-1.178-2.057-0.474-3.02c0.702-0.963,2.057-1.177,3.02-0.475c0.963,0.704,1.177,2.058,0.474,3.021
			c-0.436,0.596-1.108,0.902-1.791,0.888C220.848,46.414,220.418,46.284,220.052,46.008 M93.67,38.3
			c-0.593-1.033-0.229-2.358,0.813-2.942c1.033-0.593,2.358-0.237,2.942,0.804c0.593,1.033,0.236,2.358-0.805,2.951
			c-0.351,0.201-0.733,0.287-1.113,0.28C94.772,39.377,94.062,38.99,93.67,38.3 M212.287,40.823
			c-1.017-0.618-1.344-1.948-0.718-2.964c0.618-1.025,1.948-1.344,2.974-0.717v-0.009c1.016,0.626,1.335,1.956,0.717,2.973
			c-0.412,0.684-1.146,1.049-1.889,1.034C212.999,41.131,212.629,41.029,212.287,40.823 M102.033,33.784
			c-0.506-1.083-0.038-2.372,1.045-2.877c1.083-0.505,2.371-0.038,2.876,1.045c0.505,1.083,0.038,2.371-1.045,2.877
			c-0.314,0.14-0.635,0.211-0.956,0.206C103.149,35.018,102.397,34.553,102.033,33.784 M204.128,36.294L204.128,36.294
			c-1.07-0.532-1.501-1.83-0.961-2.9c0.532-1.07,1.83-1.494,2.9-0.961c1.07,0.533,1.493,1.831,0.961,2.901
			c-0.388,0.771-1.167,1.212-1.979,1.196C204.737,36.523,204.419,36.448,204.128,36.294 M110.736,29.958
			c-0.418-1.116,0.16-2.358,1.277-2.776c1.124-0.41,2.366,0.16,2.775,1.285c0.418,1.116-0.152,2.358-1.277,2.777
			c-0.261,0.089-0.53,0.135-0.79,0.13C111.857,31.356,111.055,30.821,110.736,29.958 M195.618,32.452
			c-1.106-0.447-1.643-1.703-1.197-2.81c0.447-1.106,1.705-1.643,2.812-1.196c1.106,0.446,1.643,1.703,1.195,2.809
			c-0.338,0.858-1.179,1.369-2.043,1.352C196.125,32.601,195.867,32.552,195.618,32.452 M119.726,26.865
			c-0.322-1.148,0.351-2.336,1.509-2.659c1.148-0.322,2.336,0.351,2.659,1.5c0.323,1.156-0.351,2.345-1.507,2.667
			c-0.201,0.057-0.418,0.086-0.616,0.083C120.836,28.437,119.992,27.813,119.726,26.865 M186.834,29.321L186.834,29.321
			c-1.144-0.352-1.785-1.559-1.433-2.702c0.361-1.144,1.568-1.776,2.712-1.423c1.134,0.352,1.775,1.559,1.423,2.702
			c-0.297,0.945-1.174,1.541-2.107,1.522C187.229,29.416,187.031,29.386,186.834,29.321 M128.943,24.529
			c-0.227-1.172,0.541-2.307,1.722-2.534h-0.009c1.182-0.227,2.308,0.549,2.534,1.722c0.227,1.171-0.541,2.298-1.713,2.524h-0.009
			c-0.148,0.031-0.303,0.046-0.451,0.042C130.022,26.265,129.138,25.545,128.943,24.529 M177.817,26.93
			c-1.171-0.258-1.908-1.415-1.642-2.577c0.257-1.171,1.406-1.9,2.577-1.642c1.162,0.257,1.899,1.415,1.643,2.577
			c-0.229,1.025-1.143,1.715-2.154,1.694C178.103,26.979,177.955,26.958,177.817,26.93 M138.317,22.949
			c-0.123-1.188,0.73-2.251,1.918-2.383c1.187-0.123,2.26,0.739,2.382,1.927c0.13,1.188-0.73,2.251-1.917,2.374
			c-0.096,0.015-0.19,0.013-0.277,0.011C139.351,24.856,138.433,24.042,138.317,22.949 M168.631,25.287L168.631,25.287
			c-1.182-0.162-2.016-1.253-1.854-2.434c0.164-1.19,1.262-2.015,2.443-1.852c1.182,0.162,2.008,1.252,1.845,2.434
			c-0.153,1.104-1.104,1.889-2.184,1.867C168.795,25.299,168.718,25.297,168.631,25.287 M147.797,22.15
			c-0.036-1.194,0.91-2.187,2.104-2.214c1.195-0.036,2.188,0.91,2.214,2.104c0.028,1.194-0.909,2.187-2.104,2.214
			c-0.035,0-0.069-0.001-0.104-0.002C148.757,24.228,147.825,23.31,147.797,22.15 M157.305,22.112
			c0.067-1.192,1.081-2.105,2.273-2.038c1.192,0.067,2.104,1.09,2.046,2.283c-0.067,1.192-1.09,2.105-2.282,2.037
			C158.149,24.327,157.235,23.313,157.305,22.112"/>
		<path fill="#CECECE" d="M262.53,270.76c0,3.166-56.531,5.734-126.266,5.734S10,273.926,10,270.76
			c0-3.168,56.531-5.736,126.265-5.736S262.53,267.592,262.53,270.76"/>
		<path fill="#43DAC4" d="M235.263,270.5H90.337c-1.581,0-2.862-1.281-2.862-2.861V60.515c0-1.58,1.282-2.861,2.862-2.861h144.925
			c1.58,0,2.861,1.281,2.861,2.861v207.124C238.124,269.219,236.843,270.5,235.263,270.5"/>
		<g opacity="0.2">
			<g>
				<defs>
					<rect id="SVGID_1_" x="98.242" y="254.93" width="129.116" height="6.842"/>
				</defs>
				<clipPath id="SVGID_2_">
					<use xlink:href="#SVGID_1_"  overflow="visible"/>
				</clipPath>
				<polygon clip-path="url(#SVGID_2_)" points="98.242,254.93 227.358,261.771 227.358,254.93 				"/>
			</g>
		</g>
		<rect x="98.241" y="68.169" fill="#FFFFFF" width="129.117" height="186.761"/>
		<g opacity="0.3">
			<g>
				<defs>
					<rect id="SVGID_3_" x="122.696" y="85.94" width="76.042" height="6.318"/>
				</defs>
				<clipPath id="SVGID_4_">
					<use xlink:href="#SVGID_3_"  overflow="visible"/>
				</clipPath>
				<path clip-path="url(#SVGID_4_)" fill="#43DAC4" d="M195.866,92.257h-70.299c-1.586,0-2.871-1.286-2.871-2.871v-0.574
					c0-1.587,1.285-2.872,2.871-2.872h70.299c1.586,0,2.872,1.285,2.872,2.872v0.574C198.738,90.972,197.452,92.257,195.866,92.257"
					/>
			</g>
		</g>
		<g opacity="0.3">
			<g>
				<defs>
					<rect id="SVGID_5_" x="115.842" y="105.767" width="67.792" height="3.572"/>
				</defs>
				<clipPath id="SVGID_6_">
					<use xlink:href="#SVGID_5_"  overflow="visible"/>
				</clipPath>
				<path clip-path="url(#SVGID_6_)" fill="#43DAC4" d="M181.848,109.338h-64.221c-0.986,0-1.785-0.799-1.785-1.785
					c0-0.987,0.799-1.786,1.785-1.786h64.221c0.986,0,1.786,0.799,1.786,1.786C183.634,108.539,182.834,109.338,181.848,109.338"/>
			</g>
		</g>
		<g opacity="0.3">
			<g>
				<defs>
					<rect id="SVGID_7_" x="115.842" y="111.99" width="67.792" height="3.571"/>
				</defs>
				<clipPath id="SVGID_8_">
					<use xlink:href="#SVGID_7_"  overflow="visible"/>
				</clipPath>
				<path clip-path="url(#SVGID_8_)" fill="#43DAC4" d="M181.848,115.562h-64.221c-0.986,0-1.785-0.799-1.785-1.785
					c0-0.986,0.799-1.786,1.785-1.786h64.221c0.986,0,1.786,0.8,1.786,1.786C183.634,114.762,182.834,115.562,181.848,115.562"/>
			</g>
		</g>
		<g opacity="0.3">
			<g>
				<defs>
					<rect id="SVGID_9_" x="192.706" y="98.019" width="22.639" height="22.638"/>
				</defs>
				<clipPath id="SVGID_10_">
					<use xlink:href="#SVGID_9_"  overflow="visible"/>
				</clipPath>
				<path clip-path="url(#SVGID_10_)" fill="#43DAC4" d="M212.89,120.657h-17.729c-1.354,0-2.456-1.101-2.456-2.455v-17.729
					c0-1.353,1.102-2.454,2.456-2.454h17.729c1.354,0,2.454,1.101,2.454,2.454v17.729
					C215.344,119.556,214.243,120.657,212.89,120.657 M195.161,99.955c-0.287,0-0.52,0.233-0.52,0.519v17.729
					c0,0.287,0.232,0.52,0.52,0.52h17.729c0.286,0,0.52-0.233,0.52-0.52v-17.729c0-0.286-0.233-0.519-0.52-0.519H195.161z"/>
			</g>
		</g>
		<path fill="#43DAC4" d="M201.864,115.414c-0.052,0-0.104-0.002-0.156-0.008c-0.528-0.05-1-0.354-1.265-0.815
			c-1.673-2.916-4.069-5.49-4.094-5.516c-0.618-0.66-0.584-1.697,0.077-2.315c0.66-0.618,1.697-0.584,2.315,0.077
			c0.086,0.092,1.746,1.875,3.358,4.241c2.903-3.091,9.624-9.727,16.315-12.627c0.83-0.36,1.795,0.022,2.154,0.852
			c0.36,0.83-0.021,1.795-0.851,2.155c-8.008,3.471-16.53,13.289-16.615,13.388C202.792,115.208,202.338,115.414,201.864,115.414"/>
		<g opacity="0.3">
			<g>
				<defs>
					<rect id="SVGID_11_" x="115.842" y="143.208" width="67.792" height="3.572"/>
				</defs>
				<clipPath id="SVGID_12_">
					<use xlink:href="#SVGID_11_"  overflow="visible"/>
				</clipPath>
				<path clip-path="url(#SVGID_12_)" fill="#43DAC4" d="M181.848,146.78h-64.221c-0.986,0-1.785-0.799-1.785-1.785
					c0-0.987,0.799-1.786,1.785-1.786h64.221c0.986,0,1.786,0.799,1.786,1.786C183.634,145.98,182.834,146.78,181.848,146.78"/>
			</g>
		</g>
		<g opacity="0.3">
			<g>
				<defs>
					<rect id="SVGID_13_" x="115.842" y="149.432" width="67.792" height="3.572"/>
				</defs>
				<clipPath id="SVGID_14_">
					<use xlink:href="#SVGID_13_"  overflow="visible"/>
				</clipPath>
				<path clip-path="url(#SVGID_14_)" fill="#43DAC4" d="M181.848,153.004h-64.221c-0.986,0-1.785-0.799-1.785-1.787
					c0-0.984,0.799-1.785,1.785-1.785h64.221c0.986,0,1.786,0.8,1.786,1.785C183.634,152.205,182.834,153.004,181.848,153.004"/>
			</g>
		</g>
		<g opacity="0.3">
			<g>
				<defs>
					<rect id="SVGID_15_" x="192.706" y="135.46" width="22.639" height="22.637"/>
				</defs>
				<clipPath id="SVGID_16_">
					<use xlink:href="#SVGID_15_"  overflow="visible"/>
				</clipPath>
				<path clip-path="url(#SVGID_16_)" fill="#43DAC4" d="M212.89,158.1h-17.729c-1.354,0-2.456-1.102-2.456-2.455v-17.729
					c0-1.353,1.102-2.454,2.456-2.454h17.729c1.354,0,2.454,1.101,2.454,2.454v17.729C215.344,156.998,214.243,158.1,212.89,158.1
					 M195.161,137.396c-0.287,0-0.52,0.233-0.52,0.519v17.729c0,0.285,0.232,0.52,0.52,0.52h17.729c0.286,0,0.52-0.234,0.52-0.52
					v-17.729c0-0.286-0.233-0.519-0.52-0.519H195.161z"/>
			</g>
		</g>
		<path fill="#43DAC4" d="M201.864,152.707c-0.052,0-0.104-0.002-0.156-0.008c-0.528-0.051-1-0.354-1.265-0.814
			c-1.673-2.916-4.069-5.491-4.094-5.516c-0.618-0.66-0.584-1.697,0.077-2.315c0.66-0.619,1.697-0.584,2.315,0.076
			c0.086,0.093,1.746,1.876,3.358,4.242c2.903-3.091,9.624-9.726,16.315-12.627c0.83-0.36,1.795,0.021,2.154,0.852
			c0.36,0.83-0.021,1.794-0.851,2.155c-8.008,3.471-16.53,13.29-16.615,13.388C202.792,152.502,202.338,152.707,201.864,152.707"/>
		<g opacity="0.3">
			<g>
				<defs>
					<rect id="SVGID_17_" x="115.842" y="180.65" width="67.792" height="3.57"/>
				</defs>
				<clipPath id="SVGID_18_">
					<use xlink:href="#SVGID_17_"  overflow="visible"/>
				</clipPath>
				<path clip-path="url(#SVGID_18_)" fill="#43DAC4" d="M181.848,184.221h-64.221c-0.986,0-1.785-0.799-1.785-1.785
					s0.799-1.785,1.785-1.785h64.221c0.986,0,1.786,0.799,1.786,1.785S182.834,184.221,181.848,184.221"/>
			</g>
		</g>
		<g opacity="0.3">
			<g>
				<defs>
					<rect id="SVGID_19_" x="115.842" y="186.873" width="67.792" height="3.572"/>
				</defs>
				<clipPath id="SVGID_20_">
					<use xlink:href="#SVGID_19_"  overflow="visible"/>
				</clipPath>
				<path clip-path="url(#SVGID_20_)" fill="#43DAC4" d="M181.848,190.445h-64.221c-0.986,0-1.785-0.799-1.785-1.785
					s0.799-1.787,1.785-1.787h64.221c0.986,0,1.786,0.801,1.786,1.787S182.834,190.445,181.848,190.445"/>
			</g>
		</g>
		<g opacity="0.3">
			<g>
				<defs>
					<rect id="SVGID_21_" x="192.706" y="172.902" width="22.639" height="22.639"/>
				</defs>
				<clipPath id="SVGID_22_">
					<use xlink:href="#SVGID_21_"  overflow="visible"/>
				</clipPath>
				<path clip-path="url(#SVGID_22_)" fill="#43DAC4" d="M212.89,195.541h-17.729c-1.354,0-2.456-1.102-2.456-2.455v-17.729
					c0-1.354,1.102-2.455,2.456-2.455h17.729c1.354,0,2.454,1.102,2.454,2.455v17.729
					C215.344,194.439,214.243,195.541,212.89,195.541 M195.161,174.838c-0.287,0-0.52,0.234-0.52,0.52v17.729
					c0,0.285,0.232,0.52,0.52,0.52h17.729c0.286,0,0.52-0.234,0.52-0.52v-17.729c0-0.285-0.233-0.52-0.52-0.52H195.161z"/>
			</g>
		</g>
		<path fill="#43DAC4" d="M201.864,190.984c-0.052,0-0.104-0.002-0.156-0.006c-0.528-0.051-1-0.355-1.265-0.816
			c-1.673-2.916-4.069-5.49-4.094-5.516c-0.618-0.66-0.584-1.697,0.077-2.314c0.66-0.619,1.697-0.584,2.315,0.076
			c0.086,0.092,1.746,1.875,3.358,4.242c2.903-3.092,9.624-9.729,16.315-12.629c0.83-0.359,1.795,0.023,2.154,0.852
			c0.36,0.83-0.021,1.795-0.851,2.154c-8.008,3.473-16.53,13.291-16.615,13.389C202.792,190.779,202.338,190.984,201.864,190.984"/>
		<g opacity="0.3">
			<g>
				<defs>
					<rect id="SVGID_23_" x="115.842" y="218.092" width="67.792" height="3.572"/>
				</defs>
				<clipPath id="SVGID_24_">
					<use xlink:href="#SVGID_23_"  overflow="visible"/>
				</clipPath>
				<path clip-path="url(#SVGID_24_)" fill="#43DAC4" d="M181.848,221.664h-64.221c-0.986,0-1.785-0.801-1.785-1.787
					s0.799-1.785,1.785-1.785h64.221c0.986,0,1.786,0.799,1.786,1.785S182.834,221.664,181.848,221.664"/>
			</g>
		</g>
		<g opacity="0.3">
			<g>
				<defs>
					<rect id="SVGID_25_" x="115.842" y="224.316" width="67.792" height="3.57"/>
				</defs>
				<clipPath id="SVGID_26_">
					<use xlink:href="#SVGID_25_"  overflow="visible"/>
				</clipPath>
				<path clip-path="url(#SVGID_26_)" fill="#43DAC4" d="M181.848,227.887h-64.221c-0.986,0-1.785-0.799-1.785-1.785
					s0.799-1.785,1.785-1.785h64.221c0.986,0,1.786,0.799,1.786,1.785S182.834,227.887,181.848,227.887"/>
			</g>
		</g>
		<g opacity="0.3">
			<g>
				<defs>
					<rect id="SVGID_27_" x="192.706" y="210.344" width="22.639" height="22.639"/>
				</defs>
				<clipPath id="SVGID_28_">
					<use xlink:href="#SVGID_27_"  overflow="visible"/>
				</clipPath>
				<path clip-path="url(#SVGID_28_)" fill="#43DAC4" d="M212.89,232.982h-17.729c-1.354,0-2.456-1.102-2.456-2.455v-17.729
					c0-1.354,1.102-2.455,2.456-2.455h17.729c1.354,0,2.454,1.102,2.454,2.455v17.729
					C215.344,231.881,214.243,232.982,212.89,232.982 M195.161,212.279c-0.287,0-0.52,0.234-0.52,0.52v17.729
					c0,0.287,0.232,0.52,0.52,0.52h17.729c0.286,0,0.52-0.232,0.52-0.52v-17.729c0-0.285-0.233-0.52-0.52-0.52H195.161z"/>
			</g>
		</g>
		<path fill="#43DAC4" d="M201.864,228.428c-0.052,0-0.104-0.004-0.156-0.008c-0.528-0.051-1-0.355-1.265-0.816
			c-1.673-2.916-4.069-5.49-4.094-5.516c-0.618-0.66-0.584-1.697,0.077-2.314c0.66-0.619,1.697-0.584,2.315,0.076
			c0.086,0.094,1.746,1.877,3.358,4.242c2.903-3.092,9.624-9.727,16.315-12.627c0.83-0.361,1.795,0.021,2.154,0.852
			c0.36,0.83-0.021,1.793-0.851,2.154c-8.008,3.471-16.53,13.289-16.615,13.389C202.792,228.223,202.338,228.428,201.864,228.428"/>
		<g opacity="0.1">
			<g>
				<defs>
					<rect id="SVGID_29_" x="129.609" y="67.813" width="62.216" height="9.493"/>
				</defs>
				<clipPath id="SVGID_30_">
					<use xlink:href="#SVGID_29_"  overflow="visible"/>
				</clipPath>
				<path clip-path="url(#SVGID_30_)" d="M191.824,67.813v5.361c0,2.282-1.849,4.132-4.132,4.132h-53.952
					c-2.282,0-4.131-1.85-4.131-4.132v-5.361H191.824z"/>
			</g>
		</g>
		<path fill="#32324C" d="M185.766,73.398h-50.1c-1.66,0-3.004-1.345-3.004-3.004V58.98c0-1.659,1.345-3.004,3.004-3.004h50.1
			c1.66,0,3.005,1.345,3.005,3.004v11.413C188.771,72.053,187.426,73.398,185.766,73.398"/>
		<path fill="#32324C" d="M170.532,45.479H150.9c-3.151,0-5.707,2.555-5.707,5.708v8.586h31.046v-8.586
			C176.239,48.035,173.683,45.479,170.532,45.479 M169.262,53.857c-0.193,0.195-0.461,0.314-0.757,0.314h-15.578
			c-0.591,0-1.071-0.479-1.071-1.071c0-0.296,0.121-0.562,0.314-0.756c0.194-0.193,0.462-0.313,0.757-0.313h15.578
			c0.592,0,1.071,0.479,1.071,1.069C169.576,53.396,169.456,53.664,169.262,53.857"/>
		<path fill="#202030" d="M91.207,100.835c0,0,10.265,10.048,14.999,13.397c0,0,5.422-2.613,14.597-4.401
			c9.175-1.788,12.686-3.222,12.686-3.222l2.706,4.582c0,0-24.605,12.549-31.321,12.762c0,0-9.181-5.521-16.073-12.785
			L91.207,100.835z"/>
		<path fill="#FFBD93" d="M133.488,106.61c0,0,1.047-4.695,2.969-6.758c1.922-2.063,3.528,2.079,3.528,2.079
			s6.039-3.587,8.246-3.127c2.207,0.46-5.374,5.048-5.374,5.048s1.373-0.416,1.951,1.289c0.578,1.704-0.219,6.483-2.777,5.017
			c0,0-2.382,2.617-5.837,1.035L133.488,106.61z"/>
		<path fill="#FC9A6C" d="M140.312,104.099c0.046-0.157-0.045-0.323-0.2-0.37c-0.157-0.046-0.323,0.042-0.371,0.2
			c-0.003,0.007-0.224,0.718-0.738,0.94c-0.258,0.112-0.552,0.083-0.899-0.088c-1.338-0.663-1.442-2.373-1.443-2.402
			c-0.008-0.164-0.148-0.292-0.312-0.284c-0.164,0.007-0.291,0.147-0.284,0.311c0.004,0.085,0.113,2.086,1.774,2.909
			c0.087,0.043,0.172,0.079,0.257,0.11c0.41,0.146,0.795,0.144,1.146-0.01C140.012,105.079,140.3,104.14,140.312,104.099"/>
		<path fill="#FC9A6C" d="M142.258,109.966c-0.751-0.894-1.081-1.794-1.198-2.577c0.001-0.033-0.003-0.064-0.013-0.094
			c-0.166-1.284,0.234-2.237,0.262-2.3c0.066-0.15-0.002-0.326-0.152-0.393c-0.151-0.068-0.327,0.002-0.393,0.153
			c-0.029,0.066-0.422,0.989-0.341,2.27c-2.175-0.231-3.15,1.551-3.16,1.57c-0.077,0.146-0.022,0.326,0.124,0.402
			c0.013,0.007,0.026,0.013,0.04,0.018c0.137,0.049,0.293-0.009,0.363-0.141c0.009-0.016,0.83-1.516,2.708-1.24
			c0.149,0.837,0.521,1.78,1.306,2.714c0.035,0.042,0.08,0.072,0.127,0.089c0.096,0.035,0.208,0.019,0.292-0.052
			C142.347,110.28,142.364,110.092,142.258,109.966"/>
		<path fill="#202030" d="M89.524,263.938h7.032l4.477-54.057l-5.032-49.582l-19-1.779l11.395,56.52
			C85.177,228.1,87.867,244.814,89.524,263.938"/>
		<path fill="#202030" d="M89.321,263.514c0,0-0.424,0.592-0.424,1.814c0,1.221,0.12,5.436,0.12,5.436h20.579
			c0,0,0.075-3.205-2.531-4.916c-2.607-1.709-6.613-0.035-10.442-2.723C96.622,263.125,95.598,264.061,89.321,263.514"/>
		<path fill="#32324C" d="M60.585,263.877c-0.374-13.834-0.635-38.006,2.256-50.844l0.04-55.283l18.568,4.4l-5.548,51l-8.343,51.705
			L60.585,263.877z"/>
		<path fill="#202030" d="M60.656,263.529c0,0-0.469,0.623-0.469,1.846v5.389h20.56c0,0,0.075-3.205-2.531-4.914
			c-2.607-1.711-6.613-0.037-10.441-2.725C67.775,263.125,66.933,264.078,60.656,263.529"/>
		<path fill="#32324C" d="M98.205,162.061c-0.906,1.525-4,2.691-6.661,3.338c-0.183,0.045-0.364,0.088-0.542,0.127
			c-0.464,0.104-0.906,0.188-1.316,0.258c-4.365,0.729-8.761,1.051-13.18,1.043c-0.818-0.002-1.688-0.059-2.579-0.172
			c-0.179-0.021-0.36-0.047-0.542-0.072c-4.597-0.676-9.708-2.678-12.27-5.246l3.741-16.736l-7.115-41.618l9.553-3.27l0.513-0.176
			l2.144-0.733l1.702-0.582l10.104,1.354l1.644,0.219l0.58,0.078l7.228,0.968L98.205,162.061z"/>
		<polygon fill="#FFFFFF" points="81.757,99.575 71.653,98.221 69.951,98.803 81.008,131.335 		"/>
		<path fill="#4D4D69" d="M69.951,98.803c-1.858-0.146-3.951,0.839-5.354,1.833l2.852,10.497l3.662-0.298l-2.511,3.943l3.275,11.096
			l9.134,5.46L69.951,98.803z"/>
		<path fill="#4D4D69" d="M81.008,131.335l3.719-6.453l0.595-11.863l-2.157-1.589l2.157-1.638l0.441-9.682
			c0,0-2.36-0.976-4.006-0.536L81.008,131.335z"/>
		<path fill="#4D4D69" d="M82.807,135.715c0,0.648-0.526,1.174-1.174,1.174c-0.649,0-1.174-0.526-1.174-1.174
			c0-0.648,0.525-1.174,1.174-1.174C82.281,134.541,82.807,135.067,82.807,135.715"/>
		<path fill="#4D4D69" d="M83.443,141.673c0,0.649-0.525,1.174-1.174,1.174c-0.648,0-1.174-0.525-1.174-1.174
			c0-0.648,0.525-1.174,1.174-1.174C82.917,140.499,83.443,141.024,83.443,141.673"/>
		<path fill="#4D4D69" d="M84.105,147.531c0,0.648-0.525,1.174-1.174,1.174s-1.173-0.526-1.173-1.174
			c0-0.648,0.524-1.174,1.173-1.174S84.105,146.883,84.105,147.531"/>
		<path fill="#4D4D69" d="M84.574,154.178c0,0.648-0.525,1.174-1.174,1.174c-0.648,0-1.174-0.525-1.174-1.174
			s0.525-1.174,1.174-1.174C84.048,153.004,84.574,153.529,84.574,154.178"/>
		<path fill="#32324C" d="M89.189,67.836c0,0,2.719,1.336,2.39,5.945c-0.328,4.609-2.005,5.309-2.005,5.309
			S85.678,69.472,89.189,67.836"/>
		<path fill="#FFBD93" d="M80.314,90.304l0.404,5.724l0.185,2.624c-2.967,2.837-8.713,0.18-8.713,0.18l-1.639-8.353
			c1.385-1.214,5.396-0.86,7.825-0.507C79.521,90.14,80.314,90.304,80.314,90.304"/>
		<path fill="#FC9A6C" d="M80.314,90.304l0.404,5.724c-3.958-0.4-7.854-5.318-7.854-5.318l5.513-0.737
			C79.521,90.14,80.314,90.304,80.314,90.304"/>
		<path fill="#32324C" d="M88.974,70.19c0,0,5.769-3.631,3.333-8.438c-2.438-4.805-9.341-0.284-16.331,0.979
			c-10.544,1.905-12.909,6.25-11.908,11.97c1,5.719,1.917,13.439,4.89,15.985c2.973,2.546,4.238-1.747,5.13-5.516
			C74.979,81.399,81.904,69.327,88.974,70.19"/>
		<path fill="#FFBD93" d="M90.149,75.014c0.021,0.194,0.043,0.394,0.063,0.593c0.344,3.587,0.28,8.005,0.122,11.613
			c-0.168,3.828-3.466,6.765-7.288,6.486C78.444,93.37,72.734,92.697,70,91.358c-0.831-0.406-1.386-0.874-1.553-1.414
			c-0.39-1.259-0.738-2.999-1.037-4.903c-0.914-5.771-1.409-13.052-1.409-13.052c4.543-7.384,19.908-6.678,22.819-2.067
			C89.486,70.978,89.903,72.813,90.149,75.014"/>
		<path fill="#32324C" d="M81.649,79.381c0.096,0.752-0.163,1.406-0.576,1.458c-0.414,0.053-0.827-0.515-0.922-1.268
			c-0.096-0.753,0.162-1.406,0.576-1.459C81.141,78.06,81.554,78.627,81.649,79.381"/>
		<path fill="#32324C" d="M89.318,78.407c0.096,0.753-0.163,1.406-0.576,1.458c-0.414,0.052-0.827-0.516-0.922-1.269
			c-0.096-0.752,0.162-1.406,0.576-1.458C88.81,77.087,89.223,77.654,89.318,78.407"/>
		<path fill="#32324C" d="M66.709,79.736c0,0,2.203-1.868,4.58,0.667l1.573-0.2c0,0-0.5-3.221,0.042-5.071
			c0.542-1.85,3.559-2.188,3.746-4.312c0,0,7.47,1.927,12.325-0.629c4.855-2.556-11.507-9.111-18.353-4.04
			C63.774,71.22,64.868,74.379,66.709,79.736"/>
		<path fill="#32324C" d="M77.413,78c0,0,0.533-1.573,1.869-2.119c1.239-0.506,2.196-0.292,2.687-0.1
			c0.214,0.084,0.331,0.314,0.278,0.539c-0.062,0.265-0.335,0.42-0.595,0.337C80.83,76.394,79.064,76.146,77.413,78"/>
		<path fill="#32324C" d="M90.149,75.014c0.021,0.194,0.043,0.394,0.063,0.593c-1.483-0.499-2.641,0.007-3.219,0.37
			c-0.06,0.037-0.125,0.06-0.191,0.068c-0.185,0.024-0.377-0.067-0.47-0.245c-0.107-0.204-0.051-0.456,0.135-0.591
			c0.427-0.307,1.3-0.754,2.625-0.574C89.487,74.689,89.843,74.833,90.149,75.014"/>
		<path fill="#32324C" d="M70,91.358c-0.832-0.406-1.386-0.875-1.553-1.414c-0.391-1.258-0.738-3-1.038-4.903l4.315,2.224
			C71.724,87.265,72.134,90.083,70,91.358"/>
		<path fill="#FFBD93" d="M71.289,80.402c0,0-2.779-2.612-4.58-0.667c-1.984,2.146,0.519,8.246,5.015,7.529L71.289,80.402z"/>
		<path fill="#FC9A6C" d="M71.661,85.881c-0.199,0.026-0.39-0.102-0.438-0.302c-0.773-3.148-2.731-3.4-2.814-3.409
			c-0.218-0.024-0.378-0.22-0.356-0.438c0.022-0.219,0.215-0.379,0.434-0.358c0.105,0.009,2.598,0.285,3.514,4.015
			c0.053,0.215-0.079,0.432-0.294,0.484C71.691,85.876,71.676,85.879,71.661,85.881"/>
		<path fill="#FC9A6C" d="M68.868,84.177c-0.095,0.012-0.194-0.01-0.278-0.068c-0.181-0.125-0.228-0.371-0.103-0.552
			c0.028-0.041,0.703-1.004,2.044-0.884c0.22,0.021,0.382,0.215,0.362,0.436c-0.021,0.22-0.213,0.383-0.435,0.362
			c-0.862-0.078-1.294,0.515-1.313,0.54C69.078,84.106,68.976,84.163,68.868,84.177"/>
		<path fill="#FC9A6C" d="M86.388,86.926c-1.583,0.201-3.856,0.062-5.822-1.692c-0.166-0.147-0.18-0.4-0.033-0.565
			c0.147-0.166,0.4-0.179,0.565-0.032c2.98,2.657,6.917,1.079,6.957,1.063c0.204-0.083,0.438,0.013,0.522,0.217
			s-0.012,0.438-0.216,0.523C88.286,86.47,87.51,86.784,86.388,86.926"/>
		<path fill="#FC9A6C" d="M84.937,89.062c-2.042,0.259-3.215-0.937-3.27-0.994c-0.153-0.16-0.148-0.414,0.012-0.566
			c0.159-0.152,0.411-0.147,0.564,0.01c0.051,0.052,1.23,1.222,3.295,0.604c0.21-0.063,0.435,0.057,0.499,0.27
			c0.064,0.211-0.057,0.435-0.269,0.498C85.478,88.97,85.199,89.029,84.937,89.062"/>
		<path fill="#FC9A6C" d="M85.816,83.305c-0.119,0.015-0.245-0.024-0.335-0.116c-0.156-0.158-0.154-0.411,0.003-0.566l0.957-0.943
			l-0.948-0.121c-0.157-0.021-0.289-0.132-0.333-0.285l-0.726-2.477c-0.062-0.212,0.06-0.435,0.271-0.497
			c0.211-0.062,0.435,0.059,0.497,0.272l0.652,2.226l1.505,0.193c0.152,0.02,0.279,0.124,0.329,0.27
			c0.049,0.145,0.011,0.305-0.099,0.413l-1.542,1.521C85.982,83.257,85.901,83.294,85.816,83.305"/>
		<path fill="#32324C" d="M80.917,82.91c-1.773,0.226-3.398-1.034-3.624-2.807c-0.225-1.773,1.035-3.399,2.808-3.624
			s3.399,1.034,3.624,2.807C83.95,81.06,82.69,82.686,80.917,82.91 M80.168,77.009c-1.481,0.188-2.534,1.546-2.345,3.027
			c0.188,1.481,1.546,2.533,3.027,2.345c1.481-0.188,2.533-1.546,2.345-3.027C83.007,77.873,81.649,76.82,80.168,77.009"/>
		<path fill="#32324C" d="M89.292,81.847c-1.774,0.226-3.399-1.034-3.625-2.808c-0.225-1.773,1.034-3.398,2.808-3.624
			c1.773-0.225,3.399,1.034,3.624,2.808C92.325,79.997,91.065,81.623,89.292,81.847 M88.543,75.946
			c-1.481,0.188-2.534,1.546-2.345,3.027c0.188,1.481,1.546,2.533,3.027,2.345c1.481-0.188,2.533-1.545,2.345-3.026
			S90.024,75.757,88.543,75.946"/>
		
			<rect x="71.444" y="79.127" transform="matrix(0.9988 -0.0489 0.0489 0.9988 -3.7933 3.7385)" fill="#32324C" width="6.131" height="0.534"/>
		<path fill="#32324C" d="M83.547,79.065l-0.361-0.393c0.465-0.429,1.663-1.056,2.862-0.357l-0.269,0.461
			C84.624,78.104,83.59,79.025,83.547,79.065"/>
		<path fill="#FFFFFF" d="M71.499,95.309l-1.356,2.321c-0.335,0.576-0.355,1.284-0.049,1.876l3.089,8.802l4.549-8.105
			C77.731,100.204,72.999,99.26,71.499,95.309"/>
		<path fill="#FFFFFF" d="M80.628,94.752c0,0,0.911,1.172,1.274,4.034l-0.269,6.006l-3.902-4.588
			C77.732,100.204,80.283,98.888,80.628,94.752"/>
		<polygon fill="#43DAC4" points="76.862,107.303 76.69,118.827 81.008,131.335 81.296,119.124 78.613,107.303 		"/>
		<polygon fill="#43DAC4" points="74.868,104.793 77.973,108.701 80.418,103.363 77.732,100.204 		"/>
		<path fill="#32324C" d="M57.741,102.982l-19.482,22.412c0,0-6.06,2.604-12.303,4.417c-3.258,0.946-9.646,1.524-9.646,1.524
			l-0.102,5.286c0,0,15.16,0.219,23.845-4.098c0,0,14.21-9.258,19.936-16.391C59.99,116.132,60.638,107.239,57.741,102.982"/>
		
			<rect x="-41.323" y="176.369" transform="matrix(-0.1298 -0.9915 0.9915 -0.1298 -146.7231 242.5093)" fill="#A2D88A" width="148.763" height="18.544"/>
		
			<rect x="-46.738" y="185.732" transform="matrix(-0.1298 -0.9915 0.9915 -0.1298 -153.5438 237.9411)" fill="#43DAC4" width="148.763" height="1.236"/>
		
			<rect x="-41.323" y="185.023" transform="matrix(-0.1298 -0.9915 0.9915 -0.1298 -146.7228 242.5096)" fill="#43DAC4" width="148.763" height="1.236"/>
		
			<rect x="-35.91" y="184.314" transform="matrix(-0.1298 -0.9915 0.9915 -0.1298 -139.9041 247.0764)" fill="#43DAC4" width="148.765" height="1.236"/>
		
			<rect x="38.316" y="246.265" transform="matrix(-0.1297 -0.9915 0.9915 -0.1297 -205.695 330.542)" fill="#32324C" width="7.779" height="18.545"/>
		
			<rect x="40.514" y="248.193" transform="matrix(-0.13 -0.9915 0.9915 -0.13 -207.3056 333.0261)" fill="#202030" width="3.888" height="18.545"/>
		<path fill="#43DAC4" d="M33.517,260.598l0.287,2.193c0.665,5.078,5.32,8.656,10.397,7.992c5.078-0.666,8.654-5.32,7.99-10.398
			l-0.288-2.195L33.517,260.598z"/>
		<polygon fill="#FFBD93" points="32.6,110.684 14.212,113.09 18.058,100.03 18.856,97.313 21.118,89.638 25.034,96.817 
			26.56,99.612 		"/>
		<path fill="#32324C" d="M25.034,96.817c-0.767,0.36-1.712,0.657-2.871,0.809c-1.382,0.181-2.467,0.01-3.306-0.313l2.26-7.675
			L25.034,96.817z"/>
		<path fill="#FC9A6C" d="M16.278,128.71l-1.233-0.179c0,0-0.829-2.524-0.228-3.448c0.221-0.338,0.569-0.46,0.919-0.359
			L16.278,128.71z"/>
		<path fill="#FFBD93" d="M13.552,131.149c-0.289-1.236,0.192-2.552,1.262-3.237c0.567-0.364,1.321-0.575,2.306-0.386
			c2.954,0.565,5.134,1.958,4.653,3.125c-0.181,0.439-2.34,0.331-3.622-0.109c0,0,1.866,0.88,3.438,1.115
			c1.573,0.236,1.027,2.208-0.953,1.925c-1.979-0.283-2.282-0.464-2.282-0.464s1.555,0.731,2.522,0.754
			c0.966,0.024,0.857,1.55-1.038,1.414c-0.878-0.063-1.885-0.141-1.885-0.141s1.272,0.307,1.932,0.472
			c0.66,0.165,1.147,1.001-0.234,1.272c-1.087,0.213-4.063,0.588-4.708-0.837C14.506,135.083,13.897,132.622,13.552,131.149"/>
		<path fill="#CECECE" d="M290,275.646c0,2.439-12.093,4.418-27.01,4.418s-27.009-1.979-27.009-4.418s12.092-4.416,27.009-4.416
			S290,273.207,290,275.646"/>
		<path fill="#A1DDE9" d="M272.544,276.74h-19.107c-2.599,0-4.902-1.674-5.704-4.145l-8.104-24.943
			c-0.332-1.02,0.38-2.08,1.45-2.164c14.753-1.143,29.362-1.145,43.827-0.002c1.068,0.084,1.778,1.145,1.446,2.162l-8.104,24.947
			C277.446,275.066,275.144,276.74,272.544,276.74"/>
		<path fill="#202030" d="M284.656,247.299c0,0.664-9.643,1.201-21.535,1.201c-11.894,0-21.535-0.537-21.535-1.201
			c0-0.662,9.642-1.201,21.535-1.201C275.014,246.098,284.656,246.637,284.656,247.299"/>
		<path fill="#00717B" d="M262.601,199.574c0,0,13.932,0.012,16.374-17.488C278.975,182.086,259.222,182.387,262.601,199.574"/>
		<path fill="#00717B" d="M263.895,229.582c0,0-0.211-13.93-17.748-16.094C246.146,213.488,246.764,233.234,263.895,229.582"/>
		<path fill="#43DAC4" d="M264,247.154v-72.457c0-0.559-0.453-1.01-1.01-1.01c-0.558,0-1.01,0.451-1.01,1.01v72.457
			C262.711,247.359,263.394,247.357,264,247.154"/>
		<path fill="#43DAC4" d="M262.99,182.027c0,0,1.914-13.801,19.584-13.801C282.574,168.227,279.546,187.748,262.99,182.027"/>
		<path fill="#43DAC4" d="M263.895,186.266c0,0-1.914-13.801-19.584-13.801C244.311,172.465,247.34,191.988,263.895,186.266"/>
		<path fill="#43DAC4" d="M264.094,198.523c0,0-4.525-13.178-21.867-9.787C242.227,188.736,248.943,207.314,264.094,198.523"/>
		<path fill="#43DAC4" d="M262.977,201.465c0,0,12.983,5.051,21.591-10.381C284.567,191.084,266.044,184.219,262.977,201.465"/>
		<path fill="#43DAC4" d="M262.724,213.92c0,0,10.307,9.764,22.097-9.256C284.82,204.664,264.402,200.576,262.724,213.92"/>
		<path fill="#43DAC4" d="M263.436,229.332c0,0,11.511,8.311,20.674-12.107C284.109,217.225,263.329,215.881,263.436,229.332"/>
		<path fill="#43DAC4" d="M262.99,231.096c0,0-0.405-14.191-22.185-9.045C240.806,222.051,252.38,239.361,262.99,231.096"/>
		<path fill="#43DAC4" d="M264.038,213.203c0,0-0.058-14.197-21.956-9.586C242.082,203.617,253.228,221.205,264.038,213.203"/>
	</g>
</g>
</svg>
