<?xml version="1.0" encoding="utf-8"?>
<!-- Generator: Adobe Illustrator 15.0.0, SVG Export Plug-In . SVG Version: 6.00 Build 0)  -->
<!DOCTYPE svg PUBLIC "-//W3C//DTD SVG 1.1//EN" "http://www.w3.org/Graphics/SVG/1.1/DTD/svg11.dtd">
<svg version="1.1" id="Capa_1" xmlns="http://www.w3.org/2000/svg" xmlns:xlink="http://www.w3.org/1999/xlink" x="0px" y="0px"
	 width="300px" height="191.326px" viewBox="0 0 300 191.326" enable-background="new 0 0 300 191.326" xml:space="preserve">
<g>
	<path fill="none" stroke="#374C73" stroke-width="0.782" stroke-miterlimit="10" d="M212.156,48.748c0,0,8.922-10.763,26.025-3.905
		c17.104,6.859,33.844,35.022,18.287,69.093"/>
	<path fill="#5DA091" d="M213.896,56.25c-0.783,2.011-8.561-1.015-7.777-3.026l1.088-2.8c0.836-2.147,3.256-3.211,5.404-2.375
		c2.145,0.835,3.209,3.254,2.373,5.401L213.896,56.25z"/>
	<path fill="#85D9C4" d="M206.119,53.225c-0.889,1.967,6.994,5.037,7.777,3.026C214.488,54.698,206.758,51.809,206.119,53.225"/>
	<path fill="#578B7C" d="M209.188,54.734c-0.084,0.252-0.455,0.352-0.83,0.226c-0.375-0.126-0.607-0.433-0.523-0.683
		c0.084-0.251,0.457-0.353,0.83-0.227C209.039,54.177,209.273,54.482,209.188,54.734"/>
	<path fill="#578B7C" d="M211.949,55.753c-0.086,0.251-0.459,0.352-0.834,0.226c-0.373-0.126-0.607-0.432-0.523-0.683
		c0.086-0.251,0.457-0.353,0.832-0.227C211.799,55.196,212.035,55.502,211.949,55.753"/>
	<path fill="#578B7C" d="M255.227,153.994c0,0-3.365-0.924-5.559-4.002c-2.189-3.074-1.021-10.422,2.779-12.523
		c3.801-2.101,6.725-4.588,6.139-10.288c-0.584-5.702,1.316-10.233,6.141-10.818c4.824-0.584,6.727-0.656,11.551-5.006
		c4.822-4.351,8.77-5.039,10.672-2.574c1.9,2.463,0.438,5.793-0.584,8.733c-1.025,2.939,2.631,5.94,3.361,8.899
		c0.732,2.958,0.146,6.776-3.654,8.888s-6.432,3.804-5.994,7.635c0.438,3.834-1.756,9.655-9.941,11.057H255.227z"/>
	<path fill="none" stroke="#455199" stroke-width="1.575" stroke-linecap="round" stroke-miterlimit="10" d="M280.809,114.936
		c0,0-17.807,13.974-20.967,39.059"/>
	<path fill="#B2D78D" d="M238.561,104.512c-2.807,1.765-2.635,4.82-2.486,8.701c0.145,3.88-0.967,5.291-3.189,7.875
		c-2.221,2.584-1.021,6.531,2.838,8.285c3.859,1.755,7.221,4.467,5.176,9.031c-2.047,4.564-1.316,12.872,8.77,15.59l12.973,0.03
		c0,0,9.104-5.302,10.273-14.977s-6.578-10.528-8.77-13.756c-2.193-3.228-1.543-7.626-1.504-12.079
		c0.039-4.452-3.322-6.707-7.854-6.457c-4.533,0.25-6.303-0.004-8.641-1.605C243.807,103.55,240.898,103.042,238.561,104.512"/>
	<path fill="none" stroke="#455199" stroke-width="1.575" stroke-linecap="round" stroke-miterlimit="10" d="M243.068,110.255
		c0.029,0.128,15.777,10.831,15.006,43.689"/>
	<path fill="#6A7DB6" d="M279.482,155.896H11.025c-0.565,0-1.025-0.46-1.025-1.024c0-0.567,0.459-1.027,1.025-1.027h268.458
		c0.568,0,1.025,0.46,1.025,1.027C280.508,155.436,280.051,155.896,279.482,155.896"/>
	<path fill="#E8F3FB" d="M242.439,181.478H76.423c-11.372,0-20.592-9.22-20.592-20.593v-4.99h207.201v4.99
		C263.031,172.258,253.813,181.478,242.439,181.478"/>
	<path fill="#578B7C" d="M144.739,145.121c2.193,1.767,8.453,8.854,32.367,8.854c6.67,0,13.875,0.279,19.727-1.311
		c15.129-4.107,25.033-9.608,25.033-9.608l-29.26-9.957l-26.23,0.15L144.739,145.121z"/>
	<polygon fill="#D89389" points="164.867,140.944 153.426,143.122 153.84,149.354 166.666,149.037 	"/>
	<path fill="#578B7C" d="M164.867,140.944c0,0,27.738-7.845,36.363-10.036c9.875-2.51,24.855-9.321,29.904-3.007
		c5.051,6.313-1.111,14.724-14.771,18.41c-13.66,3.688-51.045,3.325-51.045,3.325L164.867,140.944z"/>
	<path fill="#9BC0BE" d="M142.663,139.313c0,0-0.449,1.432-0.377,4.467c0.072,3.034,1.608,5.335,1.765,9.762
		c0,0,1.717-2.826,1.635-7.415C145.602,141.54,142.663,139.313,142.663,139.313"/>
	<path fill="#5DA091" d="M159.254,149.493c-1.793,0.191-4.785,1.589-6.625,2.562c-1.838,0.975-2.82,1.992-6.098,1.97
		c0,0-0.013-8.669-0.364-11.35c-0.352-2.682-0.893-3.142-0.893-3.142s3.039,0.193,4.549,1.004c1.51,0.809,1.68,1.18,4.344,1.283
		c2.666,0.103,3.756,0.248,4.918,0.226C160.852,144.81,160.148,148.168,159.254,149.493"/>
	<path fill="none" stroke="#B8D8DC" stroke-width="0.924" stroke-linecap="round" stroke-miterlimit="10" d="M151.498,150.518
		c0,0,1.018-4.501-0.471-7.58"/>
	<path fill="none" stroke="#B8D8DC" stroke-width="0.924" stroke-linecap="round" stroke-miterlimit="10" d="M153.379,149.992
		c0,0,0.988-3.421-0.461-6.696"/>
	<path fill="none" stroke="#B8D8DC" stroke-width="0.924" stroke-linecap="round" stroke-miterlimit="10" d="M155.492,149.144
		c0,0,0.895-2.286-0.291-5.663"/>
	<path fill="#B8D8DC" d="M146.531,154.024c-1.038-0.02-2.305-0.05-2.482-0.483c-0.175-0.435,1.04-3.021,0.556-8.149
		c-0.261-2.754-2.191-5.987-1.942-6.079c0.249-0.091,1.765-0.66,2.61,0.221C146.119,140.414,150.402,146.037,146.531,154.024"/>
	<path fill="#D89389" d="M215.27,83.639c3.607-2.55,11.381-8.488,15.471-21.235c1.297-4.046,1.412-6.821,1.377-8.678
		c-2.109-1.777-1.887-5.134-3.811-7.218c-2.705-2.931-5.131-6.65,0.162-6.65c2.949,0,5.666,0.12,7.117,1.524
		c1.15,1.114,3.328,4.408,3.725,5.555c0.9,2.593-0.145,5.858-0.258,9.804c-0.111,3.945-2.703,28.631-21.754,39.001L215.27,83.639z"
		/>
	<path fill="#D89389" d="M173.982,74.342c0,0-0.084,3.159-0.359,4.463c-0.275,1.306,0,1.992-3.984,2.679
		c0,0,1.619,5.219,8.521,6.112c6.9,0.892,9.717-4.534,9.51-4.534c-0.205,0-2.129-0.791-2.748-1.19c-0.615-0.4-0.16-8.011-0.16-8.011
		L173.982,74.342z"/>
	<path fill="#9E5861" d="M184.67,75.787c0,0-0.842,2.674-5.033,2.949c-4.188,0.275-5.75-2.367-5.75-2.367l0.096-2.027l10.781-0.482
		L184.67,75.787z"/>
	<path fill="#D89389" d="M167.395,62.873c0,0-2.164-0.339-3.115,1.254c-0.953,1.591,0.236,4.568,2.49,5.064
		c2.162,0.476,2.869-0.735,2.869-0.735L167.395,62.873z"/>
	<path fill="#9E5861" d="M165.502,64.463c0.498-0.257,1.283-0.335,1.77-0.039c0.182,0.11-0.063,0.417-0.225,0.38
		c-0.93-0.21-2.02-0.11-2.316,0.983c-0.016,0.059-0.063,0.006-0.061-0.033C164.709,65.169,164.973,64.738,165.502,64.463"/>
	<path fill="#9E5861" d="M165.926,64.49c0.092-0.061,0.35,0.155,0.338,0.226c-0.135,0.086-0.342,0.281-0.426,0.489
		c-0.143,0.357-0.156,0.65-0.074,1.03c0.189,0.874,0.77,1.439,1.658,1.524c0.014,0.001,0.047,0.042,0.023,0.053
		c-0.727,0.288-1.678-0.374-1.941-1.021C165.215,66.073,165.123,65.011,165.926,64.49"/>
	<path fill="#D89389" d="M188.336,58.851c0,0,1.891-1.117,3.363,0.009c1.475,1.127,1.471,4.332-0.438,5.628
		c-1.83,1.242-2.938,0.379-2.938,0.379L188.336,58.851z"/>
	<path fill="#9E5861" d="M190.688,59.627c-0.557-0.056-1.316,0.164-1.658,0.62c-0.127,0.168,0.213,0.363,0.352,0.268
		c0.785-0.538,1.832-0.849,2.514,0.056c0.037,0.049,0.061-0.018,0.045-0.052C191.688,59.987,191.281,59.686,190.688,59.627"/>
	<path fill="#9E5861" d="M190.303,59.809c-0.107-0.022-0.266,0.273-0.23,0.335c0.158,0.03,0.424,0.135,0.578,0.296
		c0.266,0.278,0.387,0.545,0.451,0.929c0.146,0.881-0.182,1.622-0.975,2.03c-0.016,0.007-0.031,0.057-0.004,0.057
		c0.779,0,1.42-0.968,1.424-1.666C191.553,61.016,191.242,59.996,190.303,59.809"/>
	<path fill="#D89389" d="M180.58,48.357c-1.682-0.577-3.473-0.759-5.199-0.428c-1.723,0.331-3.422,1.098-4.77,2.257
		c-3.145,2.704-4.359,6.978-3.594,10.986c0.002,0.005,0.002,0.011,0.004,0.018c0.219,1.145,0.506,2.279,0.857,3.392l0.494,1.555
		c0.383,1.218,1.252,3.546,2.641,5.674c2.754,4.223,7.23,4.916,9.805,4.422c2.572-0.495,6.473-2.796,7.469-7.739
		c0.5-2.491,0.447-4.976,0.352-6.249l-0.119-1.627c-0.086-1.164-0.238-2.323-0.459-3.468c-0.002-0.006-0.002-0.012-0.004-0.019
		C187.285,53.125,184.502,49.704,180.58,48.357"/>
	<path fill="#122145" d="M182.127,60.347c-0.115-0.609,0.283-1.196,0.891-1.313c0.609-0.117,1.197,0.281,1.314,0.89
		c0.117,0.609-0.283,1.197-0.891,1.313C182.832,61.354,182.244,60.956,182.127,60.347"/>
	<path fill="#122145" d="M182.4,56.281l5.281,1.001c0,0-0.375-1.451-2.254-2.211c-0.82-0.332-1.74-0.302-2.303,0.009
		C182.311,55.53,182.4,56.281,182.4,56.281"/>
	<path fill="#122145" d="M173.332,57.893l-3.861,3.74c0,0-0.484-1.419,0.668-3.086c0.502-0.728,1.289-1.209,1.93-1.259
		C172.994,57.216,173.332,57.893,173.332,57.893"/>
	<path fill="#122145" d="M175.084,61.856c-0.117-0.609-0.705-1.007-1.313-0.89c-0.609,0.117-1.006,0.705-0.893,1.313
		c0.119,0.608,0.707,1.006,1.316,0.89C174.801,63.052,175.201,62.464,175.084,61.856"/>
	<path fill="#9E5861" d="M178.982,60.754c-0.508,0.136-0.879,5.345-0.174,6.086c0.291,0.307,1.021,0.527,1.422,0.413
		c0.414-0.041,1.012-0.517,1.168-0.91C181.781,65.393,179.508,60.692,178.982,60.754"/>
	<path fill="none" stroke="#122145" stroke-width="1.715" stroke-linecap="round" stroke-miterlimit="10" d="M161.457,51.383
		c0,0,4.008-0.781,5.535,1.275"/>
	<path fill="none" stroke="#122145" stroke-width="1.715" stroke-linecap="round" stroke-miterlimit="10" d="M161.342,47.439
		c0,0,4.973,0.837,5.721,5.591"/>
	<path fill="#122145" d="M168.662,52.666c0,0,2.803,4.22,7.412,5.468c4.609,1.247,7.211-4.087,6.746-6.514
		c0,0,4.506,7.252,5.52,7.231c0,0,1.098-2.925,0.738-6.192c-0.359-3.268-1.906-4.894-3.576-6.1
		c-1.588-1.148-3.137-0.456-3.777-0.042c-0.838-1.579-3.307-4.919-8.168-4.375c-5.439,0.609-7.555,4.365-6.762,10.097
		c0,0-2.041-0.577-3.262,1.794c-1.223,2.371,0.137,6.975,1.764,9.158c0,0,1.416-0.448,2.098-0.318c0,0-0.955-3.791-0.057-7.116
		C168.066,53.052,168.662,52.666,168.662,52.666"/>
	<path fill="#7EB7AF" d="M171.352,81.123c0.486,1.966,3.266,5.084,7.309,5.273c4.041,0.188,7.379-2.526,7.93-3.721
		c3.375,0.312,7.658,1.229,9.1,1.489c2.037,0.371,4.014,2.189,3.283,7.925c-0.707,5.571-5.125,40.783-5.125,40.783
		s-11.684,4.534-27.475,0.378c0,0-9.555-38.22-10.404-41.526c-0.85-3.306-1.889-6.801,1.133-7.839
		C160.125,82.845,171.352,81.123,171.352,81.123"/>
	<path fill="#5DA091" d="M184.393,121.783c0.223,0.043,0.445,0.076,0.672,0.1c2.229,0.234,1.215-2.281,0.516-3.273
		c-1.068-1.513-8.475-7.253-8.475-7.253l-5.754,0.485l-6.484,2.671l-2.662,2.069c0.539,2.15,1.061,4.24,1.543,6.171
		c2.424-1.52,8.283-5.117,9.584-5.237c0.814-0.075,1.547,0.206,2.281,0.522c1.053,0.455,2.113,0.866,3.193,1.262
		c0.486,0.178,0.979,0.357,1.447,0.584c0.85,0.41,1.617,0.972,2.471,1.366C183.256,121.494,183.818,121.672,184.393,121.783"/>
	
		<line fill="none" stroke="#374C73" stroke-width="2.1" stroke-linecap="round" stroke-miterlimit="10" x1="209.262" y1="109.734" x2="213.455" y2="111.734"/>
	
		<line fill="none" stroke="#374C73" stroke-width="2.1" stroke-linecap="round" stroke-miterlimit="10" x1="207.488" y1="113.213" x2="211.684" y2="115.214"/>
	<path fill="none" stroke="#374C73" stroke-width="0.782" stroke-miterlimit="10" d="M148.938,127.901
		c5.515,0.806,15.287,1.001,23.923-6.813c6.955-6.292,13.297-18.306,29.449-13.025"/>
	<path fill="#5DA091" d="M209.908,107.466c1.908,1.008-1.994,8.384-3.902,7.376l-2.654-1.406c-2.037-1.077-2.816-3.603-1.738-5.639
		c1.078-2.037,3.602-2.813,5.641-1.737L209.908,107.466z"/>
	<path fill="#D89389" d="M152.832,89.663c0,0-13.066,23.615-15.443,27.599c-2.375,3.981-1.885,8.454-1.397,9.572
		c0.491,1.117,7.268,1.886,13.486-0.49c6.218-2.375,22.23-10.51,23.417-11.138c0,0,1.521,1.001,3.051,1.726
		c2.137,1.011,3.865,1.052,5.25,2.101c1.383,1.048,2.904,3.045,5.578,1.754c1.594-0.769-1.939-5.723-3.521-8.458
		c-1.547-1.323-7.068-3.61-9.838-3.216c-3.914,0.557-23.579,7.25-23.579,7.25l7.126-12.296L152.832,89.663z"/>
	<path fill="#7EB7AF" d="M157.779,83.666c-3.207,1.008-4.445,2.581-7.584,8.288c-3.138,5.706-7.289,12.649-7.289,12.649
		s3.373,5.258,10.808,6.754l5.047-8.525L157.779,83.666z"/>
	<path fill="#7EB7AF" d="M195.689,84.165c3.838,0.626,13.605,3.492,19.58-0.526c0,0,3.945,6.016,3.268,13.568
		c0,0-8.098,7.219-20.752,4.323L195.689,84.165z"/>
	<polygon fill="#D89389" points="196.832,142.728 208.064,145.813 207.152,151.991 194.395,150.651 	"/>
	<path fill="#77B2A1" d="M196.832,142.728c0,0-25.807-8.901-35.375-12.407c-9.566-3.506-23.589-10.518-29.128-4.628
		c-5.54,5.89-0.913,14.662,12.41,19.429c13.322,4.769,50.951,6.234,50.951,6.234C196.84,148.558,197.213,145.683,196.832,142.728"/>
	<path fill="#9BC0BE" d="M219.1,142.877c0,0,0.332,1.464,0.018,4.483c-0.314,3.018-2.029,5.188-2.541,9.588
		c0,0-1.488-2.954-1.037-7.52C215.99,144.862,219.1,142.877,219.1,142.877"/>
	<path fill="#5DA091" d="M201.744,151.697c1.771,0.334,4.646,1.969,6.4,3.085c1.754,1.117,2.65,2.211,5.92,2.45
		c0,0,0.707-8.64,1.271-11.284c0.566-2.644,1.141-3.059,1.141-3.059s-3.043-0.051-4.613,0.636c-1.568,0.686-1.768,1.041-4.432,0.932
		c-2.666-0.111-3.764-0.055-4.922-0.168C200.529,146.903,200.959,150.305,201.744,151.697"/>
	<path fill="none" stroke="#B8D8DC" stroke-width="0.924" stroke-linecap="round" stroke-miterlimit="10" d="M209.395,153.34
		c0,0-0.656-4.568,1.078-7.518"/>
	<path fill="none" stroke="#B8D8DC" stroke-width="0.924" stroke-linecap="round" stroke-miterlimit="10" d="M207.563,152.665
		c0,0-0.711-3.488,0.998-6.637"/>
	<path fill="none" stroke="#B8D8DC" stroke-width="0.924" stroke-linecap="round" stroke-miterlimit="10" d="M205.521,151.65
		c0,0-0.707-2.351,0.746-5.622"/>
	<path fill="#B8D8DC" d="M214.066,157.232c1.035,0.064,2.301,0.136,2.51-0.284c0.209-0.418-0.791-3.096,0.1-8.166
		c0.479-2.726,2.664-5.793,2.424-5.905c-0.242-0.11-1.711-0.799-2.623,0.013C215.564,143.699,210.844,148.961,214.066,157.232"/>
	<path fill="#578B7C" d="M196.799,147.359h-0.58c0,0-16.822-1.093-34.836-4.063c-17.697-2.919-29.658-8.869-31.264-13.246
		c-0.787,5.293,4.31,11.382,14.62,15.07c13.322,4.77,50.951,6.234,50.951,6.234C196.174,150.195,196.563,148.891,196.799,147.359"/>
	<g>
		<defs>
			<path id="SVGID_1_" d="M132.328,125.692c-5.539,5.89-0.912,14.662,12.411,19.429c13.322,4.769,50.951,6.234,50.951,6.234
				c1.15-2.798,1.523-5.673,1.143-8.628c0,0-25.807-8.901-35.375-12.407c-6.916-2.534-16.162-6.9-22.847-6.901
				C136.049,123.419,133.863,124.061,132.328,125.692"/>
		</defs>
		<clipPath id="SVGID_2_">
			<use xlink:href="#SVGID_1_"  overflow="visible"/>
		</clipPath>
		<path clip-path="url(#SVGID_2_)" fill="none" stroke="#374C73" stroke-width="0.782" stroke-miterlimit="10" d="M193.492,141.216
			c-0.021,2.328-0.502,7.561-1.527,10.775"/>
	</g>
	<path fill="#5DA091" d="M158.762,102.831c0,0,2.006-5.319,0.635-13.168c0,0,2.514,9.573-0.213,14.85L158.762,102.831z"/>
	<path fill="#5DA091" d="M197.785,101.529c0,0,0.732-6.05-0.58-11.69c0,0,1.594,3.246,1.512,11.888L197.785,101.529z"/>
	<path fill="#C79543" d="M117.548,132.554c2.335-0.471,6.428-0.883,9.334,1.657c1.859,1.625,0.979,1.906-0.68,1.877
		c-2.793-0.05-5.02,2.296-5.02,2.296s-3.634,0.414-4.525-2.473C115.365,131.729,117.548,132.554,117.548,132.554"/>
	<path fill="#E1B359" d="M108.666,153.832h17.943c4.097,0.093,6.89-0.222,8.9-2.002c2.335-2.066,2.741-5.754,2.37-8.574
		c-0.436-1.135-2.916-0.296-5.974-0.812c-2.774-0.469-4.378-1.72-5.964-3.835c-1.576-2.1-2.421-2.944-5.54-4.462
		c-1.714-0.835-3.101-0.752-3.101-0.752s1.102-2.404,2.77-3.948c2.016-1.865-1.579-2.604-5.678-0.765
		c-2.434,1.095-4.984,3.232-6.774,5.272c-1.163,1.322-4.202,1.123-7.494-1.406c-3.293-2.528-14.841-13.026-27.487-11.261
		c-12.646,1.765-21.427,12.12-22.715,19.564c-1.288,7.443,1.193,11.673,3.34,12.994L108.666,153.832z"/>
	<path fill="#E1B359" d="M51.002,140.915c-3.52-1.909-12.52-2.032-19.299,3.368c-6.609,5.267-9.363,16.258-3.918,24.549
		c5.446,8.293,16.222,8.553,17.612,7.379c1.39-1.173-5.746-5.405-7.683-10.813c0,0,3.858,2.457,6.06,2.688s-3.36-5.45-3.939-11.473
		c-0.58-6.022,2.394-12.632,9.713-12.34L51.002,140.915z"/>
	<path fill="#122145" d="M137.683,147.279c-0.393,0.076-0.248-2.099-0.726-1.891c-0.477,0.207,0.295,1.321,0.295,1.321
		c-1.356-0.334-3.272-2.282-2.508-3.487c0.787-1.242,2.99-0.678,3.507-0.462C139.039,143.09,139.582,145.711,137.683,147.279"/>
	<path fill="#C79543" d="M70.469,130.785c0,0,4.851,0.399,6.708,5.644c1.857,5.244-0.208,8.396-1.737,10.088
		c0,0,6.884-0.654,9.942,1.366c3.059,2.021,2.787,5.954,2.787,5.954l1.665,0.011c0,0,0.073-4.815-3.15-6.837
		c-3.223-2.021-5.944-2.273-7.747-2.148c0,0,1.893-4.085-0.273-8.888C76.497,131.173,72.38,130.511,70.469,130.785"/>
	<path fill="#C79543" d="M95.792,146.236c0,0,7.164-0.797,10.199,1.492c3.034,2.287,2.676,6.104,2.676,6.104l1.701,0.015
		c0,0,0.448-4.077-2.637-6.565C104.646,144.793,97.832,145.54,95.792,146.236"/>
	<path fill="#122145" d="M116.387,142.927c0,0-0.297-1.786,1.814-2.256c2.279-0.506,2.889,1.199,2.889,1.199
		s-1.153-0.442-2.671-0.071C117.305,142.07,116.387,142.927,116.387,142.927"/>
	<path fill="#85D9C4" d="M124.998,24.283l13.827,14.325l-4.63,5.224l-15.329-12.631L124.998,24.283z M143.374,42.237
		c0.414,0.368,0.728,0.789,0.945,1.266c0.215,0.478,0.338,0.968,0.369,1.475s-0.036,1.007-0.197,1.502
		c-0.162,0.496-0.422,0.946-0.78,1.35c-0.369,0.415-0.787,0.732-1.261,0.952c-0.472,0.22-0.96,0.345-1.467,0.376
		c-0.505,0.031-1.007-0.035-1.502-0.197c-0.495-0.161-0.948-0.425-1.364-0.794c-0.403-0.358-0.722-0.778-0.951-1.258
		c-0.229-0.481-0.36-0.975-0.388-1.48c-0.033-0.507,0.031-1.009,0.188-1.509c0.156-0.499,0.418-0.956,0.786-1.371
		c0.359-0.404,0.776-0.715,1.253-0.93c0.479-0.216,0.97-0.34,1.477-0.37c0.506-0.031,1.012,0.037,1.521,0.202
		C142.512,41.616,142.968,41.878,143.374,42.237"/>
	<path fill="#85D9C4" d="M153.67,29.185l-6.188,1.545c-0.409-1.272-0.606-2.374-0.591-3.304c0.013-0.931,0.146-1.735,0.399-2.414
		c0.251-0.679,0.578-1.26,0.983-1.743c0.406-0.484,0.809-0.915,1.214-1.295c0.403-0.379,0.755-0.736,1.055-1.07
		c0.3-0.333,0.469-0.701,0.514-1.1c0.029-0.241-0.01-0.501-0.117-0.778c-0.11-0.277-0.302-0.518-0.581-0.721
		c-0.276-0.203-0.647-0.34-1.113-0.413c-0.466-0.071-1.033-0.023-1.705,0.144c-0.439,0.109-0.951,0.279-1.537,0.509
		c-0.583,0.231-1.184,0.511-1.803,0.84c-0.617,0.329-1.217,0.693-1.797,1.091c-0.582,0.398-1.09,0.813-1.527,1.247l-2.598-6.976
		c0.385-0.381,0.826-0.786,1.321-1.214c0.497-0.429,1.058-0.841,1.684-1.238c0.629-0.396,1.325-0.769,2.094-1.116
		c0.769-0.348,1.618-0.638,2.545-0.869c1.501-0.375,2.972-0.521,4.411-0.44c1.441,0.081,2.761,0.399,3.962,0.955
		c1.205,0.556,2.244,1.349,3.123,2.381c0.881,1.031,1.51,2.309,1.893,3.835c0.289,1.159,0.355,2.131,0.203,2.915
		c-0.154,0.784-0.432,1.465-0.834,2.045c-0.398,0.58-0.877,1.102-1.436,1.564c-0.559,0.464-1.096,0.951-1.609,1.462
		c-0.514,0.511-0.959,1.091-1.334,1.742C153.928,27.422,153.715,28.228,153.67,29.185 M155.793,33.79
		c0.133,0.537,0.154,1.063,0.063,1.578c-0.094,0.516-0.268,0.992-0.529,1.426c-0.26,0.435-0.6,0.811-1.014,1.128
		c-0.412,0.317-0.881,0.542-1.406,0.672c-0.537,0.134-1.061,0.158-1.576,0.072c-0.514-0.085-0.988-0.259-1.423-0.519
		c-0.435-0.261-0.81-0.599-1.127-1.013c-0.318-0.413-0.543-0.888-0.677-1.425c-0.131-0.524-0.155-1.049-0.073-1.576
		c0.082-0.526,0.254-1.006,0.516-1.441c0.261-0.436,0.597-0.813,1.009-1.137c0.412-0.323,0.886-0.552,1.424-0.686
		c0.523-0.131,1.042-0.15,1.562-0.06c0.512,0.092,0.988,0.268,1.424,0.53c0.434,0.26,0.814,0.603,1.143,1.027
		C155.432,32.791,155.66,33.265,155.793,33.79"/>
</g>
</svg>
