<svg width="512" height="512" viewBox="0 0 512 512" fill="none" xmlns="http://www.w3.org/2000/svg">
<path d="M298.668 138.668C298.668 197.578 250.91 245.332 192 245.332C133.09 245.332 85.332 197.578 85.332 138.668C85.332 79.7578 133.09 32 192 32C250.91 32 298.668 79.7578 298.668 138.668Z" fill="#254596"/>
<path d="M282.668 288H101.332C45.4609 288 0 333.461 0 389.332V464C0 472.832 7.16797 480 16 480H368C376.832 480 384 472.832 384 464V389.332C384 333.461 338.539 288 282.668 288V288Z" fill="#254596"/>
<path d="M506.902 212.266L432.234 142.934C429.227 140.137 425.301 138.688 421.355 138.688C410.773 138.688 405.332 147.691 405.332 154.668V202.668H320C308.203 202.668 298.668 212.223 298.668 224C298.668 235.777 308.203 245.332 320 245.332H405.332V293.332C405.332 302.207 412.543 309.332 421.332 309.332C425.301 309.332 429.207 307.863 432.234 305.066L506.902 235.734C510.145 232.703 512 228.438 512 224C512 219.562 510.145 215.297 506.902 212.266V212.266Z" fill="#254596"/>
</svg>
