<?xml version="1.0" encoding="utf-8"?>
<!-- Generator: Adobe Illustrator 17.0.0, SVG Export Plug-In . SVG Version: 6.00 Build 0)  -->
<!DOCTYPE svg PUBLIC "-//W3C//DTD SVG 1.1//EN" "http://www.w3.org/Graphics/SVG/1.1/DTD/svg11.dtd">
<svg version="1.1" id="Capa_1" xmlns="http://www.w3.org/2000/svg" xmlns:xlink="http://www.w3.org/1999/xlink" x="0px" y="0px"
	 width="280px" height="120px" viewBox="0 0 280 120" enable-background="new 0 0 280 120" xml:space="preserve">
<path fill="#254596" d="M240.116,99.723c-0.195,0-0.441,0.034-0.535,0.076c-0.687,0.28-0.738,1.511-0.068,1.867
	c0.323,0.179,0.925,0.145,1.205-0.059C241.482,101.038,241.058,99.706,240.116,99.723z"/>
<path fill="#254596" d="M125.743,3.995c-2.19-1.146-4.346-1.273-6.45-0.39c-1.256,0.526-2.461,1.536-3.217,2.699
	c-0.382,0.586-0.568,1.035-16.939,40.354c-4.142,9.955-7.562,18.076-7.595,18.034c-0.093-0.093-8.512-20.317-8.512-20.427
	c0-0.051,2.945-7.12,6.543-15.709c3.59-8.588,6.603-15.845,6.696-16.125c0.127-0.416,0.153-0.781,0.153-1.952
	c-0.008-1.341-0.025-1.494-0.246-2.164c-0.9-2.741-3.055-4.685-5.745-5.177c-0.857-0.161-2.3-0.127-3.089,0.085
	c-1.799,0.458-3.488,1.697-4.421,3.233c-0.178,0.297-2.011,4.608-4.065,9.564c-2.054,4.965-3.768,9.03-3.811,9.021
	c-0.042,0-1.553-3.522-3.369-7.833c-1.816-4.311-3.539-8.385-3.819-9.064c-0.73-1.706-1.18-2.453-1.986-3.267
	c-1.095-1.095-2.351-1.646-4.15-1.816c-0.899-0.085-1.986-0.008-2.784,0.204C56.577,3.876,54.642,5.7,53.878,8
	c-0.509,1.519-0.526,2.996-0.068,4.413c0.11,0.339,3.089,7.578,6.628,16.099c3.539,8.521,6.45,15.564,6.467,15.658
	c0.034,0.153-8.206,20.351-8.359,20.512c-0.034,0.034-5.448-12.798-12.017-28.515C39.952,20.45,34.393,7.245,34.181,6.829
	c-0.322-0.636-0.543-0.917-1.281-1.663c-0.806-0.815-0.976-0.942-1.782-1.341c-1.392-0.679-2.639-0.917-4.116-0.764
	c-3.208,0.331-5.839,2.809-6.458,6.068c-0.178,0.95-0.119,2.529,0.119,3.344c0.153,0.543,30.891,74.054,31.307,74.894
	c1.909,3.811,6.9,5.126,10.489,2.758c0.585-0.382,1.612-1.366,1.986-1.918c0.373-0.535,0.883-1.706,5.669-13.061
	c2.69-6.399,4.905-11.635,4.922-11.652c0.008-0.009,2.223,5.279,4.922,11.754c2.69,6.475,5.032,12.025,5.194,12.331
	c1.248,2.3,3.7,3.734,6.39,3.734c2.436,0,4.659-1.18,5.975-3.174c0.28-0.416,0.721-1.315,1.137-2.3
	c8.842-21.021,30.611-73.18,30.712-73.604c0.221-0.883,0.204-2.733-0.042-3.666C128.789,6.566,127.491,4.903,125.743,3.995z"/>
<path fill="#254596" d="M185.378,76.775l-0.696-0.187l-17.075-0.017l-17.084-0.025V65.514V54.481h13.222
	c12.611,0,13.248-0.008,13.986-0.161c2.376-0.492,4.422-2.223,5.321-4.506c0.662-1.68,0.637-3.717-0.059-5.448
	c-0.645-1.587-1.901-2.928-3.488-3.717c-1.655-0.823-0.407-0.764-15.632-0.764h-13.35V28.809V17.734l17.254-0.026
	c19.493-0.025,17.482,0.051,19.111-0.738c1.918-0.925,3.318-2.639,3.879-4.753c0.254-0.951,0.271-2.707,0.034-3.607
	c-0.603-2.308-2.275-4.209-4.481-5.083c-1.401-0.552,0.415-0.509-22.515-0.526c-11.432-0.008-21.098,0.017-21.471,0.059
	c-1.961,0.204-3.743,1.171-4.99,2.707c-0.552,0.687-1.146,1.833-1.392,2.716c-0.144,0.526-0.153,2.028-0.153,38.741v38.189
	l0.246,0.721c0.297,0.891,0.56,1.426,1.027,2.079c0.416,0.586,1.256,1.409,1.85,1.816c0.569,0.39,1.689,0.891,2.393,1.078
	c0.569,0.153,1.401,0.161,22.065,0.161h21.471l0.679-0.195c3.14-0.9,5.271-3.514,5.449-6.679c0.11-2.045-0.594-3.989-1.995-5.482
	C187.991,77.862,186.829,77.166,185.378,76.775z"/>
<path fill="#254596" d="M218.289,88.037c3.717,1.528,8.053,2.614,12.263,3.081c1.952,0.212,7.001,0.212,8.911,0
	c5.618-0.628,10.981-2.206,15.793-4.651c2.096-1.061,3.14-2.062,3.98-3.827c0.543-1.129,0.705-1.867,0.705-3.208
	c0-0.993-0.034-1.239-0.229-1.893c-0.484-1.604-1.333-2.86-2.597-3.836c-1.486-1.146-3.522-1.714-5.338-1.494
	c-1.138,0.144-1.91,0.416-3.752,1.349c-2.953,1.485-5.77,2.342-9.157,2.784c-1.612,0.212-5.083,0.255-6.678,0.085
	c-4.948-0.526-9.293-2.071-13.282-4.719c-1.892-1.247-3.004-2.164-4.617-3.768c-3.08-3.081-5.329-6.552-6.814-10.532
	c-2.758-7.392-2.394-15.743,1.01-22.837c3.92-8.198,11.372-14.139,20.215-16.108c3.81-0.849,8.266-0.891,12.203-0.127
	c2.716,0.526,5.245,1.417,7.604,2.673c1.647,0.866,2.597,1.137,4.065,1.137c3.913,0,7.053-2.868,7.384-6.755
	c0.144-1.672-0.45-3.624-1.536-5.041c-0.858-1.129-1.749-1.791-3.667-2.724c-6.543-3.191-13.935-4.812-20.936-4.6
	c-10.235,0.306-19.901,4.057-27.598,10.702c-2.215,1.918-4.829,4.71-6.56,7.018c-8.606,11.457-11.084,26.639-6.561,40.252
	c2.215,6.679,5.72,12.34,10.761,17.372c2.792,2.801,5.22,4.71,8.529,6.704C213.867,85.958,216.651,87.358,218.289,88.037z"/>
<path fill="#254596" d="M52.673,99.036v6.874v6.874h0.891h0.891v-6.874v-6.874h-0.891H52.673z"/>
<path fill="#254596" d="M64.979,105.205v-6.169H64.13h-0.849v2.766v2.775l-0.365-0.39c-0.73-0.789-2.088-1.163-3.301-0.917
	c-1.578,0.331-2.834,1.647-3.242,3.403c-0.178,0.73-0.178,2.351-0.009,3.013c0.475,1.833,1.655,3.013,3.301,3.285
	c1.315,0.22,2.767-0.348,3.471-1.341l0.272-0.391l0.059,0.374c0.025,0.195,0.059,0.543,0.059,0.763l0.008,0.408h0.772h0.781
	l-0.051-0.705C65.004,111.698,64.979,108.608,64.979,105.205z M62.772,110.56c-0.526,0.73-1.222,1.061-2.173,1.053
	c-1.604-0.017-2.665-1.426-2.665-3.531c0-0.696,0.178-1.519,0.424-2.011c0.331-0.645,1.01-1.256,1.596-1.434
	c0.39-0.119,1.239-0.094,1.655,0.051c0.535,0.178,1.103,0.704,1.392,1.29c0.229,0.458,0.238,0.551,0.263,1.901
	C63.299,109.483,63.214,109.958,62.772,110.56z"/>
<path fill="#254596" d="M190.665,105.714v-6.678h-0.849h-0.849v2.775v2.766l-0.492-0.466c-0.568-0.544-1.213-0.824-2.07-0.892
	c-2.037-0.169-3.777,1.172-4.371,3.378c-0.178,0.679-0.204,2.376-0.034,3.047c0.679,2.715,3.166,4.082,5.491,3.021
	c0.577-0.263,0.916-0.543,1.332-1.086l0.314-0.425v0.62c0,1.035-0.025,1.01,0.866,1.01c0.755,0,0.764,0,0.713-0.195
	C190.69,112.487,190.665,109.398,190.665,105.714z M188.704,110.077c-0.449,0.95-1.315,1.527-2.316,1.536
	c-1.307,0.008-2.19-0.696-2.614-2.08c-0.238-0.789-0.187-2.401,0.093-3.123c0.297-0.746,0.738-1.264,1.358-1.578
	c0.458-0.238,0.619-0.28,1.146-0.28c0.517,0,0.704,0.042,1.137,0.263c0.594,0.297,0.882,0.602,1.196,1.264
	c0.213,0.45,0.221,0.527,0.221,1.995C188.925,109.542,188.917,109.618,188.704,110.077z"/>
<path fill="#254596" d="M225.842,99.375l-0.637,1.035c-0.348,0.569-0.721,1.18-0.832,1.358l-0.195,0.323h0.62h0.619l1.104-1.29
	c0.611-0.705,1.12-1.316,1.128-1.358c0.017-0.034-0.382-0.068-0.891-0.068H225.842z"/>
<path fill="#254596" d="M141.587,111.12c-0.025-0.025-0.263,0.034-0.535,0.128c-1.519,0.509-3.403,0.424-4.659-0.195
	c-1.137-0.561-1.884-1.443-2.308-2.708c-0.204-0.628-0.229-0.823-0.229-1.969c-0.009-1.417,0.093-1.977,0.551-2.902
	c0.306-0.636,0.985-1.4,1.579-1.774c1.307-0.84,3.378-1.027,5.041-0.449c0.28,0.101,0.518,0.161,0.535,0.152
	c0.008-0.017,0.101-0.322,0.203-0.67c0.136-0.475,0.153-0.645,0.077-0.696c-0.264-0.17-1.239-0.407-2.02-0.492
	c-0.951-0.093-1.12-0.093-2.012,0.008c-0.729,0.085-2.011,0.501-2.605,0.84c-2.172,1.256-3.293,3.548-3.157,6.442
	c0.085,1.909,0.603,3.174,1.757,4.345c1.078,1.078,2.206,1.595,3.861,1.765c1.239,0.127,3.106-0.085,3.98-0.45l0.289-0.119
	l-0.153-0.611C141.697,111.426,141.604,111.137,141.587,111.12z"/>
<path fill="#254596" d="M35.089,99.715h-0.874l-0.993,3.844c-0.934,3.598-1.434,5.61-1.689,6.806
	c-0.076,0.357-0.119,0.441-0.144,0.297c-0.119-0.865-0.747-3.7-1.536-6.993c-0.518-2.147-0.942-3.912-0.942-3.929
	c0-0.017-0.399-0.025-0.883-0.025c-0.772,0-0.891,0.017-0.933,0.144c-0.331,1.086-2.47,9.386-2.741,10.676
	c-0.068,0.314-0.093,0.237-0.348-1.019c-0.153-0.746-0.645-2.902-1.086-4.794c-0.441-1.893-0.883-3.794-0.984-4.227l-0.178-0.781
	h-0.883C20.39,99.715,20,99.74,20,99.774c0,0.042,0.73,2.979,1.629,6.535l1.638,6.475h0.9h0.891l1.163-4.269
	c0.645-2.342,1.299-4.837,1.451-5.533l0.28-1.273l0.11,0.636c0.204,1.239,0.441,2.292,1.417,6.348l0.993,4.099l0.891-0.025
	l0.9-0.026l1.842-6.492c1.01-3.573,1.842-6.501,1.85-6.518C35.955,99.723,35.564,99.715,35.089,99.715z"/>
<path fill="#254596" d="M72.871,111.426v-2.376v-2.377h2.546h2.546v-0.721v-0.721h-2.546h-2.546v-2.037v-2.037h2.673h2.673v-0.721
	v-0.721h-3.522h-3.522v6.535v6.535h3.692h3.692v-0.679v-0.679h-2.843H72.871z"/>
<path fill="#254596" d="M218.755,106.419c-0.186-3.013-0.356-5.754-0.39-6.093l-0.051-0.611h-1.069h-1.078l-1.265,3.438
	c-1.145,3.131-1.943,5.465-2.308,6.772c-0.076,0.271-0.153,0.484-0.17,0.467c-0.017-0.026-0.186-0.586-0.373-1.265
	c-0.382-1.341-1.086-3.445-2.359-7.035l-0.824-2.334l-1.077-0.025l-1.07-0.025l-0.051,0.45c-0.033,0.246-0.22,2.953-0.432,6.008
	c-0.204,3.055-0.399,5.797-0.433,6.085l-0.051,0.535h0.806h0.806l0.051-0.535c0.085-0.908,0.382-6.034,0.476-8.249
	c0.05-1.171,0.101-2.24,0.11-2.376c0.008-0.178,0.076-0.034,0.204,0.475c0.356,1.375,0.797,2.758,2.121,6.671l1.324,3.929h0.654
	h0.653l1.434-3.929c0.781-2.156,1.681-4.702,1.986-5.661l0.569-1.74l0.059,1.91c0.026,1.052,0.144,3.547,0.263,5.559
	c0.119,2.002,0.212,3.717,0.212,3.793c0,0.136,0.094,0.153,0.84,0.153h0.849l-0.042-0.45
	C219.103,112.096,218.934,109.432,218.755,106.419z"/>
<path fill="#254596" d="M42.863,103.822c-0.934-0.543-2.453-0.764-3.573-0.509c-2.113,0.484-3.505,2.401-3.505,4.846
	c0,2.461,1.358,4.294,3.522,4.752c0.747,0.161,1.137,0.161,1.944,0c1.816-0.339,3.14-1.621,3.573-3.445
	c0.288-1.223,0.102-2.945-0.433-3.989C44.127,104.942,43.347,104.111,42.863,103.822z M43.168,108.795
	c-0.314,2.19-2.13,3.48-3.819,2.707c-1.154-0.534-1.808-1.731-1.808-3.343c-0.008-1.876,0.781-3.191,2.147-3.616
	c0.356-0.101,1.052-0.085,1.502,0.051C42.549,105.002,43.44,106.894,43.168,108.795z"/>
<path fill="#254596" d="M50.212,103.27c-0.738,0.23-1.477,0.883-1.808,1.604l-0.187,0.399l-0.051-0.891
	c-0.034-0.492-0.059-0.916-0.068-0.959c0-0.034-0.34-0.059-0.747-0.059h-0.73l0.051,1.078c0.034,0.602,0.059,2.715,0.059,4.71v3.632
	h0.849h0.849v-2.826c0-3.106,0.034-3.378,0.518-4.142c0.433-0.679,1.061-1.01,1.918-1.01h0.45V104v-0.806l-0.441,0.008
	C50.628,103.202,50.331,103.236,50.212,103.27z"/>
<path fill="#254596" d="M95.293,103.55c-0.543-0.254-0.721-0.297-1.4-0.322c-0.467-0.017-0.951,0.017-1.205,0.076
	c-0.866,0.229-1.646,0.764-2.139,1.46l-0.178,0.246l-0.059-0.823l-0.059-0.823h-0.772h-0.764l0.051,0.95
	c0.034,0.526,0.059,3.531,0.059,6.662v5.712h0.849h0.849v-2.555v-2.563l0.348,0.391c1.112,1.273,3.454,1.4,4.982,0.28
	c0.823-0.611,1.409-1.536,1.689-2.657c0.195-0.797,0.187-2.435-0.008-3.165C97.168,105.086,96.371,104.06,95.293,103.55z
	 M95.946,108.727c-0.195,1.545-0.874,2.504-2.02,2.843c-1.001,0.289-2.028-0.017-2.75-0.823c-0.552-0.611-0.654-1.018-0.654-2.504
	c0-1.612,0.153-2.13,0.84-2.868c0.552-0.594,1.154-0.832,2.011-0.789c0.467,0.017,0.696,0.076,1.052,0.271
	C95.547,105.468,96.158,107.021,95.946,108.727z"/>
<path fill="#254596" d="M102.676,103.372c-0.552,0.212-1.18,0.815-1.477,1.409c-0.118,0.246-0.237,0.416-0.271,0.39
	c-0.026-0.034-0.051-0.449-0.051-0.933v-0.874h-0.772h-0.781l0.059,0.314c0.025,0.178,0.051,2.3,0.051,4.71v4.396h0.84h0.849
	l0.025-2.954c0.026-2.826,0.034-2.961,0.221-3.42c0.416-1.043,1.265-1.646,2.232-1.587l0.501,0.026v-0.832v-0.823l-0.484,0.008
	C103.338,103.202,102.931,103.279,102.676,103.372z"/>
<path fill="#254596" d="M111.434,104.136c-0.696-0.653-1.239-0.866-2.325-0.908c-0.518-0.017-0.976,0.017-1.29,0.093
	c-0.755,0.187-1.332,0.526-1.901,1.104c-0.917,0.933-1.392,2.24-1.392,3.81c0,0.475,0.06,1.103,0.127,1.4
	c0.382,1.604,1.503,2.775,3.064,3.191c1.01,0.28,3.191,0.136,4.209-0.271c0.281-0.111,0.331-0.17,0.289-0.314
	c-0.025-0.102-0.093-0.374-0.144-0.611l-0.094-0.425l-0.449,0.153c-1.138,0.382-2.648,0.407-3.565,0.068
	c-1.001-0.382-1.672-1.332-1.799-2.554l-0.051-0.501h3.327h3.318v-0.789C112.758,106.079,112.325,104.968,111.434,104.136z
	 M111.146,107.183h-2.504h-2.495l0.051-0.28c0.153-0.824,0.679-1.706,1.222-2.071c0.713-0.467,1.689-0.543,2.427-0.187
	c0.204,0.102,0.501,0.331,0.662,0.526c0.323,0.374,0.637,1.231,0.637,1.723V107.183L111.146,107.183z"/>
<path fill="#254596" d="M119.166,108.294c-0.357-0.331-0.671-0.5-2.317-1.247c-0.849-0.382-1.205-0.883-1.087-1.519
	c0.187-0.993,1.528-1.341,2.945-0.772c0.297,0.118,0.543,0.203,0.552,0.195c0.068-0.094,0.382-1.188,0.348-1.222
	c-0.026-0.026-0.306-0.136-0.628-0.255c-0.637-0.238-2.02-0.339-2.572-0.195c-1.332,0.339-2.172,1.239-2.266,2.419
	c-0.025,0.28,0,0.661,0.051,0.857c0.204,0.746,0.934,1.451,1.961,1.867c1.629,0.662,2.062,1.01,2.172,1.697
	c0.068,0.475-0.195,1.069-0.577,1.298c-0.823,0.501-1.85,0.416-3.42-0.297c-0.051-0.017-0.178,0.23-0.288,0.569
	c-0.23,0.721-0.221,0.747,0.577,1.01c1.137,0.382,2.588,0.373,3.615-0.009c0.365-0.135,0.645-0.322,0.984-0.661
	c0.611-0.612,0.79-1.112,0.739-2.037C119.904,109.211,119.717,108.804,119.166,108.294z"/>
<path fill="#254596" d="M125.403,107.632c-1.808-0.84-2.02-0.959-2.198-1.247c-0.568-0.917,0.187-1.927,1.443-1.918
	c0.484,0.008,1.027,0.127,1.46,0.339c0.195,0.094,0.373,0.145,0.407,0.111c0.076-0.094,0.424-1.154,0.382-1.188
	c-0.017-0.026-0.314-0.136-0.654-0.255c-0.78-0.272-2.011-0.348-2.681-0.153c-0.645,0.179-1.036,0.408-1.435,0.823
	c-0.517,0.535-0.653,0.858-0.696,1.638c-0.034,0.577-0.008,0.747,0.153,1.078c0.263,0.56,0.908,1.129,1.681,1.477
	c2.087,0.942,2.308,1.137,2.308,1.977c0,0.806-0.501,1.29-1.485,1.409c-0.535,0.068-1.502-0.127-2.088-0.424
	c-0.246-0.119-0.45-0.204-0.467-0.187c-0.017,0.017-0.127,0.305-0.237,0.636l-0.213,0.611l0.23,0.119
	c1.663,0.84,4.268,0.594,5.244-0.483c0.509-0.561,0.671-1.01,0.662-1.842c0-0.611-0.034-0.789-0.229-1.154
	C126.702,108.43,126.192,107.997,125.403,107.632z"/>
<path fill="#254596" d="M150.048,109.347c-0.042-3.055-0.102-3.717-0.382-4.362c-0.373-0.857-1.188-1.486-2.181-1.698
	c-0.611-0.127-1.629-0.11-2.351,0.043c-0.577,0.127-1.739,0.594-1.739,0.713c0,0.025,0.076,0.288,0.178,0.577l0.178,0.517
	l0.416-0.203c0.832-0.425,2.147-0.586,2.911-0.365c0.45,0.136,1.027,0.713,1.146,1.137c0.05,0.187,0.093,0.509,0.093,0.721v0.391
	l-0.951,0.051c-2.232,0.118-3.776,0.874-4.396,2.138c-0.178,0.365-0.212,0.543-0.212,1.273c0,0.756,0.026,0.891,0.229,1.273
	c0.289,0.552,0.679,0.917,1.248,1.18c1.205,0.552,2.809,0.271,3.81-0.662c0.229-0.212,0.442-0.365,0.467-0.331
	c0.034,0.025,0.059,0.187,0.059,0.356c0,0.679,0.017,0.688,0.866,0.688h0.764l-0.051-0.238
	C150.116,112.419,150.074,110.976,150.048,109.347z M148.402,108.982c0,0.823-0.026,1.018-0.204,1.383
	c-0.755,1.63-3.098,1.901-3.666,0.424c-0.093-0.254-0.127-0.526-0.102-0.848c0.102-1.188,1.282-1.884,3.233-1.901l0.739-0.009
	V108.982z"/>
<path fill="#254596" d="M157.016,103.236l-0.467-0.017c-0.255-0.017-0.603,0.026-0.773,0.094c-0.738,0.263-1.256,0.738-1.671,1.519
	l-0.229,0.441l-0.043-0.933l-0.042-0.934l-0.756-0.025l-0.755-0.026l0.051,0.705c0.034,0.39,0.059,2.512,0.059,4.71v4.014h0.841
	h0.848l0.026-2.996l0.025-2.987l0.246-0.535c0.289-0.628,0.883-1.205,1.392-1.358c0.178-0.059,0.552-0.102,0.815-0.102h0.483
	l-0.025-0.789L157.016,103.236z"/>
<path fill="#254596" d="M164.806,103.364l-0.059,0.314c-0.026,0.178-0.051,0.509-0.051,0.747c-0.009,0.364-0.026,0.398-0.11,0.254
	c-0.264-0.441-0.985-1.044-1.469-1.23c-0.645-0.247-1.765-0.306-2.384-0.128c-1.621,0.459-2.758,1.765-3.132,3.607
	c-0.467,2.334,0.458,4.625,2.207,5.44c1.51,0.704,3.165,0.45,4.268-0.679l0.476-0.475l-0.051,0.976
	c-0.068,1.476-0.382,2.249-1.121,2.792c-0.517,0.373-1.043,0.518-1.934,0.518c-0.849,0-1.537-0.145-2.258-0.467
	c-0.246-0.119-0.458-0.212-0.467-0.212c-0.017,0-0.11,0.288-0.22,0.645c-0.229,0.729-0.255,0.687,0.509,0.976
	c1.078,0.407,2.631,0.526,3.768,0.288c1.332-0.28,2.3-0.976,2.809-2.028c0.501-1.036,0.535-1.426,0.577-6.654l0.043-4.684h-0.705
	H164.806L164.806,103.364z M164.484,109.432l-0.28,0.568c-0.476,0.968-1.205,1.426-2.266,1.426c-1.426,0-2.436-0.984-2.682-2.622
	c-0.221-1.452,0.204-2.877,1.086-3.65c0.526-0.475,0.942-0.602,1.774-0.577c0.56,0.026,0.755,0.068,1.069,0.255
	c0.476,0.271,0.883,0.73,1.121,1.239c0.161,0.348,0.178,0.543,0.178,1.875V109.432z"/>
<path fill="#254596" d="M174.15,103.44c-0.662-0.229-2.079-0.297-2.767-0.119c-2.062,0.518-3.326,2.198-3.445,4.549
	c-0.119,2.605,1.23,4.557,3.505,5.041c0.764,0.161,1.171,0.161,1.969-0.008c2.274-0.467,3.674-2.309,3.674-4.821
	C177.078,105.791,176.009,104.094,174.15,103.44z M173.573,111.46c-0.874,0.424-1.782,0.339-2.572-0.229
	c-1.34-0.959-1.773-3.369-0.916-5.126c0.653-1.341,1.892-1.91,3.242-1.511c1.179,0.348,1.994,1.765,2.003,3.48
	C175.338,109.652,174.668,110.934,173.573,111.46z"/>
<path fill="#254596" d="M197.726,103.287c-0.603-0.127-1.486-0.11-2.046,0.043c-1.519,0.407-2.707,1.697-3.106,3.352
	c-0.585,2.478,0.289,4.922,2.079,5.788c1.316,0.636,3.285,0.687,4.974,0.136l0.526-0.17l-0.136-0.526
	c-0.068-0.289-0.153-0.56-0.187-0.594c-0.034-0.043-0.348,0.017-0.687,0.127c-0.518,0.161-0.823,0.195-1.731,0.195
	c-1.044,0-1.138-0.017-1.638-0.246c-1.019-0.467-1.715-1.545-1.715-2.648v-0.373l3.293-0.017l3.284-0.026l0.026-0.594
	C200.755,105.519,199.542,103.669,197.726,103.287z M196.554,107.183h-2.52l0.051-0.28c0.136-0.849,0.721-1.774,1.366-2.173
	c0.637-0.399,1.562-0.416,2.317-0.042c0.704,0.339,1.086,0.993,1.248,2.13l0.05,0.365H196.554z"/>
<path fill="#254596" d="M227.004,103.627c-0.815-0.416-2.011-0.543-2.962-0.314c-1.154,0.28-2.147,1.086-2.69,2.181
	c-0.416,0.848-0.56,1.4-0.611,2.452c-0.144,2.555,1.12,4.405,3.361,4.931c0.636,0.144,2.189,0.119,3.004-0.051
	c0.764-0.161,1.324-0.365,1.324-0.484c0-0.042-0.059-0.322-0.136-0.619l-0.136-0.535l-0.305,0.128
	c-0.45,0.186-1.485,0.356-2.181,0.365c-1.918,0.008-3.174-1.104-3.284-2.886l-0.026-0.382l3.284-0.025l3.285-0.017l0.059-0.306
	c0.068-0.373-0.017-1.273-0.187-1.935C228.523,105.036,227.793,104.034,227.004,103.627z M224.84,107.183h-2.503l0.076-0.365
	c0.102-0.416,0.509-1.299,0.73-1.545c0.721-0.806,1.841-1.078,2.809-0.67c0.721,0.297,1.264,1.137,1.358,2.087l0.042,0.493H224.84
	L224.84,107.183z"/>
<path fill="#254596" d="M246.973,103.245c-0.093,0.017-0.382,0.076-0.636,0.127c-1.256,0.246-2.563,1.239-3.115,2.376
	c-0.738,1.503-0.721,3.624,0.043,5.041c0.466,0.866,1.451,1.647,2.486,1.986c0.9,0.289,2.555,0.255,3.666-0.076
	c0.484-0.144,0.569-0.204,0.569-0.365c-0.009-0.297-0.212-1.086-0.28-1.086c-0.034,0-0.323,0.085-0.637,0.178
	c-0.721,0.229-1.918,0.246-2.478,0.042c-1.341-0.483-2.087-1.519-2.181-3.055c-0.11-1.68,0.671-3.097,1.995-3.615
	c0.39-0.153,0.653-0.187,1.374-0.187c0.807,0,1.197,0.068,1.791,0.314c0.11,0.051,0.17-0.042,0.289-0.467
	c0.076-0.297,0.161-0.585,0.186-0.644C250.173,103.483,247.898,103.067,246.973,103.245z"/>
<path fill="#254596" d="M257.064,103.44c-0.662-0.238-2.08-0.297-2.784-0.119c-2.105,0.535-3.445,2.41-3.445,4.838
	c0,2.469,1.349,4.294,3.521,4.752c0.747,0.161,1.206,0.161,1.952,0c2.317-0.492,3.692-2.308,3.692-4.88
	C260,105.799,258.905,104.094,257.064,103.44z M257.106,111.036c-0.526,0.483-1.027,0.678-1.731,0.678
	c-0.722,0-1.239-0.22-1.782-0.763c-1.104-1.104-1.367-3.276-0.594-4.846c0.662-1.341,1.892-1.91,3.241-1.511
	C258.43,105.248,258.982,109.347,257.106,111.036z"/>
<path fill="#254596" d="M85.881,110.28c-0.857-1.256-1.536-2.334-1.519-2.393c0.026-0.059,0.738-1.086,1.578-2.274
	c0.84-1.197,1.528-2.19,1.528-2.215c0-0.017-0.407-0.026-0.908-0.017l-0.916,0.025L85.236,104c-0.221,0.323-0.738,1.12-1.137,1.757
	c-0.399,0.645-0.738,1.171-0.747,1.171c-0.017,0-0.204-0.297-0.433-0.662c-0.221-0.356-0.747-1.163-1.154-1.782l-0.747-1.12h-0.934
	c-0.518,0-0.934,0.017-0.934,0.034c0,0.025,0.603,0.908,1.341,1.977c0.738,1.061,1.451,2.096,1.578,2.291l0.229,0.348L80.925,110
	c-0.755,1.086-1.502,2.156-1.663,2.376l-0.297,0.408h0.967h0.959l0.908-1.426c0.492-0.781,1.01-1.595,1.137-1.825
	c0.136-0.22,0.271-0.398,0.305-0.398c0.034,0,0.11,0.084,0.161,0.186c0.059,0.111,0.577,0.934,1.163,1.825l1.052,1.638h0.976
	c0.755,0,0.951-0.026,0.908-0.111C87.46,112.623,86.73,111.545,85.881,110.28z"/>
<path fill="#254596" d="M236.212,110.195c-0.789-1.171-1.443-2.164-1.451-2.223c-0.009-0.051,0.687-1.095,1.545-2.3
	c0.848-1.214,1.544-2.232,1.544-2.257c0-0.026-0.399-0.051-0.891-0.051h-0.9l-0.916,1.392c-0.501,0.772-1.002,1.57-1.12,1.782
	c-0.111,0.212-0.23,0.39-0.255,0.39c-0.025,0-0.339-0.467-0.687-1.044c-0.357-0.568-0.874-1.358-1.146-1.756l-0.492-0.722
	l-0.959-0.025c-0.764-0.017-0.951,0-0.9,0.085c0.034,0.059,0.747,1.094,1.587,2.299c0.832,1.206,1.502,2.241,1.477,2.292
	c-0.017,0.059-0.747,1.12-1.621,2.368c-0.866,1.247-1.579,2.282-1.579,2.308c0,0.025,0.416,0.051,0.917,0.051h0.916l0.722-1.129
	c0.399-0.611,0.925-1.451,1.171-1.858l0.45-0.739l0.908,1.417c0.501,0.781,1.035,1.621,1.196,1.859l0.297,0.45h0.968h0.959
	l-0.144-0.238C237.723,112.419,237.01,111.358,236.212,110.195z"/>
<path fill="#254596" d="M239.208,103.364v4.71v4.71h0.849h0.848v-4.71v-4.71h-0.848H239.208z"/>
<path fill="#36B0C9" d="M229.559,36.636c0.398-0.505,0.383-0.489-0.003-0.867c-0.264-0.258-0.514-0.474-0.897-0.574
	c-0.394-0.104-0.527-0.56-0.806-0.834c-0.459-0.448-0.446-0.462-0.974-0.088c-0.345,0.245-0.709,0.223-0.823-0.161
	c-0.207-0.697-0.892-0.45-1.291-0.755c-0.24-0.183-0.606-0.11-0.903-0.015c-0.346,0.11-0.501,0.681-0.321,1.088
	c0.332,0.752,0.332,0.752-0.462,0.939c0.069,0.213,0.146,0.423,0.202,0.639c0.039,0.148-0.01,0.285-0.155,0.354
	c-0.173,0.082-0.332,0.041-0.438-0.12c-0.044-0.067-0.028-0.175-0.076-0.237c-0.302-0.39-0.591-0.697-1.18-0.768
	c-0.836-0.101-1.695-0.293-2.429-0.775c-0.458-0.301-0.462-0.472-0.08-0.819c0.547-0.497,1.211-0.774,1.896-1.009
	c0.051-0.017,0.15-0.032,0.157-0.016c0.342,0.767,0.868,0.041,1.287,0.16c0.028,0.077,0.036,0.174,0.088,0.228
	c0.112,0.115,0.287,0.138,0.356-0.007c0.081-0.168-0.087-0.229-0.228-0.259c-0.054-0.011-0.112-0.007-0.167-0.01
	c-0.254-0.406-0.786-0.232-1.174-0.541c0.425-0.182,0.83,0.076,1.175-0.133c0.142-0.085,0.369-0.155,0.21-0.353
	c-0.279-0.347-0.098-0.414,0.215-0.463c0.354-0.056,0.71-0.161,1.045,0.058c0.433,0.284,0.684,0.373,0.963,0.349
	c0.041-0.003,0.088,0.062,0.18,0.133c-0.381,0.309-0.67,0.724-1.254,0.615c-0.119-0.022-0.209,0.096-0.207,0.216
	c0.001,0.112,0.053,0.235,0.203,0.198c0.729-0.18,1.406,0.044,2.044,0.332c0.547,0.247,1.058,0.227,1.609,0.053
	c0.131-0.487-0.561-0.409-0.581-0.851c0.515-0.113,1.138,0.653,1.567-0.21c-0.523-0.108-0.906-0.539-1.466-0.557
	c-0.074-0.002-0.2-0.061-0.209-0.11c-0.128-0.696-0.747-0.565-1.193-0.718c-0.346-0.118-0.737-0.159-1.036-0.349
	c-0.731-0.465-1.517-0.338-2.3-0.331c-0.365,0.003-0.604,0.223-0.819,0.528c-0.227-0.695-0.132-0.855,0.434-0.805
	c0.328,0.029,0.655,0.14,0.993-0.096c-0.231-0.279-0.549-0.106-0.779-0.231c7.499-6.603,21.503-6.624,29.303,1.747
	c-0.446,0.153-0.751,0.47-1.076,0.778c-0.51,0.483-1.068,0.905-1.772,1.119c-0.303,0.092-0.723,0.187-0.601,0.744
	c0.194,0.887,0.568,1.031,1.441,0.48c0.18,0.009,0.181,0.184,0.263,0.286c0.163,0.201-0.028,0.697,0.385,0.636
	c0.432-0.064,1.01,0.057,1.221-0.537c0.081-0.225,0.253-0.369,0.392-0.543c0.096-0.119,0.151-0.259,0.004-0.366
	c-0.55-0.403-0.15-0.537,0.194-0.642c0.277-0.085,0.534-0.175,0.716-0.412c0.071-0.093,0.16-0.173,0.275-0.084
	c0.11,0.084,0.087,0.193-0.002,0.286c-0.059,0.061-0.137,0.107-0.184,0.175c-0.153,0.221-0.069,0.427,0.054,0.629
	c0.125,0.206,0.308,0.221,0.516,0.169c0.261-0.065,0.547-0.243,0.712,0.172c-0.082,0.263-0.318,0.144-0.487,0.182
	c-0.103,0.023-0.271,0.019-0.196,0.168c0.154,0.303,0.012,0.373-0.231,0.305c-0.438-0.123-0.663,0.084-0.732,0.464
	c-0.057,0.317-0.173,0.474-0.496,0.365c-0.295-0.1-0.566-0.014-0.821,0.094c-0.461,0.194-0.878-0.086-1.32-0.084
	c-0.147,0-0.217-0.171-0.236-0.315c-0.029-0.223-0.104-0.381-0.371-0.338c-0.288,0.046-0.359,0.245-0.333,0.494
	c0.011,0.108,0.068,0.212,0.138,0.415c-0.46-0.087-0.809,0.083-1.145,0.35c-0.508,0.403-0.548,0.366-1.007-0.104
	c-0.404-0.415-0.901-0.725-1.003-1.396c-0.036-0.242-0.481-0.488-0.764-0.243c-0.209,0.181-0.798-0.026-0.63,0.453
	c0.142,0.406-0.062,0.364-0.288,0.47c-0.327,0.153-0.642,0.346-0.579,0.813c0.033,0.244,0.124,0.391,0.369,0.324
	c0.324-0.088,0.744-0.188,0.781-0.557c0.071-0.71,0.376-0.385,0.674-0.268c0.003,0.34-0.51,0.395-0.331,0.746
	c0.171,0.336,0.478,0.261,0.796,0.264c0.344,0.003,0.688,0.15,1.062,0.051c-0.504,0.401-1.156,0.342-1.676,0.647
	c0.132,0.204,0.38,0.206,0.573,0.307c0.265,0.138,0.341,0.362,0.28,0.64c-0.07,0.317-0.258,0.497-0.598,0.464
	c-0.309-0.029-0.616-0.076-0.925-0.101c-0.195-0.016-0.398-0.039-0.581,0.061c-0.322,0.177-0.408,1.678-0.074,1.81
	c0.451,0.177,0.871,0.452,1.453,0.217c0.478-0.194,0.975-0.23,1.095-0.854c0.039-0.201,0.216-0.386,0.406-0.392
	c0.483-0.015,0.479-0.701,0.887-0.664c0.406,0.037,0.756,0.067,1.118-0.168c0.206-0.134,0.446-0.04,0.597,0.166
	c0.263,0.358,0.616,0.571,1.04,0.681c0.357,0.093,0.531,0.395,0.735,0.668c0.265-0.645,0.263-0.642-0.307-1.008
	c-0.14-0.09-0.282-0.19-0.394-0.313c-0.165-0.179-0.404-0.304-0.482-0.536c0.163-0.27,0.318-0.126,0.445-0.04
	c0.847,0.569,1.646,1.179,2.096,2.149c0.202,0.436,0.422,0.448,0.767,0.141c0.142-0.126,0.226-0.266,0.071-0.43
	c-0.312-0.33-0.003-0.416,0.206-0.538c0.221-0.128,0.373-0.087,0.422,0.188c0.042,0.238-0.068,0.53,0.21,0.69
	c0.34,0.196,0.666,0.414,1.1,0.365c0.305-0.035,0.618,0.007,0.927,0.001c0.493-0.008,0.585,0.097,0.489,0.584
	c-0.129,0.654-0.496,0.935-1.165,0.897c-0.861-0.049-1.722-0.109-2.546-0.391c-0.328-0.112-0.565,0.058-0.751,0.258
	c-0.356,0.379-0.754,0.395-1.143,0.146c-0.459-0.293-1.026-0.31-1.465-0.638c-0.181-0.135-0.364-0.152-0.142-0.482
	c0.24-0.356-0.122-0.796-0.589-0.715c-1.017,0.177-2.1-0.003-3.053,0.552c-0.16,0.093-0.378,0.104-0.572,0.119
	c-1.017,0.08-1.505,0.45-1.777,1.442c-0.089,0.324-0.303,0.47-0.561,0.577c-0.767,0.32-0.947,1.076-1.301,1.703
	c-0.014,0.024-0.026,0.059-0.018,0.082c0.281,0.784,0.031,1.51-0.174,2.265c-0.105,0.386,0.014,0.846,0.519,1.033
	c0.214,0.079,0.383,0.248,0.491,0.451c0.245,0.464,0.651,0.775,1.033,1.107c0.286,0.249,0.576,0.603,0.979,0.151
	c0.966,0.025,1.892-0.142,2.786-0.524c0.216-0.093,0.457,0.051,0.566,0.271c0.199,0.398,0.442,0.498,0.887,0.338
	c0.439-0.158,0.662,0.126,0.532,0.592c-0.022,0.081-0.077,0.153-0.097,0.234c-0.128,0.543-0.221,1.023,0.314,1.493
	c0.425,0.374,0.751,0.914,0.689,1.575c-0.014,0.151,0.087,0.325,0.17,0.469c0.138,0.236,0.099,0.415-0.094,0.598
	c-0.632,0.595-0.517,1.263-0.148,1.929c0.357,0.641,0.783,1.25,0.709,2.04c-0.007,0.079,0.016,0.178,0.062,0.242
	c0.415,0.573,0.77,1.162,0.872,1.89c0.036,0.255,0.311,0.379,0.6,0.369c0.193-0.007,0.355-0.194,0.677-0.042
	c-3.159,3.723-7.036,6.228-11.739,7.377c-4.93,1.205-9.753,0.833-14.449-1.182c0.126-0.284,0.374-0.173,0.454-0.338
	c-0.178-0.084-0.371-0.145-0.531-0.254c-0.58-0.393-0.595-0.724-0.075-1.193c0.167-0.151,0.339-0.297,0.49-0.463
	c0.072-0.079,0.129-0.242,0-0.292c-0.67-0.259-0.162-0.454,0.026-0.667c0.112-0.127,0.218-0.26,0.338-0.378
	c0.162-0.158,0.23-0.266,0.008-0.466c-0.184-0.166-0.158-0.368,0.181-0.33c0.108,0.012,0.311,0.026,0.314,0.011
	c0.11-0.636,0.642-0.408,1.011-0.5c0.613-0.153,0.817-0.492,0.683-1.232c0.721,0.28,1.133-0.184,1.449-0.669
	c0.199-0.305,0.414-0.554,0.677-0.799c0.252-0.235,0.557-0.496,0.462-0.938c-0.065-0.304,0.143-0.476,0.378-0.592
	c0.302-0.149,0.611-0.354,0.931-0.384c0.855-0.082,1.053-0.722,1.277-1.359c0.037-0.104,0.033-0.222,0.055-0.332
	c0.052-0.259,0.749-1.722,0.898-1.961c0.133-0.213,0.254-0.442,0.333-0.679c0.158-0.472,0.063-0.793-0.387-0.979
	c-0.607-0.251-1.095-0.799-1.855-0.705c-0.209,0.026-0.46-0.189-0.674-0.322c-0.374-0.233-0.737-0.244-1.107-0.005l0.013,0.012
	c-0.015-0.199-0.007-0.427-0.314-0.363c-0.208,0.043-0.372,0.285-0.624,0.138c0.005-0.049-0.007-0.126,0.018-0.141
	c0.672-0.41,0.666-0.404,0.182-1.06c-0.336-0.456-0.716-0.803-1.337-0.688c-0.153,0.028-0.333,0.008-0.384-0.105
	c-0.24-0.535-0.982-0.479-1.201-1.075c-0.074-0.204-0.515-0.429-0.73-0.26c-0.453,0.358-0.842-0.009-1.231-0.041
	c-0.636-0.051-0.629-0.144-0.941,0.425c-0.365-0.207-0.049-0.504-0.092-0.804c-0.503,0.1-0.87,0.36-1.176,0.731
	c-0.197,0.239-0.397,0.4-0.696,0.111c-0.188-0.182-0.407-0.081-0.632-0.013c-0.617,0.186-0.974-0.099-0.957-0.736
	c0.003-0.111,0.054-0.219,0.068-0.33c0.087-0.672-0.086-0.844-0.767-0.765c-0.566,0.066-0.652-0.019-0.563-0.576
	c0.022-0.137,0.05-0.276,0.104-0.403c0.093-0.217,0.371-0.434,0.044-0.649c-0.268-0.177-0.837,0.024-0.988,0.308
	c-0.239,0.45-0.891,0.612-1.315,0.343c-0.567-0.361-0.775-0.87-0.664-1.521c0.018-0.11,0.06-0.217,0.096-0.323
	c0.083-0.241-0.239-0.555,0.154-0.744c0.421-0.202,0.763-0.591,1.308-0.469c0.337,0.075,0.622,0.139,0.984-0.156
	c0.468-0.381,1.411-0.013,1.68,0.548c0.151,0.315,0.4,0.53,0.649,0.827c0.332-0.365,0.163-0.697,0.043-1.026
	c-0.268-0.738-0.267-0.737,0.374-1.209c0.25-0.184,0.497-0.372,0.74-0.564c0.086-0.069,0.236-0.181,0.221-0.234
	c-0.178-0.613,0.484-0.783,0.63-1.221c0.05-0.148,0.158-0.33,0.36-0.309c0.486,0.049,0.7-0.118,0.721-0.641
	c0.011-0.282,0.407-0.236,0.625-0.346c0.246-0.124,0.465-0.224,0.56,0.173c0.027,0.114,0.176,0.153,0.283,0.1
	c0.41-0.203,0.847-0.299,1.292-0.379c0.139-0.025,0.261-0.134,0.206-0.308c-0.063-0.199-0.17-0.197-0.38-0.147
	c-0.322,0.077-0.755-0.21-0.898-0.544c-0.098-0.229-0.232-0.294-0.459-0.236c-0.208,0.053-0.386,0.235-0.634,0.163
	c0.53-0.668,0.714-0.723,1.388-0.318c0.188,0.113,0.299,0.062,0.453-0.011c0.356-0.167,0.742-0.268,1.069-0.5
	c0.139-0.098,0.264-0.049,0.349,0.096c-0.271,0.263-0.585,0.503-0.526,1.009c0.43,0,0.844,0.002,1.257-0.002
	c0.105-0.001,0.21-0.021,0.322-0.034c-0.198-0.515-0.193-0.53-0.534-0.636C229.874,36.915,229.664,36.865,229.559,36.636z
	 M225.245,28.855c0.289,0.17,0.628,0.222,0.845,0.499c0.069,0.089,0.184,0.092,0.307,0.068c0.99-0.193,1.975-0.118,2.839,0.171
	c0.372,0.125,0.667,0.277,0.71,0.725c0.029,0.31,0.171,0.437,0.513,0.274c0.333-0.159,0.596,0.039,0.795,0.306
	c0.104,0.14,0.19,0.324-0.009,0.432c-0.163,0.089-0.236-0.057-0.275-0.209c-0.019-0.075-0.056-0.166-0.115-0.207
	c-0.126-0.087-0.275-0.063-0.399,0.011c-0.094,0.057-0.22,0.225-0.159,0.262c0.459,0.278,0.132,0.852,0.433,1.143
	c0.415,0.4,0.674,0.957,1.25,1.202c0.258,0.11,0.501,0.194,0.781,0.249c0.758,0.149,0.68,0.13,1.086-0.401
	c0.256-0.334,0.459-0.779,0.928-0.946c0.667-0.238,1.453-0.118,2.019-0.666c0.031-0.03,0.109-0.019,0.165-0.016
	c0.71,0.029,1.343-0.268,1.984-0.416c0.058-0.326-0.579-0.298-0.281-0.608c0.243-0.253,0.344,0.109,0.484,0.262
	c0.099,0.107,0.245,0.13,0.39,0.069c0.175-0.073,0.169-0.204,0.106-0.345c-0.21-0.472,0.014-0.626,0.452-0.61
	c0.167,0.006,0.43,0.064,0.434-0.118c0.009-0.349,0.403-0.654,0.159-0.999c-0.251-0.357-0.092-0.579,0.171-0.783
	c0.332-0.258,0.631-0.565,1.036-0.722c0.21-0.081,0.425-0.164,0.477-0.417c-0.062-0.157-0.191-0.198-0.333-0.231
	c-0.461-0.107-0.799,0.131-1.167,0.359c-0.557,0.346-0.822,0.211-0.985-0.426c-0.218-0.853-0.428-1.005-1.356-0.984
	c-0.197,0.004-0.394,0-0.592,0.001c-1.551,0.012-3.102,0.023-4.653,0.037c-0.309,0.003-0.66-0.033-0.849,0.265
	c-0.262,0.41-0.547,0.359-0.857,0.068c-0.353,0.93-0.407,1.004-1.385,0.725c-1.163-0.332-2.067,0.316-2.89,0.842
	C226.644,28.142,226.061,28.637,225.245,28.855z M240.675,33.095c0.509-0.01,0.846-0.31,1.254-0.4
	c0.06-0.013,0.136-0.122,0.139-0.19c0.006-0.116-0.081-0.21-0.199-0.233c-0.162-0.031-0.331-0.074-0.49-0.055
	c-0.498,0.06-0.99,0.145-1.48-0.059c-0.164-0.068-0.348-0.017-0.425,0.161c-0.078,0.182,0.038,0.354,0.183,0.416
	C240.009,32.889,240.38,32.994,240.675,33.095z M224.085,45.571c-1.235-0.942-1.834-1.055-2.369-0.412
	C222.649,44.852,223.338,45.343,224.085,45.571z M224.713,46.05c0.423,0.088,0.739,0.3,1.118,0.215
	c0.131-0.029,0.301-0.011,0.318-0.192c0.014-0.148-0.09-0.264-0.22-0.323C225.509,45.562,225.128,45.605,224.713,46.05z"/>
<path fill="#36B0C9" d="M224.569,66.613c-6.888-3.591-12.623-12.388-11.223-22.363c0.241-0.145,0.331,0.283,0.594,0.15
	c0.171-0.257-0.288-0.538-0.028-0.815c0.663,0.388,1.348,1.184,1.571,1.842c0.046,0.136,0.078,0.279,0.209,0.352
	c0.754,0.422,1.478,0.901,2.305,1.178c0.116,0.039,0.217-0.018,0.316-0.075c0.298-0.174,0.544-0.068,0.749,0.165
	c0.32,0.365,0.757,0.48,1.202,0.558c0.323,0.057,0.659,0.138,0.75,0.461c0.176,0.627,0.737,0.804,1.179,1.12
	c0.207,0.148,0.43,0.263,0.652-0.04c0.152-0.209,0.329-0.122,0.482,0.064c0.466,0.568,0.443,1.259-0.107,1.829
	c-0.325,0.338-0.784,0.58-0.471,1.192c0.146,0.287-0.402,0.51-0.195,0.846c0.16,0.259,0.496,0.367,0.599,0.693
	c0.068,0.213,0.195,0.406,0.292,0.61c0.383,0.809,0.746,1.613,1.683,1.978c0.612,0.238,0.764,0.767,0.645,1.4
	c-0.072,0.386-0.101,0.783-0.116,1.176c-0.011,0.311-0.014,0.6-0.2,0.884c-0.115,0.174-0.167,0.436-0.141,0.646
	c0.047,0.392-0.058,0.74-0.242,1.051c-0.406,0.686-0.306,1.437-0.33,2.171c-0.006,0.166,0.055,0.344-0.058,0.48
	C224.052,64.932,224.263,65.754,224.569,66.613z M214.319,44.625c-0.019-0.034-0.034-0.099-0.066-0.109
	c-0.069-0.021-0.155-0.015-0.116,0.099c0.015,0.042,0.06,0.073,0.091,0.109C214.258,44.691,214.288,44.659,214.319,44.625z"/>
<path fill="#36B0C9" d="M231.941,51.887c-0.002,0.139-0.003,0.28-0.192,0.293c-0.021,0.001-0.064-0.031-0.063-0.046
	c0.01-0.166,0.121-0.222,0.267-0.235C231.954,51.899,231.941,51.887,231.941,51.887z"/>
<path fill="#36B0C9" d="M213.765,43.35c-0.018,0.028-0.043,0.065-0.067,0.102c-0.059-0.041-0.139-0.069-0.171-0.126
	c-0.037-0.066-0.013-0.157,0.092-0.14C213.693,43.198,213.763,43.247,213.765,43.35z"/>
</svg>
