<?xml version="1.0" encoding="utf-8"?>
<!-- Generator: Adobe Illustrator 15.0.0, SVG Export Plug-In . SVG Version: 6.00 Build 0)  -->
<!DOCTYPE svg PUBLIC "-//W3C//DTD SVG 1.1//EN" "http://www.w3.org/Graphics/SVG/1.1/DTD/svg11.dtd">
<svg version="1.1" id="Capa_1" xmlns="http://www.w3.org/2000/svg" xmlns:xlink="http://www.w3.org/1999/xlink" x="0px" y="0px"
	 width="300px" height="300px" viewBox="0 0 300 300" enable-background="new 0 0 300 300" xml:space="preserve">
<g>
	<path fill="#C4DEDE" d="M243.309,157.062c0-52.239-42.35-94.589-94.589-94.589c-52.241,0-94.589,42.35-94.589,94.589
		s42.349,94.588,94.589,94.588C200.959,251.649,243.309,209.301,243.309,157.062"/>
	<g opacity="0.73">
		<g>
			<defs>
				<rect id="SVGID_1_" x="204.069" y="167.452" width="21.904" height="57.801"/>
			</defs>
			<clipPath id="SVGID_2_">
				<use xlink:href="#SVGID_1_"  overflow="visible"/>
			</clipPath>
			<path clip-path="url(#SVGID_2_)" fill="#96C3BC" d="M225.974,179.797V211.6c-3.485,4.93-7.404,9.48-11.738,13.653v-45.456h-0.018
				v-0.107c-0.055-0.235-5.762-4.967-10.148-8.561v-1.987l5.309-1.372c2.186-0.558,4.478-0.38,6.52,0.508
				c0.92,0.396,1.877,0.775,2.835,1.083v4.154c4.388,3.592,7.17,5.939,7.224,6.175v0.107H225.974z"/>
		</g>
	</g>
	<polygon fill="#B2D78D" points="14.097,35.702 41.854,100.829 62.142,86.952 73.898,104.035 76.019,75.216 100.572,60.256 	"/>
	<polygon fill="#849B68" points="66.638,83.868 41.854,100.831 62.141,86.951 73.897,104.035 76.02,75.218 36.895,51.917 	"/>
	<polygon fill="#627549" points="75.5,82.28 36.896,51.916 76.019,75.217 	"/>
	<path fill="#6DAFA5" d="M74.395,112.157c-0.219-1.269-0.497-2.534-0.825-3.764l1.903-0.51c0.345,1.287,0.634,2.611,0.863,3.938
		L74.395,112.157z"/>
	<path fill="#6DAFA5" d="M51.412,156.396c-2.861-0.193-5.598-1.104-7.915-2.64l1.089-1.643c2.031,1.347,4.436,2.146,6.956,2.314
		L51.412,156.396z M59.596,154.79l-0.869-1.769c2.048-1.01,4.031-2.57,5.894-4.643l1.466,1.315
		C64.056,151.956,61.871,153.671,59.596,154.79 M38.014,147.463c-1.112-2.252-1.698-4.727-1.696-7.158
		c0-0.2,0.003-0.399,0.012-0.599l0.023-0.428l1.964,0.144l-0.02,0.36c-0.006,0.176-0.009,0.35-0.009,0.522
		c-0.001,2.13,0.515,4.305,1.493,6.286L38.014,147.463z M114.249,147.013l-0.011-1.971c2.568-0.012,5.208-0.117,7.849-0.312
		l0.145,1.965C119.547,146.893,116.861,147.001,114.249,147.013 M106.255,146.755l-1.257-0.098
		c-2.422-0.202-4.616-0.474-6.708-0.837l0.334-1.94c2.036,0.353,4.174,0.616,6.538,0.814l1.232,0.093L106.255,146.755z
		 M130.17,145.857l-0.266-1.951c2.534-0.346,5.148-0.777,7.764-1.281l0.374,1.934C135.39,145.071,132.741,145.509,130.17,145.857
		 M90.459,143.866c-2.315-0.787-4.487-1.75-6.453-2.859c-0.308-0.173-0.616-0.354-0.922-0.538l1.018-1.688
		c0.287,0.173,0.577,0.344,0.871,0.509c1.863,1.051,3.922,1.963,6.121,2.712L90.459,143.866z M70.795,143.082l-1.709-0.981
		c1.277-2.221,2.37-4.585,3.251-7.025l1.852,0.667C73.271,138.291,72.129,140.761,70.795,143.082 M145.831,142.863l-0.465-1.914
		c2.463-0.599,5.029-1.276,7.621-2.02l0.544,1.896C150.911,141.575,148.32,142.259,145.831,142.863 M161.14,138.5l-0.608-1.873
		c2.505-0.813,4.998-1.663,7.477-2.544l0.657,1.858C166.173,136.827,163.662,137.683,161.14,138.5 M76.505,135.905
		c-1.812-1.322-3.758-2.708-5.866-3.861l-0.658-0.35l0.903-1.75c0.234,0.12,0.47,0.244,0.702,0.37
		c2.21,1.212,4.298,2.698,6.08,3.997L76.505,135.905z M41.077,132.94l-1.376-1.408c1.733-1.699,4.105-2.971,7.252-3.892l0.661,1.86
		C44.717,130.347,42.556,131.494,41.077,132.94 M62.784,129.094c-2.24-0.5-4.539-0.755-6.83-0.755l-0.798,0.009l-0.049-1.969
		c2.712-0.067,5.451,0.195,8.108,0.793L62.784,129.094z M76.271,127.933l-1.94-0.345c0.452-2.546,0.686-5.142,0.7-7.715L77,119.884
		C76.989,122.566,76.743,125.275,76.271,127.933"/>
	<path fill="#6DAFA5" d="M176.209,133.162l-0.7-1.842c1.226-0.468,2.452-0.941,3.674-1.419l0.716,1.836
		C178.672,132.216,177.443,132.692,176.209,133.162"/>
	<path fill="#6DAFA5" d="M238.238,181.183c-1.002,0-1.86-0.76-1.959-1.78c-0.105-1.08,0.688-2.047,1.771-2.148
		c11.908-1.156,22.863-6.841,30.847-16.01c0.716-0.822,1.96-0.902,2.779-0.19c0.82,0.716,0.908,1.959,0.191,2.781
		c-8.647,9.932-20.521,16.089-33.437,17.339C238.366,181.18,238.302,181.183,238.238,181.183"/>
	<path fill="#627549" d="M214.226,179.8l-68.645,40.479L76.937,179.8c0-0.033,0-0.08,0.01-0.113c0.058-0.257,3.846-3.42,9.624-8.112
		c0.056-0.045,0.1-0.09,0.156-0.134c18.956-15.39,58.854-46.907,58.854-46.907s39.899,31.518,58.853,46.907
		c5.869,4.76,9.725,7.979,9.78,8.246C214.226,179.72,214.226,179.767,214.226,179.8"/>
	<path fill="#FFFFFF" d="M173.812,91.01H99.749c-6.352,0-11.501,5.15-11.501,11.501v111.981c0,6.354,5.149,11.502,11.501,11.502
		h92.804c6.352,0,11.502-5.148,11.502-11.502v-93.239L173.812,91.01z"/>
	<path fill="#E6E7E7" d="M173.812,109.75c0,6.353,5.149,11.501,11.502,11.501h18.741l-30.243-30.24V109.75z"/>
	<path fill="#A0C9CB" d="M135.414,109.938h-25.551c-2.264,0-4.098,1.834-4.098,4.098v25.552c0,2.262,1.834,4.097,4.098,4.097h25.551
		c2.262,0,4.097-1.835,4.097-4.097v-25.552C139.511,111.772,137.676,109.938,135.414,109.938"/>
	<path fill="#D9DAD9" d="M170.418,153.063h-61.312c-1.821,0-3.3,1.478-3.3,3.302c0,1.823,1.479,3.301,3.3,3.301h61.312
		c1.822,0,3.301-1.478,3.301-3.301C173.719,154.54,172.24,153.063,170.418,153.063"/>
	<path fill="#D9DAD9" d="M170.418,169.509h-61.312c-1.821,0-3.3,1.478-3.3,3.301s1.479,3.302,3.3,3.302h61.312
		c1.822,0,3.301-1.479,3.301-3.302S172.24,169.509,170.418,169.509"/>
	<path fill="#D9DAD9" d="M142.573,185.462h-33.467c-1.823,0-3.302,1.478-3.302,3.301s1.479,3.302,3.302,3.302h33.467
		c1.823,0,3.301-1.479,3.301-3.302S144.396,185.462,142.573,185.462"/>
	<path fill="#B2D78D" d="M214.232,179.797v65.854c0,4.604-3.763,8.365-8.365,8.365H85.287c-4.602,0-8.341-3.762-8.341-8.365v-65.854
		l68.642,40.474L214.232,179.797z"/>
	<path fill="#849B68" d="M211.912,251.396l-44.182-44.182l-22.143,13.056l-22.15-13.062l-44.185,44.185
		c1.52,1.606,3.655,2.623,6.035,2.623h120.578C208.246,254.017,210.386,253.002,211.912,251.396"/>
	<path fill="#6DAFA5" d="M228.097,89.395c-19.761,1.94-35.546,18.228-36.96,38.033c-0.703,9.855,2.089,19.01,7.233,26.415
		c1.938,2.793,2.255,6.398,0.954,9.535l-3.26,7.844l13.319-3.452c2.171-0.563,4.465-0.386,6.521,0.504
		c6.175,2.68,13.129,3.899,20.437,3.193c19.396-1.878,35.089-17.541,36.963-36.937C275.818,108.51,254.125,86.841,228.097,89.395"/>
	<path fill="#FFFFFF" d="M233.287,151.268l2.267-2.268c0,0-1.801-4.242,5.747-11.397c4.491-4.257,5.497-8.38,5.132-11.752
		c-0.58-5.365-4.964-9.748-10.328-10.328c-3.372-0.366-7.496,0.64-11.754,5.131c-7.153,7.547-11.396,5.747-11.396,5.747
		l-2.266,2.266L233.287,151.268z"/>
	<path fill="#FFFFFF" d="M215.801,137.424c-1.794,2.445-1.592,5.897,0.62,8.108c2.211,2.212,5.662,2.414,8.109,0.621
		L215.801,137.424z"/>
	<path fill="#FFFFFF" d="M248.016,118.272l-1.41,1.411c-1.1-1.747-2.593-3.239-4.351-4.325l1.423-1.424
		c1.203-1.203,3.146-1.203,4.351,0C249.22,115.126,249.22,117.068,248.016,118.272"/>
	<path fill="#62A795" d="M231.156,89.218c14.688,4.398,25.4,18.002,25.4,34.122c0,19.679-15.952,35.631-35.631,35.631
		c-10.365,0-19.668-4.455-26.179-11.521c1.024,2.244,2.229,4.388,3.623,6.396c1.938,2.79,2.255,6.396,0.952,9.532l-3.258,7.846
		l13.319-3.454c2.171-0.561,4.465-0.388,6.521,0.504c6.175,2.68,13.129,3.901,20.437,3.193
		c19.396-1.878,35.089-17.541,36.963-36.937C275.719,109.536,255.798,88.572,231.156,89.218"/>
	<path fill="#849B68" d="M16.449,55.015l9.003,20.66c0.458,1.055-0.027,2.279-1.082,2.733l-0.32,0.138
		c-1.059,0.458-2.288-0.036-2.736-1.099l-8.682-20.799c-0.458-1.091,0.083-2.343,1.193-2.753
		C14.86,53.514,16.01,54.005,16.449,55.015"/>
	<path fill="#C4DEDE" d="M51.72,200.412c-3.656,0-6.618,2.964-6.618,6.617c0,3.659,2.962,6.62,6.618,6.62
		c3.655,0,6.62-2.961,6.62-6.62C58.339,203.376,55.375,200.412,51.72,200.412 M51.72,209.71c-1.48,0-2.679-1.2-2.679-2.681
		c0-1.478,1.199-2.677,2.679-2.677s2.681,1.199,2.681,2.677C54.4,208.51,53.2,209.71,51.72,209.71"/>
	<path fill="#C4DEDE" d="M229.1,227.196c-3.656,0-6.619,2.965-6.619,6.62c0,3.656,2.963,6.621,6.619,6.621s6.621-2.965,6.621-6.621
		C235.721,230.161,232.756,227.196,229.1,227.196 M229.1,236.496c-1.479,0-2.68-1.2-2.68-2.68c0-1.48,1.2-2.68,2.68-2.68
		s2.68,1.199,2.68,2.68C231.779,235.296,230.579,236.496,229.1,236.496"/>
	<path fill="#C4DEDE" d="M283.255,124.388c-2.798,0-5.067,2.27-5.067,5.068s2.27,5.066,5.067,5.066c2.8,0,5.068-2.268,5.068-5.066
		S286.055,124.388,283.255,124.388 M283.255,131.507c-1.132,0-2.051-0.918-2.051-2.051c0-1.134,0.919-2.053,2.051-2.053
		c1.134,0,2.052,0.919,2.052,2.053C285.307,130.589,284.389,131.507,283.255,131.507"/>
	<path fill="#C4DEDE" d="M194.013,43.312c-2.961,0-5.359,2.4-5.359,5.358c0,2.96,2.398,5.359,5.359,5.359
		c2.96,0,5.357-2.399,5.357-5.359C199.37,45.712,196.973,43.312,194.013,43.312 M194.013,50.84c-1.198,0-2.17-0.972-2.17-2.17
		c0-1.197,0.972-2.168,2.17-2.168c1.197,0,2.169,0.971,2.169,2.168C196.182,49.868,195.21,50.84,194.013,50.84"/>
	<path fill="#C4DEDE" d="M22.602,168.17c-3.111,0-5.634,2.522-5.634,5.633c0,3.112,2.522,5.635,5.634,5.635s5.634-2.522,5.634-5.635
		C28.235,170.692,25.713,168.17,22.602,168.17"/>
	<path fill="#C4DEDE" d="M248.644,186.82c-2.263,0-4.098,1.834-4.098,4.099c0,2.263,1.835,4.097,4.098,4.097
		s4.099-1.834,4.099-4.097C252.742,188.654,250.906,186.82,248.644,186.82"/>
	<path fill="#C4DEDE" d="M112.941,44.996c-3.307,0-5.989,2.682-5.989,5.989s2.682,5.989,5.989,5.989
		c3.308,0,5.989-2.682,5.989-5.989S116.25,44.996,112.941,44.996"/>
	<path fill="#C4DEDE" d="M145.004,261.941c-2.41,0-4.365,1.954-4.365,4.365c0,2.409,1.956,4.363,4.365,4.363
		s4.364-1.954,4.364-4.363C149.368,263.896,147.414,261.941,145.004,261.941"/>
	<path fill="#C4DEDE" d="M229.482,68.097c-2.829,0-5.122,2.293-5.122,5.122s2.293,5.122,5.122,5.122
		c2.828,0,5.122-2.293,5.122-5.122S232.311,68.097,229.482,68.097"/>
	<path fill="#C4DEDE" d="M48.044,107.921c-1.61,0-2.916,1.305-2.916,2.915c0,1.611,1.305,2.916,2.916,2.916
		c1.611,0,2.916-1.305,2.916-2.916C50.96,109.226,49.655,107.921,48.044,107.921"/>
	<path fill="#C4DEDE" d="M285.025,98.843c-2.747,0-4.974,2.227-4.974,4.974s2.227,4.975,4.974,4.975s4.975-2.228,4.975-4.975
		S287.772,98.843,285.025,98.843"/>
	<path fill="#C4DEDE" d="M19.807,125.165c-1.753,0-3.173,1.422-3.173,3.174c0,1.753,1.42,3.174,3.173,3.174
		c1.753,0,3.174-1.421,3.174-3.174C22.98,126.587,21.56,125.165,19.807,125.165"/>
	<path fill="#C4DEDE" d="M153.236,34.354l1.994-1.993c0.689-0.691,0.689-1.822,0-2.513c-0.693-0.691-1.824-0.691-2.514,0
		l-1.994,1.993l-1.994-1.993c-0.69-0.691-1.822-0.691-2.512,0c-0.691,0.69-0.691,1.821,0,2.513l1.993,1.993l-1.993,1.993
		c-0.691,0.691-0.691,1.821,0,2.513c0.69,0.691,1.822,0.691,2.512,0l1.994-1.993l1.994,1.993c0.689,0.691,1.82,0.691,2.514,0
		c0.689-0.691,0.689-1.821,0-2.513L153.236,34.354z"/>
	<path fill="#C4DEDE" d="M17.538,94.596l1.994-1.993c0.691-0.691,0.691-1.822,0-2.513s-1.822-0.69-2.513,0l-1.994,1.993
		l-1.993-1.993c-0.69-0.69-1.822-0.69-2.514,0s-0.691,1.821,0,2.513l1.994,1.993l-1.994,1.993c-0.691,0.692-0.691,1.821,0,2.514
		c0.691,0.691,1.824,0.691,2.514,0l1.993-1.994l1.994,1.994c0.69,0.691,1.821,0.691,2.513,0c0.691-0.692,0.691-1.821,0-2.514
		L17.538,94.596z"/>
	<path fill="#C4DEDE" d="M252.654,216.322l1.688-1.688c0.585-0.586,0.585-1.543,0-2.131c-0.586-0.584-1.543-0.584-2.128,0
		l-1.688,1.691l-1.688-1.691c-0.586-0.584-1.543-0.584-2.129,0c-0.585,0.588-0.585,1.545,0,2.131l1.688,1.688l-1.688,1.687
		c-0.585,0.588-0.585,1.545,0,2.131c0.586,0.585,1.543,0.585,2.129,0l1.688-1.688l1.688,1.688c0.585,0.585,1.542,0.585,2.128,0
		c0.585-0.586,0.585-1.543,0-2.131L252.654,216.322z"/>
</g>
</svg>
