<?xml version="1.0" encoding="utf-8"?>
<!-- Generator: Adobe Illustrator 15.0.0, SVG Export Plug-In . SVG Version: 6.00 Build 0)  -->
<!DOCTYPE svg PUBLIC "-//W3C//DTD SVG 1.1//EN" "http://www.w3.org/Graphics/SVG/1.1/DTD/svg11.dtd">
<svg version="1.1" id="Capa_1" xmlns="http://www.w3.org/2000/svg" xmlns:xlink="http://www.w3.org/1999/xlink" x="0px" y="0px"
	 width="300px" height="213.5px" viewBox="0 86.5 300 213.5" enable-background="new 0 86.5 300 213.5" xml:space="preserve">
<g>
	<g>
		<g opacity="0.56">
			<g>
				<defs>
					<rect id="SVGID_1_" x="27.965" y="250.314" width="242.682" height="41.516"/>
				</defs>
				<clipPath id="SVGID_2_">
					<use xlink:href="#SVGID_1_"  overflow="visible"/>
				</clipPath>
				<path clip-path="url(#SVGID_2_)" fill="#B3DCE8" d="M270.646,271.071c0-11.462-54.328-20.757-121.341-20.757
					c-67.015,0-121.341,9.295-121.341,20.757c0,11.464,54.326,20.759,121.341,20.759
					C216.318,291.83,270.646,282.535,270.646,271.071"/>
			</g>
		</g>
	</g>
	<g>
		<path fill="#B2D78D" d="M276.968,95.198L23.386,94.67c-7.183-0.017-13.072,5.852-13.087,13.034l-0.3,143.673
			c-0.017,7.186,5.851,13.076,13.034,13.086l253.578,0.527c7.185,0.016,13.076-5.846,13.085-13.033l0.306-143.67
			C290.019,101.1,284.147,95.211,276.968,95.198"/>
		<path fill="#FFFFFF" d="M262.675,150.686H147.63c-2.691,0-4.892,2.199-4.892,4.887c0,2.689,2.201,4.893,4.892,4.893h115.045
			c2.688,0,4.888-2.203,4.888-4.893C267.563,152.885,265.363,150.686,262.675,150.686"/>
		<path fill="#FFFFFF" d="M236.765,174.803H147.63c-2.693,0-4.888,2.199-4.888,4.887c0,2.691,2.195,4.895,4.888,4.895h89.135
			c2.688,0,4.888-2.203,4.888-4.895C241.652,177.002,239.453,174.803,236.765,174.803"/>
		<path fill="#FFFFFF" d="M224.543,197.779H147.63c-2.691,0-4.892,2.199-4.892,4.887c0,2.686,2.201,4.893,4.892,4.893h76.913
			c2.688,0,4.888-2.207,4.888-4.893C229.431,199.979,227.231,197.779,224.543,197.779"/>
		<path fill="#FFFFFF" d="M95.022,154.758c0,10.533-8.259,19.074-18.442,19.074s-18.442-8.541-18.442-19.074
			c0-10.532,8.259-19.07,18.442-19.07S95.022,144.226,95.022,154.758"/>
		<path fill="#FFFFFF" d="M100.063,187.574l-11.122-3.615c-8.01-2.604-16.635-2.607-24.645-0.014l-11.2,3.629
			c-6.889,2.232-11.56,8.656-11.56,15.896v17.986h27.856h14.374h27.856v-17.986C111.623,196.23,106.955,189.807,100.063,187.574"/>
	</g>
</g>
</svg>
